<?xml version="1.0" encoding="utf-8" standalone="no"?>
<!DOCTYPE svg PUBLIC "-//W3C//DTD SVG 1.1//EN"
  "http://www.w3.org/Graphics/SVG/1.1/DTD/svg11.dtd">
<svg xmlns:xlink="http://www.w3.org/1999/xlink" width="460.8pt" height="345.6pt" viewBox="0 0 460.8 345.6" xmlns="http://www.w3.org/2000/svg" version="1.1">
 <metadata>
  <rdf:RDF xmlns:dc="http://purl.org/dc/elements/1.1/" xmlns:cc="http://creativecommons.org/ns#" xmlns:rdf="http://www.w3.org/1999/02/22-rdf-syntax-ns#">
   <cc:Work>
    <dc:type rdf:resource="http://purl.org/dc/dcmitype/StillImage"/>
    <dc:date>2023-10-29T21:45:31.416128</dc:date>
    <dc:format>image/svg+xml</dc:format>
    <dc:creator>
     <cc:Agent>
      <dc:title>Matplotlib v3.8.0, https://matplotlib.org/</dc:title>
     </cc:Agent>
    </dc:creator>
   </cc:Work>
  </rdf:RDF>
 </metadata>
 <defs>
  <style type="text/css">*{stroke-linejoin: round; stroke-linecap: butt}</style>
 </defs>
 <g id="figure_1">
  <g id="patch_1">
   <path d="M 0 345.6 
L 460.8 345.6 
L 460.8 0 
L 0 0 
z
" style="fill: #ffffff"/>
  </g>
  <g id="axes_1">
   <g id="patch_2">
    <path d="M 57.6 307.584 
L 414.72 307.584 
L 414.72 41.472 
L 57.6 41.472 
z
" style="fill: #ffffff"/>
   </g>
   <g id="matplotlib.axis_1">
    <g id="xtick_1">
     <g id="line2d_1">
      <defs>
       <path id="m8bcd513278" d="M 0 0 
L 0 3.5 
" style="stroke: #000000; stroke-width: 0.8"/>
      </defs>
      <g>
       <use xlink:href="#m8bcd513278" x="73.832727" y="307.584" style="stroke: #000000; stroke-width: 0.8"/>
      </g>
     </g>
     <g id="text_1">
      <!-- 0 -->
      <g transform="translate(70.651477 322.182437) scale(0.1 -0.1)">
       <defs>
        <path id="DejaVuSans-30" d="M 2034 4250 
Q 1547 4250 1301 3770 
Q 1056 3291 1056 2328 
Q 1056 1369 1301 889 
Q 1547 409 2034 409 
Q 2525 409 2770 889 
Q 3016 1369 3016 2328 
Q 3016 3291 2770 3770 
Q 2525 4250 2034 4250 
z
M 2034 4750 
Q 2819 4750 3233 4129 
Q 3647 3509 3647 2328 
Q 3647 1150 3233 529 
Q 2819 -91 2034 -91 
Q 1250 -91 836 529 
Q 422 1150 422 2328 
Q 422 3509 836 4129 
Q 1250 4750 2034 4750 
z
" transform="scale(0.015625)"/>
       </defs>
       <use xlink:href="#DejaVuSans-30"/>
      </g>
     </g>
    </g>
    <g id="xtick_2">
     <g id="line2d_2">
      <g>
       <use xlink:href="#m8bcd513278" x="139.024403" y="307.584" style="stroke: #000000; stroke-width: 0.8"/>
      </g>
     </g>
     <g id="text_2">
      <!-- 50 -->
      <g transform="translate(132.661903 322.182437) scale(0.1 -0.1)">
       <defs>
        <path id="DejaVuSans-35" d="M 691 4666 
L 3169 4666 
L 3169 4134 
L 1269 4134 
L 1269 2991 
Q 1406 3038 1543 3061 
Q 1681 3084 1819 3084 
Q 2600 3084 3056 2656 
Q 3513 2228 3513 1497 
Q 3513 744 3044 326 
Q 2575 -91 1722 -91 
Q 1428 -91 1123 -41 
Q 819 9 494 109 
L 494 744 
Q 775 591 1075 516 
Q 1375 441 1709 441 
Q 2250 441 2565 725 
Q 2881 1009 2881 1497 
Q 2881 1984 2565 2268 
Q 2250 2553 1709 2553 
Q 1456 2553 1204 2497 
Q 953 2441 691 2322 
L 691 4666 
z
" transform="scale(0.015625)"/>
       </defs>
       <use xlink:href="#DejaVuSans-35"/>
       <use xlink:href="#DejaVuSans-30" x="63.623047"/>
      </g>
     </g>
    </g>
    <g id="xtick_3">
     <g id="line2d_3">
      <g>
       <use xlink:href="#m8bcd513278" x="204.216079" y="307.584" style="stroke: #000000; stroke-width: 0.8"/>
      </g>
     </g>
     <g id="text_3">
      <!-- 100 -->
      <g transform="translate(194.672329 322.182437) scale(0.1 -0.1)">
       <defs>
        <path id="DejaVuSans-31" d="M 794 531 
L 1825 531 
L 1825 4091 
L 703 3866 
L 703 4441 
L 1819 4666 
L 2450 4666 
L 2450 531 
L 3481 531 
L 3481 0 
L 794 0 
L 794 531 
z
" transform="scale(0.015625)"/>
       </defs>
       <use xlink:href="#DejaVuSans-31"/>
       <use xlink:href="#DejaVuSans-30" x="63.623047"/>
       <use xlink:href="#DejaVuSans-30" x="127.246094"/>
      </g>
     </g>
    </g>
    <g id="xtick_4">
     <g id="line2d_4">
      <g>
       <use xlink:href="#m8bcd513278" x="269.407755" y="307.584" style="stroke: #000000; stroke-width: 0.8"/>
      </g>
     </g>
     <g id="text_4">
      <!-- 150 -->
      <g transform="translate(259.864005 322.182437) scale(0.1 -0.1)">
       <use xlink:href="#DejaVuSans-31"/>
       <use xlink:href="#DejaVuSans-35" x="63.623047"/>
       <use xlink:href="#DejaVuSans-30" x="127.246094"/>
      </g>
     </g>
    </g>
    <g id="xtick_5">
     <g id="line2d_5">
      <g>
       <use xlink:href="#m8bcd513278" x="334.59943" y="307.584" style="stroke: #000000; stroke-width: 0.8"/>
      </g>
     </g>
     <g id="text_5">
      <!-- 200 -->
      <g transform="translate(325.05568 322.182437) scale(0.1 -0.1)">
       <defs>
        <path id="DejaVuSans-32" d="M 1228 531 
L 3431 531 
L 3431 0 
L 469 0 
L 469 531 
Q 828 903 1448 1529 
Q 2069 2156 2228 2338 
Q 2531 2678 2651 2914 
Q 2772 3150 2772 3378 
Q 2772 3750 2511 3984 
Q 2250 4219 1831 4219 
Q 1534 4219 1204 4116 
Q 875 4013 500 3803 
L 500 4441 
Q 881 4594 1212 4672 
Q 1544 4750 1819 4750 
Q 2544 4750 2975 4387 
Q 3406 4025 3406 3419 
Q 3406 3131 3298 2873 
Q 3191 2616 2906 2266 
Q 2828 2175 2409 1742 
Q 1991 1309 1228 531 
z
" transform="scale(0.015625)"/>
       </defs>
       <use xlink:href="#DejaVuSans-32"/>
       <use xlink:href="#DejaVuSans-30" x="63.623047"/>
       <use xlink:href="#DejaVuSans-30" x="127.246094"/>
      </g>
     </g>
    </g>
    <g id="xtick_6">
     <g id="line2d_6">
      <g>
       <use xlink:href="#m8bcd513278" x="399.791106" y="307.584" style="stroke: #000000; stroke-width: 0.8"/>
      </g>
     </g>
     <g id="text_6">
      <!-- 250 -->
      <g transform="translate(390.247356 322.182437) scale(0.1 -0.1)">
       <use xlink:href="#DejaVuSans-32"/>
       <use xlink:href="#DejaVuSans-35" x="63.623047"/>
       <use xlink:href="#DejaVuSans-30" x="127.246094"/>
      </g>
     </g>
    </g>
   </g>
   <g id="matplotlib.axis_2">
    <g id="ytick_1">
     <g id="line2d_7">
      <defs>
       <path id="mbbae626903" d="M 0 0 
L -3.5 0 
" style="stroke: #000000; stroke-width: 0.8"/>
      </defs>
      <g>
       <use xlink:href="#mbbae626903" x="57.6" y="300.23982" style="stroke: #000000; stroke-width: 0.8"/>
      </g>
     </g>
     <g id="text_7">
      <!-- 30 -->
      <g transform="translate(37.875 304.039038) scale(0.1 -0.1)">
       <defs>
        <path id="DejaVuSans-33" d="M 2597 2516 
Q 3050 2419 3304 2112 
Q 3559 1806 3559 1356 
Q 3559 666 3084 287 
Q 2609 -91 1734 -91 
Q 1441 -91 1130 -33 
Q 819 25 488 141 
L 488 750 
Q 750 597 1062 519 
Q 1375 441 1716 441 
Q 2309 441 2620 675 
Q 2931 909 2931 1356 
Q 2931 1769 2642 2001 
Q 2353 2234 1838 2234 
L 1294 2234 
L 1294 2753 
L 1863 2753 
Q 2328 2753 2575 2939 
Q 2822 3125 2822 3475 
Q 2822 3834 2567 4026 
Q 2313 4219 1838 4219 
Q 1578 4219 1281 4162 
Q 984 4106 628 3988 
L 628 4550 
Q 988 4650 1302 4700 
Q 1616 4750 1894 4750 
Q 2613 4750 3031 4423 
Q 3450 4097 3450 3541 
Q 3450 3153 3228 2886 
Q 3006 2619 2597 2516 
z
" transform="scale(0.015625)"/>
       </defs>
       <use xlink:href="#DejaVuSans-33"/>
       <use xlink:href="#DejaVuSans-30" x="63.623047"/>
      </g>
     </g>
    </g>
    <g id="ytick_2">
     <g id="line2d_8">
      <g>
       <use xlink:href="#mbbae626903" x="57.6" y="262.038734" style="stroke: #000000; stroke-width: 0.8"/>
      </g>
     </g>
     <g id="text_8">
      <!-- 40 -->
      <g transform="translate(37.875 265.837953) scale(0.1 -0.1)">
       <defs>
        <path id="DejaVuSans-34" d="M 2419 4116 
L 825 1625 
L 2419 1625 
L 2419 4116 
z
M 2253 4666 
L 3047 4666 
L 3047 1625 
L 3713 1625 
L 3713 1100 
L 3047 1100 
L 3047 0 
L 2419 0 
L 2419 1100 
L 313 1100 
L 313 1709 
L 2253 4666 
z
" transform="scale(0.015625)"/>
       </defs>
       <use xlink:href="#DejaVuSans-34"/>
       <use xlink:href="#DejaVuSans-30" x="63.623047"/>
      </g>
     </g>
    </g>
    <g id="ytick_3">
     <g id="line2d_9">
      <g>
       <use xlink:href="#mbbae626903" x="57.6" y="223.837649" style="stroke: #000000; stroke-width: 0.8"/>
      </g>
     </g>
     <g id="text_9">
      <!-- 50 -->
      <g transform="translate(37.875 227.636868) scale(0.1 -0.1)">
       <use xlink:href="#DejaVuSans-35"/>
       <use xlink:href="#DejaVuSans-30" x="63.623047"/>
      </g>
     </g>
    </g>
    <g id="ytick_4">
     <g id="line2d_10">
      <g>
       <use xlink:href="#mbbae626903" x="57.6" y="185.636563" style="stroke: #000000; stroke-width: 0.8"/>
      </g>
     </g>
     <g id="text_10">
      <!-- 60 -->
      <g transform="translate(37.875 189.435782) scale(0.1 -0.1)">
       <defs>
        <path id="DejaVuSans-36" d="M 2113 2584 
Q 1688 2584 1439 2293 
Q 1191 2003 1191 1497 
Q 1191 994 1439 701 
Q 1688 409 2113 409 
Q 2538 409 2786 701 
Q 3034 994 3034 1497 
Q 3034 2003 2786 2293 
Q 2538 2584 2113 2584 
z
M 3366 4563 
L 3366 3988 
Q 3128 4100 2886 4159 
Q 2644 4219 2406 4219 
Q 1781 4219 1451 3797 
Q 1122 3375 1075 2522 
Q 1259 2794 1537 2939 
Q 1816 3084 2150 3084 
Q 2853 3084 3261 2657 
Q 3669 2231 3669 1497 
Q 3669 778 3244 343 
Q 2819 -91 2113 -91 
Q 1303 -91 875 529 
Q 447 1150 447 2328 
Q 447 3434 972 4092 
Q 1497 4750 2381 4750 
Q 2619 4750 2861 4703 
Q 3103 4656 3366 4563 
z
" transform="scale(0.015625)"/>
       </defs>
       <use xlink:href="#DejaVuSans-36"/>
       <use xlink:href="#DejaVuSans-30" x="63.623047"/>
      </g>
     </g>
    </g>
    <g id="ytick_5">
     <g id="line2d_11">
      <g>
       <use xlink:href="#mbbae626903" x="57.6" y="147.435478" style="stroke: #000000; stroke-width: 0.8"/>
      </g>
     </g>
     <g id="text_11">
      <!-- 70 -->
      <g transform="translate(37.875 151.234697) scale(0.1 -0.1)">
       <defs>
        <path id="DejaVuSans-37" d="M 525 4666 
L 3525 4666 
L 3525 4397 
L 1831 0 
L 1172 0 
L 2766 4134 
L 525 4134 
L 525 4666 
z
" transform="scale(0.015625)"/>
       </defs>
       <use xlink:href="#DejaVuSans-37"/>
       <use xlink:href="#DejaVuSans-30" x="63.623047"/>
      </g>
     </g>
    </g>
    <g id="ytick_6">
     <g id="line2d_12">
      <g>
       <use xlink:href="#mbbae626903" x="57.6" y="109.234393" style="stroke: #000000; stroke-width: 0.8"/>
      </g>
     </g>
     <g id="text_12">
      <!-- 80 -->
      <g transform="translate(37.875 113.033612) scale(0.1 -0.1)">
       <defs>
        <path id="DejaVuSans-38" d="M 2034 2216 
Q 1584 2216 1326 1975 
Q 1069 1734 1069 1313 
Q 1069 891 1326 650 
Q 1584 409 2034 409 
Q 2484 409 2743 651 
Q 3003 894 3003 1313 
Q 3003 1734 2745 1975 
Q 2488 2216 2034 2216 
z
M 1403 2484 
Q 997 2584 770 2862 
Q 544 3141 544 3541 
Q 544 4100 942 4425 
Q 1341 4750 2034 4750 
Q 2731 4750 3128 4425 
Q 3525 4100 3525 3541 
Q 3525 3141 3298 2862 
Q 3072 2584 2669 2484 
Q 3125 2378 3379 2068 
Q 3634 1759 3634 1313 
Q 3634 634 3220 271 
Q 2806 -91 2034 -91 
Q 1263 -91 848 271 
Q 434 634 434 1313 
Q 434 1759 690 2068 
Q 947 2378 1403 2484 
z
M 1172 3481 
Q 1172 3119 1398 2916 
Q 1625 2713 2034 2713 
Q 2441 2713 2670 2916 
Q 2900 3119 2900 3481 
Q 2900 3844 2670 4047 
Q 2441 4250 2034 4250 
Q 1625 4250 1398 4047 
Q 1172 3844 1172 3481 
z
" transform="scale(0.015625)"/>
       </defs>
       <use xlink:href="#DejaVuSans-38"/>
       <use xlink:href="#DejaVuSans-30" x="63.623047"/>
      </g>
     </g>
    </g>
    <g id="ytick_7">
     <g id="line2d_13">
      <g>
       <use xlink:href="#mbbae626903" x="57.6" y="71.033307" style="stroke: #000000; stroke-width: 0.8"/>
      </g>
     </g>
     <g id="text_13">
      <!-- 90 -->
      <g transform="translate(37.875 74.832526) scale(0.1 -0.1)">
       <defs>
        <path id="DejaVuSans-39" d="M 703 97 
L 703 672 
Q 941 559 1184 500 
Q 1428 441 1663 441 
Q 2288 441 2617 861 
Q 2947 1281 2994 2138 
Q 2813 1869 2534 1725 
Q 2256 1581 1919 1581 
Q 1219 1581 811 2004 
Q 403 2428 403 3163 
Q 403 3881 828 4315 
Q 1253 4750 1959 4750 
Q 2769 4750 3195 4129 
Q 3622 3509 3622 2328 
Q 3622 1225 3098 567 
Q 2575 -91 1691 -91 
Q 1453 -91 1209 -44 
Q 966 3 703 97 
z
M 1959 2075 
Q 2384 2075 2632 2365 
Q 2881 2656 2881 3163 
Q 2881 3666 2632 3958 
Q 2384 4250 1959 4250 
Q 1534 4250 1286 3958 
Q 1038 3666 1038 3163 
Q 1038 2656 1286 2365 
Q 1534 2075 1959 2075 
z
" transform="scale(0.015625)"/>
       </defs>
       <use xlink:href="#DejaVuSans-39"/>
       <use xlink:href="#DejaVuSans-30" x="63.623047"/>
      </g>
     </g>
    </g>
   </g>
   <g id="line2d_14">
    <path d="M 73.832727 295.488 
L 75.136561 255.151161 
L 76.440394 242.78586 
L 77.744228 235.20813 
L 79.048061 229.915377 
L 80.351895 225.959413 
L 81.655728 220.6278 
L 82.959562 218.125206 
L 84.263395 214.246963 
L 85.567229 210.98271 
L 88.174896 205.682185 
L 89.478729 204.120007 
L 90.782563 201.998243 
L 92.086396 199.449016 
L 94.694064 195.586317 
L 95.997897 193.099267 
L 97.301731 191.754706 
L 98.605564 189.687346 
L 99.909398 188.202888 
L 101.213231 186.25988 
L 102.517065 184.930863 
L 103.820898 183.407545 
L 107.732399 179.630338 
L 109.036232 178.278005 
L 110.340066 176.544842 
L 111.643899 175.278001 
L 112.947733 173.692507 
L 114.251566 173.412714 
L 115.5554 171.48525 
L 116.859233 170.459342 
L 118.163067 169.689911 
L 119.4669 167.948976 
L 120.770734 166.674363 
L 122.074567 166.417886 
L 123.378401 164.591459 
L 124.682234 164.125137 
L 125.986068 162.29871 
L 127.289901 161.754668 
L 129.897568 159.189897 
L 131.201402 158.591451 
L 132.505235 157.223574 
L 133.809069 156.570723 
L 136.416736 153.920461 
L 139.024403 152.148438 
L 141.63207 149.801284 
L 142.935904 149.894549 
L 145.543571 147.524079 
L 146.847404 147.267602 
L 148.151238 145.301279 
L 149.455071 144.710604 
L 150.758905 144.803869 
L 152.062738 143.233918 
L 153.366572 142.66656 
L 155.974239 140.404899 
L 157.278072 140.342723 
L 159.885739 138.275363 
L 161.189573 137.840129 
L 162.493406 136.534428 
L 165.101073 134.878985 
L 166.404907 134.179503 
L 167.70874 133.682093 
L 169.012574 132.959294 
L 170.316407 132.10437 
L 171.620241 131.60696 
L 172.924074 130.262399 
L 174.227908 130.402296 
L 176.835575 128.459288 
L 178.139409 127.992966 
L 179.443242 126.55514 
L 180.747076 125.948922 
L 182.050909 125.537004 
L 184.658576 124.075863 
L 185.96241 123.461872 
L 187.266243 123.003322 
L 189.87391 120.555133 
L 191.177744 120.057723 
L 192.481577 120.174303 
L 193.785411 118.2857 
L 195.089244 118.417824 
L 196.393078 118.021451 
L 197.696911 116.816786 
L 199.000745 116.482589 
L 200.304578 116.264972 
L 201.608412 114.866006 
L 202.912245 114.772742 
L 204.216079 114.042171 
L 205.519912 112.961859 
L 206.823746 112.860822 
L 208.127579 111.827142 
L 209.431413 111.726106 
L 210.735246 111.174292 
L 212.03908 110.070663 
L 213.342913 109.169108 
L 215.950581 108.477397 
L 217.254414 107.809002 
L 218.558248 106.573249 
L 219.862081 106.907447 
L 221.165915 106.309 
L 222.469748 105.228688 
L 223.773582 104.871175 
L 226.381249 103.534385 
L 227.685082 103.410033 
L 228.988916 102.492933 
L 230.292749 102.158736 
L 231.596583 101.482569 
L 232.900416 100.666506 
L 234.20425 100.386713 
L 235.508083 99.718318 
L 236.811917 99.508474 
L 238.11575 99.119872 
L 239.419584 98.319353 
L 240.723417 97.69759 
L 242.027251 97.355621 
L 243.331084 96.446293 
L 244.634918 96.329713 
L 245.938751 95.840075 
L 247.242585 96.042148 
L 249.850252 94.200177 
L 251.154085 93.967016 
L 252.457919 93.158724 
L 253.761752 92.52919 
L 255.065586 92.661314 
L 256.369419 91.775303 
L 257.673253 91.324525 
L 258.977087 91.192401 
L 260.28092 90.656131 
L 261.584754 89.801207 
L 262.888587 89.280481 
L 264.192421 88.464418 
L 265.496254 88.347837 
L 268.103921 87.500686 
L 269.407755 87.39965 
L 272.015422 86.264933 
L 273.319255 85.549906 
L 274.623089 85.41001 
L 275.926922 85.122445 
L 277.230756 84.508454 
L 278.534589 83.746795 
L 279.838423 83.614671 
L 281.142256 83.630215 
L 282.44609 82.332286 
L 283.749923 82.262337 
L 285.053757 81.640575 
L 286.35759 81.166481 
L 287.661424 80.902232 
L 288.965257 80.132801 
L 290.269091 80.156117 
L 291.572924 79.720883 
L 292.876758 79.114665 
L 294.180591 79.145753 
L 295.484425 78.44627 
L 296.788258 78.088757 
L 298.092092 77.87114 
L 299.395926 77.319326 
L 300.699759 77.544715 
L 302.003593 75.935904 
L 303.307426 75.76492 
L 304.61126 75.80378 
L 305.915093 75.283054 
L 307.218927 75.112069 
L 309.826594 73.821912 
L 311.130427 73.767508 
L 313.738094 72.7416 
L 315.041928 72.477351 
L 316.345761 72.555071 
L 317.649595 71.630199 
L 318.953428 71.466987 
L 320.257262 71.661287 
L 321.561095 70.930717 
L 322.864929 70.821908 
L 324.168762 69.990301 
L 325.472596 69.966985 
L 326.776429 70.192374 
L 328.080263 69.562839 
L 329.384096 68.420351 
L 330.68793 68.171646 
L 331.991763 68.14833 
L 333.295597 67.852992 
L 334.59943 67.938485 
L 335.903264 67.068017 
L 337.207097 66.69496 
L 338.510931 66.446255 
L 339.814765 65.840036 
L 341.118598 66.228638 
L 342.422432 65.101694 
L 343.726265 65.179414 
L 345.030099 65.008429 
L 347.637766 64.145734 
L 348.941599 63.920345 
L 350.245433 63.578376 
L 351.549266 62.972157 
L 352.8531 62.645732 
L 354.156933 62.109462 
L 355.460767 62.280446 
L 358.068434 61.666456 
L 359.372267 61.891845 
L 361.979934 61.036922 
L 363.283768 61.200134 
L 364.587601 59.894433 
L 365.891435 59.847801 
L 367.195268 60.03433 
L 369.802935 59.490287 
L 372.410602 58.612048 
L 373.714436 58.674224 
L 375.018269 58.130182 
L 376.322103 57.819301 
L 377.625936 57.694948 
L 378.92977 57.298575 
L 380.233604 56.684584 
L 381.537437 56.412563 
L 382.841271 56.303755 
L 384.145104 56.397019 
L 385.448938 56.000646 
L 386.752771 56.062822 
L 388.056605 55.580956 
L 389.360438 55.487692 
L 391.968105 54.438467 
L 393.271939 53.995462 
L 394.575772 54.656084 
L 395.879606 54.632768 
L 398.487273 53.568 
L 398.487273 53.568 
" clip-path="url(#pfcb84605ab)" style="fill: none; stroke: #1f77b4; stroke-width: 1.5; stroke-linecap: square"/>
   </g>
   <g id="line2d_15">
    <path d="M 73.832727 265.171223 
L 75.136561 250.043593 
L 76.440394 243.2438 
L 77.744228 237.666442 
L 80.351895 232.6621 
L 81.655728 230.255431 
L 84.263395 227.695958 
L 85.567229 225.824105 
L 86.871062 225.747703 
L 88.174896 224.869078 
L 89.478729 224.869078 
L 90.782563 223.111828 
L 92.086396 223.341035 
L 94.694064 219.559127 
L 95.997897 219.979339 
L 97.301731 219.406323 
L 98.605564 218.527698 
L 99.909398 218.833307 
L 101.213231 217.840078 
L 102.517065 217.801877 
L 103.820898 216.464839 
L 105.124732 216.885051 
L 106.428565 216.84685 
L 107.732399 216.923252 
L 109.036232 216.808649 
L 110.340066 214.440182 
L 111.643899 214.745791 
L 114.251566 214.669388 
L 115.5554 214.325579 
L 116.859233 214.134573 
L 118.163067 214.36378 
L 119.4669 214.936796 
L 120.770734 213.790763 
L 122.074567 213.33235 
L 123.378401 213.637959 
L 124.682234 212.721133 
L 125.986068 211.19309 
L 127.289901 213.255948 
L 128.593735 211.307693 
L 129.897568 212.186318 
L 131.201402 211.040285 
L 133.809069 211.384095 
L 135.112903 212.453725 
L 136.416736 210.734677 
L 137.72057 210.658274 
L 139.024403 210.696475 
L 140.328237 210.238062 
L 141.63207 209.43584 
L 142.935904 211.269492 
L 144.239737 209.665046 
L 145.543571 208.786421 
L 146.847404 210.658274 
L 148.151238 210.429068 
L 149.455071 210.50547 
L 150.758905 209.970655 
L 152.062738 210.16166 
L 153.366572 208.901024 
L 154.670405 209.817851 
L 155.974239 210.581872 
L 157.278072 210.123459 
L 158.581906 208.328008 
L 159.885739 209.970655 
L 161.189573 209.09203 
L 162.493406 210.123459 
L 163.79724 209.244834 
L 165.101073 210.390867 
L 166.404907 209.474041 
L 167.70874 209.130231 
L 169.012574 209.703247 
L 170.316407 209.703247 
L 171.620241 209.43584 
L 172.924074 210.772878 
L 174.227908 209.474041 
L 175.531742 209.474041 
L 176.835575 209.130231 
L 178.139409 208.939226 
L 179.443242 209.283035 
L 180.747076 209.970655 
L 182.050909 211.231291 
L 183.354743 210.047057 
L 185.96241 210.123459 
L 187.266243 209.894253 
L 188.570077 209.550443 
L 189.87391 208.977427 
L 191.177744 210.50547 
L 192.481577 209.856052 
L 193.785411 208.480813 
L 195.089244 210.50547 
L 196.393078 210.008856 
L 197.696911 210.314465 
L 199.000745 209.168432 
L 200.304578 210.352666 
L 201.608412 211.19309 
L 202.912245 209.43584 
L 204.216079 210.620073 
L 205.519912 209.741448 
L 206.823746 211.116687 
L 208.127579 209.856052 
L 209.431413 209.512242 
L 210.735246 210.123459 
L 212.03908 211.116687 
L 213.342913 209.970655 
L 215.950581 211.307693 
L 217.254414 210.085258 
L 218.558248 210.276264 
L 219.862081 209.970655 
L 221.165915 210.696475 
L 222.469748 210.887481 
L 223.773582 211.384095 
L 225.077415 210.925682 
L 226.381249 209.283035 
L 227.685082 211.19309 
L 228.988916 209.09203 
L 230.292749 211.804307 
L 231.596583 210.620073 
L 232.900416 210.581872 
L 234.20425 210.658274 
L 235.508083 211.040285 
L 236.811917 210.581872 
L 238.11575 211.536899 
L 239.419584 211.384095 
L 240.723417 210.085258 
L 242.027251 210.008856 
L 243.331084 210.314465 
L 244.634918 210.772878 
L 245.938751 210.84928 
L 247.242585 210.620073 
L 248.546418 211.880709 
L 249.850252 212.530128 
L 251.154085 210.925682 
L 252.457919 209.856052 
L 253.761752 211.078486 
L 255.065586 210.467269 
L 256.369419 212.186318 
L 257.673253 211.91891 
L 258.977087 211.766106 
L 260.28092 211.002084 
L 261.584754 211.5751 
L 262.888587 211.995312 
L 264.192421 210.734677 
L 265.496254 212.60653 
L 266.800088 212.95034 
L 268.103921 212.26272 
L 269.407755 211.116687 
L 270.711588 212.148117 
L 272.015422 211.91891 
L 273.319255 211.460497 
L 274.623089 211.19309 
L 275.926922 211.498698 
L 277.230756 212.530128 
L 278.534589 213.064943 
L 279.838423 211.19309 
L 281.142256 212.60653 
L 282.44609 212.071715 
L 283.749923 212.377323 
L 285.053757 211.689704 
L 286.35759 212.109916 
L 287.661424 211.842508 
L 288.965257 212.339122 
L 290.269091 212.186318 
L 291.572924 211.651503 
L 292.876758 211.804307 
L 295.484425 213.064943 
L 296.788258 212.339122 
L 298.092092 211.19309 
L 299.395926 211.154889 
L 300.699759 212.797535 
L 302.003593 213.637959 
L 303.307426 212.453725 
L 304.61126 212.415524 
L 305.915093 212.224519 
L 307.218927 212.186318 
L 308.52276 211.91891 
L 309.826594 213.523356 
L 311.130427 212.186318 
L 312.434261 212.797535 
L 313.738094 212.377323 
L 315.041928 212.835736 
L 316.345761 213.599758 
L 318.953428 212.873937 
L 320.257262 213.905367 
L 321.561095 213.523356 
L 322.864929 212.453725 
L 324.168762 213.828964 
L 325.472596 214.478383 
L 326.776429 213.714361 
L 328.080263 214.287378 
L 329.384096 214.249176 
L 330.68793 213.103144 
L 333.295597 214.210975 
L 334.59943 213.255948 
L 335.903264 213.867166 
L 337.207097 215.0896 
L 338.510931 212.759334 
L 339.814765 213.981769 
L 341.118598 214.325579 
L 342.422432 214.822193 
L 343.726265 214.745791 
L 345.030099 214.36378 
L 346.333932 214.134573 
L 347.637766 214.592986 
L 350.245433 212.95034 
L 351.549266 214.401981 
L 352.8531 215.280606 
L 354.156933 213.255948 
L 355.460767 215.357008 
L 356.7646 213.828964 
L 358.068434 215.357008 
L 360.676101 214.36378 
L 361.979934 216.235633 
L 363.283768 215.318807 
L 364.587601 215.204204 
L 365.891435 216.159231 
L 367.195268 215.127801 
L 368.499102 215.815421 
L 369.802935 213.446954 
L 371.106769 215.318807 
L 372.410602 215.662617 
L 375.018269 215.853622 
L 376.322103 216.923252 
L 377.625936 214.898595 
L 378.92977 215.930024 
L 380.233604 215.739019 
L 381.537437 216.235633 
L 382.841271 215.242405 
L 384.145104 216.159231 
L 385.448938 215.43341 
L 388.056605 216.426638 
L 390.664272 215.471611 
L 391.968105 216.770448 
L 393.271939 216.464839 
L 394.575772 217.037856 
L 395.879606 215.739019 
L 397.183439 215.891823 
L 398.487273 215.624416 
L 398.487273 215.624416 
" clip-path="url(#pfcb84605ab)" style="fill: none; stroke: #ff7f0e; stroke-width: 1.5; stroke-linecap: square"/>
   </g>
   <g id="patch_3">
    <path d="M 57.6 307.584 
L 57.6 41.472 
" style="fill: none; stroke: #000000; stroke-width: 0.8; stroke-linejoin: miter; stroke-linecap: square"/>
   </g>
   <g id="patch_4">
    <path d="M 414.72 307.584 
L 414.72 41.472 
" style="fill: none; stroke: #000000; stroke-width: 0.8; stroke-linejoin: miter; stroke-linecap: square"/>
   </g>
   <g id="patch_5">
    <path d="M 57.6 307.584 
L 414.72 307.584 
" style="fill: none; stroke: #000000; stroke-width: 0.8; stroke-linejoin: miter; stroke-linecap: square"/>
   </g>
   <g id="patch_6">
    <path d="M 57.6 41.472 
L 414.72 41.472 
" style="fill: none; stroke: #000000; stroke-width: 0.8; stroke-linejoin: miter; stroke-linecap: square"/>
   </g>
   <g id="legend_1">
    <g id="patch_7">
     <path d="M 64.6 79.3845 
L 169.99375 79.3845 
Q 171.99375 79.3845 171.99375 77.3845 
L 171.99375 48.472 
Q 171.99375 46.472 169.99375 46.472 
L 64.6 46.472 
Q 62.6 46.472 62.6 48.472 
L 62.6 77.3845 
Q 62.6 79.3845 64.6 79.3845 
z
" style="fill: #ffffff; opacity: 0.8; stroke: #cccccc; stroke-linejoin: miter"/>
    </g>
    <g id="line2d_16">
     <path d="M 66.6 54.570438 
L 76.6 54.570438 
L 86.6 54.570438 
" style="fill: none; stroke: #1f77b4; stroke-width: 1.5; stroke-linecap: square"/>
    </g>
    <g id="text_14">
     <!-- train_accuracy -->
     <g transform="translate(94.6 58.070438) scale(0.1 -0.1)">
      <defs>
       <path id="DejaVuSans-74" d="M 1172 4494 
L 1172 3500 
L 2356 3500 
L 2356 3053 
L 1172 3053 
L 1172 1153 
Q 1172 725 1289 603 
Q 1406 481 1766 481 
L 2356 481 
L 2356 0 
L 1766 0 
Q 1100 0 847 248 
Q 594 497 594 1153 
L 594 3053 
L 172 3053 
L 172 3500 
L 594 3500 
L 594 4494 
L 1172 4494 
z
" transform="scale(0.015625)"/>
       <path id="DejaVuSans-72" d="M 2631 2963 
Q 2534 3019 2420 3045 
Q 2306 3072 2169 3072 
Q 1681 3072 1420 2755 
Q 1159 2438 1159 1844 
L 1159 0 
L 581 0 
L 581 3500 
L 1159 3500 
L 1159 2956 
Q 1341 3275 1631 3429 
Q 1922 3584 2338 3584 
Q 2397 3584 2469 3576 
Q 2541 3569 2628 3553 
L 2631 2963 
z
" transform="scale(0.015625)"/>
       <path id="DejaVuSans-61" d="M 2194 1759 
Q 1497 1759 1228 1600 
Q 959 1441 959 1056 
Q 959 750 1161 570 
Q 1363 391 1709 391 
Q 2188 391 2477 730 
Q 2766 1069 2766 1631 
L 2766 1759 
L 2194 1759 
z
M 3341 1997 
L 3341 0 
L 2766 0 
L 2766 531 
Q 2569 213 2275 61 
Q 1981 -91 1556 -91 
Q 1019 -91 701 211 
Q 384 513 384 1019 
Q 384 1609 779 1909 
Q 1175 2209 1959 2209 
L 2766 2209 
L 2766 2266 
Q 2766 2663 2505 2880 
Q 2244 3097 1772 3097 
Q 1472 3097 1187 3025 
Q 903 2953 641 2809 
L 641 3341 
Q 956 3463 1253 3523 
Q 1550 3584 1831 3584 
Q 2591 3584 2966 3190 
Q 3341 2797 3341 1997 
z
" transform="scale(0.015625)"/>
       <path id="DejaVuSans-69" d="M 603 3500 
L 1178 3500 
L 1178 0 
L 603 0 
L 603 3500 
z
M 603 4863 
L 1178 4863 
L 1178 4134 
L 603 4134 
L 603 4863 
z
" transform="scale(0.015625)"/>
       <path id="DejaVuSans-6e" d="M 3513 2113 
L 3513 0 
L 2938 0 
L 2938 2094 
Q 2938 2591 2744 2837 
Q 2550 3084 2163 3084 
Q 1697 3084 1428 2787 
Q 1159 2491 1159 1978 
L 1159 0 
L 581 0 
L 581 3500 
L 1159 3500 
L 1159 2956 
Q 1366 3272 1645 3428 
Q 1925 3584 2291 3584 
Q 2894 3584 3203 3211 
Q 3513 2838 3513 2113 
z
" transform="scale(0.015625)"/>
       <path id="DejaVuSans-5f" d="M 3263 -1063 
L 3263 -1509 
L -63 -1509 
L -63 -1063 
L 3263 -1063 
z
" transform="scale(0.015625)"/>
       <path id="DejaVuSans-63" d="M 3122 3366 
L 3122 2828 
Q 2878 2963 2633 3030 
Q 2388 3097 2138 3097 
Q 1578 3097 1268 2742 
Q 959 2388 959 1747 
Q 959 1106 1268 751 
Q 1578 397 2138 397 
Q 2388 397 2633 464 
Q 2878 531 3122 666 
L 3122 134 
Q 2881 22 2623 -34 
Q 2366 -91 2075 -91 
Q 1284 -91 818 406 
Q 353 903 353 1747 
Q 353 2603 823 3093 
Q 1294 3584 2113 3584 
Q 2378 3584 2631 3529 
Q 2884 3475 3122 3366 
z
" transform="scale(0.015625)"/>
       <path id="DejaVuSans-75" d="M 544 1381 
L 544 3500 
L 1119 3500 
L 1119 1403 
Q 1119 906 1312 657 
Q 1506 409 1894 409 
Q 2359 409 2629 706 
Q 2900 1003 2900 1516 
L 2900 3500 
L 3475 3500 
L 3475 0 
L 2900 0 
L 2900 538 
Q 2691 219 2414 64 
Q 2138 -91 1772 -91 
Q 1169 -91 856 284 
Q 544 659 544 1381 
z
M 1991 3584 
L 1991 3584 
z
" transform="scale(0.015625)"/>
       <path id="DejaVuSans-79" d="M 2059 -325 
Q 1816 -950 1584 -1140 
Q 1353 -1331 966 -1331 
L 506 -1331 
L 506 -850 
L 844 -850 
Q 1081 -850 1212 -737 
Q 1344 -625 1503 -206 
L 1606 56 
L 191 3500 
L 800 3500 
L 1894 763 
L 2988 3500 
L 3597 3500 
L 2059 -325 
z
" transform="scale(0.015625)"/>
      </defs>
      <use xlink:href="#DejaVuSans-74"/>
      <use xlink:href="#DejaVuSans-72" x="39.208984"/>
      <use xlink:href="#DejaVuSans-61" x="80.322266"/>
      <use xlink:href="#DejaVuSans-69" x="141.601562"/>
      <use xlink:href="#DejaVuSans-6e" x="169.384766"/>
      <use xlink:href="#DejaVuSans-5f" x="232.763672"/>
      <use xlink:href="#DejaVuSans-61" x="282.763672"/>
      <use xlink:href="#DejaVuSans-63" x="344.042969"/>
      <use xlink:href="#DejaVuSans-63" x="399.023438"/>
      <use xlink:href="#DejaVuSans-75" x="454.003906"/>
      <use xlink:href="#DejaVuSans-72" x="517.382812"/>
      <use xlink:href="#DejaVuSans-61" x="558.496094"/>
      <use xlink:href="#DejaVuSans-63" x="619.775391"/>
      <use xlink:href="#DejaVuSans-79" x="674.755859"/>
     </g>
    </g>
    <g id="line2d_17">
     <path d="M 66.6 69.526688 
L 76.6 69.526688 
L 86.6 69.526688 
" style="fill: none; stroke: #ff7f0e; stroke-width: 1.5; stroke-linecap: square"/>
    </g>
    <g id="text_15">
     <!-- test_accuracy -->
     <g transform="translate(94.6 73.026688) scale(0.1 -0.1)">
      <defs>
       <path id="DejaVuSans-65" d="M 3597 1894 
L 3597 1613 
L 953 1613 
Q 991 1019 1311 708 
Q 1631 397 2203 397 
Q 2534 397 2845 478 
Q 3156 559 3463 722 
L 3463 178 
Q 3153 47 2828 -22 
Q 2503 -91 2169 -91 
Q 1331 -91 842 396 
Q 353 884 353 1716 
Q 353 2575 817 3079 
Q 1281 3584 2069 3584 
Q 2775 3584 3186 3129 
Q 3597 2675 3597 1894 
z
M 3022 2063 
Q 3016 2534 2758 2815 
Q 2500 3097 2075 3097 
Q 1594 3097 1305 2825 
Q 1016 2553 972 2059 
L 3022 2063 
z
" transform="scale(0.015625)"/>
       <path id="DejaVuSans-73" d="M 2834 3397 
L 2834 2853 
Q 2591 2978 2328 3040 
Q 2066 3103 1784 3103 
Q 1356 3103 1142 2972 
Q 928 2841 928 2578 
Q 928 2378 1081 2264 
Q 1234 2150 1697 2047 
L 1894 2003 
Q 2506 1872 2764 1633 
Q 3022 1394 3022 966 
Q 3022 478 2636 193 
Q 2250 -91 1575 -91 
Q 1294 -91 989 -36 
Q 684 19 347 128 
L 347 722 
Q 666 556 975 473 
Q 1284 391 1588 391 
Q 1994 391 2212 530 
Q 2431 669 2431 922 
Q 2431 1156 2273 1281 
Q 2116 1406 1581 1522 
L 1381 1569 
Q 847 1681 609 1914 
Q 372 2147 372 2553 
Q 372 3047 722 3315 
Q 1072 3584 1716 3584 
Q 2034 3584 2315 3537 
Q 2597 3491 2834 3397 
z
" transform="scale(0.015625)"/>
      </defs>
      <use xlink:href="#DejaVuSans-74"/>
      <use xlink:href="#DejaVuSans-65" x="39.208984"/>
      <use xlink:href="#DejaVuSans-73" x="100.732422"/>
      <use xlink:href="#DejaVuSans-74" x="152.832031"/>
      <use xlink:href="#DejaVuSans-5f" x="192.041016"/>
      <use xlink:href="#DejaVuSans-61" x="242.041016"/>
      <use xlink:href="#DejaVuSans-63" x="303.320312"/>
      <use xlink:href="#DejaVuSans-63" x="358.300781"/>
      <use xlink:href="#DejaVuSans-75" x="413.28125"/>
      <use xlink:href="#DejaVuSans-72" x="476.660156"/>
      <use xlink:href="#DejaVuSans-61" x="517.773438"/>
      <use xlink:href="#DejaVuSans-63" x="579.052734"/>
      <use xlink:href="#DejaVuSans-79" x="634.033203"/>
     </g>
    </g>
   </g>
  </g>
 </g>
 <defs>
  <clipPath id="pfcb84605ab">
   <rect x="57.6" y="41.472" width="357.12" height="266.112"/>
  </clipPath>
 </defs>
</svg>
