<?xml version="1.0" encoding="utf-8" standalone="no"?>
<!DOCTYPE svg PUBLIC "-//W3C//DTD SVG 1.1//EN"
  "http://www.w3.org/Graphics/SVG/1.1/DTD/svg11.dtd">
<svg xmlns:xlink="http://www.w3.org/1999/xlink" width="460.8pt" height="345.6pt" viewBox="0 0 460.8 345.6" xmlns="http://www.w3.org/2000/svg" version="1.1">
 <metadata>
  <rdf:RDF xmlns:dc="http://purl.org/dc/elements/1.1/" xmlns:cc="http://creativecommons.org/ns#" xmlns:rdf="http://www.w3.org/1999/02/22-rdf-syntax-ns#">
   <cc:Work>
    <dc:type rdf:resource="http://purl.org/dc/dcmitype/StillImage"/>
    <dc:date>2023-10-29T21:45:05.397136</dc:date>
    <dc:format>image/svg+xml</dc:format>
    <dc:creator>
     <cc:Agent>
      <dc:title>Matplotlib v3.8.0, https://matplotlib.org/</dc:title>
     </cc:Agent>
    </dc:creator>
   </cc:Work>
  </rdf:RDF>
 </metadata>
 <defs>
  <style type="text/css">*{stroke-linejoin: round; stroke-linecap: butt}</style>
 </defs>
 <g id="figure_1">
  <g id="patch_1">
   <path d="M 0 345.6 
L 460.8 345.6 
L 460.8 0 
L 0 0 
z
" style="fill: #ffffff"/>
  </g>
  <g id="axes_1">
   <g id="patch_2">
    <path d="M 57.6 307.584 
L 414.72 307.584 
L 414.72 41.472 
L 57.6 41.472 
z
" style="fill: #ffffff"/>
   </g>
   <g id="matplotlib.axis_1">
    <g id="xtick_1">
     <g id="line2d_1">
      <defs>
       <path id="m6ae6110838" d="M 0 0 
L 0 3.5 
" style="stroke: #000000; stroke-width: 0.8"/>
      </defs>
      <g>
       <use xlink:href="#m6ae6110838" x="73.832727" y="307.584" style="stroke: #000000; stroke-width: 0.8"/>
      </g>
     </g>
     <g id="text_1">
      <!-- 0 -->
      <g transform="translate(70.651477 322.182437) scale(0.1 -0.1)">
       <defs>
        <path id="DejaVuSans-30" d="M 2034 4250 
Q 1547 4250 1301 3770 
Q 1056 3291 1056 2328 
Q 1056 1369 1301 889 
Q 1547 409 2034 409 
Q 2525 409 2770 889 
Q 3016 1369 3016 2328 
Q 3016 3291 2770 3770 
Q 2525 4250 2034 4250 
z
M 2034 4750 
Q 2819 4750 3233 4129 
Q 3647 3509 3647 2328 
Q 3647 1150 3233 529 
Q 2819 -91 2034 -91 
Q 1250 -91 836 529 
Q 422 1150 422 2328 
Q 422 3509 836 4129 
Q 1250 4750 2034 4750 
z
" transform="scale(0.015625)"/>
       </defs>
       <use xlink:href="#DejaVuSans-30"/>
      </g>
     </g>
    </g>
    <g id="xtick_2">
     <g id="line2d_2">
      <g>
       <use xlink:href="#m6ae6110838" x="139.024403" y="307.584" style="stroke: #000000; stroke-width: 0.8"/>
      </g>
     </g>
     <g id="text_2">
      <!-- 50 -->
      <g transform="translate(132.661903 322.182437) scale(0.1 -0.1)">
       <defs>
        <path id="DejaVuSans-35" d="M 691 4666 
L 3169 4666 
L 3169 4134 
L 1269 4134 
L 1269 2991 
Q 1406 3038 1543 3061 
Q 1681 3084 1819 3084 
Q 2600 3084 3056 2656 
Q 3513 2228 3513 1497 
Q 3513 744 3044 326 
Q 2575 -91 1722 -91 
Q 1428 -91 1123 -41 
Q 819 9 494 109 
L 494 744 
Q 775 591 1075 516 
Q 1375 441 1709 441 
Q 2250 441 2565 725 
Q 2881 1009 2881 1497 
Q 2881 1984 2565 2268 
Q 2250 2553 1709 2553 
Q 1456 2553 1204 2497 
Q 953 2441 691 2322 
L 691 4666 
z
" transform="scale(0.015625)"/>
       </defs>
       <use xlink:href="#DejaVuSans-35"/>
       <use xlink:href="#DejaVuSans-30" x="63.623047"/>
      </g>
     </g>
    </g>
    <g id="xtick_3">
     <g id="line2d_3">
      <g>
       <use xlink:href="#m6ae6110838" x="204.216079" y="307.584" style="stroke: #000000; stroke-width: 0.8"/>
      </g>
     </g>
     <g id="text_3">
      <!-- 100 -->
      <g transform="translate(194.672329 322.182437) scale(0.1 -0.1)">
       <defs>
        <path id="DejaVuSans-31" d="M 794 531 
L 1825 531 
L 1825 4091 
L 703 3866 
L 703 4441 
L 1819 4666 
L 2450 4666 
L 2450 531 
L 3481 531 
L 3481 0 
L 794 0 
L 794 531 
z
" transform="scale(0.015625)"/>
       </defs>
       <use xlink:href="#DejaVuSans-31"/>
       <use xlink:href="#DejaVuSans-30" x="63.623047"/>
       <use xlink:href="#DejaVuSans-30" x="127.246094"/>
      </g>
     </g>
    </g>
    <g id="xtick_4">
     <g id="line2d_4">
      <g>
       <use xlink:href="#m6ae6110838" x="269.407755" y="307.584" style="stroke: #000000; stroke-width: 0.8"/>
      </g>
     </g>
     <g id="text_4">
      <!-- 150 -->
      <g transform="translate(259.864005 322.182437) scale(0.1 -0.1)">
       <use xlink:href="#DejaVuSans-31"/>
       <use xlink:href="#DejaVuSans-35" x="63.623047"/>
       <use xlink:href="#DejaVuSans-30" x="127.246094"/>
      </g>
     </g>
    </g>
    <g id="xtick_5">
     <g id="line2d_5">
      <g>
       <use xlink:href="#m6ae6110838" x="334.59943" y="307.584" style="stroke: #000000; stroke-width: 0.8"/>
      </g>
     </g>
     <g id="text_5">
      <!-- 200 -->
      <g transform="translate(325.05568 322.182437) scale(0.1 -0.1)">
       <defs>
        <path id="DejaVuSans-32" d="M 1228 531 
L 3431 531 
L 3431 0 
L 469 0 
L 469 531 
Q 828 903 1448 1529 
Q 2069 2156 2228 2338 
Q 2531 2678 2651 2914 
Q 2772 3150 2772 3378 
Q 2772 3750 2511 3984 
Q 2250 4219 1831 4219 
Q 1534 4219 1204 4116 
Q 875 4013 500 3803 
L 500 4441 
Q 881 4594 1212 4672 
Q 1544 4750 1819 4750 
Q 2544 4750 2975 4387 
Q 3406 4025 3406 3419 
Q 3406 3131 3298 2873 
Q 3191 2616 2906 2266 
Q 2828 2175 2409 1742 
Q 1991 1309 1228 531 
z
" transform="scale(0.015625)"/>
       </defs>
       <use xlink:href="#DejaVuSans-32"/>
       <use xlink:href="#DejaVuSans-30" x="63.623047"/>
       <use xlink:href="#DejaVuSans-30" x="127.246094"/>
      </g>
     </g>
    </g>
    <g id="xtick_6">
     <g id="line2d_6">
      <g>
       <use xlink:href="#m6ae6110838" x="399.791106" y="307.584" style="stroke: #000000; stroke-width: 0.8"/>
      </g>
     </g>
     <g id="text_6">
      <!-- 250 -->
      <g transform="translate(390.247356 322.182437) scale(0.1 -0.1)">
       <use xlink:href="#DejaVuSans-32"/>
       <use xlink:href="#DejaVuSans-35" x="63.623047"/>
       <use xlink:href="#DejaVuSans-30" x="127.246094"/>
      </g>
     </g>
    </g>
   </g>
   <g id="matplotlib.axis_2">
    <g id="ytick_1">
     <g id="line2d_7">
      <defs>
       <path id="m7d06dd0917" d="M 0 0 
L -3.5 0 
" style="stroke: #000000; stroke-width: 0.8"/>
      </defs>
      <g>
       <use xlink:href="#m7d06dd0917" x="57.6" y="300.955104" style="stroke: #000000; stroke-width: 0.8"/>
      </g>
     </g>
     <g id="text_7">
      <!-- 0.25 -->
      <g transform="translate(28.334375 304.754323) scale(0.1 -0.1)">
       <defs>
        <path id="DejaVuSans-2e" d="M 684 794 
L 1344 794 
L 1344 0 
L 684 0 
L 684 794 
z
" transform="scale(0.015625)"/>
       </defs>
       <use xlink:href="#DejaVuSans-30"/>
       <use xlink:href="#DejaVuSans-2e" x="63.623047"/>
       <use xlink:href="#DejaVuSans-32" x="95.410156"/>
       <use xlink:href="#DejaVuSans-35" x="159.033203"/>
      </g>
     </g>
    </g>
    <g id="ytick_2">
     <g id="line2d_8">
      <g>
       <use xlink:href="#m7d06dd0917" x="57.6" y="264.477349" style="stroke: #000000; stroke-width: 0.8"/>
      </g>
     </g>
     <g id="text_8">
      <!-- 0.50 -->
      <g transform="translate(28.334375 268.276568) scale(0.1 -0.1)">
       <use xlink:href="#DejaVuSans-30"/>
       <use xlink:href="#DejaVuSans-2e" x="63.623047"/>
       <use xlink:href="#DejaVuSans-35" x="95.410156"/>
       <use xlink:href="#DejaVuSans-30" x="159.033203"/>
      </g>
     </g>
    </g>
    <g id="ytick_3">
     <g id="line2d_9">
      <g>
       <use xlink:href="#m7d06dd0917" x="57.6" y="227.999595" style="stroke: #000000; stroke-width: 0.8"/>
      </g>
     </g>
     <g id="text_9">
      <!-- 0.75 -->
      <g transform="translate(28.334375 231.798813) scale(0.1 -0.1)">
       <defs>
        <path id="DejaVuSans-37" d="M 525 4666 
L 3525 4666 
L 3525 4397 
L 1831 0 
L 1172 0 
L 2766 4134 
L 525 4134 
L 525 4666 
z
" transform="scale(0.015625)"/>
       </defs>
       <use xlink:href="#DejaVuSans-30"/>
       <use xlink:href="#DejaVuSans-2e" x="63.623047"/>
       <use xlink:href="#DejaVuSans-37" x="95.410156"/>
       <use xlink:href="#DejaVuSans-35" x="159.033203"/>
      </g>
     </g>
    </g>
    <g id="ytick_4">
     <g id="line2d_10">
      <g>
       <use xlink:href="#m7d06dd0917" x="57.6" y="191.52184" style="stroke: #000000; stroke-width: 0.8"/>
      </g>
     </g>
     <g id="text_10">
      <!-- 1.00 -->
      <g transform="translate(28.334375 195.321058) scale(0.1 -0.1)">
       <use xlink:href="#DejaVuSans-31"/>
       <use xlink:href="#DejaVuSans-2e" x="63.623047"/>
       <use xlink:href="#DejaVuSans-30" x="95.410156"/>
       <use xlink:href="#DejaVuSans-30" x="159.033203"/>
      </g>
     </g>
    </g>
    <g id="ytick_5">
     <g id="line2d_11">
      <g>
       <use xlink:href="#m7d06dd0917" x="57.6" y="155.044085" style="stroke: #000000; stroke-width: 0.8"/>
      </g>
     </g>
     <g id="text_11">
      <!-- 1.25 -->
      <g transform="translate(28.334375 158.843303) scale(0.1 -0.1)">
       <use xlink:href="#DejaVuSans-31"/>
       <use xlink:href="#DejaVuSans-2e" x="63.623047"/>
       <use xlink:href="#DejaVuSans-32" x="95.410156"/>
       <use xlink:href="#DejaVuSans-35" x="159.033203"/>
      </g>
     </g>
    </g>
    <g id="ytick_6">
     <g id="line2d_12">
      <g>
       <use xlink:href="#m7d06dd0917" x="57.6" y="118.56633" style="stroke: #000000; stroke-width: 0.8"/>
      </g>
     </g>
     <g id="text_12">
      <!-- 1.50 -->
      <g transform="translate(28.334375 122.365548) scale(0.1 -0.1)">
       <use xlink:href="#DejaVuSans-31"/>
       <use xlink:href="#DejaVuSans-2e" x="63.623047"/>
       <use xlink:href="#DejaVuSans-35" x="95.410156"/>
       <use xlink:href="#DejaVuSans-30" x="159.033203"/>
      </g>
     </g>
    </g>
    <g id="ytick_7">
     <g id="line2d_13">
      <g>
       <use xlink:href="#m7d06dd0917" x="57.6" y="82.088575" style="stroke: #000000; stroke-width: 0.8"/>
      </g>
     </g>
     <g id="text_13">
      <!-- 1.75 -->
      <g transform="translate(28.334375 85.887794) scale(0.1 -0.1)">
       <use xlink:href="#DejaVuSans-31"/>
       <use xlink:href="#DejaVuSans-2e" x="63.623047"/>
       <use xlink:href="#DejaVuSans-37" x="95.410156"/>
       <use xlink:href="#DejaVuSans-35" x="159.033203"/>
      </g>
     </g>
    </g>
    <g id="ytick_8">
     <g id="line2d_14">
      <g>
       <use xlink:href="#m7d06dd0917" x="57.6" y="45.61082" style="stroke: #000000; stroke-width: 0.8"/>
      </g>
     </g>
     <g id="text_14">
      <!-- 2.00 -->
      <g transform="translate(28.334375 49.410039) scale(0.1 -0.1)">
       <use xlink:href="#DejaVuSans-32"/>
       <use xlink:href="#DejaVuSans-2e" x="63.623047"/>
       <use xlink:href="#DejaVuSans-30" x="95.410156"/>
       <use xlink:href="#DejaVuSans-30" x="159.033203"/>
      </g>
     </g>
    </g>
   </g>
   <g id="line2d_15">
    <path d="M 73.832727 53.568 
L 75.136561 92.193991 
L 76.440394 104.764908 
L 77.744228 112.537981 
L 79.048061 118.216846 
L 81.655728 127.288624 
L 84.263395 134.15812 
L 88.174896 142.129367 
L 89.478729 144.601752 
L 92.086396 148.906517 
L 93.39023 150.715969 
L 95.997897 154.970336 
L 97.301731 156.758601 
L 99.909398 159.939645 
L 102.517065 163.350987 
L 106.428565 167.64054 
L 107.732399 168.801939 
L 109.036232 170.452229 
L 110.340066 171.761562 
L 111.643899 173.346028 
L 112.947733 174.508837 
L 114.251566 175.517525 
L 116.859233 178.145499 
L 118.163067 179.196251 
L 120.770734 181.921388 
L 122.074567 182.694264 
L 123.378401 183.991524 
L 124.682234 184.769749 
L 125.986068 186.034143 
L 127.289901 186.881334 
L 128.593735 188.266024 
L 137.72057 195.075481 
L 140.328237 197.248298 
L 141.63207 198.060492 
L 142.935904 198.657795 
L 144.239737 199.835295 
L 145.543571 200.804504 
L 146.847404 201.328358 
L 148.151238 202.549588 
L 149.455071 203.384876 
L 150.758905 203.968549 
L 154.670405 206.825683 
L 159.885739 209.983101 
L 161.189573 210.92346 
L 162.493406 211.635006 
L 163.79724 212.531526 
L 165.101073 213.167456 
L 169.012574 215.497694 
L 170.316407 216.369081 
L 171.620241 216.933183 
L 172.924074 217.733728 
L 174.227908 218.283664 
L 175.531742 219.168271 
L 178.139409 220.628541 
L 179.443242 221.437185 
L 182.050909 222.568511 
L 184.658576 224.211881 
L 188.570077 226.137791 
L 189.87391 227.008735 
L 192.481577 228.134404 
L 193.785411 229.005812 
L 196.393078 229.994137 
L 199.000745 231.584798 
L 200.304578 231.828262 
L 201.608412 232.72987 
L 204.216079 233.829107 
L 206.823746 235.110315 
L 210.735246 236.78998 
L 214.646747 238.81813 
L 215.950581 239.15041 
L 218.558248 240.602218 
L 219.862081 241.009663 
L 223.773582 242.930556 
L 225.077415 243.176625 
L 226.381249 243.728336 
L 228.988916 245.078818 
L 230.292749 245.383072 
L 231.596583 246.052464 
L 232.900416 246.539166 
L 234.20425 247.240521 
L 236.811917 248.005726 
L 238.11575 248.563337 
L 239.419584 249.296895 
L 240.723417 249.63758 
L 243.331084 250.906163 
L 244.634918 251.401606 
L 245.938751 251.680509 
L 247.242585 252.074571 
L 249.850252 253.406271 
L 251.154085 253.749789 
L 253.761752 254.702242 
L 255.065586 255.032243 
L 256.369419 255.942911 
L 261.584754 257.419889 
L 262.888587 258.171488 
L 269.407755 260.299826 
L 270.711588 260.810728 
L 272.015422 261.136931 
L 273.319255 261.834131 
L 278.534589 263.483582 
L 279.838423 263.991124 
L 281.142256 264.23704 
L 282.44609 265.128299 
L 283.749923 265.306478 
L 286.35759 266.225336 
L 287.661424 266.522293 
L 288.965257 267.083587 
L 290.269091 267.261295 
L 291.572924 267.847375 
L 292.876758 268.311173 
L 295.484425 268.952221 
L 296.788258 269.591277 
L 298.092092 269.837208 
L 299.395926 270.294738 
L 300.699759 270.602199 
L 303.307426 271.616987 
L 304.61126 271.878096 
L 305.915093 272.332195 
L 307.218927 272.464196 
L 309.826594 273.631416 
L 312.434261 274.083938 
L 313.738094 274.692764 
L 316.345761 275.324596 
L 317.649595 275.889548 
L 318.953428 275.942381 
L 321.561095 277.021873 
L 322.864929 277.231992 
L 324.168762 277.632914 
L 325.472596 277.875408 
L 326.776429 277.950151 
L 329.384096 279.085116 
L 330.68793 279.241547 
L 331.991763 279.563882 
L 333.295597 280.161378 
L 334.59943 280.290553 
L 335.903264 280.777187 
L 337.207097 280.975686 
L 339.814765 281.861869 
L 341.118598 281.989313 
L 342.422432 282.652464 
L 343.726265 282.791096 
L 345.030099 283.055506 
L 347.637766 283.866456 
L 351.549266 284.821623 
L 352.8531 285.220725 
L 354.156933 285.385952 
L 358.068434 286.460405 
L 359.372267 286.641439 
L 360.676101 287.019433 
L 361.979934 287.258548 
L 363.283768 287.376959 
L 364.587601 288.069602 
L 369.802935 289.009953 
L 371.106769 289.523887 
L 372.410602 289.651142 
L 376.322103 290.493248 
L 377.625936 290.774121 
L 380.233604 291.724872 
L 382.841271 292.244537 
L 384.145104 292.437869 
L 385.448938 292.74987 
L 386.752771 292.933391 
L 388.056605 293.327601 
L 389.360438 293.482949 
L 391.968105 294.345604 
L 393.271939 294.555852 
L 394.575772 294.616925 
L 398.487273 295.488 
L 398.487273 295.488 
" clip-path="url(#p68c0d33e03)" style="fill: none; stroke: #1f77b4; stroke-width: 1.5; stroke-linecap: square"/>
   </g>
   <g id="line2d_16">
    <path d="M 73.832727 82.565614 
L 75.136561 98.829038 
L 76.440394 106.021179 
L 77.744228 111.048801 
L 79.048061 114.626106 
L 80.351895 117.481003 
L 81.655728 120.015467 
L 82.959562 121.935235 
L 85.567229 125.332092 
L 86.871062 126.798694 
L 88.174896 128.445846 
L 89.478729 129.141635 
L 90.782563 130.409334 
L 92.086396 130.857666 
L 93.39023 132.044341 
L 95.997897 134.114769 
L 97.301731 134.191709 
L 98.605564 134.801424 
L 99.909398 135.601442 
L 101.213231 135.445714 
L 102.517065 136.756927 
L 103.820898 137.085486 
L 105.124732 137.983225 
L 106.428565 137.589271 
L 107.732399 137.989998 
L 109.036232 138.749672 
L 110.340066 138.967039 
L 111.643899 139.372158 
L 112.947733 139.898766 
L 114.251566 139.026743 
L 115.5554 139.871014 
L 116.859233 140.451094 
L 118.163067 140.635454 
L 119.4669 140.169823 
L 120.770734 140.837579 
L 122.074567 140.830515 
L 123.378401 141.430018 
L 124.682234 141.316283 
L 127.289901 141.567437 
L 129.897568 141.198962 
L 131.201402 142.203717 
L 132.505235 142.366707 
L 133.809069 141.955917 
L 135.112903 141.664964 
L 136.416736 142.491616 
L 137.72057 142.500014 
L 139.024403 142.180433 
L 140.328237 142.012288 
L 141.63207 142.118272 
L 142.935904 142.013742 
L 144.239737 142.649588 
L 145.543571 142.587053 
L 146.847404 142.109139 
L 148.151238 141.890335 
L 149.455071 141.92652 
L 150.758905 142.188337 
L 152.062738 142.14218 
L 153.366572 142.466089 
L 154.670405 142.14483 
L 155.974239 141.509291 
L 158.581906 141.8958 
L 159.885739 140.355058 
L 161.189573 142.071754 
L 162.493406 141.089874 
L 163.79724 141.658025 
L 165.101073 141.692456 
L 166.404907 141.175941 
L 167.70874 141.042077 
L 169.012574 141.328445 
L 170.316407 140.399735 
L 171.620241 141.20747 
L 172.924074 140.231662 
L 174.227908 141.51233 
L 175.531742 140.567141 
L 176.835575 140.573853 
L 178.139409 140.450982 
L 179.443242 140.749127 
L 180.747076 140.290447 
L 182.050909 139.349629 
L 183.354743 140.224517 
L 184.658576 139.854965 
L 185.96241 139.634326 
L 187.266243 139.250015 
L 188.570077 139.461811 
L 189.87391 139.065342 
L 191.177744 138.528725 
L 192.481577 139.070515 
L 193.785411 138.522011 
L 195.089244 138.126234 
L 196.393078 138.294682 
L 197.696911 137.82376 
L 199.000745 138.099804 
L 200.304578 137.5637 
L 201.608412 136.607673 
L 202.912245 137.169993 
L 204.216079 136.905215 
L 205.519912 136.82521 
L 206.823746 136.600261 
L 208.127579 136.715806 
L 209.431413 136.302733 
L 210.735246 136.06362 
L 212.03908 135.325645 
L 213.342913 135.509097 
L 215.950581 134.669881 
L 217.254414 135.386983 
L 218.558248 134.658394 
L 219.862081 134.587811 
L 221.165915 133.81776 
L 222.469748 133.940086 
L 223.773582 132.999096 
L 225.077415 133.63652 
L 226.381249 133.484913 
L 227.685082 132.659544 
L 228.988916 132.491892 
L 230.292749 131.125377 
L 231.596583 132.579133 
L 232.900416 132.158906 
L 234.20425 130.902663 
L 235.508083 131.527733 
L 236.811917 130.633671 
L 239.419584 130.758183 
L 240.723417 130.155701 
L 242.027251 130.15217 
L 243.331084 129.822055 
L 244.634918 129.361811 
L 245.938751 128.439829 
L 247.242585 128.788564 
L 248.546418 128.329129 
L 249.850252 127.43603 
L 252.457919 128.106469 
L 253.761752 126.516539 
L 255.065586 127.579262 
L 256.369419 126.153299 
L 257.673253 126.397166 
L 258.977087 126.4837 
L 260.28092 125.72813 
L 261.584754 125.289693 
L 262.888587 125.0476 
L 264.192421 125.024734 
L 265.496254 124.239211 
L 266.800088 123.624923 
L 268.103921 123.30891 
L 269.407755 123.237428 
L 270.711588 122.875545 
L 272.015422 122.839778 
L 273.319255 123.115164 
L 274.623089 122.475348 
L 275.926922 122.401609 
L 277.230756 121.378126 
L 278.534589 121.164974 
L 281.142256 121.119556 
L 282.44609 120.415708 
L 285.053757 119.336892 
L 287.661424 119.002854 
L 288.965257 118.449757 
L 290.269091 117.749668 
L 291.572924 118.257815 
L 292.876758 117.614907 
L 294.180591 117.402986 
L 295.484425 116.285717 
L 296.788258 116.668803 
L 298.092092 116.53624 
L 299.395926 115.532769 
L 300.699759 116.021524 
L 303.307426 114.382314 
L 304.61126 114.315979 
L 307.218927 114.03483 
L 308.52276 113.467584 
L 309.826594 112.120181 
L 311.130427 112.538904 
L 316.345761 110.920727 
L 317.649595 109.527515 
L 318.953428 110.288972 
L 320.257262 109.994132 
L 322.864929 108.98867 
L 324.168762 108.116677 
L 325.472596 107.629483 
L 326.776429 108.045452 
L 328.080263 106.871837 
L 329.384096 106.819848 
L 330.68793 107.161963 
L 331.991763 106.309969 
L 334.59943 105.791687 
L 335.903264 104.979144 
L 337.207097 103.559424 
L 338.510931 104.343774 
L 339.814765 103.491424 
L 341.118598 103.54969 
L 343.726265 103.002805 
L 345.030099 101.96227 
L 346.333932 102.125727 
L 347.637766 102.027707 
L 348.941599 101.195628 
L 350.245433 100.683955 
L 351.549266 99.880146 
L 352.8531 99.273454 
L 354.156933 99.642124 
L 355.460767 98.91916 
L 356.7646 98.636524 
L 358.068434 98.098167 
L 359.372267 98.334247 
L 361.979934 96.791576 
L 363.283768 96.461858 
L 364.587601 96.446427 
L 365.891435 96.270538 
L 367.195268 95.202005 
L 368.499102 94.800355 
L 369.802935 94.754868 
L 371.106769 93.955257 
L 372.410602 92.562259 
L 373.714436 92.670855 
L 375.018269 92.235573 
L 376.322103 92.245434 
L 377.625936 91.712452 
L 378.92977 92.051053 
L 380.233604 91.329096 
L 381.537437 90.033593 
L 382.841271 90.572811 
L 384.145104 90.272744 
L 385.448938 89.25432 
L 386.752771 89.779562 
L 388.056605 88.287253 
L 389.360438 88.213261 
L 390.664272 88.400827 
L 391.968105 86.911077 
L 393.271939 86.424244 
L 394.575772 86.324377 
L 395.879606 85.133613 
L 397.183439 85.576293 
L 398.487273 84.852943 
L 398.487273 84.852943 
" clip-path="url(#p68c0d33e03)" style="fill: none; stroke: #ff7f0e; stroke-width: 1.5; stroke-linecap: square"/>
   </g>
   <g id="patch_3">
    <path d="M 57.6 307.584 
L 57.6 41.472 
" style="fill: none; stroke: #000000; stroke-width: 0.8; stroke-linejoin: miter; stroke-linecap: square"/>
   </g>
   <g id="patch_4">
    <path d="M 414.72 307.584 
L 414.72 41.472 
" style="fill: none; stroke: #000000; stroke-width: 0.8; stroke-linejoin: miter; stroke-linecap: square"/>
   </g>
   <g id="patch_5">
    <path d="M 57.6 307.584 
L 414.72 307.584 
" style="fill: none; stroke: #000000; stroke-width: 0.8; stroke-linejoin: miter; stroke-linecap: square"/>
   </g>
   <g id="patch_6">
    <path d="M 57.6 41.472 
L 414.72 41.472 
" style="fill: none; stroke: #000000; stroke-width: 0.8; stroke-linejoin: miter; stroke-linecap: square"/>
   </g>
   <g id="legend_1">
    <g id="patch_7">
     <path d="M 316.766875 79.3845 
L 407.72 79.3845 
Q 409.72 79.3845 409.72 77.3845 
L 409.72 48.472 
Q 409.72 46.472 407.72 46.472 
L 316.766875 46.472 
Q 314.766875 46.472 314.766875 48.472 
L 314.766875 77.3845 
Q 314.766875 79.3845 316.766875 79.3845 
z
" style="fill: #ffffff; opacity: 0.8; stroke: #cccccc; stroke-linejoin: miter"/>
    </g>
    <g id="line2d_17">
     <path d="M 318.766875 54.570438 
L 328.766875 54.570438 
L 338.766875 54.570438 
" style="fill: none; stroke: #1f77b4; stroke-width: 1.5; stroke-linecap: square"/>
    </g>
    <g id="text_15">
     <!-- train_losses -->
     <g transform="translate(346.766875 58.070438) scale(0.1 -0.1)">
      <defs>
       <path id="DejaVuSans-74" d="M 1172 4494 
L 1172 3500 
L 2356 3500 
L 2356 3053 
L 1172 3053 
L 1172 1153 
Q 1172 725 1289 603 
Q 1406 481 1766 481 
L 2356 481 
L 2356 0 
L 1766 0 
Q 1100 0 847 248 
Q 594 497 594 1153 
L 594 3053 
L 172 3053 
L 172 3500 
L 594 3500 
L 594 4494 
L 1172 4494 
z
" transform="scale(0.015625)"/>
       <path id="DejaVuSans-72" d="M 2631 2963 
Q 2534 3019 2420 3045 
Q 2306 3072 2169 3072 
Q 1681 3072 1420 2755 
Q 1159 2438 1159 1844 
L 1159 0 
L 581 0 
L 581 3500 
L 1159 3500 
L 1159 2956 
Q 1341 3275 1631 3429 
Q 1922 3584 2338 3584 
Q 2397 3584 2469 3576 
Q 2541 3569 2628 3553 
L 2631 2963 
z
" transform="scale(0.015625)"/>
       <path id="DejaVuSans-61" d="M 2194 1759 
Q 1497 1759 1228 1600 
Q 959 1441 959 1056 
Q 959 750 1161 570 
Q 1363 391 1709 391 
Q 2188 391 2477 730 
Q 2766 1069 2766 1631 
L 2766 1759 
L 2194 1759 
z
M 3341 1997 
L 3341 0 
L 2766 0 
L 2766 531 
Q 2569 213 2275 61 
Q 1981 -91 1556 -91 
Q 1019 -91 701 211 
Q 384 513 384 1019 
Q 384 1609 779 1909 
Q 1175 2209 1959 2209 
L 2766 2209 
L 2766 2266 
Q 2766 2663 2505 2880 
Q 2244 3097 1772 3097 
Q 1472 3097 1187 3025 
Q 903 2953 641 2809 
L 641 3341 
Q 956 3463 1253 3523 
Q 1550 3584 1831 3584 
Q 2591 3584 2966 3190 
Q 3341 2797 3341 1997 
z
" transform="scale(0.015625)"/>
       <path id="DejaVuSans-69" d="M 603 3500 
L 1178 3500 
L 1178 0 
L 603 0 
L 603 3500 
z
M 603 4863 
L 1178 4863 
L 1178 4134 
L 603 4134 
L 603 4863 
z
" transform="scale(0.015625)"/>
       <path id="DejaVuSans-6e" d="M 3513 2113 
L 3513 0 
L 2938 0 
L 2938 2094 
Q 2938 2591 2744 2837 
Q 2550 3084 2163 3084 
Q 1697 3084 1428 2787 
Q 1159 2491 1159 1978 
L 1159 0 
L 581 0 
L 581 3500 
L 1159 3500 
L 1159 2956 
Q 1366 3272 1645 3428 
Q 1925 3584 2291 3584 
Q 2894 3584 3203 3211 
Q 3513 2838 3513 2113 
z
" transform="scale(0.015625)"/>
       <path id="DejaVuSans-5f" d="M 3263 -1063 
L 3263 -1509 
L -63 -1509 
L -63 -1063 
L 3263 -1063 
z
" transform="scale(0.015625)"/>
       <path id="DejaVuSans-6c" d="M 603 4863 
L 1178 4863 
L 1178 0 
L 603 0 
L 603 4863 
z
" transform="scale(0.015625)"/>
       <path id="DejaVuSans-6f" d="M 1959 3097 
Q 1497 3097 1228 2736 
Q 959 2375 959 1747 
Q 959 1119 1226 758 
Q 1494 397 1959 397 
Q 2419 397 2687 759 
Q 2956 1122 2956 1747 
Q 2956 2369 2687 2733 
Q 2419 3097 1959 3097 
z
M 1959 3584 
Q 2709 3584 3137 3096 
Q 3566 2609 3566 1747 
Q 3566 888 3137 398 
Q 2709 -91 1959 -91 
Q 1206 -91 779 398 
Q 353 888 353 1747 
Q 353 2609 779 3096 
Q 1206 3584 1959 3584 
z
" transform="scale(0.015625)"/>
       <path id="DejaVuSans-73" d="M 2834 3397 
L 2834 2853 
Q 2591 2978 2328 3040 
Q 2066 3103 1784 3103 
Q 1356 3103 1142 2972 
Q 928 2841 928 2578 
Q 928 2378 1081 2264 
Q 1234 2150 1697 2047 
L 1894 2003 
Q 2506 1872 2764 1633 
Q 3022 1394 3022 966 
Q 3022 478 2636 193 
Q 2250 -91 1575 -91 
Q 1294 -91 989 -36 
Q 684 19 347 128 
L 347 722 
Q 666 556 975 473 
Q 1284 391 1588 391 
Q 1994 391 2212 530 
Q 2431 669 2431 922 
Q 2431 1156 2273 1281 
Q 2116 1406 1581 1522 
L 1381 1569 
Q 847 1681 609 1914 
Q 372 2147 372 2553 
Q 372 3047 722 3315 
Q 1072 3584 1716 3584 
Q 2034 3584 2315 3537 
Q 2597 3491 2834 3397 
z
" transform="scale(0.015625)"/>
       <path id="DejaVuSans-65" d="M 3597 1894 
L 3597 1613 
L 953 1613 
Q 991 1019 1311 708 
Q 1631 397 2203 397 
Q 2534 397 2845 478 
Q 3156 559 3463 722 
L 3463 178 
Q 3153 47 2828 -22 
Q 2503 -91 2169 -91 
Q 1331 -91 842 396 
Q 353 884 353 1716 
Q 353 2575 817 3079 
Q 1281 3584 2069 3584 
Q 2775 3584 3186 3129 
Q 3597 2675 3597 1894 
z
M 3022 2063 
Q 3016 2534 2758 2815 
Q 2500 3097 2075 3097 
Q 1594 3097 1305 2825 
Q 1016 2553 972 2059 
L 3022 2063 
z
" transform="scale(0.015625)"/>
      </defs>
      <use xlink:href="#DejaVuSans-74"/>
      <use xlink:href="#DejaVuSans-72" x="39.208984"/>
      <use xlink:href="#DejaVuSans-61" x="80.322266"/>
      <use xlink:href="#DejaVuSans-69" x="141.601562"/>
      <use xlink:href="#DejaVuSans-6e" x="169.384766"/>
      <use xlink:href="#DejaVuSans-5f" x="232.763672"/>
      <use xlink:href="#DejaVuSans-6c" x="282.763672"/>
      <use xlink:href="#DejaVuSans-6f" x="310.546875"/>
      <use xlink:href="#DejaVuSans-73" x="371.728516"/>
      <use xlink:href="#DejaVuSans-73" x="423.828125"/>
      <use xlink:href="#DejaVuSans-65" x="475.927734"/>
      <use xlink:href="#DejaVuSans-73" x="537.451172"/>
     </g>
    </g>
    <g id="line2d_18">
     <path d="M 318.766875 69.526688 
L 328.766875 69.526688 
L 338.766875 69.526688 
" style="fill: none; stroke: #ff7f0e; stroke-width: 1.5; stroke-linecap: square"/>
    </g>
    <g id="text_16">
     <!-- test_losses -->
     <g transform="translate(346.766875 73.026688) scale(0.1 -0.1)">
      <use xlink:href="#DejaVuSans-74"/>
      <use xlink:href="#DejaVuSans-65" x="39.208984"/>
      <use xlink:href="#DejaVuSans-73" x="100.732422"/>
      <use xlink:href="#DejaVuSans-74" x="152.832031"/>
      <use xlink:href="#DejaVuSans-5f" x="192.041016"/>
      <use xlink:href="#DejaVuSans-6c" x="242.041016"/>
      <use xlink:href="#DejaVuSans-6f" x="269.824219"/>
      <use xlink:href="#DejaVuSans-73" x="331.005859"/>
      <use xlink:href="#DejaVuSans-73" x="383.105469"/>
      <use xlink:href="#DejaVuSans-65" x="435.205078"/>
      <use xlink:href="#DejaVuSans-73" x="496.728516"/>
     </g>
    </g>
   </g>
  </g>
 </g>
 <defs>
  <clipPath id="p68c0d33e03">
   <rect x="57.6" y="41.472" width="357.12" height="266.112"/>
  </clipPath>
 </defs>
</svg>
