<?xml version="1.0" encoding="utf-8" standalone="no"?>
<!DOCTYPE svg PUBLIC "-//W3C//DTD SVG 1.1//EN"
  "http://www.w3.org/Graphics/SVG/1.1/DTD/svg11.dtd">
<svg xmlns:xlink="http://www.w3.org/1999/xlink" width="460.8pt" height="345.6pt" viewBox="0 0 460.8 345.6" xmlns="http://www.w3.org/2000/svg" version="1.1">
 <metadata>
  <rdf:RDF xmlns:dc="http://purl.org/dc/elements/1.1/" xmlns:cc="http://creativecommons.org/ns#" xmlns:rdf="http://www.w3.org/1999/02/22-rdf-syntax-ns#">
   <cc:Work>
    <dc:type rdf:resource="http://purl.org/dc/dcmitype/StillImage"/>
    <dc:date>2023-10-30T04:28:29.786982</dc:date>
    <dc:format>image/svg+xml</dc:format>
    <dc:creator>
     <cc:Agent>
      <dc:title>Matplotlib v3.8.0, https://matplotlib.org/</dc:title>
     </cc:Agent>
    </dc:creator>
   </cc:Work>
  </rdf:RDF>
 </metadata>
 <defs>
  <style type="text/css">*{stroke-linejoin: round; stroke-linecap: butt}</style>
 </defs>
 <g id="figure_1">
  <g id="patch_1">
   <path d="M 0 345.6 
L 460.8 345.6 
L 460.8 0 
L 0 0 
z
" style="fill: #ffffff"/>
  </g>
  <g id="axes_1">
   <g id="patch_2">
    <path d="M 57.6 307.584 
L 414.72 307.584 
L 414.72 41.472 
L 57.6 41.472 
z
" style="fill: #ffffff"/>
   </g>
   <g id="matplotlib.axis_1">
    <g id="xtick_1">
     <g id="line2d_1">
      <defs>
       <path id="m23ad67c012" d="M 0 0 
L 0 3.5 
" style="stroke: #000000; stroke-width: 0.8"/>
      </defs>
      <g>
       <use xlink:href="#m23ad67c012" x="73.832727" y="307.584" style="stroke: #000000; stroke-width: 0.8"/>
      </g>
     </g>
     <g id="text_1">
      <!-- 0 -->
      <g transform="translate(70.651477 322.182437) scale(0.1 -0.1)">
       <defs>
        <path id="DejaVuSans-30" d="M 2034 4250 
Q 1547 4250 1301 3770 
Q 1056 3291 1056 2328 
Q 1056 1369 1301 889 
Q 1547 409 2034 409 
Q 2525 409 2770 889 
Q 3016 1369 3016 2328 
Q 3016 3291 2770 3770 
Q 2525 4250 2034 4250 
z
M 2034 4750 
Q 2819 4750 3233 4129 
Q 3647 3509 3647 2328 
Q 3647 1150 3233 529 
Q 2819 -91 2034 -91 
Q 1250 -91 836 529 
Q 422 1150 422 2328 
Q 422 3509 836 4129 
Q 1250 4750 2034 4750 
z
" transform="scale(0.015625)"/>
       </defs>
       <use xlink:href="#DejaVuSans-30"/>
      </g>
     </g>
    </g>
    <g id="xtick_2">
     <g id="line2d_2">
      <g>
       <use xlink:href="#m23ad67c012" x="139.024403" y="307.584" style="stroke: #000000; stroke-width: 0.8"/>
      </g>
     </g>
     <g id="text_2">
      <!-- 50 -->
      <g transform="translate(132.661903 322.182437) scale(0.1 -0.1)">
       <defs>
        <path id="DejaVuSans-35" d="M 691 4666 
L 3169 4666 
L 3169 4134 
L 1269 4134 
L 1269 2991 
Q 1406 3038 1543 3061 
Q 1681 3084 1819 3084 
Q 2600 3084 3056 2656 
Q 3513 2228 3513 1497 
Q 3513 744 3044 326 
Q 2575 -91 1722 -91 
Q 1428 -91 1123 -41 
Q 819 9 494 109 
L 494 744 
Q 775 591 1075 516 
Q 1375 441 1709 441 
Q 2250 441 2565 725 
Q 2881 1009 2881 1497 
Q 2881 1984 2565 2268 
Q 2250 2553 1709 2553 
Q 1456 2553 1204 2497 
Q 953 2441 691 2322 
L 691 4666 
z
" transform="scale(0.015625)"/>
       </defs>
       <use xlink:href="#DejaVuSans-35"/>
       <use xlink:href="#DejaVuSans-30" x="63.623047"/>
      </g>
     </g>
    </g>
    <g id="xtick_3">
     <g id="line2d_3">
      <g>
       <use xlink:href="#m23ad67c012" x="204.216079" y="307.584" style="stroke: #000000; stroke-width: 0.8"/>
      </g>
     </g>
     <g id="text_3">
      <!-- 100 -->
      <g transform="translate(194.672329 322.182437) scale(0.1 -0.1)">
       <defs>
        <path id="DejaVuSans-31" d="M 794 531 
L 1825 531 
L 1825 4091 
L 703 3866 
L 703 4441 
L 1819 4666 
L 2450 4666 
L 2450 531 
L 3481 531 
L 3481 0 
L 794 0 
L 794 531 
z
" transform="scale(0.015625)"/>
       </defs>
       <use xlink:href="#DejaVuSans-31"/>
       <use xlink:href="#DejaVuSans-30" x="63.623047"/>
       <use xlink:href="#DejaVuSans-30" x="127.246094"/>
      </g>
     </g>
    </g>
    <g id="xtick_4">
     <g id="line2d_4">
      <g>
       <use xlink:href="#m23ad67c012" x="269.407755" y="307.584" style="stroke: #000000; stroke-width: 0.8"/>
      </g>
     </g>
     <g id="text_4">
      <!-- 150 -->
      <g transform="translate(259.864005 322.182437) scale(0.1 -0.1)">
       <use xlink:href="#DejaVuSans-31"/>
       <use xlink:href="#DejaVuSans-35" x="63.623047"/>
       <use xlink:href="#DejaVuSans-30" x="127.246094"/>
      </g>
     </g>
    </g>
    <g id="xtick_5">
     <g id="line2d_5">
      <g>
       <use xlink:href="#m23ad67c012" x="334.59943" y="307.584" style="stroke: #000000; stroke-width: 0.8"/>
      </g>
     </g>
     <g id="text_5">
      <!-- 200 -->
      <g transform="translate(325.05568 322.182437) scale(0.1 -0.1)">
       <defs>
        <path id="DejaVuSans-32" d="M 1228 531 
L 3431 531 
L 3431 0 
L 469 0 
L 469 531 
Q 828 903 1448 1529 
Q 2069 2156 2228 2338 
Q 2531 2678 2651 2914 
Q 2772 3150 2772 3378 
Q 2772 3750 2511 3984 
Q 2250 4219 1831 4219 
Q 1534 4219 1204 4116 
Q 875 4013 500 3803 
L 500 4441 
Q 881 4594 1212 4672 
Q 1544 4750 1819 4750 
Q 2544 4750 2975 4387 
Q 3406 4025 3406 3419 
Q 3406 3131 3298 2873 
Q 3191 2616 2906 2266 
Q 2828 2175 2409 1742 
Q 1991 1309 1228 531 
z
" transform="scale(0.015625)"/>
       </defs>
       <use xlink:href="#DejaVuSans-32"/>
       <use xlink:href="#DejaVuSans-30" x="63.623047"/>
       <use xlink:href="#DejaVuSans-30" x="127.246094"/>
      </g>
     </g>
    </g>
    <g id="xtick_6">
     <g id="line2d_6">
      <g>
       <use xlink:href="#m23ad67c012" x="399.791106" y="307.584" style="stroke: #000000; stroke-width: 0.8"/>
      </g>
     </g>
     <g id="text_6">
      <!-- 250 -->
      <g transform="translate(390.247356 322.182437) scale(0.1 -0.1)">
       <use xlink:href="#DejaVuSans-32"/>
       <use xlink:href="#DejaVuSans-35" x="63.623047"/>
       <use xlink:href="#DejaVuSans-30" x="127.246094"/>
      </g>
     </g>
    </g>
   </g>
   <g id="matplotlib.axis_2">
    <g id="ytick_1">
     <g id="line2d_7">
      <defs>
       <path id="mc812903c2d" d="M 0 0 
L -3.5 0 
" style="stroke: #000000; stroke-width: 0.8"/>
      </defs>
      <g>
       <use xlink:href="#mc812903c2d" x="57.6" y="303.289856" style="stroke: #000000; stroke-width: 0.8"/>
      </g>
     </g>
     <g id="text_7">
      <!-- 30 -->
      <g transform="translate(37.875 307.089075) scale(0.1 -0.1)">
       <defs>
        <path id="DejaVuSans-33" d="M 2597 2516 
Q 3050 2419 3304 2112 
Q 3559 1806 3559 1356 
Q 3559 666 3084 287 
Q 2609 -91 1734 -91 
Q 1441 -91 1130 -33 
Q 819 25 488 141 
L 488 750 
Q 750 597 1062 519 
Q 1375 441 1716 441 
Q 2309 441 2620 675 
Q 2931 909 2931 1356 
Q 2931 1769 2642 2001 
Q 2353 2234 1838 2234 
L 1294 2234 
L 1294 2753 
L 1863 2753 
Q 2328 2753 2575 2939 
Q 2822 3125 2822 3475 
Q 2822 3834 2567 4026 
Q 2313 4219 1838 4219 
Q 1578 4219 1281 4162 
Q 984 4106 628 3988 
L 628 4550 
Q 988 4650 1302 4700 
Q 1616 4750 1894 4750 
Q 2613 4750 3031 4423 
Q 3450 4097 3450 3541 
Q 3450 3153 3228 2886 
Q 3006 2619 2597 2516 
z
" transform="scale(0.015625)"/>
       </defs>
       <use xlink:href="#DejaVuSans-33"/>
       <use xlink:href="#DejaVuSans-30" x="63.623047"/>
      </g>
     </g>
    </g>
    <g id="ytick_2">
     <g id="line2d_8">
      <g>
       <use xlink:href="#mc812903c2d" x="57.6" y="267.59767" style="stroke: #000000; stroke-width: 0.8"/>
      </g>
     </g>
     <g id="text_8">
      <!-- 40 -->
      <g transform="translate(37.875 271.396889) scale(0.1 -0.1)">
       <defs>
        <path id="DejaVuSans-34" d="M 2419 4116 
L 825 1625 
L 2419 1625 
L 2419 4116 
z
M 2253 4666 
L 3047 4666 
L 3047 1625 
L 3713 1625 
L 3713 1100 
L 3047 1100 
L 3047 0 
L 2419 0 
L 2419 1100 
L 313 1100 
L 313 1709 
L 2253 4666 
z
" transform="scale(0.015625)"/>
       </defs>
       <use xlink:href="#DejaVuSans-34"/>
       <use xlink:href="#DejaVuSans-30" x="63.623047"/>
      </g>
     </g>
    </g>
    <g id="ytick_3">
     <g id="line2d_9">
      <g>
       <use xlink:href="#mc812903c2d" x="57.6" y="231.905484" style="stroke: #000000; stroke-width: 0.8"/>
      </g>
     </g>
     <g id="text_9">
      <!-- 50 -->
      <g transform="translate(37.875 235.704703) scale(0.1 -0.1)">
       <use xlink:href="#DejaVuSans-35"/>
       <use xlink:href="#DejaVuSans-30" x="63.623047"/>
      </g>
     </g>
    </g>
    <g id="ytick_4">
     <g id="line2d_10">
      <g>
       <use xlink:href="#mc812903c2d" x="57.6" y="196.213298" style="stroke: #000000; stroke-width: 0.8"/>
      </g>
     </g>
     <g id="text_10">
      <!-- 60 -->
      <g transform="translate(37.875 200.012517) scale(0.1 -0.1)">
       <defs>
        <path id="DejaVuSans-36" d="M 2113 2584 
Q 1688 2584 1439 2293 
Q 1191 2003 1191 1497 
Q 1191 994 1439 701 
Q 1688 409 2113 409 
Q 2538 409 2786 701 
Q 3034 994 3034 1497 
Q 3034 2003 2786 2293 
Q 2538 2584 2113 2584 
z
M 3366 4563 
L 3366 3988 
Q 3128 4100 2886 4159 
Q 2644 4219 2406 4219 
Q 1781 4219 1451 3797 
Q 1122 3375 1075 2522 
Q 1259 2794 1537 2939 
Q 1816 3084 2150 3084 
Q 2853 3084 3261 2657 
Q 3669 2231 3669 1497 
Q 3669 778 3244 343 
Q 2819 -91 2113 -91 
Q 1303 -91 875 529 
Q 447 1150 447 2328 
Q 447 3434 972 4092 
Q 1497 4750 2381 4750 
Q 2619 4750 2861 4703 
Q 3103 4656 3366 4563 
z
" transform="scale(0.015625)"/>
       </defs>
       <use xlink:href="#DejaVuSans-36"/>
       <use xlink:href="#DejaVuSans-30" x="63.623047"/>
      </g>
     </g>
    </g>
    <g id="ytick_5">
     <g id="line2d_11">
      <g>
       <use xlink:href="#mc812903c2d" x="57.6" y="160.521112" style="stroke: #000000; stroke-width: 0.8"/>
      </g>
     </g>
     <g id="text_11">
      <!-- 70 -->
      <g transform="translate(37.875 164.32033) scale(0.1 -0.1)">
       <defs>
        <path id="DejaVuSans-37" d="M 525 4666 
L 3525 4666 
L 3525 4397 
L 1831 0 
L 1172 0 
L 2766 4134 
L 525 4134 
L 525 4666 
z
" transform="scale(0.015625)"/>
       </defs>
       <use xlink:href="#DejaVuSans-37"/>
       <use xlink:href="#DejaVuSans-30" x="63.623047"/>
      </g>
     </g>
    </g>
    <g id="ytick_6">
     <g id="line2d_12">
      <g>
       <use xlink:href="#mc812903c2d" x="57.6" y="124.828925" style="stroke: #000000; stroke-width: 0.8"/>
      </g>
     </g>
     <g id="text_12">
      <!-- 80 -->
      <g transform="translate(37.875 128.628144) scale(0.1 -0.1)">
       <defs>
        <path id="DejaVuSans-38" d="M 2034 2216 
Q 1584 2216 1326 1975 
Q 1069 1734 1069 1313 
Q 1069 891 1326 650 
Q 1584 409 2034 409 
Q 2484 409 2743 651 
Q 3003 894 3003 1313 
Q 3003 1734 2745 1975 
Q 2488 2216 2034 2216 
z
M 1403 2484 
Q 997 2584 770 2862 
Q 544 3141 544 3541 
Q 544 4100 942 4425 
Q 1341 4750 2034 4750 
Q 2731 4750 3128 4425 
Q 3525 4100 3525 3541 
Q 3525 3141 3298 2862 
Q 3072 2584 2669 2484 
Q 3125 2378 3379 2068 
Q 3634 1759 3634 1313 
Q 3634 634 3220 271 
Q 2806 -91 2034 -91 
Q 1263 -91 848 271 
Q 434 634 434 1313 
Q 434 1759 690 2068 
Q 947 2378 1403 2484 
z
M 1172 3481 
Q 1172 3119 1398 2916 
Q 1625 2713 2034 2713 
Q 2441 2713 2670 2916 
Q 2900 3119 2900 3481 
Q 2900 3844 2670 4047 
Q 2441 4250 2034 4250 
Q 1625 4250 1398 4047 
Q 1172 3844 1172 3481 
z
" transform="scale(0.015625)"/>
       </defs>
       <use xlink:href="#DejaVuSans-38"/>
       <use xlink:href="#DejaVuSans-30" x="63.623047"/>
      </g>
     </g>
    </g>
    <g id="ytick_7">
     <g id="line2d_13">
      <g>
       <use xlink:href="#mc812903c2d" x="57.6" y="89.136739" style="stroke: #000000; stroke-width: 0.8"/>
      </g>
     </g>
     <g id="text_13">
      <!-- 90 -->
      <g transform="translate(37.875 92.935958) scale(0.1 -0.1)">
       <defs>
        <path id="DejaVuSans-39" d="M 703 97 
L 703 672 
Q 941 559 1184 500 
Q 1428 441 1663 441 
Q 2288 441 2617 861 
Q 2947 1281 2994 2138 
Q 2813 1869 2534 1725 
Q 2256 1581 1919 1581 
Q 1219 1581 811 2004 
Q 403 2428 403 3163 
Q 403 3881 828 4315 
Q 1253 4750 1959 4750 
Q 2769 4750 3195 4129 
Q 3622 3509 3622 2328 
Q 3622 1225 3098 567 
Q 2575 -91 1691 -91 
Q 1453 -91 1209 -44 
Q 966 3 703 97 
z
M 1959 2075 
Q 2384 2075 2632 2365 
Q 2881 2656 2881 3163 
Q 2881 3666 2632 3958 
Q 2384 4250 1959 4250 
Q 1534 4250 1286 3958 
Q 1038 3666 1038 3163 
Q 1038 2656 1286 2365 
Q 1534 2075 1959 2075 
z
" transform="scale(0.015625)"/>
       </defs>
       <use xlink:href="#DejaVuSans-39"/>
       <use xlink:href="#DejaVuSans-30" x="63.623047"/>
      </g>
     </g>
    </g>
    <g id="ytick_8">
     <g id="line2d_14">
      <g>
       <use xlink:href="#mc812903c2d" x="57.6" y="53.444553" style="stroke: #000000; stroke-width: 0.8"/>
      </g>
     </g>
     <g id="text_14">
      <!-- 100 -->
      <g transform="translate(31.5125 57.243772) scale(0.1 -0.1)">
       <use xlink:href="#DejaVuSans-31"/>
       <use xlink:href="#DejaVuSans-30" x="63.623047"/>
       <use xlink:href="#DejaVuSans-30" x="127.246094"/>
      </g>
     </g>
    </g>
   </g>
   <g id="line2d_15">
    <path d="M 73.832727 295.488 
L 75.136561 261.002691 
L 76.440394 249.783528 
L 77.744228 240.931645 
L 79.048061 234.425257 
L 80.351895 228.993585 
L 81.655728 224.266287 
L 84.263395 215.80653 
L 85.567229 212.103118 
L 89.478729 202.532337 
L 93.39023 194.479229 
L 94.694064 192.170042 
L 95.997897 189.446945 
L 98.605564 184.857617 
L 99.909398 182.91151 
L 101.213231 180.348167 
L 103.820898 176.775463 
L 105.124732 174.560677 
L 106.428565 172.897772 
L 107.732399 170.879049 
L 109.036232 168.613432 
L 110.340066 167.538716 
L 111.643899 166.122705 
L 112.947733 163.4577 
L 114.251566 162.165136 
L 116.859233 158.933727 
L 119.4669 155.157698 
L 122.074567 152.565309 
L 124.682234 149.355685 
L 125.986068 148.484294 
L 127.289901 146.756034 
L 128.593735 144.570294 
L 129.897568 143.880443 
L 132.505235 140.452971 
L 133.809069 139.886566 
L 135.112903 137.860582 
L 136.416736 137.03276 
L 137.72057 135.558656 
L 139.024403 135.507825 
L 141.63207 132.000475 
L 142.935904 130.548157 
L 144.239737 129.778428 
L 148.151238 125.973353 
L 149.455071 125.1891 
L 150.758905 124.23057 
L 152.062738 122.335294 
L 153.366572 121.427595 
L 154.670405 120.185862 
L 155.974239 119.328994 
L 157.278072 117.985599 
L 158.581906 117.542642 
L 159.885739 115.640104 
L 161.189573 114.899422 
L 162.493406 114.39111 
L 163.79724 113.243778 
L 165.101073 111.88586 
L 166.404907 110.847452 
L 167.70874 110.034154 
L 169.012574 108.654451 
L 170.316407 108.226017 
L 171.620241 107.950077 
L 172.924074 106.984285 
L 174.227908 105.437565 
L 175.531742 104.428204 
L 176.835575 102.845176 
L 178.139409 102.925054 
L 179.443242 101.705106 
L 180.747076 100.76836 
L 182.050909 99.984108 
L 183.354743 98.960223 
L 184.658576 98.749637 
L 185.96241 97.384457 
L 189.87391 95.278595 
L 191.177744 94.218403 
L 192.481577 92.998455 
L 193.785411 92.715253 
L 195.089244 91.081394 
L 196.393078 91.175795 
L 197.696911 90.761884 
L 199.000745 89.984893 
L 200.304578 88.576144 
L 201.608412 88.263896 
L 202.912245 87.218226 
L 204.216079 86.455759 
L 205.519912 86.521113 
L 206.823746 85.402828 
L 208.127579 85.482705 
L 209.431413 84.734761 
L 210.735246 83.739923 
L 214.646747 81.387166 
L 215.950581 81.03861 
L 217.254414 80.297927 
L 218.558248 79.31035 
L 219.862081 79.107026 
L 221.165915 78.53336 
L 222.469748 77.691015 
L 223.773582 77.429597 
L 225.077415 77.66923 
L 226.381249 76.376666 
L 227.685082 76.420236 
L 228.988916 76.020848 
L 230.292749 74.677453 
L 231.596583 74.764593 
L 232.900416 73.798801 
L 234.20425 73.52286 
L 235.508083 72.38279 
L 236.811917 72.716823 
L 238.11575 72.324697 
L 239.419584 71.126534 
L 240.723417 71.271766 
L 242.027251 71.068441 
L 243.331084 70.117172 
L 244.634918 70.05908 
L 245.938751 69.725046 
L 247.242585 69.115072 
L 248.546418 68.868178 
L 249.850252 68.069403 
L 251.154085 67.844294 
L 252.457919 67.074565 
L 253.761752 67.786201 
L 255.065586 66.595299 
L 256.369419 66.246743 
L 258.977087 66.014372 
L 260.28092 65.019534 
L 261.584754 65.622246 
L 262.888587 65.18655 
L 264.192421 64.438606 
L 265.496254 64.300636 
L 266.800088 63.610784 
L 268.103921 63.596261 
L 270.711588 62.644992 
L 272.015422 62.753916 
L 273.319255 62.274651 
L 274.623089 62.202035 
L 275.926922 61.788124 
L 277.230756 61.868002 
L 278.534589 61.207197 
L 281.142256 60.894948 
L 282.44609 60.524607 
L 283.749923 60.430206 
L 285.053757 60.168789 
L 286.35759 60.074388 
L 287.661424 59.747616 
L 288.965257 59.675 
L 290.269091 59.115858 
L 291.572924 58.963364 
L 292.876758 59.043242 
L 294.180591 58.469576 
L 295.484425 58.796348 
L 296.788258 58.128281 
L 298.092092 58.128281 
L 303.307426 57.511045 
L 304.61126 57.554615 
L 305.915093 57.39486 
L 307.218927 56.959164 
L 308.52276 57.271413 
L 309.826594 57.002734 
L 311.130427 56.276575 
L 312.434261 56.501684 
L 313.738094 56.320144 
L 315.041928 56.487161 
L 316.345761 56.341929 
L 317.649595 55.790048 
L 318.953428 56.167651 
L 320.257262 55.964326 
L 321.561095 56.02968 
L 322.864929 55.652077 
L 324.168762 56.07325 
L 326.776429 55.419706 
L 328.080263 55.376137 
L 329.384096 55.448753 
L 333.295597 54.918656 
L 334.59943 55.121981 
L 335.903264 54.853302 
L 337.207097 54.918656 
L 342.422432 54.519269 
L 345.030099 54.671762 
L 346.333932 54.591885 
L 347.637766 54.359514 
L 358.068434 53.996434 
L 359.372267 54.177974 
L 360.676101 54.040004 
L 363.283768 54.047265 
L 364.587601 53.938341 
L 365.891435 54.054527 
L 368.499102 53.88751 
L 373.714436 53.880249 
L 377.625936 53.735017 
L 378.92977 53.807633 
L 382.841271 53.633354 
L 384.145104 53.793109 
L 385.448938 53.669662 
L 388.056605 53.720493 
L 390.664272 53.70597 
L 391.968105 53.568 
L 394.575772 53.698709 
L 398.487273 53.633354 
L 398.487273 53.633354 
" clip-path="url(#p242edcc70f)" style="fill: none; stroke: #1f77b4; stroke-width: 1.5; stroke-linecap: square"/>
   </g>
   <g id="line2d_16">
    <path d="M 73.832727 270.738583 
L 75.136561 256.711553 
L 76.440394 247.68143 
L 77.744228 243.75529 
L 82.959562 235.331934 
L 84.263395 234.61809 
L 85.567229 231.869792 
L 86.871062 229.514108 
L 89.478729 228.728879 
L 90.782563 227.372576 
L 92.086396 226.765809 
L 93.39023 225.944889 
L 94.694064 225.552275 
L 95.997897 225.623659 
L 97.301731 223.589205 
L 98.605564 223.660589 
L 99.909398 223.482128 
L 101.213231 223.589205 
L 102.517065 221.269213 
L 103.820898 221.55475 
L 105.124732 222.661208 
L 106.428565 221.376289 
L 107.732399 222.197209 
L 109.036232 221.983056 
L 110.340066 221.55475 
L 111.643899 221.87598 
L 112.947733 220.876598 
L 114.251566 219.627372 
L 115.5554 220.912291 
L 116.859233 220.591061 
L 118.163067 221.019367 
L 119.4669 219.020605 
L 120.770734 221.483366 
L 122.074567 219.912909 
L 123.378401 219.663064 
L 124.682234 221.090752 
L 125.986068 222.982437 
L 127.289901 221.197828 
L 128.593735 220.698138 
L 129.897568 219.877217 
L 132.505235 221.090752 
L 133.809069 219.912909 
L 135.112903 220.019986 
L 136.416736 218.699375 
L 137.72057 218.378145 
L 139.024403 221.197828 
L 140.328237 220.769522 
L 141.63207 220.555369 
L 142.935904 220.591061 
L 144.239737 220.341216 
L 145.543571 220.769522 
L 146.847404 220.947983 
L 148.151238 222.339978 
L 149.455071 221.090752 
L 150.758905 220.483984 
L 152.062738 221.55475 
L 153.366572 220.269831 
L 154.670405 221.590442 
L 155.974239 222.661208 
L 157.278072 221.87598 
L 158.581906 222.589823 
L 161.189573 222.482747 
L 162.493406 221.197828 
L 163.79724 221.983056 
L 165.101073 221.519058 
L 166.404907 222.554131 
L 167.70874 221.55475 
L 169.012574 221.697519 
L 170.316407 222.839669 
L 171.620241 222.732592 
L 172.924074 221.019367 
L 174.227908 223.160898 
L 175.531742 221.697519 
L 176.835575 222.304286 
L 178.139409 222.768284 
L 179.443242 222.982437 
L 180.747076 223.553512 
L 182.050909 221.840288 
L 183.354743 222.339978 
L 184.658576 224.588586 
L 185.96241 223.232283 
L 187.266243 223.303667 
L 188.570077 222.518439 
L 189.87391 223.339359 
L 191.177744 223.196591 
L 192.481577 222.411362 
L 193.785411 222.6969 
L 195.089244 224.088895 
L 197.696911 223.767666 
L 199.000745 224.445817 
L 201.608412 223.51782 
L 202.912245 224.303048 
L 204.216079 224.088895 
L 206.823746 223.125206 
L 208.127579 224.303048 
L 209.431413 224.9812 
L 210.735246 224.017511 
L 212.03908 224.802739 
L 214.646747 225.088276 
L 215.950581 224.874123 
L 217.254414 223.696281 
L 218.558248 224.124587 
L 219.862081 224.231664 
L 221.165915 224.874123 
L 222.469748 225.30243 
L 223.773582 224.695662 
L 225.077415 225.123969 
L 226.381249 224.303048 
L 227.685082 225.48089 
L 228.988916 224.9812 
L 230.292749 225.48089 
L 231.596583 225.80212 
L 232.900416 226.515964 
L 236.811917 226.194734 
L 239.419584 227.087039 
L 240.723417 226.230426 
L 242.027251 225.159661 
L 243.331084 226.087658 
L 244.634918 227.194115 
L 245.938751 226.658733 
L 247.242585 226.373195 
L 248.546418 227.443961 
L 249.850252 227.479653 
L 252.457919 228.08642 
L 253.761752 227.122731 
L 255.065586 227.800883 
L 256.369419 227.336884 
L 257.673253 227.408269 
L 258.977087 228.514726 
L 260.28092 227.301192 
L 261.584754 227.122731 
L 262.888587 228.514726 
L 264.192421 227.551037 
L 265.496254 226.801501 
L 266.800088 227.551037 
L 268.103921 227.586729 
L 269.407755 227.408269 
L 270.711588 228.871648 
L 272.015422 227.729498 
L 273.319255 227.515345 
L 274.623089 228.443342 
L 275.926922 227.693806 
L 278.534589 228.550419 
L 279.838423 227.479653 
L 281.142256 228.40765 
L 282.44609 227.836575 
L 283.749923 229.871029 
L 285.053757 228.371958 
L 286.35759 229.014417 
L 287.661424 228.122112 
L 288.965257 228.586111 
L 290.269091 228.229189 
L 291.572924 229.371339 
L 292.876758 228.479034 
L 294.180591 229.050109 
L 295.484425 229.478415 
L 296.788258 229.371339 
L 298.092092 228.800264 
L 299.395926 229.014417 
L 300.699759 228.157804 
L 302.003593 228.479034 
L 304.61126 228.443342 
L 305.915093 229.050109 
L 307.218927 229.192878 
L 308.52276 229.763953 
L 309.826594 229.978106 
L 311.130427 229.763953 
L 312.434261 229.299954 
L 313.738094 229.942414 
L 315.041928 229.585492 
L 316.345761 228.693187 
L 320.257262 231.155948 
L 321.561095 230.977487 
L 322.864929 229.942414 
L 324.168762 229.763953 
L 325.472596 230.37072 
L 326.776429 230.335028 
L 328.080263 230.085183 
L 329.384096 230.335028 
L 330.68793 229.371339 
L 331.991763 228.764572 
L 333.295597 230.406412 
L 334.59943 229.442723 
L 335.903264 230.906103 
L 337.207097 230.37072 
L 338.510931 228.90734 
L 339.814765 230.799026 
L 341.118598 232.119637 
L 342.422432 230.37072 
L 343.726265 230.120875 
L 345.030099 231.298717 
L 346.333932 229.299954 
L 347.637766 230.870411 
L 348.941599 230.69195 
L 350.245433 230.941795 
L 351.549266 230.085183 
L 352.8531 230.299336 
L 354.156933 231.263025 
L 355.460767 230.584873 
L 356.7646 230.941795 
L 359.372267 230.013798 
L 360.676101 230.656257 
L 361.979934 229.835337 
L 363.283768 230.69195 
L 364.587601 229.442723 
L 365.891435 230.834718 
L 367.195268 230.442104 
L 368.499102 231.334409 
L 371.106769 230.04949 
L 372.410602 230.013798 
L 373.714436 230.549181 
L 375.018269 229.656876 
L 376.322103 230.620565 
L 377.625936 230.977487 
L 378.92977 230.69195 
L 380.233604 231.120256 
L 381.537437 230.263643 
L 384.145104 231.548562 
L 385.448938 230.834718 
L 386.752771 230.477797 
L 388.056605 230.656257 
L 390.664272 230.442104 
L 391.968105 229.942414 
L 393.271939 231.798407 
L 394.575772 231.298717 
L 395.879606 231.370101 
L 397.183439 230.620565 
L 398.487273 231.155948 
L 398.487273 231.155948 
" clip-path="url(#p242edcc70f)" style="fill: none; stroke: #ff7f0e; stroke-width: 1.5; stroke-linecap: square"/>
   </g>
   <g id="patch_3">
    <path d="M 57.6 307.584 
L 57.6 41.472 
" style="fill: none; stroke: #000000; stroke-width: 0.8; stroke-linejoin: miter; stroke-linecap: square"/>
   </g>
   <g id="patch_4">
    <path d="M 414.72 307.584 
L 414.72 41.472 
" style="fill: none; stroke: #000000; stroke-width: 0.8; stroke-linejoin: miter; stroke-linecap: square"/>
   </g>
   <g id="patch_5">
    <path d="M 57.6 307.584 
L 414.72 307.584 
" style="fill: none; stroke: #000000; stroke-width: 0.8; stroke-linejoin: miter; stroke-linecap: square"/>
   </g>
   <g id="patch_6">
    <path d="M 57.6 41.472 
L 414.72 41.472 
" style="fill: none; stroke: #000000; stroke-width: 0.8; stroke-linejoin: miter; stroke-linecap: square"/>
   </g>
   <g id="legend_1">
    <g id="patch_7">
     <path d="M 64.6 79.3845 
L 169.99375 79.3845 
Q 171.99375 79.3845 171.99375 77.3845 
L 171.99375 48.472 
Q 171.99375 46.472 169.99375 46.472 
L 64.6 46.472 
Q 62.6 46.472 62.6 48.472 
L 62.6 77.3845 
Q 62.6 79.3845 64.6 79.3845 
z
" style="fill: #ffffff; opacity: 0.8; stroke: #cccccc; stroke-linejoin: miter"/>
    </g>
    <g id="line2d_17">
     <path d="M 66.6 54.570438 
L 76.6 54.570438 
L 86.6 54.570438 
" style="fill: none; stroke: #1f77b4; stroke-width: 1.5; stroke-linecap: square"/>
    </g>
    <g id="text_15">
     <!-- train_accuracy -->
     <g transform="translate(94.6 58.070438) scale(0.1 -0.1)">
      <defs>
       <path id="DejaVuSans-74" d="M 1172 4494 
L 1172 3500 
L 2356 3500 
L 2356 3053 
L 1172 3053 
L 1172 1153 
Q 1172 725 1289 603 
Q 1406 481 1766 481 
L 2356 481 
L 2356 0 
L 1766 0 
Q 1100 0 847 248 
Q 594 497 594 1153 
L 594 3053 
L 172 3053 
L 172 3500 
L 594 3500 
L 594 4494 
L 1172 4494 
z
" transform="scale(0.015625)"/>
       <path id="DejaVuSans-72" d="M 2631 2963 
Q 2534 3019 2420 3045 
Q 2306 3072 2169 3072 
Q 1681 3072 1420 2755 
Q 1159 2438 1159 1844 
L 1159 0 
L 581 0 
L 581 3500 
L 1159 3500 
L 1159 2956 
Q 1341 3275 1631 3429 
Q 1922 3584 2338 3584 
Q 2397 3584 2469 3576 
Q 2541 3569 2628 3553 
L 2631 2963 
z
" transform="scale(0.015625)"/>
       <path id="DejaVuSans-61" d="M 2194 1759 
Q 1497 1759 1228 1600 
Q 959 1441 959 1056 
Q 959 750 1161 570 
Q 1363 391 1709 391 
Q 2188 391 2477 730 
Q 2766 1069 2766 1631 
L 2766 1759 
L 2194 1759 
z
M 3341 1997 
L 3341 0 
L 2766 0 
L 2766 531 
Q 2569 213 2275 61 
Q 1981 -91 1556 -91 
Q 1019 -91 701 211 
Q 384 513 384 1019 
Q 384 1609 779 1909 
Q 1175 2209 1959 2209 
L 2766 2209 
L 2766 2266 
Q 2766 2663 2505 2880 
Q 2244 3097 1772 3097 
Q 1472 3097 1187 3025 
Q 903 2953 641 2809 
L 641 3341 
Q 956 3463 1253 3523 
Q 1550 3584 1831 3584 
Q 2591 3584 2966 3190 
Q 3341 2797 3341 1997 
z
" transform="scale(0.015625)"/>
       <path id="DejaVuSans-69" d="M 603 3500 
L 1178 3500 
L 1178 0 
L 603 0 
L 603 3500 
z
M 603 4863 
L 1178 4863 
L 1178 4134 
L 603 4134 
L 603 4863 
z
" transform="scale(0.015625)"/>
       <path id="DejaVuSans-6e" d="M 3513 2113 
L 3513 0 
L 2938 0 
L 2938 2094 
Q 2938 2591 2744 2837 
Q 2550 3084 2163 3084 
Q 1697 3084 1428 2787 
Q 1159 2491 1159 1978 
L 1159 0 
L 581 0 
L 581 3500 
L 1159 3500 
L 1159 2956 
Q 1366 3272 1645 3428 
Q 1925 3584 2291 3584 
Q 2894 3584 3203 3211 
Q 3513 2838 3513 2113 
z
" transform="scale(0.015625)"/>
       <path id="DejaVuSans-5f" d="M 3263 -1063 
L 3263 -1509 
L -63 -1509 
L -63 -1063 
L 3263 -1063 
z
" transform="scale(0.015625)"/>
       <path id="DejaVuSans-63" d="M 3122 3366 
L 3122 2828 
Q 2878 2963 2633 3030 
Q 2388 3097 2138 3097 
Q 1578 3097 1268 2742 
Q 959 2388 959 1747 
Q 959 1106 1268 751 
Q 1578 397 2138 397 
Q 2388 397 2633 464 
Q 2878 531 3122 666 
L 3122 134 
Q 2881 22 2623 -34 
Q 2366 -91 2075 -91 
Q 1284 -91 818 406 
Q 353 903 353 1747 
Q 353 2603 823 3093 
Q 1294 3584 2113 3584 
Q 2378 3584 2631 3529 
Q 2884 3475 3122 3366 
z
" transform="scale(0.015625)"/>
       <path id="DejaVuSans-75" d="M 544 1381 
L 544 3500 
L 1119 3500 
L 1119 1403 
Q 1119 906 1312 657 
Q 1506 409 1894 409 
Q 2359 409 2629 706 
Q 2900 1003 2900 1516 
L 2900 3500 
L 3475 3500 
L 3475 0 
L 2900 0 
L 2900 538 
Q 2691 219 2414 64 
Q 2138 -91 1772 -91 
Q 1169 -91 856 284 
Q 544 659 544 1381 
z
M 1991 3584 
L 1991 3584 
z
" transform="scale(0.015625)"/>
       <path id="DejaVuSans-79" d="M 2059 -325 
Q 1816 -950 1584 -1140 
Q 1353 -1331 966 -1331 
L 506 -1331 
L 506 -850 
L 844 -850 
Q 1081 -850 1212 -737 
Q 1344 -625 1503 -206 
L 1606 56 
L 191 3500 
L 800 3500 
L 1894 763 
L 2988 3500 
L 3597 3500 
L 2059 -325 
z
" transform="scale(0.015625)"/>
      </defs>
      <use xlink:href="#DejaVuSans-74"/>
      <use xlink:href="#DejaVuSans-72" x="39.208984"/>
      <use xlink:href="#DejaVuSans-61" x="80.322266"/>
      <use xlink:href="#DejaVuSans-69" x="141.601562"/>
      <use xlink:href="#DejaVuSans-6e" x="169.384766"/>
      <use xlink:href="#DejaVuSans-5f" x="232.763672"/>
      <use xlink:href="#DejaVuSans-61" x="282.763672"/>
      <use xlink:href="#DejaVuSans-63" x="344.042969"/>
      <use xlink:href="#DejaVuSans-63" x="399.023438"/>
      <use xlink:href="#DejaVuSans-75" x="454.003906"/>
      <use xlink:href="#DejaVuSans-72" x="517.382812"/>
      <use xlink:href="#DejaVuSans-61" x="558.496094"/>
      <use xlink:href="#DejaVuSans-63" x="619.775391"/>
      <use xlink:href="#DejaVuSans-79" x="674.755859"/>
     </g>
    </g>
    <g id="line2d_18">
     <path d="M 66.6 69.526688 
L 76.6 69.526688 
L 86.6 69.526688 
" style="fill: none; stroke: #ff7f0e; stroke-width: 1.5; stroke-linecap: square"/>
    </g>
    <g id="text_16">
     <!-- test_accuracy -->
     <g transform="translate(94.6 73.026688) scale(0.1 -0.1)">
      <defs>
       <path id="DejaVuSans-65" d="M 3597 1894 
L 3597 1613 
L 953 1613 
Q 991 1019 1311 708 
Q 1631 397 2203 397 
Q 2534 397 2845 478 
Q 3156 559 3463 722 
L 3463 178 
Q 3153 47 2828 -22 
Q 2503 -91 2169 -91 
Q 1331 -91 842 396 
Q 353 884 353 1716 
Q 353 2575 817 3079 
Q 1281 3584 2069 3584 
Q 2775 3584 3186 3129 
Q 3597 2675 3597 1894 
z
M 3022 2063 
Q 3016 2534 2758 2815 
Q 2500 3097 2075 3097 
Q 1594 3097 1305 2825 
Q 1016 2553 972 2059 
L 3022 2063 
z
" transform="scale(0.015625)"/>
       <path id="DejaVuSans-73" d="M 2834 3397 
L 2834 2853 
Q 2591 2978 2328 3040 
Q 2066 3103 1784 3103 
Q 1356 3103 1142 2972 
Q 928 2841 928 2578 
Q 928 2378 1081 2264 
Q 1234 2150 1697 2047 
L 1894 2003 
Q 2506 1872 2764 1633 
Q 3022 1394 3022 966 
Q 3022 478 2636 193 
Q 2250 -91 1575 -91 
Q 1294 -91 989 -36 
Q 684 19 347 128 
L 347 722 
Q 666 556 975 473 
Q 1284 391 1588 391 
Q 1994 391 2212 530 
Q 2431 669 2431 922 
Q 2431 1156 2273 1281 
Q 2116 1406 1581 1522 
L 1381 1569 
Q 847 1681 609 1914 
Q 372 2147 372 2553 
Q 372 3047 722 3315 
Q 1072 3584 1716 3584 
Q 2034 3584 2315 3537 
Q 2597 3491 2834 3397 
z
" transform="scale(0.015625)"/>
      </defs>
      <use xlink:href="#DejaVuSans-74"/>
      <use xlink:href="#DejaVuSans-65" x="39.208984"/>
      <use xlink:href="#DejaVuSans-73" x="100.732422"/>
      <use xlink:href="#DejaVuSans-74" x="152.832031"/>
      <use xlink:href="#DejaVuSans-5f" x="192.041016"/>
      <use xlink:href="#DejaVuSans-61" x="242.041016"/>
      <use xlink:href="#DejaVuSans-63" x="303.320312"/>
      <use xlink:href="#DejaVuSans-63" x="358.300781"/>
      <use xlink:href="#DejaVuSans-75" x="413.28125"/>
      <use xlink:href="#DejaVuSans-72" x="476.660156"/>
      <use xlink:href="#DejaVuSans-61" x="517.773438"/>
      <use xlink:href="#DejaVuSans-63" x="579.052734"/>
      <use xlink:href="#DejaVuSans-79" x="634.033203"/>
     </g>
    </g>
   </g>
  </g>
 </g>
 <defs>
  <clipPath id="p242edcc70f">
   <rect x="57.6" y="41.472" width="357.12" height="266.112"/>
  </clipPath>
 </defs>
</svg>
