<?xml version="1.0" encoding="utf-8" standalone="no"?>
<!DOCTYPE svg PUBLIC "-//W3C//DTD SVG 1.1//EN"
  "http://www.w3.org/Graphics/SVG/1.1/DTD/svg11.dtd">
<svg xmlns:xlink="http://www.w3.org/1999/xlink" width="460.8pt" height="345.6pt" viewBox="0 0 460.8 345.6" xmlns="http://www.w3.org/2000/svg" version="1.1">
 <metadata>
  <rdf:RDF xmlns:dc="http://purl.org/dc/elements/1.1/" xmlns:cc="http://creativecommons.org/ns#" xmlns:rdf="http://www.w3.org/1999/02/22-rdf-syntax-ns#">
   <cc:Work>
    <dc:type rdf:resource="http://purl.org/dc/dcmitype/StillImage"/>
    <dc:date>2023-10-30T04:28:08.991030</dc:date>
    <dc:format>image/svg+xml</dc:format>
    <dc:creator>
     <cc:Agent>
      <dc:title>Matplotlib v3.8.0, https://matplotlib.org/</dc:title>
     </cc:Agent>
    </dc:creator>
   </cc:Work>
  </rdf:RDF>
 </metadata>
 <defs>
  <style type="text/css">*{stroke-linejoin: round; stroke-linecap: butt}</style>
 </defs>
 <g id="figure_1">
  <g id="patch_1">
   <path d="M 0 345.6 
L 460.8 345.6 
L 460.8 0 
L 0 0 
z
" style="fill: #ffffff"/>
  </g>
  <g id="axes_1">
   <g id="patch_2">
    <path d="M 57.6 307.584 
L 414.72 307.584 
L 414.72 41.472 
L 57.6 41.472 
z
" style="fill: #ffffff"/>
   </g>
   <g id="matplotlib.axis_1">
    <g id="xtick_1">
     <g id="line2d_1">
      <defs>
       <path id="mf8e0588e83" d="M 0 0 
L 0 3.5 
" style="stroke: #000000; stroke-width: 0.8"/>
      </defs>
      <g>
       <use xlink:href="#mf8e0588e83" x="73.832727" y="307.584" style="stroke: #000000; stroke-width: 0.8"/>
      </g>
     </g>
     <g id="text_1">
      <!-- 0 -->
      <g transform="translate(70.651477 322.182437) scale(0.1 -0.1)">
       <defs>
        <path id="DejaVuSans-30" d="M 2034 4250 
Q 1547 4250 1301 3770 
Q 1056 3291 1056 2328 
Q 1056 1369 1301 889 
Q 1547 409 2034 409 
Q 2525 409 2770 889 
Q 3016 1369 3016 2328 
Q 3016 3291 2770 3770 
Q 2525 4250 2034 4250 
z
M 2034 4750 
Q 2819 4750 3233 4129 
Q 3647 3509 3647 2328 
Q 3647 1150 3233 529 
Q 2819 -91 2034 -91 
Q 1250 -91 836 529 
Q 422 1150 422 2328 
Q 422 3509 836 4129 
Q 1250 4750 2034 4750 
z
" transform="scale(0.015625)"/>
       </defs>
       <use xlink:href="#DejaVuSans-30"/>
      </g>
     </g>
    </g>
    <g id="xtick_2">
     <g id="line2d_2">
      <g>
       <use xlink:href="#mf8e0588e83" x="139.024403" y="307.584" style="stroke: #000000; stroke-width: 0.8"/>
      </g>
     </g>
     <g id="text_2">
      <!-- 50 -->
      <g transform="translate(132.661903 322.182437) scale(0.1 -0.1)">
       <defs>
        <path id="DejaVuSans-35" d="M 691 4666 
L 3169 4666 
L 3169 4134 
L 1269 4134 
L 1269 2991 
Q 1406 3038 1543 3061 
Q 1681 3084 1819 3084 
Q 2600 3084 3056 2656 
Q 3513 2228 3513 1497 
Q 3513 744 3044 326 
Q 2575 -91 1722 -91 
Q 1428 -91 1123 -41 
Q 819 9 494 109 
L 494 744 
Q 775 591 1075 516 
Q 1375 441 1709 441 
Q 2250 441 2565 725 
Q 2881 1009 2881 1497 
Q 2881 1984 2565 2268 
Q 2250 2553 1709 2553 
Q 1456 2553 1204 2497 
Q 953 2441 691 2322 
L 691 4666 
z
" transform="scale(0.015625)"/>
       </defs>
       <use xlink:href="#DejaVuSans-35"/>
       <use xlink:href="#DejaVuSans-30" x="63.623047"/>
      </g>
     </g>
    </g>
    <g id="xtick_3">
     <g id="line2d_3">
      <g>
       <use xlink:href="#mf8e0588e83" x="204.216079" y="307.584" style="stroke: #000000; stroke-width: 0.8"/>
      </g>
     </g>
     <g id="text_3">
      <!-- 100 -->
      <g transform="translate(194.672329 322.182437) scale(0.1 -0.1)">
       <defs>
        <path id="DejaVuSans-31" d="M 794 531 
L 1825 531 
L 1825 4091 
L 703 3866 
L 703 4441 
L 1819 4666 
L 2450 4666 
L 2450 531 
L 3481 531 
L 3481 0 
L 794 0 
L 794 531 
z
" transform="scale(0.015625)"/>
       </defs>
       <use xlink:href="#DejaVuSans-31"/>
       <use xlink:href="#DejaVuSans-30" x="63.623047"/>
       <use xlink:href="#DejaVuSans-30" x="127.246094"/>
      </g>
     </g>
    </g>
    <g id="xtick_4">
     <g id="line2d_4">
      <g>
       <use xlink:href="#mf8e0588e83" x="269.407755" y="307.584" style="stroke: #000000; stroke-width: 0.8"/>
      </g>
     </g>
     <g id="text_4">
      <!-- 150 -->
      <g transform="translate(259.864005 322.182437) scale(0.1 -0.1)">
       <use xlink:href="#DejaVuSans-31"/>
       <use xlink:href="#DejaVuSans-35" x="63.623047"/>
       <use xlink:href="#DejaVuSans-30" x="127.246094"/>
      </g>
     </g>
    </g>
    <g id="xtick_5">
     <g id="line2d_5">
      <g>
       <use xlink:href="#mf8e0588e83" x="334.59943" y="307.584" style="stroke: #000000; stroke-width: 0.8"/>
      </g>
     </g>
     <g id="text_5">
      <!-- 200 -->
      <g transform="translate(325.05568 322.182437) scale(0.1 -0.1)">
       <defs>
        <path id="DejaVuSans-32" d="M 1228 531 
L 3431 531 
L 3431 0 
L 469 0 
L 469 531 
Q 828 903 1448 1529 
Q 2069 2156 2228 2338 
Q 2531 2678 2651 2914 
Q 2772 3150 2772 3378 
Q 2772 3750 2511 3984 
Q 2250 4219 1831 4219 
Q 1534 4219 1204 4116 
Q 875 4013 500 3803 
L 500 4441 
Q 881 4594 1212 4672 
Q 1544 4750 1819 4750 
Q 2544 4750 2975 4387 
Q 3406 4025 3406 3419 
Q 3406 3131 3298 2873 
Q 3191 2616 2906 2266 
Q 2828 2175 2409 1742 
Q 1991 1309 1228 531 
z
" transform="scale(0.015625)"/>
       </defs>
       <use xlink:href="#DejaVuSans-32"/>
       <use xlink:href="#DejaVuSans-30" x="63.623047"/>
       <use xlink:href="#DejaVuSans-30" x="127.246094"/>
      </g>
     </g>
    </g>
    <g id="xtick_6">
     <g id="line2d_6">
      <g>
       <use xlink:href="#mf8e0588e83" x="399.791106" y="307.584" style="stroke: #000000; stroke-width: 0.8"/>
      </g>
     </g>
     <g id="text_6">
      <!-- 250 -->
      <g transform="translate(390.247356 322.182437) scale(0.1 -0.1)">
       <use xlink:href="#DejaVuSans-32"/>
       <use xlink:href="#DejaVuSans-35" x="63.623047"/>
       <use xlink:href="#DejaVuSans-30" x="127.246094"/>
      </g>
     </g>
    </g>
   </g>
   <g id="matplotlib.axis_2">
    <g id="ytick_1">
     <g id="line2d_7">
      <defs>
       <path id="mf19cdd5e05" d="M 0 0 
L -3.5 0 
" style="stroke: #000000; stroke-width: 0.8"/>
      </defs>
      <g>
       <use xlink:href="#mf19cdd5e05" x="57.6" y="297.513096" style="stroke: #000000; stroke-width: 0.8"/>
      </g>
     </g>
     <g id="text_7">
      <!-- 0.0 -->
      <g transform="translate(34.696875 301.312315) scale(0.1 -0.1)">
       <defs>
        <path id="DejaVuSans-2e" d="M 684 794 
L 1344 794 
L 1344 0 
L 684 0 
L 684 794 
z
" transform="scale(0.015625)"/>
       </defs>
       <use xlink:href="#DejaVuSans-30"/>
       <use xlink:href="#DejaVuSans-2e" x="63.623047"/>
       <use xlink:href="#DejaVuSans-30" x="95.410156"/>
      </g>
     </g>
    </g>
    <g id="ytick_2">
     <g id="line2d_8">
      <g>
       <use xlink:href="#mf19cdd5e05" x="57.6" y="259.486432" style="stroke: #000000; stroke-width: 0.8"/>
      </g>
     </g>
     <g id="text_8">
      <!-- 0.5 -->
      <g transform="translate(34.696875 263.285651) scale(0.1 -0.1)">
       <use xlink:href="#DejaVuSans-30"/>
       <use xlink:href="#DejaVuSans-2e" x="63.623047"/>
       <use xlink:href="#DejaVuSans-35" x="95.410156"/>
      </g>
     </g>
    </g>
    <g id="ytick_3">
     <g id="line2d_9">
      <g>
       <use xlink:href="#mf19cdd5e05" x="57.6" y="221.459768" style="stroke: #000000; stroke-width: 0.8"/>
      </g>
     </g>
     <g id="text_9">
      <!-- 1.0 -->
      <g transform="translate(34.696875 225.258987) scale(0.1 -0.1)">
       <use xlink:href="#DejaVuSans-31"/>
       <use xlink:href="#DejaVuSans-2e" x="63.623047"/>
       <use xlink:href="#DejaVuSans-30" x="95.410156"/>
      </g>
     </g>
    </g>
    <g id="ytick_4">
     <g id="line2d_10">
      <g>
       <use xlink:href="#mf19cdd5e05" x="57.6" y="183.433104" style="stroke: #000000; stroke-width: 0.8"/>
      </g>
     </g>
     <g id="text_10">
      <!-- 1.5 -->
      <g transform="translate(34.696875 187.232322) scale(0.1 -0.1)">
       <use xlink:href="#DejaVuSans-31"/>
       <use xlink:href="#DejaVuSans-2e" x="63.623047"/>
       <use xlink:href="#DejaVuSans-35" x="95.410156"/>
      </g>
     </g>
    </g>
    <g id="ytick_5">
     <g id="line2d_11">
      <g>
       <use xlink:href="#mf19cdd5e05" x="57.6" y="145.40644" style="stroke: #000000; stroke-width: 0.8"/>
      </g>
     </g>
     <g id="text_11">
      <!-- 2.0 -->
      <g transform="translate(34.696875 149.205658) scale(0.1 -0.1)">
       <use xlink:href="#DejaVuSans-32"/>
       <use xlink:href="#DejaVuSans-2e" x="63.623047"/>
       <use xlink:href="#DejaVuSans-30" x="95.410156"/>
      </g>
     </g>
    </g>
    <g id="ytick_6">
     <g id="line2d_12">
      <g>
       <use xlink:href="#mf19cdd5e05" x="57.6" y="107.379775" style="stroke: #000000; stroke-width: 0.8"/>
      </g>
     </g>
     <g id="text_12">
      <!-- 2.5 -->
      <g transform="translate(34.696875 111.178994) scale(0.1 -0.1)">
       <use xlink:href="#DejaVuSans-32"/>
       <use xlink:href="#DejaVuSans-2e" x="63.623047"/>
       <use xlink:href="#DejaVuSans-35" x="95.410156"/>
      </g>
     </g>
    </g>
    <g id="ytick_7">
     <g id="line2d_13">
      <g>
       <use xlink:href="#mf19cdd5e05" x="57.6" y="69.353111" style="stroke: #000000; stroke-width: 0.8"/>
      </g>
     </g>
     <g id="text_13">
      <!-- 3.0 -->
      <g transform="translate(34.696875 73.15233) scale(0.1 -0.1)">
       <defs>
        <path id="DejaVuSans-33" d="M 2597 2516 
Q 3050 2419 3304 2112 
Q 3559 1806 3559 1356 
Q 3559 666 3084 287 
Q 2609 -91 1734 -91 
Q 1441 -91 1130 -33 
Q 819 25 488 141 
L 488 750 
Q 750 597 1062 519 
Q 1375 441 1716 441 
Q 2309 441 2620 675 
Q 2931 909 2931 1356 
Q 2931 1769 2642 2001 
Q 2353 2234 1838 2234 
L 1294 2234 
L 1294 2753 
L 1863 2753 
Q 2328 2753 2575 2939 
Q 2822 3125 2822 3475 
Q 2822 3834 2567 4026 
Q 2313 4219 1838 4219 
Q 1578 4219 1281 4162 
Q 984 4106 628 3988 
L 628 4550 
Q 988 4650 1302 4700 
Q 1616 4750 1894 4750 
Q 2613 4750 3031 4423 
Q 3450 4097 3450 3541 
Q 3450 3153 3228 2886 
Q 3006 2619 2597 2516 
z
" transform="scale(0.015625)"/>
       </defs>
       <use xlink:href="#DejaVuSans-33"/>
       <use xlink:href="#DejaVuSans-2e" x="63.623047"/>
       <use xlink:href="#DejaVuSans-30" x="95.410156"/>
      </g>
     </g>
    </g>
   </g>
   <g id="line2d_14">
    <path d="M 73.832727 151.080027 
L 75.136561 170.622767 
L 76.440394 177.293404 
L 77.744228 181.944722 
L 79.048061 185.579679 
L 80.351895 188.686245 
L 81.655728 191.472532 
L 84.263395 196.280047 
L 88.174896 202.04197 
L 90.782563 205.317476 
L 93.39023 208.41367 
L 94.694064 209.612282 
L 95.997897 211.170632 
L 101.213231 216.260441 
L 106.428565 220.565901 
L 109.036232 222.81221 
L 111.643899 224.665911 
L 112.947733 225.807514 
L 115.5554 227.469591 
L 119.4669 230.446075 
L 120.770734 231.154455 
L 124.682234 233.920168 
L 125.986068 234.322597 
L 127.289901 235.398723 
L 128.593735 236.292953 
L 131.201402 237.649907 
L 132.505235 238.653512 
L 133.809069 239.26095 
L 135.112903 240.059222 
L 136.416736 240.667933 
L 137.72057 241.551056 
L 139.024403 241.924729 
L 141.63207 243.635437 
L 142.935904 244.143511 
L 145.543571 245.636909 
L 152.062738 248.909326 
L 153.366572 249.404875 
L 157.278072 251.38694 
L 158.581906 251.853319 
L 159.885739 252.556554 
L 163.79724 254.09323 
L 166.404907 255.38405 
L 167.70874 255.729382 
L 169.012574 256.360476 
L 172.924074 257.75387 
L 174.227908 258.485448 
L 175.531742 258.845057 
L 176.835575 259.457167 
L 178.139409 259.874329 
L 180.747076 261.022952 
L 182.050909 261.45657 
L 183.354743 262.067794 
L 184.658576 262.312858 
L 185.96241 262.967861 
L 188.570077 263.754982 
L 195.089244 266.147465 
L 197.696911 266.73765 
L 200.304578 267.792025 
L 201.608412 268.10886 
L 202.912245 268.687933 
L 205.519912 269.307112 
L 206.823746 269.773844 
L 208.127579 269.868707 
L 209.431413 270.452037 
L 210.735246 270.732412 
L 213.342913 271.773161 
L 215.950581 272.463793 
L 217.254414 272.700822 
L 218.558248 273.212488 
L 219.862081 273.421877 
L 223.773582 274.511597 
L 225.077415 274.608082 
L 226.381249 275.178373 
L 228.988916 275.700793 
L 230.292749 276.141437 
L 231.596583 276.362691 
L 232.900416 276.777473 
L 234.20425 277.068452 
L 235.508083 277.540643 
L 236.811917 277.638423 
L 238.11575 277.954919 
L 239.419584 278.430313 
L 242.027251 278.795901 
L 244.634918 279.499452 
L 245.938751 279.562757 
L 247.242585 280.000318 
L 251.154085 280.820344 
L 252.457919 281.155572 
L 253.761752 281.156862 
L 255.065586 281.683749 
L 260.28092 282.714085 
L 261.584754 282.728828 
L 262.888587 282.889309 
L 264.192421 283.317464 
L 270.711588 284.569471 
L 272.015422 284.575423 
L 273.319255 284.946992 
L 274.623089 285.091532 
L 275.926922 285.40031 
L 277.230756 285.369822 
L 278.534589 285.782118 
L 279.838423 285.900721 
L 282.44609 286.378645 
L 283.749923 286.4229 
L 287.661424 287.092067 
L 288.965257 287.176517 
L 291.572924 287.685646 
L 292.876758 287.755113 
L 294.180591 288.053017 
L 295.484425 288.032637 
L 296.788258 288.422814 
L 299.395926 288.677223 
L 304.61126 289.248129 
L 305.915093 289.306442 
L 307.218927 289.58977 
L 309.826594 289.744023 
L 311.130427 290.173215 
L 312.434261 290.151986 
L 313.738094 290.383205 
L 315.041928 290.330389 
L 316.345761 290.483295 
L 317.649595 290.824583 
L 321.561095 290.860357 
L 322.864929 291.138084 
L 324.168762 291.101749 
L 326.776429 291.500222 
L 343.726265 292.881439 
L 346.333932 292.98183 
L 350.245433 293.355402 
L 352.8531 293.468258 
L 354.156933 293.628143 
L 355.460767 293.629631 
L 358.068434 293.874399 
L 360.676101 293.954631 
L 363.283768 294.042199 
L 364.587601 294.169223 
L 365.891435 294.126887 
L 367.195268 294.315791 
L 375.018269 294.686729 
L 382.841271 295.068449 
L 384.145104 294.927355 
L 385.448938 295.115817 
L 388.056605 295.193112 
L 389.360438 295.122081 
L 393.271939 295.373121 
L 394.575772 295.309267 
L 398.487273 295.488 
L 398.487273 295.488 
" clip-path="url(#p6c42df413c)" style="fill: none; stroke: #1f77b4; stroke-width: 1.5; stroke-linecap: square"/>
   </g>
   <g id="line2d_15">
    <path d="M 73.832727 165.558989 
L 75.136561 173.581099 
L 76.440394 177.805248 
L 77.744228 180.516278 
L 79.048061 182.564059 
L 81.655728 185.874696 
L 82.959562 187.019736 
L 84.263395 187.773896 
L 86.871062 189.798246 
L 89.478729 190.837313 
L 90.782563 191.73445 
L 92.086396 191.885414 
L 93.39023 192.286405 
L 94.694064 192.469593 
L 97.301731 193.156015 
L 98.605564 193.794764 
L 99.909398 193.73169 
L 101.213231 193.961003 
L 102.517065 194.022399 
L 103.820898 194.195939 
L 105.124732 194.049358 
L 106.428565 194.033918 
L 109.036232 194.331011 
L 110.340066 194.200517 
L 111.643899 194.557247 
L 112.947733 194.167822 
L 114.251566 194.160421 
L 115.5554 193.907108 
L 118.163067 193.603945 
L 119.4669 193.710413 
L 120.770734 193.616883 
L 122.074567 193.342242 
L 123.378401 193.526495 
L 125.986068 192.249865 
L 127.289901 192.759409 
L 128.593735 192.470385 
L 129.897568 192.633012 
L 131.201402 192.079569 
L 133.809069 191.857361 
L 135.112903 191.379861 
L 136.416736 191.469795 
L 137.72057 191.026396 
L 139.024403 190.414715 
L 140.328237 190.265475 
L 141.63207 189.787878 
L 142.935904 190.037984 
L 144.239737 189.845341 
L 145.543571 188.784512 
L 146.847404 188.764726 
L 148.151238 188.449543 
L 149.455071 187.871954 
L 150.758905 187.817113 
L 152.062738 187.296377 
L 153.366572 187.389987 
L 154.670405 186.434704 
L 155.974239 185.884252 
L 157.278072 186.267957 
L 159.885739 185.090871 
L 161.189573 184.84023 
L 162.493406 184.858018 
L 163.79724 184.306098 
L 165.101073 184.061749 
L 166.404907 183.358314 
L 167.70874 182.800058 
L 169.012574 182.443575 
L 170.316407 182.584182 
L 171.620241 182.160895 
L 172.924074 181.59408 
L 174.227908 180.736464 
L 175.531742 180.485461 
L 176.835575 179.616006 
L 178.139409 179.319094 
L 179.443242 178.718446 
L 182.050909 178.301121 
L 183.354743 177.803902 
L 184.658576 176.643054 
L 185.96241 176.334013 
L 187.266243 175.764496 
L 188.570077 175.781304 
L 189.87391 174.676367 
L 191.177744 174.540276 
L 192.481577 173.836677 
L 193.785411 174.262939 
L 195.089244 173.352926 
L 196.393078 172.614535 
L 197.696911 171.434401 
L 199.000745 171.527697 
L 200.304578 170.918182 
L 201.608412 170.521848 
L 204.216079 169.374255 
L 205.519912 168.380148 
L 206.823746 167.766894 
L 208.127579 167.43102 
L 212.03908 165.986672 
L 213.342913 165.674044 
L 214.646747 164.796354 
L 215.950581 164.149728 
L 217.254414 163.945117 
L 218.558248 162.949737 
L 221.165915 161.967989 
L 222.469748 160.530127 
L 225.077415 160.359263 
L 226.381249 159.821078 
L 227.685082 158.054554 
L 228.988916 158.256054 
L 230.292749 157.983244 
L 231.596583 156.409131 
L 232.900416 156.258394 
L 235.508083 154.937133 
L 238.11575 153.704288 
L 239.419584 152.373398 
L 240.723417 151.884256 
L 242.027251 152.153862 
L 243.331084 151.45209 
L 244.634918 151.158254 
L 245.938751 149.328005 
L 247.242585 149.073719 
L 248.546418 148.364873 
L 249.850252 148.170364 
L 251.154085 147.121146 
L 252.457919 146.545247 
L 253.761752 145.319637 
L 255.065586 145.357191 
L 256.369419 144.610711 
L 257.673253 144.115024 
L 258.977087 142.874278 
L 260.28092 142.57685 
L 261.584754 141.574343 
L 264.192421 139.961123 
L 265.496254 139.219748 
L 266.800088 139.591801 
L 268.103921 138.278672 
L 270.711588 136.282622 
L 272.015422 135.6852 
L 273.319255 134.890739 
L 274.623089 134.815231 
L 275.926922 133.243842 
L 277.230756 133.48253 
L 278.534589 131.362729 
L 279.838423 131.567442 
L 281.142256 130.453803 
L 282.44609 130.322121 
L 283.749923 127.805234 
L 285.053757 128.258674 
L 286.35759 127.874852 
L 288.965257 126.717551 
L 290.269091 125.68037 
L 291.572924 124.390856 
L 292.876758 124.460392 
L 294.180591 123.024769 
L 295.484425 122.391023 
L 296.788258 122.074638 
L 299.395926 118.597681 
L 300.699759 118.843396 
L 303.307426 117.712628 
L 304.61126 116.836439 
L 305.915093 115.591228 
L 307.218927 115.415977 
L 308.52276 114.942994 
L 309.826594 113.681099 
L 311.130427 112.09868 
L 312.434261 111.945667 
L 313.738094 110.741196 
L 317.649595 108.703682 
L 318.953428 107.324571 
L 320.257262 106.805555 
L 321.561095 105.28107 
L 322.864929 105.361027 
L 324.168762 104.381979 
L 325.472596 103.219503 
L 326.776429 102.65282 
L 328.080263 101.340781 
L 329.384096 101.096471 
L 330.68793 100.369853 
L 331.991763 99.089767 
L 333.295597 98.108597 
L 334.59943 97.623706 
L 335.903264 96.827461 
L 337.207097 96.208128 
L 338.510931 95.190596 
L 339.814765 93.208076 
L 341.118598 93.266525 
L 342.422432 92.66498 
L 343.726265 90.725815 
L 345.030099 89.381344 
L 346.333932 89.803421 
L 347.637766 88.811985 
L 348.941599 88.407621 
L 350.245433 86.87334 
L 351.549266 86.15454 
L 352.8531 85.630167 
L 354.156933 83.746346 
L 355.460767 83.754575 
L 356.7646 83.04193 
L 358.068434 81.928203 
L 359.372267 80.563629 
L 361.979934 79.622005 
L 363.283768 78.376774 
L 365.891435 77.276226 
L 367.195268 75.693632 
L 368.499102 74.989333 
L 371.106769 73.156298 
L 372.410602 71.813822 
L 373.714436 71.112842 
L 375.018269 71.138094 
L 376.322103 70.011026 
L 377.625936 68.24483 
L 378.92977 67.99548 
L 381.537437 65.766008 
L 382.841271 64.879034 
L 384.145104 62.713355 
L 385.448938 62.810794 
L 386.752771 61.904474 
L 388.056605 60.520649 
L 389.360438 60.443092 
L 390.664272 58.962414 
L 393.271939 57.535516 
L 394.575772 56.391907 
L 397.183439 54.7806 
L 398.487273 53.568 
L 398.487273 53.568 
" clip-path="url(#p6c42df413c)" style="fill: none; stroke: #ff7f0e; stroke-width: 1.5; stroke-linecap: square"/>
   </g>
   <g id="patch_3">
    <path d="M 57.6 307.584 
L 57.6 41.472 
" style="fill: none; stroke: #000000; stroke-width: 0.8; stroke-linejoin: miter; stroke-linecap: square"/>
   </g>
   <g id="patch_4">
    <path d="M 414.72 307.584 
L 414.72 41.472 
" style="fill: none; stroke: #000000; stroke-width: 0.8; stroke-linejoin: miter; stroke-linecap: square"/>
   </g>
   <g id="patch_5">
    <path d="M 57.6 307.584 
L 414.72 307.584 
" style="fill: none; stroke: #000000; stroke-width: 0.8; stroke-linejoin: miter; stroke-linecap: square"/>
   </g>
   <g id="patch_6">
    <path d="M 57.6 41.472 
L 414.72 41.472 
" style="fill: none; stroke: #000000; stroke-width: 0.8; stroke-linejoin: miter; stroke-linecap: square"/>
   </g>
   <g id="legend_1">
    <g id="patch_7">
     <path d="M 64.6 79.3845 
L 155.553125 79.3845 
Q 157.553125 79.3845 157.553125 77.3845 
L 157.553125 48.472 
Q 157.553125 46.472 155.553125 46.472 
L 64.6 46.472 
Q 62.6 46.472 62.6 48.472 
L 62.6 77.3845 
Q 62.6 79.3845 64.6 79.3845 
z
" style="fill: #ffffff; opacity: 0.8; stroke: #cccccc; stroke-linejoin: miter"/>
    </g>
    <g id="line2d_16">
     <path d="M 66.6 54.570438 
L 76.6 54.570438 
L 86.6 54.570438 
" style="fill: none; stroke: #1f77b4; stroke-width: 1.5; stroke-linecap: square"/>
    </g>
    <g id="text_14">
     <!-- train_losses -->
     <g transform="translate(94.6 58.070438) scale(0.1 -0.1)">
      <defs>
       <path id="DejaVuSans-74" d="M 1172 4494 
L 1172 3500 
L 2356 3500 
L 2356 3053 
L 1172 3053 
L 1172 1153 
Q 1172 725 1289 603 
Q 1406 481 1766 481 
L 2356 481 
L 2356 0 
L 1766 0 
Q 1100 0 847 248 
Q 594 497 594 1153 
L 594 3053 
L 172 3053 
L 172 3500 
L 594 3500 
L 594 4494 
L 1172 4494 
z
" transform="scale(0.015625)"/>
       <path id="DejaVuSans-72" d="M 2631 2963 
Q 2534 3019 2420 3045 
Q 2306 3072 2169 3072 
Q 1681 3072 1420 2755 
Q 1159 2438 1159 1844 
L 1159 0 
L 581 0 
L 581 3500 
L 1159 3500 
L 1159 2956 
Q 1341 3275 1631 3429 
Q 1922 3584 2338 3584 
Q 2397 3584 2469 3576 
Q 2541 3569 2628 3553 
L 2631 2963 
z
" transform="scale(0.015625)"/>
       <path id="DejaVuSans-61" d="M 2194 1759 
Q 1497 1759 1228 1600 
Q 959 1441 959 1056 
Q 959 750 1161 570 
Q 1363 391 1709 391 
Q 2188 391 2477 730 
Q 2766 1069 2766 1631 
L 2766 1759 
L 2194 1759 
z
M 3341 1997 
L 3341 0 
L 2766 0 
L 2766 531 
Q 2569 213 2275 61 
Q 1981 -91 1556 -91 
Q 1019 -91 701 211 
Q 384 513 384 1019 
Q 384 1609 779 1909 
Q 1175 2209 1959 2209 
L 2766 2209 
L 2766 2266 
Q 2766 2663 2505 2880 
Q 2244 3097 1772 3097 
Q 1472 3097 1187 3025 
Q 903 2953 641 2809 
L 641 3341 
Q 956 3463 1253 3523 
Q 1550 3584 1831 3584 
Q 2591 3584 2966 3190 
Q 3341 2797 3341 1997 
z
" transform="scale(0.015625)"/>
       <path id="DejaVuSans-69" d="M 603 3500 
L 1178 3500 
L 1178 0 
L 603 0 
L 603 3500 
z
M 603 4863 
L 1178 4863 
L 1178 4134 
L 603 4134 
L 603 4863 
z
" transform="scale(0.015625)"/>
       <path id="DejaVuSans-6e" d="M 3513 2113 
L 3513 0 
L 2938 0 
L 2938 2094 
Q 2938 2591 2744 2837 
Q 2550 3084 2163 3084 
Q 1697 3084 1428 2787 
Q 1159 2491 1159 1978 
L 1159 0 
L 581 0 
L 581 3500 
L 1159 3500 
L 1159 2956 
Q 1366 3272 1645 3428 
Q 1925 3584 2291 3584 
Q 2894 3584 3203 3211 
Q 3513 2838 3513 2113 
z
" transform="scale(0.015625)"/>
       <path id="DejaVuSans-5f" d="M 3263 -1063 
L 3263 -1509 
L -63 -1509 
L -63 -1063 
L 3263 -1063 
z
" transform="scale(0.015625)"/>
       <path id="DejaVuSans-6c" d="M 603 4863 
L 1178 4863 
L 1178 0 
L 603 0 
L 603 4863 
z
" transform="scale(0.015625)"/>
       <path id="DejaVuSans-6f" d="M 1959 3097 
Q 1497 3097 1228 2736 
Q 959 2375 959 1747 
Q 959 1119 1226 758 
Q 1494 397 1959 397 
Q 2419 397 2687 759 
Q 2956 1122 2956 1747 
Q 2956 2369 2687 2733 
Q 2419 3097 1959 3097 
z
M 1959 3584 
Q 2709 3584 3137 3096 
Q 3566 2609 3566 1747 
Q 3566 888 3137 398 
Q 2709 -91 1959 -91 
Q 1206 -91 779 398 
Q 353 888 353 1747 
Q 353 2609 779 3096 
Q 1206 3584 1959 3584 
z
" transform="scale(0.015625)"/>
       <path id="DejaVuSans-73" d="M 2834 3397 
L 2834 2853 
Q 2591 2978 2328 3040 
Q 2066 3103 1784 3103 
Q 1356 3103 1142 2972 
Q 928 2841 928 2578 
Q 928 2378 1081 2264 
Q 1234 2150 1697 2047 
L 1894 2003 
Q 2506 1872 2764 1633 
Q 3022 1394 3022 966 
Q 3022 478 2636 193 
Q 2250 -91 1575 -91 
Q 1294 -91 989 -36 
Q 684 19 347 128 
L 347 722 
Q 666 556 975 473 
Q 1284 391 1588 391 
Q 1994 391 2212 530 
Q 2431 669 2431 922 
Q 2431 1156 2273 1281 
Q 2116 1406 1581 1522 
L 1381 1569 
Q 847 1681 609 1914 
Q 372 2147 372 2553 
Q 372 3047 722 3315 
Q 1072 3584 1716 3584 
Q 2034 3584 2315 3537 
Q 2597 3491 2834 3397 
z
" transform="scale(0.015625)"/>
       <path id="DejaVuSans-65" d="M 3597 1894 
L 3597 1613 
L 953 1613 
Q 991 1019 1311 708 
Q 1631 397 2203 397 
Q 2534 397 2845 478 
Q 3156 559 3463 722 
L 3463 178 
Q 3153 47 2828 -22 
Q 2503 -91 2169 -91 
Q 1331 -91 842 396 
Q 353 884 353 1716 
Q 353 2575 817 3079 
Q 1281 3584 2069 3584 
Q 2775 3584 3186 3129 
Q 3597 2675 3597 1894 
z
M 3022 2063 
Q 3016 2534 2758 2815 
Q 2500 3097 2075 3097 
Q 1594 3097 1305 2825 
Q 1016 2553 972 2059 
L 3022 2063 
z
" transform="scale(0.015625)"/>
      </defs>
      <use xlink:href="#DejaVuSans-74"/>
      <use xlink:href="#DejaVuSans-72" x="39.208984"/>
      <use xlink:href="#DejaVuSans-61" x="80.322266"/>
      <use xlink:href="#DejaVuSans-69" x="141.601562"/>
      <use xlink:href="#DejaVuSans-6e" x="169.384766"/>
      <use xlink:href="#DejaVuSans-5f" x="232.763672"/>
      <use xlink:href="#DejaVuSans-6c" x="282.763672"/>
      <use xlink:href="#DejaVuSans-6f" x="310.546875"/>
      <use xlink:href="#DejaVuSans-73" x="371.728516"/>
      <use xlink:href="#DejaVuSans-73" x="423.828125"/>
      <use xlink:href="#DejaVuSans-65" x="475.927734"/>
      <use xlink:href="#DejaVuSans-73" x="537.451172"/>
     </g>
    </g>
    <g id="line2d_17">
     <path d="M 66.6 69.526688 
L 76.6 69.526688 
L 86.6 69.526688 
" style="fill: none; stroke: #ff7f0e; stroke-width: 1.5; stroke-linecap: square"/>
    </g>
    <g id="text_15">
     <!-- test_losses -->
     <g transform="translate(94.6 73.026688) scale(0.1 -0.1)">
      <use xlink:href="#DejaVuSans-74"/>
      <use xlink:href="#DejaVuSans-65" x="39.208984"/>
      <use xlink:href="#DejaVuSans-73" x="100.732422"/>
      <use xlink:href="#DejaVuSans-74" x="152.832031"/>
      <use xlink:href="#DejaVuSans-5f" x="192.041016"/>
      <use xlink:href="#DejaVuSans-6c" x="242.041016"/>
      <use xlink:href="#DejaVuSans-6f" x="269.824219"/>
      <use xlink:href="#DejaVuSans-73" x="331.005859"/>
      <use xlink:href="#DejaVuSans-73" x="383.105469"/>
      <use xlink:href="#DejaVuSans-65" x="435.205078"/>
      <use xlink:href="#DejaVuSans-73" x="496.728516"/>
     </g>
    </g>
   </g>
  </g>
 </g>
 <defs>
  <clipPath id="p6c42df413c">
   <rect x="57.6" y="41.472" width="357.12" height="266.112"/>
  </clipPath>
 </defs>
</svg>
