<?xml version="1.0" encoding="utf-8" standalone="no"?>
<!DOCTYPE svg PUBLIC "-//W3C//DTD SVG 1.1//EN"
  "http://www.w3.org/Graphics/SVG/1.1/DTD/svg11.dtd">
<svg xmlns:xlink="http://www.w3.org/1999/xlink" width="460.8pt" height="345.6pt" viewBox="0 0 460.8 345.6" xmlns="http://www.w3.org/2000/svg" version="1.1">
 <metadata>
  <rdf:RDF xmlns:dc="http://purl.org/dc/elements/1.1/" xmlns:cc="http://creativecommons.org/ns#" xmlns:rdf="http://www.w3.org/1999/02/22-rdf-syntax-ns#">
   <cc:Work>
    <dc:type rdf:resource="http://purl.org/dc/dcmitype/StillImage"/>
    <dc:date>2023-10-30T04:29:34.038198</dc:date>
    <dc:format>image/svg+xml</dc:format>
    <dc:creator>
     <cc:Agent>
      <dc:title>Matplotlib v3.8.0, https://matplotlib.org/</dc:title>
     </cc:Agent>
    </dc:creator>
   </cc:Work>
  </rdf:RDF>
 </metadata>
 <defs>
  <style type="text/css">*{stroke-linejoin: round; stroke-linecap: butt}</style>
 </defs>
 <g id="figure_1">
  <g id="patch_1">
   <path d="M 0 345.6 
L 460.8 345.6 
L 460.8 0 
L 0 0 
z
" style="fill: #ffffff"/>
  </g>
  <g id="axes_1">
   <g id="patch_2">
    <path d="M 57.6 307.584 
L 414.72 307.584 
L 414.72 41.472 
L 57.6 41.472 
z
" style="fill: #ffffff"/>
   </g>
   <g id="matplotlib.axis_1">
    <g id="xtick_1">
     <g id="line2d_1">
      <defs>
       <path id="m5e1154d0fc" d="M 0 0 
L 0 3.5 
" style="stroke: #000000; stroke-width: 0.8"/>
      </defs>
      <g>
       <use xlink:href="#m5e1154d0fc" x="73.832727" y="307.584" style="stroke: #000000; stroke-width: 0.8"/>
      </g>
     </g>
     <g id="text_1">
      <!-- 0 -->
      <g transform="translate(70.651477 322.182437) scale(0.1 -0.1)">
       <defs>
        <path id="DejaVuSans-30" d="M 2034 4250 
Q 1547 4250 1301 3770 
Q 1056 3291 1056 2328 
Q 1056 1369 1301 889 
Q 1547 409 2034 409 
Q 2525 409 2770 889 
Q 3016 1369 3016 2328 
Q 3016 3291 2770 3770 
Q 2525 4250 2034 4250 
z
M 2034 4750 
Q 2819 4750 3233 4129 
Q 3647 3509 3647 2328 
Q 3647 1150 3233 529 
Q 2819 -91 2034 -91 
Q 1250 -91 836 529 
Q 422 1150 422 2328 
Q 422 3509 836 4129 
Q 1250 4750 2034 4750 
z
" transform="scale(0.015625)"/>
       </defs>
       <use xlink:href="#DejaVuSans-30"/>
      </g>
     </g>
    </g>
    <g id="xtick_2">
     <g id="line2d_2">
      <g>
       <use xlink:href="#m5e1154d0fc" x="139.024403" y="307.584" style="stroke: #000000; stroke-width: 0.8"/>
      </g>
     </g>
     <g id="text_2">
      <!-- 50 -->
      <g transform="translate(132.661903 322.182437) scale(0.1 -0.1)">
       <defs>
        <path id="DejaVuSans-35" d="M 691 4666 
L 3169 4666 
L 3169 4134 
L 1269 4134 
L 1269 2991 
Q 1406 3038 1543 3061 
Q 1681 3084 1819 3084 
Q 2600 3084 3056 2656 
Q 3513 2228 3513 1497 
Q 3513 744 3044 326 
Q 2575 -91 1722 -91 
Q 1428 -91 1123 -41 
Q 819 9 494 109 
L 494 744 
Q 775 591 1075 516 
Q 1375 441 1709 441 
Q 2250 441 2565 725 
Q 2881 1009 2881 1497 
Q 2881 1984 2565 2268 
Q 2250 2553 1709 2553 
Q 1456 2553 1204 2497 
Q 953 2441 691 2322 
L 691 4666 
z
" transform="scale(0.015625)"/>
       </defs>
       <use xlink:href="#DejaVuSans-35"/>
       <use xlink:href="#DejaVuSans-30" x="63.623047"/>
      </g>
     </g>
    </g>
    <g id="xtick_3">
     <g id="line2d_3">
      <g>
       <use xlink:href="#m5e1154d0fc" x="204.216079" y="307.584" style="stroke: #000000; stroke-width: 0.8"/>
      </g>
     </g>
     <g id="text_3">
      <!-- 100 -->
      <g transform="translate(194.672329 322.182437) scale(0.1 -0.1)">
       <defs>
        <path id="DejaVuSans-31" d="M 794 531 
L 1825 531 
L 1825 4091 
L 703 3866 
L 703 4441 
L 1819 4666 
L 2450 4666 
L 2450 531 
L 3481 531 
L 3481 0 
L 794 0 
L 794 531 
z
" transform="scale(0.015625)"/>
       </defs>
       <use xlink:href="#DejaVuSans-31"/>
       <use xlink:href="#DejaVuSans-30" x="63.623047"/>
       <use xlink:href="#DejaVuSans-30" x="127.246094"/>
      </g>
     </g>
    </g>
    <g id="xtick_4">
     <g id="line2d_4">
      <g>
       <use xlink:href="#m5e1154d0fc" x="269.407755" y="307.584" style="stroke: #000000; stroke-width: 0.8"/>
      </g>
     </g>
     <g id="text_4">
      <!-- 150 -->
      <g transform="translate(259.864005 322.182437) scale(0.1 -0.1)">
       <use xlink:href="#DejaVuSans-31"/>
       <use xlink:href="#DejaVuSans-35" x="63.623047"/>
       <use xlink:href="#DejaVuSans-30" x="127.246094"/>
      </g>
     </g>
    </g>
    <g id="xtick_5">
     <g id="line2d_5">
      <g>
       <use xlink:href="#m5e1154d0fc" x="334.59943" y="307.584" style="stroke: #000000; stroke-width: 0.8"/>
      </g>
     </g>
     <g id="text_5">
      <!-- 200 -->
      <g transform="translate(325.05568 322.182437) scale(0.1 -0.1)">
       <defs>
        <path id="DejaVuSans-32" d="M 1228 531 
L 3431 531 
L 3431 0 
L 469 0 
L 469 531 
Q 828 903 1448 1529 
Q 2069 2156 2228 2338 
Q 2531 2678 2651 2914 
Q 2772 3150 2772 3378 
Q 2772 3750 2511 3984 
Q 2250 4219 1831 4219 
Q 1534 4219 1204 4116 
Q 875 4013 500 3803 
L 500 4441 
Q 881 4594 1212 4672 
Q 1544 4750 1819 4750 
Q 2544 4750 2975 4387 
Q 3406 4025 3406 3419 
Q 3406 3131 3298 2873 
Q 3191 2616 2906 2266 
Q 2828 2175 2409 1742 
Q 1991 1309 1228 531 
z
" transform="scale(0.015625)"/>
       </defs>
       <use xlink:href="#DejaVuSans-32"/>
       <use xlink:href="#DejaVuSans-30" x="63.623047"/>
       <use xlink:href="#DejaVuSans-30" x="127.246094"/>
      </g>
     </g>
    </g>
    <g id="xtick_6">
     <g id="line2d_6">
      <g>
       <use xlink:href="#m5e1154d0fc" x="399.791106" y="307.584" style="stroke: #000000; stroke-width: 0.8"/>
      </g>
     </g>
     <g id="text_6">
      <!-- 250 -->
      <g transform="translate(390.247356 322.182437) scale(0.1 -0.1)">
       <use xlink:href="#DejaVuSans-32"/>
       <use xlink:href="#DejaVuSans-35" x="63.623047"/>
       <use xlink:href="#DejaVuSans-30" x="127.246094"/>
      </g>
     </g>
    </g>
   </g>
   <g id="matplotlib.axis_2">
    <g id="ytick_1">
     <g id="line2d_7">
      <defs>
       <path id="mf09642d131" d="M 0 0 
L -3.5 0 
" style="stroke: #000000; stroke-width: 0.8"/>
      </defs>
      <g>
       <use xlink:href="#mf09642d131" x="57.6" y="298.379656" style="stroke: #000000; stroke-width: 0.8"/>
      </g>
     </g>
     <g id="text_7">
      <!-- 30 -->
      <g transform="translate(37.875 302.178874) scale(0.1 -0.1)">
       <defs>
        <path id="DejaVuSans-33" d="M 2597 2516 
Q 3050 2419 3304 2112 
Q 3559 1806 3559 1356 
Q 3559 666 3084 287 
Q 2609 -91 1734 -91 
Q 1441 -91 1130 -33 
Q 819 25 488 141 
L 488 750 
Q 750 597 1062 519 
Q 1375 441 1716 441 
Q 2309 441 2620 675 
Q 2931 909 2931 1356 
Q 2931 1769 2642 2001 
Q 2353 2234 1838 2234 
L 1294 2234 
L 1294 2753 
L 1863 2753 
Q 2328 2753 2575 2939 
Q 2822 3125 2822 3475 
Q 2822 3834 2567 4026 
Q 2313 4219 1838 4219 
Q 1578 4219 1281 4162 
Q 984 4106 628 3988 
L 628 4550 
Q 988 4650 1302 4700 
Q 1616 4750 1894 4750 
Q 2613 4750 3031 4423 
Q 3450 4097 3450 3541 
Q 3450 3153 3228 2886 
Q 3006 2619 2597 2516 
z
" transform="scale(0.015625)"/>
       </defs>
       <use xlink:href="#DejaVuSans-33"/>
       <use xlink:href="#DejaVuSans-30" x="63.623047"/>
      </g>
     </g>
    </g>
    <g id="ytick_2">
     <g id="line2d_8">
      <g>
       <use xlink:href="#mf09642d131" x="57.6" y="263.406562" style="stroke: #000000; stroke-width: 0.8"/>
      </g>
     </g>
     <g id="text_8">
      <!-- 40 -->
      <g transform="translate(37.875 267.205781) scale(0.1 -0.1)">
       <defs>
        <path id="DejaVuSans-34" d="M 2419 4116 
L 825 1625 
L 2419 1625 
L 2419 4116 
z
M 2253 4666 
L 3047 4666 
L 3047 1625 
L 3713 1625 
L 3713 1100 
L 3047 1100 
L 3047 0 
L 2419 0 
L 2419 1100 
L 313 1100 
L 313 1709 
L 2253 4666 
z
" transform="scale(0.015625)"/>
       </defs>
       <use xlink:href="#DejaVuSans-34"/>
       <use xlink:href="#DejaVuSans-30" x="63.623047"/>
      </g>
     </g>
    </g>
    <g id="ytick_3">
     <g id="line2d_9">
      <g>
       <use xlink:href="#mf09642d131" x="57.6" y="228.433468" style="stroke: #000000; stroke-width: 0.8"/>
      </g>
     </g>
     <g id="text_9">
      <!-- 50 -->
      <g transform="translate(37.875 232.232687) scale(0.1 -0.1)">
       <use xlink:href="#DejaVuSans-35"/>
       <use xlink:href="#DejaVuSans-30" x="63.623047"/>
      </g>
     </g>
    </g>
    <g id="ytick_4">
     <g id="line2d_10">
      <g>
       <use xlink:href="#mf09642d131" x="57.6" y="193.460375" style="stroke: #000000; stroke-width: 0.8"/>
      </g>
     </g>
     <g id="text_10">
      <!-- 60 -->
      <g transform="translate(37.875 197.259593) scale(0.1 -0.1)">
       <defs>
        <path id="DejaVuSans-36" d="M 2113 2584 
Q 1688 2584 1439 2293 
Q 1191 2003 1191 1497 
Q 1191 994 1439 701 
Q 1688 409 2113 409 
Q 2538 409 2786 701 
Q 3034 994 3034 1497 
Q 3034 2003 2786 2293 
Q 2538 2584 2113 2584 
z
M 3366 4563 
L 3366 3988 
Q 3128 4100 2886 4159 
Q 2644 4219 2406 4219 
Q 1781 4219 1451 3797 
Q 1122 3375 1075 2522 
Q 1259 2794 1537 2939 
Q 1816 3084 2150 3084 
Q 2853 3084 3261 2657 
Q 3669 2231 3669 1497 
Q 3669 778 3244 343 
Q 2819 -91 2113 -91 
Q 1303 -91 875 529 
Q 447 1150 447 2328 
Q 447 3434 972 4092 
Q 1497 4750 2381 4750 
Q 2619 4750 2861 4703 
Q 3103 4656 3366 4563 
z
" transform="scale(0.015625)"/>
       </defs>
       <use xlink:href="#DejaVuSans-36"/>
       <use xlink:href="#DejaVuSans-30" x="63.623047"/>
      </g>
     </g>
    </g>
    <g id="ytick_5">
     <g id="line2d_11">
      <g>
       <use xlink:href="#mf09642d131" x="57.6" y="158.487281" style="stroke: #000000; stroke-width: 0.8"/>
      </g>
     </g>
     <g id="text_11">
      <!-- 70 -->
      <g transform="translate(37.875 162.2865) scale(0.1 -0.1)">
       <defs>
        <path id="DejaVuSans-37" d="M 525 4666 
L 3525 4666 
L 3525 4397 
L 1831 0 
L 1172 0 
L 2766 4134 
L 525 4134 
L 525 4666 
z
" transform="scale(0.015625)"/>
       </defs>
       <use xlink:href="#DejaVuSans-37"/>
       <use xlink:href="#DejaVuSans-30" x="63.623047"/>
      </g>
     </g>
    </g>
    <g id="ytick_6">
     <g id="line2d_12">
      <g>
       <use xlink:href="#mf09642d131" x="57.6" y="123.514187" style="stroke: #000000; stroke-width: 0.8"/>
      </g>
     </g>
     <g id="text_12">
      <!-- 80 -->
      <g transform="translate(37.875 127.313406) scale(0.1 -0.1)">
       <defs>
        <path id="DejaVuSans-38" d="M 2034 2216 
Q 1584 2216 1326 1975 
Q 1069 1734 1069 1313 
Q 1069 891 1326 650 
Q 1584 409 2034 409 
Q 2484 409 2743 651 
Q 3003 894 3003 1313 
Q 3003 1734 2745 1975 
Q 2488 2216 2034 2216 
z
M 1403 2484 
Q 997 2584 770 2862 
Q 544 3141 544 3541 
Q 544 4100 942 4425 
Q 1341 4750 2034 4750 
Q 2731 4750 3128 4425 
Q 3525 4100 3525 3541 
Q 3525 3141 3298 2862 
Q 3072 2584 2669 2484 
Q 3125 2378 3379 2068 
Q 3634 1759 3634 1313 
Q 3634 634 3220 271 
Q 2806 -91 2034 -91 
Q 1263 -91 848 271 
Q 434 634 434 1313 
Q 434 1759 690 2068 
Q 947 2378 1403 2484 
z
M 1172 3481 
Q 1172 3119 1398 2916 
Q 1625 2713 2034 2713 
Q 2441 2713 2670 2916 
Q 2900 3119 2900 3481 
Q 2900 3844 2670 4047 
Q 2441 4250 2034 4250 
Q 1625 4250 1398 4047 
Q 1172 3844 1172 3481 
z
" transform="scale(0.015625)"/>
       </defs>
       <use xlink:href="#DejaVuSans-38"/>
       <use xlink:href="#DejaVuSans-30" x="63.623047"/>
      </g>
     </g>
    </g>
    <g id="ytick_7">
     <g id="line2d_13">
      <g>
       <use xlink:href="#mf09642d131" x="57.6" y="88.541094" style="stroke: #000000; stroke-width: 0.8"/>
      </g>
     </g>
     <g id="text_13">
      <!-- 90 -->
      <g transform="translate(37.875 92.340312) scale(0.1 -0.1)">
       <defs>
        <path id="DejaVuSans-39" d="M 703 97 
L 703 672 
Q 941 559 1184 500 
Q 1428 441 1663 441 
Q 2288 441 2617 861 
Q 2947 1281 2994 2138 
Q 2813 1869 2534 1725 
Q 2256 1581 1919 1581 
Q 1219 1581 811 2004 
Q 403 2428 403 3163 
Q 403 3881 828 4315 
Q 1253 4750 1959 4750 
Q 2769 4750 3195 4129 
Q 3622 3509 3622 2328 
Q 3622 1225 3098 567 
Q 2575 -91 1691 -91 
Q 1453 -91 1209 -44 
Q 966 3 703 97 
z
M 1959 2075 
Q 2384 2075 2632 2365 
Q 2881 2656 2881 3163 
Q 2881 3666 2632 3958 
Q 2384 4250 1959 4250 
Q 1534 4250 1286 3958 
Q 1038 3666 1038 3163 
Q 1038 2656 1286 2365 
Q 1534 2075 1959 2075 
z
" transform="scale(0.015625)"/>
       </defs>
       <use xlink:href="#DejaVuSans-39"/>
       <use xlink:href="#DejaVuSans-30" x="63.623047"/>
      </g>
     </g>
    </g>
    <g id="ytick_8">
     <g id="line2d_14">
      <g>
       <use xlink:href="#mf09642d131" x="57.6" y="53.568" style="stroke: #000000; stroke-width: 0.8"/>
      </g>
     </g>
     <g id="text_14">
      <!-- 100 -->
      <g transform="translate(31.5125 57.367219) scale(0.1 -0.1)">
       <use xlink:href="#DejaVuSans-31"/>
       <use xlink:href="#DejaVuSans-30" x="63.623047"/>
       <use xlink:href="#DejaVuSans-30" x="127.246094"/>
      </g>
     </g>
    </g>
   </g>
   <g id="line2d_15">
    <path d="M 73.832727 295.488 
L 75.136561 256.460612 
L 76.440394 243.482315 
L 77.744228 234.16128 
L 79.048061 228.11328 
L 80.351895 221.481826 
L 81.655728 216.13824 
L 82.959562 211.392339 
L 84.263395 207.564311 
L 85.567229 202.932254 
L 89.478729 192.415849 
L 90.782563 189.939727 
L 92.086396 185.727473 
L 93.39023 182.404631 
L 94.694064 180.45504 
L 95.997897 177.438155 
L 97.301731 175.054532 
L 99.909398 169.703831 
L 101.213231 167.547896 
L 102.517065 164.8512 
L 103.820898 161.862776 
L 105.124732 159.991454 
L 106.428565 157.807059 
L 107.732399 155.160169 
L 109.036232 153.488075 
L 112.947733 146.529318 
L 114.251566 144.992414 
L 116.859233 140.481318 
L 118.163067 138.96576 
L 120.770734 134.483125 
L 122.074567 132.832376 
L 123.378401 131.772198 
L 124.682234 130.199718 
L 125.986068 127.979746 
L 127.289901 125.453816 
L 128.593735 124.294024 
L 129.897568 122.935002 
L 131.201402 120.914259 
L 132.505235 119.213704 
L 133.809069 117.890259 
L 135.112903 116.090089 
L 136.416736 114.624339 
L 137.72057 114.026654 
L 139.024403 112.283407 
L 140.328237 110.027859 
L 141.63207 109.494212 
L 142.935904 107.793656 
L 144.239737 105.644838 
L 145.543571 105.018692 
L 146.847404 103.474673 
L 148.151238 101.098165 
L 149.455071 100.365289 
L 150.758905 98.878193 
L 153.366572 96.352264 
L 154.670405 94.81536 
L 155.974239 94.317289 
L 157.278072 92.944038 
L 159.885739 90.638682 
L 161.189573 89.2512 
L 162.493406 88.468518 
L 163.79724 86.888922 
L 165.101073 85.544132 
L 166.404907 85.430287 
L 169.012574 83.516273 
L 170.316407 81.644951 
L 171.620241 80.670155 
L 172.924074 80.022664 
L 174.227908 79.247096 
L 175.531742 78.158456 
L 176.835575 77.980574 
L 178.139409 76.457901 
L 179.443242 75.369261 
L 180.747076 74.664847 
L 182.050909 73.199096 
L 183.354743 72.473336 
L 184.658576 72.309685 
L 185.96241 70.658936 
L 187.266243 70.545092 
L 188.570077 69.869139 
L 189.87391 69.805101 
L 191.177744 68.979727 
L 192.481577 67.869741 
L 193.785411 67.35744 
L 195.089244 66.432452 
L 196.393078 66.403991 
L 197.696911 65.194391 
L 199.000745 64.895548 
L 200.304578 64.148442 
L 201.608412 63.60768 
L 202.912245 63.465374 
L 204.216079 63.508066 
L 205.519912 62.511925 
L 206.823746 62.896151 
L 208.127579 61.359247 
L 209.431413 60.889638 
L 210.735246 61.110212 
L 212.03908 60.441374 
L 213.342913 60.142532 
L 215.950581 59.217544 
L 217.254414 59.153506 
L 218.558248 58.733704 
L 219.862081 58.114673 
L 222.469748 57.751793 
L 223.773582 57.766024 
L 225.077415 57.239492 
L 226.381249 56.997572 
L 227.685082 56.919304 
L 228.988916 56.627576 
L 230.292749 56.513732 
L 231.596583 56.236235 
L 232.900416 56.520847 
L 235.508083 56.243351 
L 236.811917 55.731049 
L 239.419584 55.26144 
L 240.723417 55.432207 
L 244.634918 54.89856 
L 245.938751 54.955482 
L 248.546418 54.763369 
L 249.850252 55.104904 
L 251.154085 54.841638 
L 252.457919 54.421835 
L 253.761752 54.258184 
L 255.065586 54.350682 
L 258.977087 54.016264 
L 260.28092 54.030494 
L 261.584754 54.322221 
L 262.888587 54.115878 
L 264.192421 54.258184 
L 265.496254 53.902419 
L 268.103921 53.881073 
L 269.407755 53.923765 
L 270.711588 53.795689 
L 272.015422 53.881073 
L 274.623089 53.774344 
L 275.926922 53.852612 
L 277.230756 54.578372 
L 278.534589 54.372028 
L 279.838423 53.738767 
L 282.44609 53.667614 
L 291.572924 53.624922 
L 300.699759 53.632038 
L 302.003593 53.632038 
L 303.307426 56.414118 
L 304.61126 57.218146 
L 305.915093 57.879868 
L 307.218927 58.306786 
L 308.52276 54.706447 
L 309.826594 53.589346 
L 321.561095 53.568 
L 398.487273 53.568 
L 398.487273 53.568 
" clip-path="url(#p840ac33822)" style="fill: none; stroke: #1f77b4; stroke-width: 1.5; stroke-linecap: square"/>
   </g>
   <g id="line2d_16">
    <path d="M 73.832727 265.365055 
L 75.136561 250.571437 
L 76.440394 242.317786 
L 77.744228 238.121015 
L 79.048061 235.812791 
L 80.351895 233.189809 
L 81.655728 231.336235 
L 82.959562 229.797419 
L 84.263395 228.048764 
L 85.567229 225.460755 
L 86.871062 225.810486 
L 88.174896 226.579894 
L 89.478729 225.600648 
L 90.782563 223.467289 
L 92.086396 222.907719 
L 94.694064 221.543769 
L 95.997897 221.473823 
L 97.301731 222.103338 
L 98.605564 220.844307 
L 99.909398 221.229011 
L 101.213231 220.459603 
L 102.517065 220.844307 
L 103.820898 222.697881 
L 105.124732 221.229011 
L 107.732399 220.564522 
L 109.036232 219.96998 
L 110.340066 219.515329 
L 111.643899 220.704415 
L 112.947733 219.86506 
L 115.5554 221.683661 
L 118.163067 221.124092 
L 119.4669 222.592962 
L 120.770734 220.599495 
L 122.074567 220.984199 
L 123.378401 221.019172 
L 124.682234 221.613715 
L 125.986068 220.669441 
L 127.289901 220.634468 
L 128.593735 222.173284 
L 129.897568 221.403876 
L 131.201402 221.089119 
L 132.505235 222.418096 
L 133.809069 219.86506 
L 135.112903 222.732854 
L 136.416736 222.243231 
L 137.72057 222.033392 
L 139.024403 221.998419 
L 140.328237 221.089119 
L 142.935904 222.068365 
L 144.239737 221.8935 
L 145.543571 221.998419 
L 146.847404 222.557989 
L 148.151238 222.942693 
L 149.455071 221.718634 
L 150.758905 221.43885 
L 152.062738 222.662908 
L 153.366572 222.662908 
L 154.670405 222.977666 
L 155.974239 221.963446 
L 157.278072 222.138311 
L 159.885739 224.061832 
L 161.189573 221.33393 
L 162.493406 221.858527 
L 163.79724 224.411562 
L 165.101073 224.236697 
L 166.404907 223.047612 
L 167.70874 224.796266 
L 169.012574 224.166751 
L 170.316407 225.111024 
L 171.620241 223.677127 
L 172.924074 224.376589 
L 174.227908 223.851993 
L 175.531742 224.411562 
L 176.835575 224.516482 
L 178.139409 224.446536 
L 179.443242 225.460755 
L 180.747076 225.041078 
L 182.050909 225.635621 
L 183.354743 224.026858 
L 184.658576 224.411562 
L 185.96241 224.971132 
L 187.266243 225.28589 
L 188.570077 225.355836 
L 189.87391 225.845459 
L 191.177744 225.460755 
L 192.481577 224.341616 
L 193.785411 226.440002 
L 195.089244 225.111024 
L 196.393078 225.530701 
L 197.696911 225.180971 
L 199.000745 224.621401 
L 200.304578 226.75476 
L 201.608412 225.390809 
L 202.912245 225.565675 
L 204.216079 226.055298 
L 205.519912 225.28589 
L 206.823746 226.125244 
L 208.127579 226.090271 
L 209.431413 226.544921 
L 210.735246 227.314329 
L 212.03908 225.915405 
L 213.342913 226.964598 
L 214.646747 226.75476 
L 215.950581 225.111024 
L 217.254414 226.64984 
L 218.558248 226.859679 
L 219.862081 227.384275 
L 221.165915 226.894652 
L 222.469748 228.22363 
L 223.773582 227.873899 
L 225.077415 227.908872 
L 226.381249 228.293576 
L 227.685082 227.873899 
L 228.988916 226.64984 
L 230.292749 228.853145 
L 231.596583 227.908872 
L 232.900416 228.398495 
L 234.20425 228.153683 
L 235.508083 227.559141 
L 236.811917 228.783199 
L 238.11575 227.349302 
L 239.419584 228.503414 
L 240.723417 228.993038 
L 242.027251 228.67828 
L 243.331084 227.838926 
L 244.634918 228.22363 
L 245.938751 227.384275 
L 247.242585 229.342769 
L 248.546418 229.028011 
L 249.850252 229.832392 
L 251.154085 228.608334 
L 252.457919 228.363522 
L 253.761752 228.783199 
L 255.065586 228.67828 
L 256.369419 229.097957 
L 257.673253 229.202876 
L 258.977087 228.22363 
L 260.28092 229.377742 
L 261.584754 229.13293 
L 262.888587 227.978818 
L 264.192421 230.042231 
L 265.496254 229.762446 
L 266.800088 228.573361 
L 268.103921 229.447688 
L 269.407755 228.923092 
L 270.711588 228.188657 
L 272.015422 229.237849 
L 274.623089 229.517634 
L 275.926922 228.713253 
L 277.230756 229.13293 
L 278.534589 228.748226 
L 279.838423 230.182123 
L 281.142256 229.377742 
L 282.44609 228.748226 
L 283.749923 229.797419 
L 285.053757 229.307796 
L 286.35759 228.958065 
L 287.661424 229.6925 
L 288.965257 229.517634 
L 290.269091 228.713253 
L 291.572924 229.167903 
L 292.876758 228.398495 
L 294.180591 229.237849 
L 295.484425 229.447688 
L 296.788258 229.307796 
L 298.092092 229.552607 
L 299.395926 229.447688 
L 300.699759 229.202876 
L 302.003593 229.867365 
L 303.307426 231.930778 
L 304.61126 229.937311 
L 305.915093 228.503414 
L 307.218927 230.6018 
L 308.52276 228.818172 
L 309.826594 229.552607 
L 311.130427 228.503414 
L 312.434261 228.713253 
L 313.738094 229.202876 
L 315.041928 229.552607 
L 317.649595 228.783199 
L 318.953428 229.272822 
L 321.561095 229.482661 
L 322.864929 229.377742 
L 324.168762 228.888118 
L 325.472596 229.342769 
L 326.776429 229.552607 
L 328.080263 229.902338 
L 329.384096 229.517634 
L 330.68793 229.6925 
L 331.991763 229.657527 
L 334.59943 229.167903 
L 337.207097 229.727473 
L 338.510931 229.517634 
L 339.814765 229.482661 
L 341.118598 229.867365 
L 342.422432 229.58758 
L 343.726265 230.461908 
L 345.030099 229.937311 
L 346.333932 229.657527 
L 347.637766 228.783199 
L 348.941599 230.007257 
L 350.245433 229.377742 
L 351.549266 230.426935 
L 355.460767 229.447688 
L 358.068434 229.6925 
L 359.372267 229.237849 
L 360.676101 229.902338 
L 361.979934 229.937311 
L 363.283768 230.287042 
L 364.587601 229.552607 
L 365.891435 230.182123 
L 367.195268 229.902338 
L 372.410602 230.252069 
L 373.714436 230.182123 
L 375.018269 229.867365 
L 376.322103 230.182123 
L 377.625936 229.202876 
L 378.92977 229.972284 
L 380.233604 230.287042 
L 381.537437 230.042231 
L 382.841271 230.671746 
L 384.145104 229.972284 
L 385.448938 230.007257 
L 386.752771 229.762446 
L 388.056605 230.182123 
L 390.664272 230.14715 
L 391.968105 229.832392 
L 393.271939 230.007257 
L 395.879606 230.007257 
L 397.183439 230.252069 
L 398.487273 229.482661 
L 398.487273 229.482661 
" clip-path="url(#p840ac33822)" style="fill: none; stroke: #ff7f0e; stroke-width: 1.5; stroke-linecap: square"/>
   </g>
   <g id="patch_3">
    <path d="M 57.6 307.584 
L 57.6 41.472 
" style="fill: none; stroke: #000000; stroke-width: 0.8; stroke-linejoin: miter; stroke-linecap: square"/>
   </g>
   <g id="patch_4">
    <path d="M 414.72 307.584 
L 414.72 41.472 
" style="fill: none; stroke: #000000; stroke-width: 0.8; stroke-linejoin: miter; stroke-linecap: square"/>
   </g>
   <g id="patch_5">
    <path d="M 57.6 307.584 
L 414.72 307.584 
" style="fill: none; stroke: #000000; stroke-width: 0.8; stroke-linejoin: miter; stroke-linecap: square"/>
   </g>
   <g id="patch_6">
    <path d="M 57.6 41.472 
L 414.72 41.472 
" style="fill: none; stroke: #000000; stroke-width: 0.8; stroke-linejoin: miter; stroke-linecap: square"/>
   </g>
   <g id="legend_1">
    <g id="patch_7">
     <path d="M 64.6 79.3845 
L 169.99375 79.3845 
Q 171.99375 79.3845 171.99375 77.3845 
L 171.99375 48.472 
Q 171.99375 46.472 169.99375 46.472 
L 64.6 46.472 
Q 62.6 46.472 62.6 48.472 
L 62.6 77.3845 
Q 62.6 79.3845 64.6 79.3845 
z
" style="fill: #ffffff; opacity: 0.8; stroke: #cccccc; stroke-linejoin: miter"/>
    </g>
    <g id="line2d_17">
     <path d="M 66.6 54.570438 
L 76.6 54.570438 
L 86.6 54.570438 
" style="fill: none; stroke: #1f77b4; stroke-width: 1.5; stroke-linecap: square"/>
    </g>
    <g id="text_15">
     <!-- train_accuracy -->
     <g transform="translate(94.6 58.070438) scale(0.1 -0.1)">
      <defs>
       <path id="DejaVuSans-74" d="M 1172 4494 
L 1172 3500 
L 2356 3500 
L 2356 3053 
L 1172 3053 
L 1172 1153 
Q 1172 725 1289 603 
Q 1406 481 1766 481 
L 2356 481 
L 2356 0 
L 1766 0 
Q 1100 0 847 248 
Q 594 497 594 1153 
L 594 3053 
L 172 3053 
L 172 3500 
L 594 3500 
L 594 4494 
L 1172 4494 
z
" transform="scale(0.015625)"/>
       <path id="DejaVuSans-72" d="M 2631 2963 
Q 2534 3019 2420 3045 
Q 2306 3072 2169 3072 
Q 1681 3072 1420 2755 
Q 1159 2438 1159 1844 
L 1159 0 
L 581 0 
L 581 3500 
L 1159 3500 
L 1159 2956 
Q 1341 3275 1631 3429 
Q 1922 3584 2338 3584 
Q 2397 3584 2469 3576 
Q 2541 3569 2628 3553 
L 2631 2963 
z
" transform="scale(0.015625)"/>
       <path id="DejaVuSans-61" d="M 2194 1759 
Q 1497 1759 1228 1600 
Q 959 1441 959 1056 
Q 959 750 1161 570 
Q 1363 391 1709 391 
Q 2188 391 2477 730 
Q 2766 1069 2766 1631 
L 2766 1759 
L 2194 1759 
z
M 3341 1997 
L 3341 0 
L 2766 0 
L 2766 531 
Q 2569 213 2275 61 
Q 1981 -91 1556 -91 
Q 1019 -91 701 211 
Q 384 513 384 1019 
Q 384 1609 779 1909 
Q 1175 2209 1959 2209 
L 2766 2209 
L 2766 2266 
Q 2766 2663 2505 2880 
Q 2244 3097 1772 3097 
Q 1472 3097 1187 3025 
Q 903 2953 641 2809 
L 641 3341 
Q 956 3463 1253 3523 
Q 1550 3584 1831 3584 
Q 2591 3584 2966 3190 
Q 3341 2797 3341 1997 
z
" transform="scale(0.015625)"/>
       <path id="DejaVuSans-69" d="M 603 3500 
L 1178 3500 
L 1178 0 
L 603 0 
L 603 3500 
z
M 603 4863 
L 1178 4863 
L 1178 4134 
L 603 4134 
L 603 4863 
z
" transform="scale(0.015625)"/>
       <path id="DejaVuSans-6e" d="M 3513 2113 
L 3513 0 
L 2938 0 
L 2938 2094 
Q 2938 2591 2744 2837 
Q 2550 3084 2163 3084 
Q 1697 3084 1428 2787 
Q 1159 2491 1159 1978 
L 1159 0 
L 581 0 
L 581 3500 
L 1159 3500 
L 1159 2956 
Q 1366 3272 1645 3428 
Q 1925 3584 2291 3584 
Q 2894 3584 3203 3211 
Q 3513 2838 3513 2113 
z
" transform="scale(0.015625)"/>
       <path id="DejaVuSans-5f" d="M 3263 -1063 
L 3263 -1509 
L -63 -1509 
L -63 -1063 
L 3263 -1063 
z
" transform="scale(0.015625)"/>
       <path id="DejaVuSans-63" d="M 3122 3366 
L 3122 2828 
Q 2878 2963 2633 3030 
Q 2388 3097 2138 3097 
Q 1578 3097 1268 2742 
Q 959 2388 959 1747 
Q 959 1106 1268 751 
Q 1578 397 2138 397 
Q 2388 397 2633 464 
Q 2878 531 3122 666 
L 3122 134 
Q 2881 22 2623 -34 
Q 2366 -91 2075 -91 
Q 1284 -91 818 406 
Q 353 903 353 1747 
Q 353 2603 823 3093 
Q 1294 3584 2113 3584 
Q 2378 3584 2631 3529 
Q 2884 3475 3122 3366 
z
" transform="scale(0.015625)"/>
       <path id="DejaVuSans-75" d="M 544 1381 
L 544 3500 
L 1119 3500 
L 1119 1403 
Q 1119 906 1312 657 
Q 1506 409 1894 409 
Q 2359 409 2629 706 
Q 2900 1003 2900 1516 
L 2900 3500 
L 3475 3500 
L 3475 0 
L 2900 0 
L 2900 538 
Q 2691 219 2414 64 
Q 2138 -91 1772 -91 
Q 1169 -91 856 284 
Q 544 659 544 1381 
z
M 1991 3584 
L 1991 3584 
z
" transform="scale(0.015625)"/>
       <path id="DejaVuSans-79" d="M 2059 -325 
Q 1816 -950 1584 -1140 
Q 1353 -1331 966 -1331 
L 506 -1331 
L 506 -850 
L 844 -850 
Q 1081 -850 1212 -737 
Q 1344 -625 1503 -206 
L 1606 56 
L 191 3500 
L 800 3500 
L 1894 763 
L 2988 3500 
L 3597 3500 
L 2059 -325 
z
" transform="scale(0.015625)"/>
      </defs>
      <use xlink:href="#DejaVuSans-74"/>
      <use xlink:href="#DejaVuSans-72" x="39.208984"/>
      <use xlink:href="#DejaVuSans-61" x="80.322266"/>
      <use xlink:href="#DejaVuSans-69" x="141.601562"/>
      <use xlink:href="#DejaVuSans-6e" x="169.384766"/>
      <use xlink:href="#DejaVuSans-5f" x="232.763672"/>
      <use xlink:href="#DejaVuSans-61" x="282.763672"/>
      <use xlink:href="#DejaVuSans-63" x="344.042969"/>
      <use xlink:href="#DejaVuSans-63" x="399.023438"/>
      <use xlink:href="#DejaVuSans-75" x="454.003906"/>
      <use xlink:href="#DejaVuSans-72" x="517.382812"/>
      <use xlink:href="#DejaVuSans-61" x="558.496094"/>
      <use xlink:href="#DejaVuSans-63" x="619.775391"/>
      <use xlink:href="#DejaVuSans-79" x="674.755859"/>
     </g>
    </g>
    <g id="line2d_18">
     <path d="M 66.6 69.526688 
L 76.6 69.526688 
L 86.6 69.526688 
" style="fill: none; stroke: #ff7f0e; stroke-width: 1.5; stroke-linecap: square"/>
    </g>
    <g id="text_16">
     <!-- test_accuracy -->
     <g transform="translate(94.6 73.026688) scale(0.1 -0.1)">
      <defs>
       <path id="DejaVuSans-65" d="M 3597 1894 
L 3597 1613 
L 953 1613 
Q 991 1019 1311 708 
Q 1631 397 2203 397 
Q 2534 397 2845 478 
Q 3156 559 3463 722 
L 3463 178 
Q 3153 47 2828 -22 
Q 2503 -91 2169 -91 
Q 1331 -91 842 396 
Q 353 884 353 1716 
Q 353 2575 817 3079 
Q 1281 3584 2069 3584 
Q 2775 3584 3186 3129 
Q 3597 2675 3597 1894 
z
M 3022 2063 
Q 3016 2534 2758 2815 
Q 2500 3097 2075 3097 
Q 1594 3097 1305 2825 
Q 1016 2553 972 2059 
L 3022 2063 
z
" transform="scale(0.015625)"/>
       <path id="DejaVuSans-73" d="M 2834 3397 
L 2834 2853 
Q 2591 2978 2328 3040 
Q 2066 3103 1784 3103 
Q 1356 3103 1142 2972 
Q 928 2841 928 2578 
Q 928 2378 1081 2264 
Q 1234 2150 1697 2047 
L 1894 2003 
Q 2506 1872 2764 1633 
Q 3022 1394 3022 966 
Q 3022 478 2636 193 
Q 2250 -91 1575 -91 
Q 1294 -91 989 -36 
Q 684 19 347 128 
L 347 722 
Q 666 556 975 473 
Q 1284 391 1588 391 
Q 1994 391 2212 530 
Q 2431 669 2431 922 
Q 2431 1156 2273 1281 
Q 2116 1406 1581 1522 
L 1381 1569 
Q 847 1681 609 1914 
Q 372 2147 372 2553 
Q 372 3047 722 3315 
Q 1072 3584 1716 3584 
Q 2034 3584 2315 3537 
Q 2597 3491 2834 3397 
z
" transform="scale(0.015625)"/>
      </defs>
      <use xlink:href="#DejaVuSans-74"/>
      <use xlink:href="#DejaVuSans-65" x="39.208984"/>
      <use xlink:href="#DejaVuSans-73" x="100.732422"/>
      <use xlink:href="#DejaVuSans-74" x="152.832031"/>
      <use xlink:href="#DejaVuSans-5f" x="192.041016"/>
      <use xlink:href="#DejaVuSans-61" x="242.041016"/>
      <use xlink:href="#DejaVuSans-63" x="303.320312"/>
      <use xlink:href="#DejaVuSans-63" x="358.300781"/>
      <use xlink:href="#DejaVuSans-75" x="413.28125"/>
      <use xlink:href="#DejaVuSans-72" x="476.660156"/>
      <use xlink:href="#DejaVuSans-61" x="517.773438"/>
      <use xlink:href="#DejaVuSans-63" x="579.052734"/>
      <use xlink:href="#DejaVuSans-79" x="634.033203"/>
     </g>
    </g>
   </g>
  </g>
 </g>
 <defs>
  <clipPath id="p840ac33822">
   <rect x="57.6" y="41.472" width="357.12" height="266.112"/>
  </clipPath>
 </defs>
</svg>
