<?xml version="1.0" encoding="utf-8" standalone="no"?>
<!DOCTYPE svg PUBLIC "-//W3C//DTD SVG 1.1//EN"
  "http://www.w3.org/Graphics/SVG/1.1/DTD/svg11.dtd">
<svg xmlns:xlink="http://www.w3.org/1999/xlink" width="460.8pt" height="345.6pt" viewBox="0 0 460.8 345.6" xmlns="http://www.w3.org/2000/svg" version="1.1">
 <metadata>
  <rdf:RDF xmlns:dc="http://purl.org/dc/elements/1.1/" xmlns:cc="http://creativecommons.org/ns#" xmlns:rdf="http://www.w3.org/1999/02/22-rdf-syntax-ns#">
   <cc:Work>
    <dc:type rdf:resource="http://purl.org/dc/dcmitype/StillImage"/>
    <dc:date>2023-10-30T04:29:12.006000</dc:date>
    <dc:format>image/svg+xml</dc:format>
    <dc:creator>
     <cc:Agent>
      <dc:title>Matplotlib v3.8.0, https://matplotlib.org/</dc:title>
     </cc:Agent>
    </dc:creator>
   </cc:Work>
  </rdf:RDF>
 </metadata>
 <defs>
  <style type="text/css">*{stroke-linejoin: round; stroke-linecap: butt}</style>
 </defs>
 <g id="figure_1">
  <g id="patch_1">
   <path d="M 0 345.6 
L 460.8 345.6 
L 460.8 0 
L 0 0 
z
" style="fill: #ffffff"/>
  </g>
  <g id="axes_1">
   <g id="patch_2">
    <path d="M 57.6 307.584 
L 414.72 307.584 
L 414.72 41.472 
L 57.6 41.472 
z
" style="fill: #ffffff"/>
   </g>
   <g id="matplotlib.axis_1">
    <g id="xtick_1">
     <g id="line2d_1">
      <defs>
       <path id="m351e6564b6" d="M 0 0 
L 0 3.5 
" style="stroke: #000000; stroke-width: 0.8"/>
      </defs>
      <g>
       <use xlink:href="#m351e6564b6" x="73.832727" y="307.584" style="stroke: #000000; stroke-width: 0.8"/>
      </g>
     </g>
     <g id="text_1">
      <!-- 0 -->
      <g transform="translate(70.651477 322.182437) scale(0.1 -0.1)">
       <defs>
        <path id="DejaVuSans-30" d="M 2034 4250 
Q 1547 4250 1301 3770 
Q 1056 3291 1056 2328 
Q 1056 1369 1301 889 
Q 1547 409 2034 409 
Q 2525 409 2770 889 
Q 3016 1369 3016 2328 
Q 3016 3291 2770 3770 
Q 2525 4250 2034 4250 
z
M 2034 4750 
Q 2819 4750 3233 4129 
Q 3647 3509 3647 2328 
Q 3647 1150 3233 529 
Q 2819 -91 2034 -91 
Q 1250 -91 836 529 
Q 422 1150 422 2328 
Q 422 3509 836 4129 
Q 1250 4750 2034 4750 
z
" transform="scale(0.015625)"/>
       </defs>
       <use xlink:href="#DejaVuSans-30"/>
      </g>
     </g>
    </g>
    <g id="xtick_2">
     <g id="line2d_2">
      <g>
       <use xlink:href="#m351e6564b6" x="139.024403" y="307.584" style="stroke: #000000; stroke-width: 0.8"/>
      </g>
     </g>
     <g id="text_2">
      <!-- 50 -->
      <g transform="translate(132.661903 322.182437) scale(0.1 -0.1)">
       <defs>
        <path id="DejaVuSans-35" d="M 691 4666 
L 3169 4666 
L 3169 4134 
L 1269 4134 
L 1269 2991 
Q 1406 3038 1543 3061 
Q 1681 3084 1819 3084 
Q 2600 3084 3056 2656 
Q 3513 2228 3513 1497 
Q 3513 744 3044 326 
Q 2575 -91 1722 -91 
Q 1428 -91 1123 -41 
Q 819 9 494 109 
L 494 744 
Q 775 591 1075 516 
Q 1375 441 1709 441 
Q 2250 441 2565 725 
Q 2881 1009 2881 1497 
Q 2881 1984 2565 2268 
Q 2250 2553 1709 2553 
Q 1456 2553 1204 2497 
Q 953 2441 691 2322 
L 691 4666 
z
" transform="scale(0.015625)"/>
       </defs>
       <use xlink:href="#DejaVuSans-35"/>
       <use xlink:href="#DejaVuSans-30" x="63.623047"/>
      </g>
     </g>
    </g>
    <g id="xtick_3">
     <g id="line2d_3">
      <g>
       <use xlink:href="#m351e6564b6" x="204.216079" y="307.584" style="stroke: #000000; stroke-width: 0.8"/>
      </g>
     </g>
     <g id="text_3">
      <!-- 100 -->
      <g transform="translate(194.672329 322.182437) scale(0.1 -0.1)">
       <defs>
        <path id="DejaVuSans-31" d="M 794 531 
L 1825 531 
L 1825 4091 
L 703 3866 
L 703 4441 
L 1819 4666 
L 2450 4666 
L 2450 531 
L 3481 531 
L 3481 0 
L 794 0 
L 794 531 
z
" transform="scale(0.015625)"/>
       </defs>
       <use xlink:href="#DejaVuSans-31"/>
       <use xlink:href="#DejaVuSans-30" x="63.623047"/>
       <use xlink:href="#DejaVuSans-30" x="127.246094"/>
      </g>
     </g>
    </g>
    <g id="xtick_4">
     <g id="line2d_4">
      <g>
       <use xlink:href="#m351e6564b6" x="269.407755" y="307.584" style="stroke: #000000; stroke-width: 0.8"/>
      </g>
     </g>
     <g id="text_4">
      <!-- 150 -->
      <g transform="translate(259.864005 322.182437) scale(0.1 -0.1)">
       <use xlink:href="#DejaVuSans-31"/>
       <use xlink:href="#DejaVuSans-35" x="63.623047"/>
       <use xlink:href="#DejaVuSans-30" x="127.246094"/>
      </g>
     </g>
    </g>
    <g id="xtick_5">
     <g id="line2d_5">
      <g>
       <use xlink:href="#m351e6564b6" x="334.59943" y="307.584" style="stroke: #000000; stroke-width: 0.8"/>
      </g>
     </g>
     <g id="text_5">
      <!-- 200 -->
      <g transform="translate(325.05568 322.182437) scale(0.1 -0.1)">
       <defs>
        <path id="DejaVuSans-32" d="M 1228 531 
L 3431 531 
L 3431 0 
L 469 0 
L 469 531 
Q 828 903 1448 1529 
Q 2069 2156 2228 2338 
Q 2531 2678 2651 2914 
Q 2772 3150 2772 3378 
Q 2772 3750 2511 3984 
Q 2250 4219 1831 4219 
Q 1534 4219 1204 4116 
Q 875 4013 500 3803 
L 500 4441 
Q 881 4594 1212 4672 
Q 1544 4750 1819 4750 
Q 2544 4750 2975 4387 
Q 3406 4025 3406 3419 
Q 3406 3131 3298 2873 
Q 3191 2616 2906 2266 
Q 2828 2175 2409 1742 
Q 1991 1309 1228 531 
z
" transform="scale(0.015625)"/>
       </defs>
       <use xlink:href="#DejaVuSans-32"/>
       <use xlink:href="#DejaVuSans-30" x="63.623047"/>
       <use xlink:href="#DejaVuSans-30" x="127.246094"/>
      </g>
     </g>
    </g>
    <g id="xtick_6">
     <g id="line2d_6">
      <g>
       <use xlink:href="#m351e6564b6" x="399.791106" y="307.584" style="stroke: #000000; stroke-width: 0.8"/>
      </g>
     </g>
     <g id="text_6">
      <!-- 250 -->
      <g transform="translate(390.247356 322.182437) scale(0.1 -0.1)">
       <use xlink:href="#DejaVuSans-32"/>
       <use xlink:href="#DejaVuSans-35" x="63.623047"/>
       <use xlink:href="#DejaVuSans-30" x="127.246094"/>
      </g>
     </g>
    </g>
   </g>
   <g id="matplotlib.axis_2">
    <g id="ytick_1">
     <g id="line2d_7">
      <defs>
       <path id="m489641f29e" d="M 0 0 
L -3.5 0 
" style="stroke: #000000; stroke-width: 0.8"/>
      </defs>
      <g>
       <use xlink:href="#m489641f29e" x="57.6" y="295.585439" style="stroke: #000000; stroke-width: 0.8"/>
      </g>
     </g>
     <g id="text_7">
      <!-- 0 -->
      <g transform="translate(44.2375 299.384657) scale(0.1 -0.1)">
       <use xlink:href="#DejaVuSans-30"/>
      </g>
     </g>
    </g>
    <g id="ytick_2">
     <g id="line2d_8">
      <g>
       <use xlink:href="#m489641f29e" x="57.6" y="247.300366" style="stroke: #000000; stroke-width: 0.8"/>
      </g>
     </g>
     <g id="text_8">
      <!-- 1 -->
      <g transform="translate(44.2375 251.099584) scale(0.1 -0.1)">
       <use xlink:href="#DejaVuSans-31"/>
      </g>
     </g>
    </g>
    <g id="ytick_3">
     <g id="line2d_9">
      <g>
       <use xlink:href="#m489641f29e" x="57.6" y="199.015293" style="stroke: #000000; stroke-width: 0.8"/>
      </g>
     </g>
     <g id="text_9">
      <!-- 2 -->
      <g transform="translate(44.2375 202.814512) scale(0.1 -0.1)">
       <use xlink:href="#DejaVuSans-32"/>
      </g>
     </g>
    </g>
    <g id="ytick_4">
     <g id="line2d_10">
      <g>
       <use xlink:href="#m489641f29e" x="57.6" y="150.73022" style="stroke: #000000; stroke-width: 0.8"/>
      </g>
     </g>
     <g id="text_10">
      <!-- 3 -->
      <g transform="translate(44.2375 154.529439) scale(0.1 -0.1)">
       <defs>
        <path id="DejaVuSans-33" d="M 2597 2516 
Q 3050 2419 3304 2112 
Q 3559 1806 3559 1356 
Q 3559 666 3084 287 
Q 2609 -91 1734 -91 
Q 1441 -91 1130 -33 
Q 819 25 488 141 
L 488 750 
Q 750 597 1062 519 
Q 1375 441 1716 441 
Q 2309 441 2620 675 
Q 2931 909 2931 1356 
Q 2931 1769 2642 2001 
Q 2353 2234 1838 2234 
L 1294 2234 
L 1294 2753 
L 1863 2753 
Q 2328 2753 2575 2939 
Q 2822 3125 2822 3475 
Q 2822 3834 2567 4026 
Q 2313 4219 1838 4219 
Q 1578 4219 1281 4162 
Q 984 4106 628 3988 
L 628 4550 
Q 988 4650 1302 4700 
Q 1616 4750 1894 4750 
Q 2613 4750 3031 4423 
Q 3450 4097 3450 3541 
Q 3450 3153 3228 2886 
Q 3006 2619 2597 2516 
z
" transform="scale(0.015625)"/>
       </defs>
       <use xlink:href="#DejaVuSans-33"/>
      </g>
     </g>
    </g>
    <g id="ytick_5">
     <g id="line2d_11">
      <g>
       <use xlink:href="#m489641f29e" x="57.6" y="102.445147" style="stroke: #000000; stroke-width: 0.8"/>
      </g>
     </g>
     <g id="text_11">
      <!-- 4 -->
      <g transform="translate(44.2375 106.244366) scale(0.1 -0.1)">
       <defs>
        <path id="DejaVuSans-34" d="M 2419 4116 
L 825 1625 
L 2419 1625 
L 2419 4116 
z
M 2253 4666 
L 3047 4666 
L 3047 1625 
L 3713 1625 
L 3713 1100 
L 3047 1100 
L 3047 0 
L 2419 0 
L 2419 1100 
L 313 1100 
L 313 1709 
L 2253 4666 
z
" transform="scale(0.015625)"/>
       </defs>
       <use xlink:href="#DejaVuSans-34"/>
      </g>
     </g>
    </g>
    <g id="ytick_6">
     <g id="line2d_12">
      <g>
       <use xlink:href="#m489641f29e" x="57.6" y="54.160074" style="stroke: #000000; stroke-width: 0.8"/>
      </g>
     </g>
     <g id="text_12">
      <!-- 5 -->
      <g transform="translate(44.2375 57.959293) scale(0.1 -0.1)">
       <use xlink:href="#DejaVuSans-35"/>
      </g>
     </g>
    </g>
   </g>
   <g id="line2d_13">
    <path d="M 73.832727 201.571502 
L 75.136561 215.159912 
L 76.440394 220.276639 
L 77.744228 223.518591 
L 79.048061 226.019681 
L 81.655728 230.355979 
L 85.567229 235.250531 
L 89.478729 239.248617 
L 94.694064 243.68656 
L 97.301731 245.736101 
L 98.605564 246.630425 
L 99.909398 247.719968 
L 101.213231 248.484478 
L 103.820898 250.509975 
L 110.340066 254.589528 
L 112.947733 256.217956 
L 114.251566 256.849486 
L 115.5554 257.659585 
L 116.859233 258.278964 
L 120.770734 260.505979 
L 124.682234 262.310356 
L 127.289901 263.856082 
L 129.897568 264.932275 
L 132.505235 266.20246 
L 136.416736 267.895722 
L 137.72057 268.344408 
L 140.328237 269.606004 
L 141.63207 270.037637 
L 144.239737 271.290155 
L 145.543571 271.564461 
L 148.151238 272.760043 
L 152.062738 274.168389 
L 154.670405 275.172541 
L 155.974239 275.466865 
L 157.278072 276.071533 
L 158.581906 276.345543 
L 161.189573 277.329169 
L 162.493406 277.671938 
L 165.101073 278.578473 
L 166.404907 278.758101 
L 167.70874 279.269007 
L 169.012574 279.572643 
L 170.316407 280.151906 
L 176.835575 281.752854 
L 179.443242 282.583851 
L 180.747076 282.827913 
L 182.050909 283.310727 
L 184.658576 283.819695 
L 185.96241 284.277463 
L 187.266243 284.565275 
L 189.87391 284.890233 
L 191.177744 285.160917 
L 192.481577 285.659965 
L 196.393078 286.329697 
L 197.696911 286.75109 
L 199.000745 286.912969 
L 200.304578 287.234722 
L 202.912245 287.550121 
L 204.216079 287.703274 
L 205.519912 288.04743 
L 206.823746 288.033245 
L 208.127579 288.524181 
L 209.431413 288.743446 
L 210.735246 288.843558 
L 213.342913 289.244032 
L 219.862081 290.270597 
L 221.165915 290.314287 
L 226.381249 291.017482 
L 227.685082 291.075078 
L 231.596583 291.580232 
L 234.20425 291.640444 
L 235.508083 291.750887 
L 236.811917 292.02633 
L 245.938751 292.745961 
L 248.546418 292.948241 
L 249.850252 292.8278 
L 255.065586 293.379769 
L 260.28092 293.713733 
L 261.584754 293.605481 
L 268.103921 294.042547 
L 272.015422 294.13725 
L 274.623089 294.273111 
L 275.926922 294.262252 
L 277.230756 293.951624 
L 278.534589 293.947963 
L 279.838423 294.354057 
L 282.44609 294.567585 
L 294.180591 294.820889 
L 300.699759 294.884765 
L 302.003593 294.874917 
L 303.307426 293.667791 
L 304.61126 293.169717 
L 305.915093 292.979362 
L 307.218927 292.925698 
L 308.52276 294.201568 
L 309.826594 294.900205 
L 312.434261 295.075171 
L 325.472596 295.210838 
L 377.625936 295.436883 
L 398.487273 295.488 
L 398.487273 295.488 
" clip-path="url(#p4fb0376860)" style="fill: none; stroke: #1f77b4; stroke-width: 1.5; stroke-linecap: square"/>
   </g>
   <g id="line2d_14">
    <path d="M 73.832727 211.451224 
L 75.136561 217.285649 
L 76.440394 220.37394 
L 77.744228 222.232536 
L 80.351895 224.783377 
L 81.655728 225.304717 
L 82.959562 226.4114 
L 84.263395 226.748625 
L 85.567229 227.71682 
L 86.871062 227.82786 
L 90.782563 228.809026 
L 92.086396 228.811439 
L 93.39023 229.111576 
L 94.694064 229.295889 
L 95.997897 229.309293 
L 97.301731 229.20331 
L 98.605564 229.325559 
L 99.909398 229.037188 
L 101.213231 229.213111 
L 102.517065 229.198899 
L 103.820898 228.709544 
L 105.124732 228.715437 
L 106.428565 228.343808 
L 107.732399 228.653348 
L 109.036232 228.075456 
L 111.643899 228.063458 
L 112.947733 227.540233 
L 114.251566 227.478008 
L 115.5554 227.117222 
L 116.859233 226.5083 
L 118.163067 226.531624 
L 119.4669 226.190651 
L 120.770734 226.151383 
L 122.074567 225.913733 
L 123.378401 224.98268 
L 124.682234 224.751047 
L 125.986068 224.956424 
L 128.593735 223.7258 
L 131.201402 222.98693 
L 133.809069 222.207545 
L 135.112903 221.487606 
L 139.024403 220.039599 
L 140.328237 219.775678 
L 141.63207 219.199437 
L 142.935904 218.82887 
L 144.239737 217.908339 
L 145.543571 217.709613 
L 148.151238 216.518926 
L 150.758905 215.398611 
L 152.062738 214.853846 
L 153.366572 214.6371 
L 157.278072 212.12964 
L 158.581906 211.450637 
L 159.885739 210.999685 
L 161.189573 210.750317 
L 162.493406 209.946444 
L 163.79724 208.840671 
L 165.101073 208.472325 
L 167.70874 206.466788 
L 169.012574 206.39046 
L 172.924074 204.223443 
L 174.227908 203.116274 
L 179.443242 200.535166 
L 180.747076 199.4949 
L 182.050909 199.073094 
L 183.354743 197.354575 
L 184.658576 197.190773 
L 185.96241 195.980823 
L 187.266243 195.529518 
L 188.570077 194.448278 
L 189.87391 193.552483 
L 191.177744 193.489408 
L 192.481577 192.586552 
L 193.785411 191.475919 
L 195.089244 190.558683 
L 196.393078 189.812861 
L 197.696911 188.823217 
L 199.000745 187.522964 
L 200.304578 187.365175 
L 201.608412 186.353325 
L 202.912245 184.499438 
L 204.216079 184.306618 
L 205.519912 183.16182 
L 206.823746 182.651072 
L 208.127579 181.840438 
L 209.431413 180.586584 
L 210.735246 180.000307 
L 213.342913 177.923245 
L 214.646747 177.192566 
L 217.254414 174.905326 
L 218.558248 174.136906 
L 219.862081 173.148156 
L 221.165915 171.67429 
L 222.469748 170.418763 
L 223.773582 169.97907 
L 225.077415 168.132857 
L 226.381249 167.91949 
L 227.685082 166.830331 
L 228.988916 166.270436 
L 231.596583 163.45622 
L 232.900416 162.556783 
L 234.20425 161.256521 
L 235.508083 161.321185 
L 236.811917 160.170574 
L 238.11575 159.258397 
L 239.419584 157.979658 
L 240.723417 156.939614 
L 242.027251 156.105693 
L 243.331084 154.545053 
L 244.634918 153.78922 
L 245.938751 152.512231 
L 247.242585 151.721449 
L 249.850252 149.294358 
L 251.154085 148.986394 
L 252.457919 148.014467 
L 253.761752 146.279185 
L 255.065586 145.304486 
L 256.369419 144.549544 
L 257.673253 142.928173 
L 258.977087 142.690401 
L 260.28092 141.263889 
L 261.584754 140.431992 
L 262.888587 139.75649 
L 264.192421 138.125971 
L 265.496254 137.85039 
L 266.800088 136.579857 
L 268.103921 135.103101 
L 269.407755 134.297573 
L 270.711588 132.770493 
L 272.015422 132.727381 
L 273.319255 131.495182 
L 274.623089 129.980772 
L 275.926922 129.689009 
L 277.230756 127.483762 
L 278.534589 128.420021 
L 279.838423 125.786975 
L 281.142256 125.902884 
L 283.749923 123.173455 
L 285.053757 122.309726 
L 287.661424 120.30728 
L 288.965257 119.762291 
L 290.269091 118.497671 
L 294.180591 115.3947 
L 295.484425 114.19295 
L 296.788258 113.480323 
L 298.092092 112.310233 
L 299.395926 111.620284 
L 300.699759 110.763918 
L 302.003593 108.732633 
L 303.307426 106.419794 
L 304.61126 106.909548 
L 305.915093 111.319429 
L 307.218927 109.281157 
L 308.52276 110.060697 
L 309.826594 109.434314 
L 311.130427 107.589276 
L 312.434261 106.606197 
L 313.738094 105.347574 
L 315.041928 104.641574 
L 317.649595 102.646775 
L 320.257262 101.001398 
L 333.295597 93.741371 
L 334.59943 92.907316 
L 335.903264 92.487629 
L 337.207097 91.501924 
L 338.510931 91.061539 
L 339.814765 90.293599 
L 341.118598 89.23576 
L 346.333932 86.55005 
L 347.637766 85.381995 
L 348.941599 85.143635 
L 350.245433 84.007153 
L 351.549266 83.390763 
L 352.8531 82.57142 
L 354.156933 82.1514 
L 355.460767 80.880884 
L 356.7646 80.313047 
L 360.676101 78.132601 
L 361.979934 76.701753 
L 364.587601 75.81826 
L 365.891435 74.64126 
L 367.195268 74.101016 
L 368.499102 73.271503 
L 372.410602 70.33663 
L 375.018269 69.091718 
L 376.322103 67.987841 
L 377.625936 67.439977 
L 378.92977 66.260461 
L 380.233604 65.663407 
L 381.537437 64.549313 
L 384.145104 63.308086 
L 385.448938 62.005169 
L 389.360438 59.716943 
L 395.879606 55.086291 
L 397.183439 54.256527 
L 398.487273 53.568 
L 398.487273 53.568 
" clip-path="url(#p4fb0376860)" style="fill: none; stroke: #ff7f0e; stroke-width: 1.5; stroke-linecap: square"/>
   </g>
   <g id="patch_3">
    <path d="M 57.6 307.584 
L 57.6 41.472 
" style="fill: none; stroke: #000000; stroke-width: 0.8; stroke-linejoin: miter; stroke-linecap: square"/>
   </g>
   <g id="patch_4">
    <path d="M 414.72 307.584 
L 414.72 41.472 
" style="fill: none; stroke: #000000; stroke-width: 0.8; stroke-linejoin: miter; stroke-linecap: square"/>
   </g>
   <g id="patch_5">
    <path d="M 57.6 307.584 
L 414.72 307.584 
" style="fill: none; stroke: #000000; stroke-width: 0.8; stroke-linejoin: miter; stroke-linecap: square"/>
   </g>
   <g id="patch_6">
    <path d="M 57.6 41.472 
L 414.72 41.472 
" style="fill: none; stroke: #000000; stroke-width: 0.8; stroke-linejoin: miter; stroke-linecap: square"/>
   </g>
   <g id="legend_1">
    <g id="patch_7">
     <path d="M 64.6 79.3845 
L 155.553125 79.3845 
Q 157.553125 79.3845 157.553125 77.3845 
L 157.553125 48.472 
Q 157.553125 46.472 155.553125 46.472 
L 64.6 46.472 
Q 62.6 46.472 62.6 48.472 
L 62.6 77.3845 
Q 62.6 79.3845 64.6 79.3845 
z
" style="fill: #ffffff; opacity: 0.8; stroke: #cccccc; stroke-linejoin: miter"/>
    </g>
    <g id="line2d_15">
     <path d="M 66.6 54.570438 
L 76.6 54.570438 
L 86.6 54.570438 
" style="fill: none; stroke: #1f77b4; stroke-width: 1.5; stroke-linecap: square"/>
    </g>
    <g id="text_13">
     <!-- train_losses -->
     <g transform="translate(94.6 58.070438) scale(0.1 -0.1)">
      <defs>
       <path id="DejaVuSans-74" d="M 1172 4494 
L 1172 3500 
L 2356 3500 
L 2356 3053 
L 1172 3053 
L 1172 1153 
Q 1172 725 1289 603 
Q 1406 481 1766 481 
L 2356 481 
L 2356 0 
L 1766 0 
Q 1100 0 847 248 
Q 594 497 594 1153 
L 594 3053 
L 172 3053 
L 172 3500 
L 594 3500 
L 594 4494 
L 1172 4494 
z
" transform="scale(0.015625)"/>
       <path id="DejaVuSans-72" d="M 2631 2963 
Q 2534 3019 2420 3045 
Q 2306 3072 2169 3072 
Q 1681 3072 1420 2755 
Q 1159 2438 1159 1844 
L 1159 0 
L 581 0 
L 581 3500 
L 1159 3500 
L 1159 2956 
Q 1341 3275 1631 3429 
Q 1922 3584 2338 3584 
Q 2397 3584 2469 3576 
Q 2541 3569 2628 3553 
L 2631 2963 
z
" transform="scale(0.015625)"/>
       <path id="DejaVuSans-61" d="M 2194 1759 
Q 1497 1759 1228 1600 
Q 959 1441 959 1056 
Q 959 750 1161 570 
Q 1363 391 1709 391 
Q 2188 391 2477 730 
Q 2766 1069 2766 1631 
L 2766 1759 
L 2194 1759 
z
M 3341 1997 
L 3341 0 
L 2766 0 
L 2766 531 
Q 2569 213 2275 61 
Q 1981 -91 1556 -91 
Q 1019 -91 701 211 
Q 384 513 384 1019 
Q 384 1609 779 1909 
Q 1175 2209 1959 2209 
L 2766 2209 
L 2766 2266 
Q 2766 2663 2505 2880 
Q 2244 3097 1772 3097 
Q 1472 3097 1187 3025 
Q 903 2953 641 2809 
L 641 3341 
Q 956 3463 1253 3523 
Q 1550 3584 1831 3584 
Q 2591 3584 2966 3190 
Q 3341 2797 3341 1997 
z
" transform="scale(0.015625)"/>
       <path id="DejaVuSans-69" d="M 603 3500 
L 1178 3500 
L 1178 0 
L 603 0 
L 603 3500 
z
M 603 4863 
L 1178 4863 
L 1178 4134 
L 603 4134 
L 603 4863 
z
" transform="scale(0.015625)"/>
       <path id="DejaVuSans-6e" d="M 3513 2113 
L 3513 0 
L 2938 0 
L 2938 2094 
Q 2938 2591 2744 2837 
Q 2550 3084 2163 3084 
Q 1697 3084 1428 2787 
Q 1159 2491 1159 1978 
L 1159 0 
L 581 0 
L 581 3500 
L 1159 3500 
L 1159 2956 
Q 1366 3272 1645 3428 
Q 1925 3584 2291 3584 
Q 2894 3584 3203 3211 
Q 3513 2838 3513 2113 
z
" transform="scale(0.015625)"/>
       <path id="DejaVuSans-5f" d="M 3263 -1063 
L 3263 -1509 
L -63 -1509 
L -63 -1063 
L 3263 -1063 
z
" transform="scale(0.015625)"/>
       <path id="DejaVuSans-6c" d="M 603 4863 
L 1178 4863 
L 1178 0 
L 603 0 
L 603 4863 
z
" transform="scale(0.015625)"/>
       <path id="DejaVuSans-6f" d="M 1959 3097 
Q 1497 3097 1228 2736 
Q 959 2375 959 1747 
Q 959 1119 1226 758 
Q 1494 397 1959 397 
Q 2419 397 2687 759 
Q 2956 1122 2956 1747 
Q 2956 2369 2687 2733 
Q 2419 3097 1959 3097 
z
M 1959 3584 
Q 2709 3584 3137 3096 
Q 3566 2609 3566 1747 
Q 3566 888 3137 398 
Q 2709 -91 1959 -91 
Q 1206 -91 779 398 
Q 353 888 353 1747 
Q 353 2609 779 3096 
Q 1206 3584 1959 3584 
z
" transform="scale(0.015625)"/>
       <path id="DejaVuSans-73" d="M 2834 3397 
L 2834 2853 
Q 2591 2978 2328 3040 
Q 2066 3103 1784 3103 
Q 1356 3103 1142 2972 
Q 928 2841 928 2578 
Q 928 2378 1081 2264 
Q 1234 2150 1697 2047 
L 1894 2003 
Q 2506 1872 2764 1633 
Q 3022 1394 3022 966 
Q 3022 478 2636 193 
Q 2250 -91 1575 -91 
Q 1294 -91 989 -36 
Q 684 19 347 128 
L 347 722 
Q 666 556 975 473 
Q 1284 391 1588 391 
Q 1994 391 2212 530 
Q 2431 669 2431 922 
Q 2431 1156 2273 1281 
Q 2116 1406 1581 1522 
L 1381 1569 
Q 847 1681 609 1914 
Q 372 2147 372 2553 
Q 372 3047 722 3315 
Q 1072 3584 1716 3584 
Q 2034 3584 2315 3537 
Q 2597 3491 2834 3397 
z
" transform="scale(0.015625)"/>
       <path id="DejaVuSans-65" d="M 3597 1894 
L 3597 1613 
L 953 1613 
Q 991 1019 1311 708 
Q 1631 397 2203 397 
Q 2534 397 2845 478 
Q 3156 559 3463 722 
L 3463 178 
Q 3153 47 2828 -22 
Q 2503 -91 2169 -91 
Q 1331 -91 842 396 
Q 353 884 353 1716 
Q 353 2575 817 3079 
Q 1281 3584 2069 3584 
Q 2775 3584 3186 3129 
Q 3597 2675 3597 1894 
z
M 3022 2063 
Q 3016 2534 2758 2815 
Q 2500 3097 2075 3097 
Q 1594 3097 1305 2825 
Q 1016 2553 972 2059 
L 3022 2063 
z
" transform="scale(0.015625)"/>
      </defs>
      <use xlink:href="#DejaVuSans-74"/>
      <use xlink:href="#DejaVuSans-72" x="39.208984"/>
      <use xlink:href="#DejaVuSans-61" x="80.322266"/>
      <use xlink:href="#DejaVuSans-69" x="141.601562"/>
      <use xlink:href="#DejaVuSans-6e" x="169.384766"/>
      <use xlink:href="#DejaVuSans-5f" x="232.763672"/>
      <use xlink:href="#DejaVuSans-6c" x="282.763672"/>
      <use xlink:href="#DejaVuSans-6f" x="310.546875"/>
      <use xlink:href="#DejaVuSans-73" x="371.728516"/>
      <use xlink:href="#DejaVuSans-73" x="423.828125"/>
      <use xlink:href="#DejaVuSans-65" x="475.927734"/>
      <use xlink:href="#DejaVuSans-73" x="537.451172"/>
     </g>
    </g>
    <g id="line2d_16">
     <path d="M 66.6 69.526688 
L 76.6 69.526688 
L 86.6 69.526688 
" style="fill: none; stroke: #ff7f0e; stroke-width: 1.5; stroke-linecap: square"/>
    </g>
    <g id="text_14">
     <!-- test_losses -->
     <g transform="translate(94.6 73.026688) scale(0.1 -0.1)">
      <use xlink:href="#DejaVuSans-74"/>
      <use xlink:href="#DejaVuSans-65" x="39.208984"/>
      <use xlink:href="#DejaVuSans-73" x="100.732422"/>
      <use xlink:href="#DejaVuSans-74" x="152.832031"/>
      <use xlink:href="#DejaVuSans-5f" x="192.041016"/>
      <use xlink:href="#DejaVuSans-6c" x="242.041016"/>
      <use xlink:href="#DejaVuSans-6f" x="269.824219"/>
      <use xlink:href="#DejaVuSans-73" x="331.005859"/>
      <use xlink:href="#DejaVuSans-73" x="383.105469"/>
      <use xlink:href="#DejaVuSans-65" x="435.205078"/>
      <use xlink:href="#DejaVuSans-73" x="496.728516"/>
     </g>
    </g>
   </g>
  </g>
 </g>
 <defs>
  <clipPath id="p4fb0376860">
   <rect x="57.6" y="41.472" width="357.12" height="266.112"/>
  </clipPath>
 </defs>
</svg>
