<?xml version="1.0" encoding="utf-8" standalone="no"?>
<!DOCTYPE svg PUBLIC "-//W3C//DTD SVG 1.1//EN"
  "http://www.w3.org/Graphics/SVG/1.1/DTD/svg11.dtd">
<svg xmlns:xlink="http://www.w3.org/1999/xlink" width="460.8pt" height="345.6pt" viewBox="0 0 460.8 345.6" xmlns="http://www.w3.org/2000/svg" version="1.1">
 <metadata>
  <rdf:RDF xmlns:dc="http://purl.org/dc/elements/1.1/" xmlns:cc="http://creativecommons.org/ns#" xmlns:rdf="http://www.w3.org/1999/02/22-rdf-syntax-ns#">
   <cc:Work>
    <dc:type rdf:resource="http://purl.org/dc/dcmitype/StillImage"/>
    <dc:date>2023-10-30T10:37:30.218239</dc:date>
    <dc:format>image/svg+xml</dc:format>
    <dc:creator>
     <cc:Agent>
      <dc:title>Matplotlib v3.8.0, https://matplotlib.org/</dc:title>
     </cc:Agent>
    </dc:creator>
   </cc:Work>
  </rdf:RDF>
 </metadata>
 <defs>
  <style type="text/css">*{stroke-linejoin: round; stroke-linecap: butt}</style>
 </defs>
 <g id="figure_1">
  <g id="patch_1">
   <path d="M 0 345.6 
L 460.8 345.6 
L 460.8 0 
L 0 0 
z
" style="fill: #ffffff"/>
  </g>
  <g id="axes_1">
   <g id="patch_2">
    <path d="M 57.6 307.584 
L 414.72 307.584 
L 414.72 41.472 
L 57.6 41.472 
z
" style="fill: #ffffff"/>
   </g>
   <g id="matplotlib.axis_1">
    <g id="xtick_1">
     <g id="line2d_1">
      <defs>
       <path id="m28fda750c4" d="M 0 0 
L 0 3.5 
" style="stroke: #000000; stroke-width: 0.8"/>
      </defs>
      <g>
       <use xlink:href="#m28fda750c4" x="73.832727" y="307.584" style="stroke: #000000; stroke-width: 0.8"/>
      </g>
     </g>
     <g id="text_1">
      <!-- 0 -->
      <g transform="translate(70.651477 322.182437) scale(0.1 -0.1)">
       <defs>
        <path id="DejaVuSans-30" d="M 2034 4250 
Q 1547 4250 1301 3770 
Q 1056 3291 1056 2328 
Q 1056 1369 1301 889 
Q 1547 409 2034 409 
Q 2525 409 2770 889 
Q 3016 1369 3016 2328 
Q 3016 3291 2770 3770 
Q 2525 4250 2034 4250 
z
M 2034 4750 
Q 2819 4750 3233 4129 
Q 3647 3509 3647 2328 
Q 3647 1150 3233 529 
Q 2819 -91 2034 -91 
Q 1250 -91 836 529 
Q 422 1150 422 2328 
Q 422 3509 836 4129 
Q 1250 4750 2034 4750 
z
" transform="scale(0.015625)"/>
       </defs>
       <use xlink:href="#DejaVuSans-30"/>
      </g>
     </g>
    </g>
    <g id="xtick_2">
     <g id="line2d_2">
      <g>
       <use xlink:href="#m28fda750c4" x="139.024403" y="307.584" style="stroke: #000000; stroke-width: 0.8"/>
      </g>
     </g>
     <g id="text_2">
      <!-- 50 -->
      <g transform="translate(132.661903 322.182437) scale(0.1 -0.1)">
       <defs>
        <path id="DejaVuSans-35" d="M 691 4666 
L 3169 4666 
L 3169 4134 
L 1269 4134 
L 1269 2991 
Q 1406 3038 1543 3061 
Q 1681 3084 1819 3084 
Q 2600 3084 3056 2656 
Q 3513 2228 3513 1497 
Q 3513 744 3044 326 
Q 2575 -91 1722 -91 
Q 1428 -91 1123 -41 
Q 819 9 494 109 
L 494 744 
Q 775 591 1075 516 
Q 1375 441 1709 441 
Q 2250 441 2565 725 
Q 2881 1009 2881 1497 
Q 2881 1984 2565 2268 
Q 2250 2553 1709 2553 
Q 1456 2553 1204 2497 
Q 953 2441 691 2322 
L 691 4666 
z
" transform="scale(0.015625)"/>
       </defs>
       <use xlink:href="#DejaVuSans-35"/>
       <use xlink:href="#DejaVuSans-30" x="63.623047"/>
      </g>
     </g>
    </g>
    <g id="xtick_3">
     <g id="line2d_3">
      <g>
       <use xlink:href="#m28fda750c4" x="204.216079" y="307.584" style="stroke: #000000; stroke-width: 0.8"/>
      </g>
     </g>
     <g id="text_3">
      <!-- 100 -->
      <g transform="translate(194.672329 322.182437) scale(0.1 -0.1)">
       <defs>
        <path id="DejaVuSans-31" d="M 794 531 
L 1825 531 
L 1825 4091 
L 703 3866 
L 703 4441 
L 1819 4666 
L 2450 4666 
L 2450 531 
L 3481 531 
L 3481 0 
L 794 0 
L 794 531 
z
" transform="scale(0.015625)"/>
       </defs>
       <use xlink:href="#DejaVuSans-31"/>
       <use xlink:href="#DejaVuSans-30" x="63.623047"/>
       <use xlink:href="#DejaVuSans-30" x="127.246094"/>
      </g>
     </g>
    </g>
    <g id="xtick_4">
     <g id="line2d_4">
      <g>
       <use xlink:href="#m28fda750c4" x="269.407755" y="307.584" style="stroke: #000000; stroke-width: 0.8"/>
      </g>
     </g>
     <g id="text_4">
      <!-- 150 -->
      <g transform="translate(259.864005 322.182437) scale(0.1 -0.1)">
       <use xlink:href="#DejaVuSans-31"/>
       <use xlink:href="#DejaVuSans-35" x="63.623047"/>
       <use xlink:href="#DejaVuSans-30" x="127.246094"/>
      </g>
     </g>
    </g>
    <g id="xtick_5">
     <g id="line2d_5">
      <g>
       <use xlink:href="#m28fda750c4" x="334.59943" y="307.584" style="stroke: #000000; stroke-width: 0.8"/>
      </g>
     </g>
     <g id="text_5">
      <!-- 200 -->
      <g transform="translate(325.05568 322.182437) scale(0.1 -0.1)">
       <defs>
        <path id="DejaVuSans-32" d="M 1228 531 
L 3431 531 
L 3431 0 
L 469 0 
L 469 531 
Q 828 903 1448 1529 
Q 2069 2156 2228 2338 
Q 2531 2678 2651 2914 
Q 2772 3150 2772 3378 
Q 2772 3750 2511 3984 
Q 2250 4219 1831 4219 
Q 1534 4219 1204 4116 
Q 875 4013 500 3803 
L 500 4441 
Q 881 4594 1212 4672 
Q 1544 4750 1819 4750 
Q 2544 4750 2975 4387 
Q 3406 4025 3406 3419 
Q 3406 3131 3298 2873 
Q 3191 2616 2906 2266 
Q 2828 2175 2409 1742 
Q 1991 1309 1228 531 
z
" transform="scale(0.015625)"/>
       </defs>
       <use xlink:href="#DejaVuSans-32"/>
       <use xlink:href="#DejaVuSans-30" x="63.623047"/>
       <use xlink:href="#DejaVuSans-30" x="127.246094"/>
      </g>
     </g>
    </g>
    <g id="xtick_6">
     <g id="line2d_6">
      <g>
       <use xlink:href="#m28fda750c4" x="399.791106" y="307.584" style="stroke: #000000; stroke-width: 0.8"/>
      </g>
     </g>
     <g id="text_6">
      <!-- 250 -->
      <g transform="translate(390.247356 322.182437) scale(0.1 -0.1)">
       <use xlink:href="#DejaVuSans-32"/>
       <use xlink:href="#DejaVuSans-35" x="63.623047"/>
       <use xlink:href="#DejaVuSans-30" x="127.246094"/>
      </g>
     </g>
    </g>
   </g>
   <g id="matplotlib.axis_2">
    <g id="ytick_1">
     <g id="line2d_7">
      <defs>
       <path id="m8533887d24" d="M 0 0 
L -3.5 0 
" style="stroke: #000000; stroke-width: 0.8"/>
      </defs>
      <g>
       <use xlink:href="#m8533887d24" x="57.6" y="299.400723" style="stroke: #000000; stroke-width: 0.8"/>
      </g>
     </g>
     <g id="text_7">
      <!-- 0.25 -->
      <g transform="translate(28.334375 303.199942) scale(0.1 -0.1)">
       <defs>
        <path id="DejaVuSans-2e" d="M 684 794 
L 1344 794 
L 1344 0 
L 684 0 
L 684 794 
z
" transform="scale(0.015625)"/>
       </defs>
       <use xlink:href="#DejaVuSans-30"/>
       <use xlink:href="#DejaVuSans-2e" x="63.623047"/>
       <use xlink:href="#DejaVuSans-32" x="95.410156"/>
       <use xlink:href="#DejaVuSans-35" x="159.033203"/>
      </g>
     </g>
    </g>
    <g id="ytick_2">
     <g id="line2d_8">
      <g>
       <use xlink:href="#m8533887d24" x="57.6" y="268.417211" style="stroke: #000000; stroke-width: 0.8"/>
      </g>
     </g>
     <g id="text_8">
      <!-- 0.50 -->
      <g transform="translate(28.334375 272.21643) scale(0.1 -0.1)">
       <use xlink:href="#DejaVuSans-30"/>
       <use xlink:href="#DejaVuSans-2e" x="63.623047"/>
       <use xlink:href="#DejaVuSans-35" x="95.410156"/>
       <use xlink:href="#DejaVuSans-30" x="159.033203"/>
      </g>
     </g>
    </g>
    <g id="ytick_3">
     <g id="line2d_9">
      <g>
       <use xlink:href="#m8533887d24" x="57.6" y="237.433699" style="stroke: #000000; stroke-width: 0.8"/>
      </g>
     </g>
     <g id="text_9">
      <!-- 0.75 -->
      <g transform="translate(28.334375 241.232918) scale(0.1 -0.1)">
       <defs>
        <path id="DejaVuSans-37" d="M 525 4666 
L 3525 4666 
L 3525 4397 
L 1831 0 
L 1172 0 
L 2766 4134 
L 525 4134 
L 525 4666 
z
" transform="scale(0.015625)"/>
       </defs>
       <use xlink:href="#DejaVuSans-30"/>
       <use xlink:href="#DejaVuSans-2e" x="63.623047"/>
       <use xlink:href="#DejaVuSans-37" x="95.410156"/>
       <use xlink:href="#DejaVuSans-35" x="159.033203"/>
      </g>
     </g>
    </g>
    <g id="ytick_4">
     <g id="line2d_10">
      <g>
       <use xlink:href="#m8533887d24" x="57.6" y="206.450187" style="stroke: #000000; stroke-width: 0.8"/>
      </g>
     </g>
     <g id="text_10">
      <!-- 1.00 -->
      <g transform="translate(28.334375 210.249405) scale(0.1 -0.1)">
       <use xlink:href="#DejaVuSans-31"/>
       <use xlink:href="#DejaVuSans-2e" x="63.623047"/>
       <use xlink:href="#DejaVuSans-30" x="95.410156"/>
       <use xlink:href="#DejaVuSans-30" x="159.033203"/>
      </g>
     </g>
    </g>
    <g id="ytick_5">
     <g id="line2d_11">
      <g>
       <use xlink:href="#m8533887d24" x="57.6" y="175.466675" style="stroke: #000000; stroke-width: 0.8"/>
      </g>
     </g>
     <g id="text_11">
      <!-- 1.25 -->
      <g transform="translate(28.334375 179.265893) scale(0.1 -0.1)">
       <use xlink:href="#DejaVuSans-31"/>
       <use xlink:href="#DejaVuSans-2e" x="63.623047"/>
       <use xlink:href="#DejaVuSans-32" x="95.410156"/>
       <use xlink:href="#DejaVuSans-35" x="159.033203"/>
      </g>
     </g>
    </g>
    <g id="ytick_6">
     <g id="line2d_12">
      <g>
       <use xlink:href="#m8533887d24" x="57.6" y="144.483162" style="stroke: #000000; stroke-width: 0.8"/>
      </g>
     </g>
     <g id="text_12">
      <!-- 1.50 -->
      <g transform="translate(28.334375 148.282381) scale(0.1 -0.1)">
       <use xlink:href="#DejaVuSans-31"/>
       <use xlink:href="#DejaVuSans-2e" x="63.623047"/>
       <use xlink:href="#DejaVuSans-35" x="95.410156"/>
       <use xlink:href="#DejaVuSans-30" x="159.033203"/>
      </g>
     </g>
    </g>
    <g id="ytick_7">
     <g id="line2d_13">
      <g>
       <use xlink:href="#m8533887d24" x="57.6" y="113.49965" style="stroke: #000000; stroke-width: 0.8"/>
      </g>
     </g>
     <g id="text_13">
      <!-- 1.75 -->
      <g transform="translate(28.334375 117.298869) scale(0.1 -0.1)">
       <use xlink:href="#DejaVuSans-31"/>
       <use xlink:href="#DejaVuSans-2e" x="63.623047"/>
       <use xlink:href="#DejaVuSans-37" x="95.410156"/>
       <use xlink:href="#DejaVuSans-35" x="159.033203"/>
      </g>
     </g>
    </g>
    <g id="ytick_8">
     <g id="line2d_14">
      <g>
       <use xlink:href="#m8533887d24" x="57.6" y="82.516138" style="stroke: #000000; stroke-width: 0.8"/>
      </g>
     </g>
     <g id="text_14">
      <!-- 2.00 -->
      <g transform="translate(28.334375 86.315357) scale(0.1 -0.1)">
       <use xlink:href="#DejaVuSans-32"/>
       <use xlink:href="#DejaVuSans-2e" x="63.623047"/>
       <use xlink:href="#DejaVuSans-30" x="95.410156"/>
       <use xlink:href="#DejaVuSans-30" x="159.033203"/>
      </g>
     </g>
    </g>
    <g id="ytick_9">
     <g id="line2d_15">
      <g>
       <use xlink:href="#m8533887d24" x="57.6" y="51.532626" style="stroke: #000000; stroke-width: 0.8"/>
      </g>
     </g>
     <g id="text_15">
      <!-- 2.25 -->
      <g transform="translate(28.334375 55.331845) scale(0.1 -0.1)">
       <use xlink:href="#DejaVuSans-32"/>
       <use xlink:href="#DejaVuSans-2e" x="63.623047"/>
       <use xlink:href="#DejaVuSans-32" x="95.410156"/>
       <use xlink:href="#DejaVuSans-35" x="159.033203"/>
      </g>
     </g>
    </g>
   </g>
   <g id="line2d_16">
    <path d="M 73.832727 53.568 
L 75.136561 143.678824 
L 76.440394 210.821528 
L 77.744228 224.808859 
L 79.048061 231.461914 
L 80.351895 235.927184 
L 81.655728 239.680048 
L 82.959562 242.508672 
L 85.567229 247.081167 
L 88.174896 250.314835 
L 89.478729 251.676425 
L 92.086396 253.90626 
L 93.39023 255.050822 
L 94.694064 255.783477 
L 95.997897 256.802188 
L 99.909398 259.156912 
L 101.213231 259.857055 
L 102.517065 260.354008 
L 103.820898 261.292353 
L 105.124732 261.893107 
L 106.428565 262.640274 
L 107.732399 263.200381 
L 109.036232 263.590537 
L 110.340066 264.363115 
L 112.947733 265.08768 
L 115.5554 266.395429 
L 116.859233 266.67638 
L 118.163067 267.205042 
L 122.074567 268.267059 
L 123.378401 268.907014 
L 124.682234 269.299329 
L 125.986068 269.449026 
L 127.289901 269.933206 
L 128.593735 270.226498 
L 129.897568 270.755182 
L 131.201402 270.918949 
L 133.809069 271.63302 
L 136.416736 272.496236 
L 137.72057 272.558946 
L 139.024403 272.906521 
L 142.935904 273.709963 
L 145.543571 274.381337 
L 148.151238 274.802544 
L 150.758905 275.560899 
L 152.062738 275.574705 
L 155.974239 276.229595 
L 157.278072 276.630251 
L 159.885739 276.892709 
L 161.189573 277.286832 
L 163.79724 277.84377 
L 165.101073 277.854096 
L 166.404907 278.308119 
L 167.70874 278.307873 
L 170.316407 278.560478 
L 171.620241 278.9107 
L 175.531742 279.506008 
L 176.835575 279.790675 
L 179.443242 279.837246 
L 182.050909 280.478362 
L 184.658576 280.736006 
L 185.96241 280.581867 
L 187.266243 281.150031 
L 189.87391 281.285625 
L 192.481577 281.559147 
L 193.785411 281.875217 
L 195.089244 282.044829 
L 199.000745 282.15082 
L 200.304578 282.419764 
L 201.608412 282.410743 
L 202.912245 282.659015 
L 205.519912 282.873434 
L 206.823746 283.148333 
L 208.127579 283.283113 
L 209.431413 283.246545 
L 210.735246 283.59721 
L 213.342913 283.966388 
L 214.646747 283.776662 
L 215.950581 284.159598 
L 217.254414 284.243618 
L 218.558248 284.197353 
L 221.165915 284.665335 
L 222.469748 284.557253 
L 223.773582 284.630893 
L 226.381249 285.0369 
L 228.988916 285.267468 
L 230.292749 285.211679 
L 231.596583 285.452322 
L 234.20425 285.680369 
L 235.508083 285.64141 
L 238.11575 286.118186 
L 239.419584 285.994792 
L 242.027251 286.41171 
L 245.938751 286.524277 
L 247.242585 286.795785 
L 248.546418 286.644991 
L 249.850252 286.826787 
L 251.154085 286.846911 
L 252.457919 287.21756 
L 255.065586 287.262676 
L 257.673253 287.624248 
L 258.977087 287.458021 
L 260.28092 287.748857 
L 261.584754 287.595835 
L 262.888587 287.821101 
L 264.192421 287.882068 
L 265.496254 288.077304 
L 268.103921 288.305577 
L 269.407755 288.460513 
L 270.711588 288.293321 
L 272.015422 288.695316 
L 273.319255 288.592827 
L 275.926922 288.706263 
L 277.230756 289.02113 
L 282.44609 289.202682 
L 283.749923 289.380966 
L 285.053757 289.349975 
L 286.35759 289.59431 
L 287.661424 289.616411 
L 288.965257 289.77388 
L 290.269091 289.693552 
L 291.572924 289.877763 
L 292.876758 289.782495 
L 294.180591 290.053054 
L 298.092092 290.205467 
L 299.395926 290.415528 
L 303.307426 290.408226 
L 304.61126 290.698312 
L 305.915093 290.628852 
L 308.52276 290.971273 
L 309.826594 290.907056 
L 311.130427 290.969754 
L 312.434261 291.206973 
L 313.738094 291.139921 
L 315.041928 291.191733 
L 316.345761 291.380729 
L 317.649595 291.341306 
L 318.953428 291.510538 
L 320.257262 291.341365 
L 322.864929 291.655445 
L 324.168762 291.845829 
L 328.080263 292.015759 
L 330.68793 291.701749 
L 331.991763 292.282671 
L 333.295597 292.372975 
L 337.207097 292.409683 
L 338.510931 292.61703 
L 341.118598 292.501341 
L 342.422432 292.862129 
L 345.030099 292.687419 
L 347.637766 293.11498 
L 350.245433 293.170251 
L 351.549266 293.361519 
L 354.156933 293.22967 
L 355.460767 293.361214 
L 356.7646 293.260849 
L 358.068434 293.622589 
L 359.372267 293.542965 
L 360.676101 293.703994 
L 365.891435 293.776024 
L 368.499102 294.138821 
L 373.714436 294.405802 
L 375.018269 294.310651 
L 377.625936 294.46403 
L 378.92977 294.60854 
L 380.233604 294.386147 
L 381.537437 294.686703 
L 384.145104 294.522206 
L 385.448938 294.807158 
L 386.752771 294.757815 
L 390.664272 295.000391 
L 391.968105 295.027868 
L 393.271939 295.261275 
L 395.879606 295.237045 
L 398.487273 295.488 
L 398.487273 295.488 
" clip-path="url(#pd0b8e42063)" style="fill: none; stroke: #1f77b4; stroke-width: 1.5; stroke-linecap: square"/>
   </g>
   <g id="line2d_17">
    <path d="M 73.832727 79.980701 
L 75.136561 194.696247 
L 76.440394 218.406533 
L 77.744228 226.603131 
L 79.048061 231.993722 
L 80.351895 236.071843 
L 82.959562 241.513241 
L 84.263395 243.662055 
L 85.567229 245.528154 
L 88.174896 248.576616 
L 89.478729 249.526806 
L 90.782563 250.962738 
L 92.086396 251.924598 
L 93.39023 253.203369 
L 94.694064 253.558171 
L 95.997897 254.739215 
L 97.301731 255.281096 
L 98.605564 256.140978 
L 99.909398 256.543105 
L 101.213231 257.678223 
L 102.517065 257.886042 
L 103.820898 258.8808 
L 107.732399 260.736832 
L 109.036232 261.154787 
L 110.340066 261.714862 
L 111.643899 262.100657 
L 112.947733 262.866085 
L 114.251566 263.093948 
L 115.5554 263.48819 
L 116.859233 263.415023 
L 118.163067 264.406959 
L 119.4669 264.231221 
L 122.074567 265.757988 
L 123.378401 266.230009 
L 124.682234 266.285376 
L 125.986068 265.99763 
L 128.593735 267.307034 
L 129.897568 267.669698 
L 131.201402 267.650905 
L 132.505235 268.515361 
L 133.809069 269.012035 
L 135.112903 268.802593 
L 136.416736 269.039433 
L 137.72057 269.500566 
L 141.63207 270.345081 
L 142.935904 270.993442 
L 144.239737 271.036948 
L 145.543571 271.280376 
L 146.847404 270.876159 
L 148.151238 271.393653 
L 150.758905 272.023943 
L 152.062738 272.111918 
L 154.670405 272.870812 
L 155.974239 273.104584 
L 157.278072 272.724655 
L 159.885739 273.577279 
L 161.189573 273.375565 
L 162.493406 274.293283 
L 163.79724 274.230189 
L 165.101073 274.541324 
L 166.404907 274.637638 
L 167.70874 274.452165 
L 169.012574 274.973964 
L 170.316407 275.00298 
L 171.620241 275.571356 
L 172.924074 275.505968 
L 174.227908 275.048938 
L 175.531742 275.89022 
L 178.139409 276.168198 
L 179.443242 275.897435 
L 182.050909 276.583971 
L 184.658576 276.537656 
L 185.96241 277.226048 
L 187.266243 276.63881 
L 188.570077 277.401003 
L 191.177744 277.805898 
L 192.481577 277.758359 
L 193.785411 277.865193 
L 195.089244 277.770179 
L 196.393078 278.079919 
L 197.696911 278.2677 
L 199.000745 278.594737 
L 200.304578 278.218687 
L 201.608412 278.72081 
L 202.912245 278.660062 
L 205.519912 279.056166 
L 206.823746 279.044582 
L 208.127579 278.615672 
L 209.431413 279.603135 
L 212.03908 279.826325 
L 213.342913 280.005304 
L 214.646747 278.763206 
L 215.950581 280.250582 
L 217.254414 280.339012 
L 218.558248 280.02626 
L 219.862081 280.545205 
L 222.469748 280.246027 
L 223.773582 280.990973 
L 225.077415 281.008664 
L 226.381249 280.725561 
L 227.685082 280.933781 
L 228.988916 281.270254 
L 230.292749 281.413299 
L 231.596583 280.91385 
L 232.900416 281.265145 
L 234.20425 281.352999 
L 235.508083 281.318299 
L 236.811917 281.802504 
L 238.11575 282.048502 
L 239.419584 281.627875 
L 242.027251 282.138237 
L 243.331084 282.27359 
L 244.634918 281.281455 
L 245.938751 282.352869 
L 247.242585 282.454624 
L 248.546418 282.087233 
L 249.850252 282.750104 
L 251.154085 282.66826 
L 252.457919 282.832226 
L 255.065586 282.958323 
L 256.369419 283.134207 
L 257.673253 283.059176 
L 258.977087 283.46335 
L 260.28092 282.987643 
L 261.584754 283.204872 
L 262.888587 283.551048 
L 264.192421 283.609383 
L 265.496254 283.479947 
L 266.800088 283.823196 
L 268.103921 283.76446 
L 269.407755 284.011895 
L 270.711588 284.089717 
L 272.015422 284.012376 
L 273.319255 284.222624 
L 274.623089 284.256664 
L 275.926922 284.167046 
L 277.230756 284.35792 
L 278.534589 284.315844 
L 281.142256 284.827926 
L 282.44609 284.435373 
L 283.749923 284.86372 
L 285.053757 284.309288 
L 286.35759 285.025586 
L 288.965257 285.083776 
L 290.269091 284.903607 
L 291.572924 284.917437 
L 292.876758 285.421477 
L 294.180591 285.432896 
L 296.788258 284.807421 
L 298.092092 285.526107 
L 299.395926 285.491449 
L 300.699759 285.711186 
L 302.003593 285.65908 
L 303.307426 285.968381 
L 304.61126 285.265172 
L 305.915093 285.712503 
L 308.52276 286.162424 
L 309.826594 285.718652 
L 311.130427 286.343137 
L 312.434261 286.364557 
L 313.738094 286.207087 
L 315.041928 286.268816 
L 316.345761 286.573495 
L 317.649595 285.780688 
L 318.953428 285.820994 
L 320.257262 286.515545 
L 321.561095 286.899901 
L 322.864929 286.360594 
L 324.168762 286.774229 
L 326.776429 287.04375 
L 328.080263 287.004052 
L 329.384096 286.728329 
L 330.68793 286.815162 
L 331.991763 287.152596 
L 333.295597 286.8962 
L 334.59943 286.789858 
L 337.207097 287.524802 
L 339.814765 287.112674 
L 341.118598 287.527897 
L 343.726265 287.643627 
L 345.030099 287.430994 
L 346.333932 287.972893 
L 347.637766 287.839479 
L 351.549266 287.956193 
L 352.8531 287.633574 
L 354.156933 288.085686 
L 355.460767 287.559506 
L 356.7646 288.325725 
L 358.068434 288.30509 
L 359.372267 287.850643 
L 360.676101 288.499188 
L 361.979934 287.620466 
L 363.283768 288.456447 
L 364.587601 288.243208 
L 367.195268 288.183161 
L 368.499102 288.790734 
L 369.802935 288.26209 
L 373.714436 288.694851 
L 376.322103 288.465935 
L 377.625936 288.910647 
L 378.92977 289.092776 
L 380.233604 288.878505 
L 382.841271 289.268753 
L 384.145104 289.077829 
L 385.448938 289.472574 
L 388.056605 289.013845 
L 389.360438 289.170741 
L 391.968105 289.663709 
L 393.271939 289.081486 
L 394.575772 289.503066 
L 395.879606 289.794557 
L 397.183439 289.535898 
L 398.487273 289.610361 
L 398.487273 289.610361 
" clip-path="url(#pd0b8e42063)" style="fill: none; stroke: #ff7f0e; stroke-width: 1.5; stroke-linecap: square"/>
   </g>
   <g id="patch_3">
    <path d="M 57.6 307.584 
L 57.6 41.472 
" style="fill: none; stroke: #000000; stroke-width: 0.8; stroke-linejoin: miter; stroke-linecap: square"/>
   </g>
   <g id="patch_4">
    <path d="M 414.72 307.584 
L 414.72 41.472 
" style="fill: none; stroke: #000000; stroke-width: 0.8; stroke-linejoin: miter; stroke-linecap: square"/>
   </g>
   <g id="patch_5">
    <path d="M 57.6 307.584 
L 414.72 307.584 
" style="fill: none; stroke: #000000; stroke-width: 0.8; stroke-linejoin: miter; stroke-linecap: square"/>
   </g>
   <g id="patch_6">
    <path d="M 57.6 41.472 
L 414.72 41.472 
" style="fill: none; stroke: #000000; stroke-width: 0.8; stroke-linejoin: miter; stroke-linecap: square"/>
   </g>
   <g id="legend_1">
    <g id="patch_7">
     <path d="M 316.766875 79.3845 
L 407.72 79.3845 
Q 409.72 79.3845 409.72 77.3845 
L 409.72 48.472 
Q 409.72 46.472 407.72 46.472 
L 316.766875 46.472 
Q 314.766875 46.472 314.766875 48.472 
L 314.766875 77.3845 
Q 314.766875 79.3845 316.766875 79.3845 
z
" style="fill: #ffffff; opacity: 0.8; stroke: #cccccc; stroke-linejoin: miter"/>
    </g>
    <g id="line2d_18">
     <path d="M 318.766875 54.570438 
L 328.766875 54.570438 
L 338.766875 54.570438 
" style="fill: none; stroke: #1f77b4; stroke-width: 1.5; stroke-linecap: square"/>
    </g>
    <g id="text_16">
     <!-- train_losses -->
     <g transform="translate(346.766875 58.070438) scale(0.1 -0.1)">
      <defs>
       <path id="DejaVuSans-74" d="M 1172 4494 
L 1172 3500 
L 2356 3500 
L 2356 3053 
L 1172 3053 
L 1172 1153 
Q 1172 725 1289 603 
Q 1406 481 1766 481 
L 2356 481 
L 2356 0 
L 1766 0 
Q 1100 0 847 248 
Q 594 497 594 1153 
L 594 3053 
L 172 3053 
L 172 3500 
L 594 3500 
L 594 4494 
L 1172 4494 
z
" transform="scale(0.015625)"/>
       <path id="DejaVuSans-72" d="M 2631 2963 
Q 2534 3019 2420 3045 
Q 2306 3072 2169 3072 
Q 1681 3072 1420 2755 
Q 1159 2438 1159 1844 
L 1159 0 
L 581 0 
L 581 3500 
L 1159 3500 
L 1159 2956 
Q 1341 3275 1631 3429 
Q 1922 3584 2338 3584 
Q 2397 3584 2469 3576 
Q 2541 3569 2628 3553 
L 2631 2963 
z
" transform="scale(0.015625)"/>
       <path id="DejaVuSans-61" d="M 2194 1759 
Q 1497 1759 1228 1600 
Q 959 1441 959 1056 
Q 959 750 1161 570 
Q 1363 391 1709 391 
Q 2188 391 2477 730 
Q 2766 1069 2766 1631 
L 2766 1759 
L 2194 1759 
z
M 3341 1997 
L 3341 0 
L 2766 0 
L 2766 531 
Q 2569 213 2275 61 
Q 1981 -91 1556 -91 
Q 1019 -91 701 211 
Q 384 513 384 1019 
Q 384 1609 779 1909 
Q 1175 2209 1959 2209 
L 2766 2209 
L 2766 2266 
Q 2766 2663 2505 2880 
Q 2244 3097 1772 3097 
Q 1472 3097 1187 3025 
Q 903 2953 641 2809 
L 641 3341 
Q 956 3463 1253 3523 
Q 1550 3584 1831 3584 
Q 2591 3584 2966 3190 
Q 3341 2797 3341 1997 
z
" transform="scale(0.015625)"/>
       <path id="DejaVuSans-69" d="M 603 3500 
L 1178 3500 
L 1178 0 
L 603 0 
L 603 3500 
z
M 603 4863 
L 1178 4863 
L 1178 4134 
L 603 4134 
L 603 4863 
z
" transform="scale(0.015625)"/>
       <path id="DejaVuSans-6e" d="M 3513 2113 
L 3513 0 
L 2938 0 
L 2938 2094 
Q 2938 2591 2744 2837 
Q 2550 3084 2163 3084 
Q 1697 3084 1428 2787 
Q 1159 2491 1159 1978 
L 1159 0 
L 581 0 
L 581 3500 
L 1159 3500 
L 1159 2956 
Q 1366 3272 1645 3428 
Q 1925 3584 2291 3584 
Q 2894 3584 3203 3211 
Q 3513 2838 3513 2113 
z
" transform="scale(0.015625)"/>
       <path id="DejaVuSans-5f" d="M 3263 -1063 
L 3263 -1509 
L -63 -1509 
L -63 -1063 
L 3263 -1063 
z
" transform="scale(0.015625)"/>
       <path id="DejaVuSans-6c" d="M 603 4863 
L 1178 4863 
L 1178 0 
L 603 0 
L 603 4863 
z
" transform="scale(0.015625)"/>
       <path id="DejaVuSans-6f" d="M 1959 3097 
Q 1497 3097 1228 2736 
Q 959 2375 959 1747 
Q 959 1119 1226 758 
Q 1494 397 1959 397 
Q 2419 397 2687 759 
Q 2956 1122 2956 1747 
Q 2956 2369 2687 2733 
Q 2419 3097 1959 3097 
z
M 1959 3584 
Q 2709 3584 3137 3096 
Q 3566 2609 3566 1747 
Q 3566 888 3137 398 
Q 2709 -91 1959 -91 
Q 1206 -91 779 398 
Q 353 888 353 1747 
Q 353 2609 779 3096 
Q 1206 3584 1959 3584 
z
" transform="scale(0.015625)"/>
       <path id="DejaVuSans-73" d="M 2834 3397 
L 2834 2853 
Q 2591 2978 2328 3040 
Q 2066 3103 1784 3103 
Q 1356 3103 1142 2972 
Q 928 2841 928 2578 
Q 928 2378 1081 2264 
Q 1234 2150 1697 2047 
L 1894 2003 
Q 2506 1872 2764 1633 
Q 3022 1394 3022 966 
Q 3022 478 2636 193 
Q 2250 -91 1575 -91 
Q 1294 -91 989 -36 
Q 684 19 347 128 
L 347 722 
Q 666 556 975 473 
Q 1284 391 1588 391 
Q 1994 391 2212 530 
Q 2431 669 2431 922 
Q 2431 1156 2273 1281 
Q 2116 1406 1581 1522 
L 1381 1569 
Q 847 1681 609 1914 
Q 372 2147 372 2553 
Q 372 3047 722 3315 
Q 1072 3584 1716 3584 
Q 2034 3584 2315 3537 
Q 2597 3491 2834 3397 
z
" transform="scale(0.015625)"/>
       <path id="DejaVuSans-65" d="M 3597 1894 
L 3597 1613 
L 953 1613 
Q 991 1019 1311 708 
Q 1631 397 2203 397 
Q 2534 397 2845 478 
Q 3156 559 3463 722 
L 3463 178 
Q 3153 47 2828 -22 
Q 2503 -91 2169 -91 
Q 1331 -91 842 396 
Q 353 884 353 1716 
Q 353 2575 817 3079 
Q 1281 3584 2069 3584 
Q 2775 3584 3186 3129 
Q 3597 2675 3597 1894 
z
M 3022 2063 
Q 3016 2534 2758 2815 
Q 2500 3097 2075 3097 
Q 1594 3097 1305 2825 
Q 1016 2553 972 2059 
L 3022 2063 
z
" transform="scale(0.015625)"/>
      </defs>
      <use xlink:href="#DejaVuSans-74"/>
      <use xlink:href="#DejaVuSans-72" x="39.208984"/>
      <use xlink:href="#DejaVuSans-61" x="80.322266"/>
      <use xlink:href="#DejaVuSans-69" x="141.601562"/>
      <use xlink:href="#DejaVuSans-6e" x="169.384766"/>
      <use xlink:href="#DejaVuSans-5f" x="232.763672"/>
      <use xlink:href="#DejaVuSans-6c" x="282.763672"/>
      <use xlink:href="#DejaVuSans-6f" x="310.546875"/>
      <use xlink:href="#DejaVuSans-73" x="371.728516"/>
      <use xlink:href="#DejaVuSans-73" x="423.828125"/>
      <use xlink:href="#DejaVuSans-65" x="475.927734"/>
      <use xlink:href="#DejaVuSans-73" x="537.451172"/>
     </g>
    </g>
    <g id="line2d_19">
     <path d="M 318.766875 69.526688 
L 328.766875 69.526688 
L 338.766875 69.526688 
" style="fill: none; stroke: #ff7f0e; stroke-width: 1.5; stroke-linecap: square"/>
    </g>
    <g id="text_17">
     <!-- test_losses -->
     <g transform="translate(346.766875 73.026688) scale(0.1 -0.1)">
      <use xlink:href="#DejaVuSans-74"/>
      <use xlink:href="#DejaVuSans-65" x="39.208984"/>
      <use xlink:href="#DejaVuSans-73" x="100.732422"/>
      <use xlink:href="#DejaVuSans-74" x="152.832031"/>
      <use xlink:href="#DejaVuSans-5f" x="192.041016"/>
      <use xlink:href="#DejaVuSans-6c" x="242.041016"/>
      <use xlink:href="#DejaVuSans-6f" x="269.824219"/>
      <use xlink:href="#DejaVuSans-73" x="331.005859"/>
      <use xlink:href="#DejaVuSans-73" x="383.105469"/>
      <use xlink:href="#DejaVuSans-65" x="435.205078"/>
      <use xlink:href="#DejaVuSans-73" x="496.728516"/>
     </g>
    </g>
   </g>
  </g>
 </g>
 <defs>
  <clipPath id="pd0b8e42063">
   <rect x="57.6" y="41.472" width="357.12" height="266.112"/>
  </clipPath>
 </defs>
</svg>
