<?xml version="1.0" encoding="utf-8" standalone="no"?>
<!DOCTYPE svg PUBLIC "-//W3C//DTD SVG 1.1//EN"
  "http://www.w3.org/Graphics/SVG/1.1/DTD/svg11.dtd">
<svg xmlns:xlink="http://www.w3.org/1999/xlink" width="460.8pt" height="345.6pt" viewBox="0 0 460.8 345.6" xmlns="http://www.w3.org/2000/svg" version="1.1">
 <metadata>
  <rdf:RDF xmlns:dc="http://purl.org/dc/elements/1.1/" xmlns:cc="http://creativecommons.org/ns#" xmlns:rdf="http://www.w3.org/1999/02/22-rdf-syntax-ns#">
   <cc:Work>
    <dc:type rdf:resource="http://purl.org/dc/dcmitype/StillImage"/>
    <dc:date>2023-10-30T10:37:55.255845</dc:date>
    <dc:format>image/svg+xml</dc:format>
    <dc:creator>
     <cc:Agent>
      <dc:title>Matplotlib v3.8.0, https://matplotlib.org/</dc:title>
     </cc:Agent>
    </dc:creator>
   </cc:Work>
  </rdf:RDF>
 </metadata>
 <defs>
  <style type="text/css">*{stroke-linejoin: round; stroke-linecap: butt}</style>
 </defs>
 <g id="figure_1">
  <g id="patch_1">
   <path d="M 0 345.6 
L 460.8 345.6 
L 460.8 0 
L 0 0 
z
" style="fill: #ffffff"/>
  </g>
  <g id="axes_1">
   <g id="patch_2">
    <path d="M 57.6 307.584 
L 414.72 307.584 
L 414.72 41.472 
L 57.6 41.472 
z
" style="fill: #ffffff"/>
   </g>
   <g id="matplotlib.axis_1">
    <g id="xtick_1">
     <g id="line2d_1">
      <defs>
       <path id="me4ec2404de" d="M 0 0 
L 0 3.5 
" style="stroke: #000000; stroke-width: 0.8"/>
      </defs>
      <g>
       <use xlink:href="#me4ec2404de" x="73.832727" y="307.584" style="stroke: #000000; stroke-width: 0.8"/>
      </g>
     </g>
     <g id="text_1">
      <!-- 0 -->
      <g transform="translate(70.651477 322.182437) scale(0.1 -0.1)">
       <defs>
        <path id="DejaVuSans-30" d="M 2034 4250 
Q 1547 4250 1301 3770 
Q 1056 3291 1056 2328 
Q 1056 1369 1301 889 
Q 1547 409 2034 409 
Q 2525 409 2770 889 
Q 3016 1369 3016 2328 
Q 3016 3291 2770 3770 
Q 2525 4250 2034 4250 
z
M 2034 4750 
Q 2819 4750 3233 4129 
Q 3647 3509 3647 2328 
Q 3647 1150 3233 529 
Q 2819 -91 2034 -91 
Q 1250 -91 836 529 
Q 422 1150 422 2328 
Q 422 3509 836 4129 
Q 1250 4750 2034 4750 
z
" transform="scale(0.015625)"/>
       </defs>
       <use xlink:href="#DejaVuSans-30"/>
      </g>
     </g>
    </g>
    <g id="xtick_2">
     <g id="line2d_2">
      <g>
       <use xlink:href="#me4ec2404de" x="139.024403" y="307.584" style="stroke: #000000; stroke-width: 0.8"/>
      </g>
     </g>
     <g id="text_2">
      <!-- 50 -->
      <g transform="translate(132.661903 322.182437) scale(0.1 -0.1)">
       <defs>
        <path id="DejaVuSans-35" d="M 691 4666 
L 3169 4666 
L 3169 4134 
L 1269 4134 
L 1269 2991 
Q 1406 3038 1543 3061 
Q 1681 3084 1819 3084 
Q 2600 3084 3056 2656 
Q 3513 2228 3513 1497 
Q 3513 744 3044 326 
Q 2575 -91 1722 -91 
Q 1428 -91 1123 -41 
Q 819 9 494 109 
L 494 744 
Q 775 591 1075 516 
Q 1375 441 1709 441 
Q 2250 441 2565 725 
Q 2881 1009 2881 1497 
Q 2881 1984 2565 2268 
Q 2250 2553 1709 2553 
Q 1456 2553 1204 2497 
Q 953 2441 691 2322 
L 691 4666 
z
" transform="scale(0.015625)"/>
       </defs>
       <use xlink:href="#DejaVuSans-35"/>
       <use xlink:href="#DejaVuSans-30" x="63.623047"/>
      </g>
     </g>
    </g>
    <g id="xtick_3">
     <g id="line2d_3">
      <g>
       <use xlink:href="#me4ec2404de" x="204.216079" y="307.584" style="stroke: #000000; stroke-width: 0.8"/>
      </g>
     </g>
     <g id="text_3">
      <!-- 100 -->
      <g transform="translate(194.672329 322.182437) scale(0.1 -0.1)">
       <defs>
        <path id="DejaVuSans-31" d="M 794 531 
L 1825 531 
L 1825 4091 
L 703 3866 
L 703 4441 
L 1819 4666 
L 2450 4666 
L 2450 531 
L 3481 531 
L 3481 0 
L 794 0 
L 794 531 
z
" transform="scale(0.015625)"/>
       </defs>
       <use xlink:href="#DejaVuSans-31"/>
       <use xlink:href="#DejaVuSans-30" x="63.623047"/>
       <use xlink:href="#DejaVuSans-30" x="127.246094"/>
      </g>
     </g>
    </g>
    <g id="xtick_4">
     <g id="line2d_4">
      <g>
       <use xlink:href="#me4ec2404de" x="269.407755" y="307.584" style="stroke: #000000; stroke-width: 0.8"/>
      </g>
     </g>
     <g id="text_4">
      <!-- 150 -->
      <g transform="translate(259.864005 322.182437) scale(0.1 -0.1)">
       <use xlink:href="#DejaVuSans-31"/>
       <use xlink:href="#DejaVuSans-35" x="63.623047"/>
       <use xlink:href="#DejaVuSans-30" x="127.246094"/>
      </g>
     </g>
    </g>
    <g id="xtick_5">
     <g id="line2d_5">
      <g>
       <use xlink:href="#me4ec2404de" x="334.59943" y="307.584" style="stroke: #000000; stroke-width: 0.8"/>
      </g>
     </g>
     <g id="text_5">
      <!-- 200 -->
      <g transform="translate(325.05568 322.182437) scale(0.1 -0.1)">
       <defs>
        <path id="DejaVuSans-32" d="M 1228 531 
L 3431 531 
L 3431 0 
L 469 0 
L 469 531 
Q 828 903 1448 1529 
Q 2069 2156 2228 2338 
Q 2531 2678 2651 2914 
Q 2772 3150 2772 3378 
Q 2772 3750 2511 3984 
Q 2250 4219 1831 4219 
Q 1534 4219 1204 4116 
Q 875 4013 500 3803 
L 500 4441 
Q 881 4594 1212 4672 
Q 1544 4750 1819 4750 
Q 2544 4750 2975 4387 
Q 3406 4025 3406 3419 
Q 3406 3131 3298 2873 
Q 3191 2616 2906 2266 
Q 2828 2175 2409 1742 
Q 1991 1309 1228 531 
z
" transform="scale(0.015625)"/>
       </defs>
       <use xlink:href="#DejaVuSans-32"/>
       <use xlink:href="#DejaVuSans-30" x="63.623047"/>
       <use xlink:href="#DejaVuSans-30" x="127.246094"/>
      </g>
     </g>
    </g>
    <g id="xtick_6">
     <g id="line2d_6">
      <g>
       <use xlink:href="#me4ec2404de" x="399.791106" y="307.584" style="stroke: #000000; stroke-width: 0.8"/>
      </g>
     </g>
     <g id="text_6">
      <!-- 250 -->
      <g transform="translate(390.247356 322.182437) scale(0.1 -0.1)">
       <use xlink:href="#DejaVuSans-32"/>
       <use xlink:href="#DejaVuSans-35" x="63.623047"/>
       <use xlink:href="#DejaVuSans-30" x="127.246094"/>
      </g>
     </g>
    </g>
   </g>
   <g id="matplotlib.axis_2">
    <g id="ytick_1">
     <g id="line2d_7">
      <defs>
       <path id="m4c3aaa60ad" d="M 0 0 
L -3.5 0 
" style="stroke: #000000; stroke-width: 0.8"/>
      </defs>
      <g>
       <use xlink:href="#m4c3aaa60ad" x="57.6" y="306.38555" style="stroke: #000000; stroke-width: 0.8"/>
      </g>
     </g>
     <g id="text_7">
      <!-- 20 -->
      <g transform="translate(37.875 310.184769) scale(0.1 -0.1)">
       <use xlink:href="#DejaVuSans-32"/>
       <use xlink:href="#DejaVuSans-30" x="63.623047"/>
      </g>
     </g>
    </g>
    <g id="ytick_2">
     <g id="line2d_8">
      <g>
       <use xlink:href="#m4c3aaa60ad" x="57.6" y="270.199299" style="stroke: #000000; stroke-width: 0.8"/>
      </g>
     </g>
     <g id="text_8">
      <!-- 30 -->
      <g transform="translate(37.875 273.998518) scale(0.1 -0.1)">
       <defs>
        <path id="DejaVuSans-33" d="M 2597 2516 
Q 3050 2419 3304 2112 
Q 3559 1806 3559 1356 
Q 3559 666 3084 287 
Q 2609 -91 1734 -91 
Q 1441 -91 1130 -33 
Q 819 25 488 141 
L 488 750 
Q 750 597 1062 519 
Q 1375 441 1716 441 
Q 2309 441 2620 675 
Q 2931 909 2931 1356 
Q 2931 1769 2642 2001 
Q 2353 2234 1838 2234 
L 1294 2234 
L 1294 2753 
L 1863 2753 
Q 2328 2753 2575 2939 
Q 2822 3125 2822 3475 
Q 2822 3834 2567 4026 
Q 2313 4219 1838 4219 
Q 1578 4219 1281 4162 
Q 984 4106 628 3988 
L 628 4550 
Q 988 4650 1302 4700 
Q 1616 4750 1894 4750 
Q 2613 4750 3031 4423 
Q 3450 4097 3450 3541 
Q 3450 3153 3228 2886 
Q 3006 2619 2597 2516 
z
" transform="scale(0.015625)"/>
       </defs>
       <use xlink:href="#DejaVuSans-33"/>
       <use xlink:href="#DejaVuSans-30" x="63.623047"/>
      </g>
     </g>
    </g>
    <g id="ytick_3">
     <g id="line2d_9">
      <g>
       <use xlink:href="#m4c3aaa60ad" x="57.6" y="234.013049" style="stroke: #000000; stroke-width: 0.8"/>
      </g>
     </g>
     <g id="text_9">
      <!-- 40 -->
      <g transform="translate(37.875 237.812267) scale(0.1 -0.1)">
       <defs>
        <path id="DejaVuSans-34" d="M 2419 4116 
L 825 1625 
L 2419 1625 
L 2419 4116 
z
M 2253 4666 
L 3047 4666 
L 3047 1625 
L 3713 1625 
L 3713 1100 
L 3047 1100 
L 3047 0 
L 2419 0 
L 2419 1100 
L 313 1100 
L 313 1709 
L 2253 4666 
z
" transform="scale(0.015625)"/>
       </defs>
       <use xlink:href="#DejaVuSans-34"/>
       <use xlink:href="#DejaVuSans-30" x="63.623047"/>
      </g>
     </g>
    </g>
    <g id="ytick_4">
     <g id="line2d_10">
      <g>
       <use xlink:href="#m4c3aaa60ad" x="57.6" y="197.826798" style="stroke: #000000; stroke-width: 0.8"/>
      </g>
     </g>
     <g id="text_10">
      <!-- 50 -->
      <g transform="translate(37.875 201.626017) scale(0.1 -0.1)">
       <use xlink:href="#DejaVuSans-35"/>
       <use xlink:href="#DejaVuSans-30" x="63.623047"/>
      </g>
     </g>
    </g>
    <g id="ytick_5">
     <g id="line2d_11">
      <g>
       <use xlink:href="#m4c3aaa60ad" x="57.6" y="161.640548" style="stroke: #000000; stroke-width: 0.8"/>
      </g>
     </g>
     <g id="text_11">
      <!-- 60 -->
      <g transform="translate(37.875 165.439766) scale(0.1 -0.1)">
       <defs>
        <path id="DejaVuSans-36" d="M 2113 2584 
Q 1688 2584 1439 2293 
Q 1191 2003 1191 1497 
Q 1191 994 1439 701 
Q 1688 409 2113 409 
Q 2538 409 2786 701 
Q 3034 994 3034 1497 
Q 3034 2003 2786 2293 
Q 2538 2584 2113 2584 
z
M 3366 4563 
L 3366 3988 
Q 3128 4100 2886 4159 
Q 2644 4219 2406 4219 
Q 1781 4219 1451 3797 
Q 1122 3375 1075 2522 
Q 1259 2794 1537 2939 
Q 1816 3084 2150 3084 
Q 2853 3084 3261 2657 
Q 3669 2231 3669 1497 
Q 3669 778 3244 343 
Q 2819 -91 2113 -91 
Q 1303 -91 875 529 
Q 447 1150 447 2328 
Q 447 3434 972 4092 
Q 1497 4750 2381 4750 
Q 2619 4750 2861 4703 
Q 3103 4656 3366 4563 
z
" transform="scale(0.015625)"/>
       </defs>
       <use xlink:href="#DejaVuSans-36"/>
       <use xlink:href="#DejaVuSans-30" x="63.623047"/>
      </g>
     </g>
    </g>
    <g id="ytick_6">
     <g id="line2d_12">
      <g>
       <use xlink:href="#m4c3aaa60ad" x="57.6" y="125.454297" style="stroke: #000000; stroke-width: 0.8"/>
      </g>
     </g>
     <g id="text_12">
      <!-- 70 -->
      <g transform="translate(37.875 129.253516) scale(0.1 -0.1)">
       <defs>
        <path id="DejaVuSans-37" d="M 525 4666 
L 3525 4666 
L 3525 4397 
L 1831 0 
L 1172 0 
L 2766 4134 
L 525 4134 
L 525 4666 
z
" transform="scale(0.015625)"/>
       </defs>
       <use xlink:href="#DejaVuSans-37"/>
       <use xlink:href="#DejaVuSans-30" x="63.623047"/>
      </g>
     </g>
    </g>
    <g id="ytick_7">
     <g id="line2d_13">
      <g>
       <use xlink:href="#m4c3aaa60ad" x="57.6" y="89.268047" style="stroke: #000000; stroke-width: 0.8"/>
      </g>
     </g>
     <g id="text_13">
      <!-- 80 -->
      <g transform="translate(37.875 93.067265) scale(0.1 -0.1)">
       <defs>
        <path id="DejaVuSans-38" d="M 2034 2216 
Q 1584 2216 1326 1975 
Q 1069 1734 1069 1313 
Q 1069 891 1326 650 
Q 1584 409 2034 409 
Q 2484 409 2743 651 
Q 3003 894 3003 1313 
Q 3003 1734 2745 1975 
Q 2488 2216 2034 2216 
z
M 1403 2484 
Q 997 2584 770 2862 
Q 544 3141 544 3541 
Q 544 4100 942 4425 
Q 1341 4750 2034 4750 
Q 2731 4750 3128 4425 
Q 3525 4100 3525 3541 
Q 3525 3141 3298 2862 
Q 3072 2584 2669 2484 
Q 3125 2378 3379 2068 
Q 3634 1759 3634 1313 
Q 3634 634 3220 271 
Q 2806 -91 2034 -91 
Q 1263 -91 848 271 
Q 434 634 434 1313 
Q 434 1759 690 2068 
Q 947 2378 1403 2484 
z
M 1172 3481 
Q 1172 3119 1398 2916 
Q 1625 2713 2034 2713 
Q 2441 2713 2670 2916 
Q 2900 3119 2900 3481 
Q 2900 3844 2670 4047 
Q 2441 4250 2034 4250 
Q 1625 4250 1398 4047 
Q 1172 3844 1172 3481 
z
" transform="scale(0.015625)"/>
       </defs>
       <use xlink:href="#DejaVuSans-38"/>
       <use xlink:href="#DejaVuSans-30" x="63.623047"/>
      </g>
     </g>
    </g>
    <g id="ytick_8">
     <g id="line2d_14">
      <g>
       <use xlink:href="#m4c3aaa60ad" x="57.6" y="53.081796" style="stroke: #000000; stroke-width: 0.8"/>
      </g>
     </g>
     <g id="text_14">
      <!-- 90 -->
      <g transform="translate(37.875 56.881015) scale(0.1 -0.1)">
       <defs>
        <path id="DejaVuSans-39" d="M 703 97 
L 703 672 
Q 941 559 1184 500 
Q 1428 441 1663 441 
Q 2288 441 2617 861 
Q 2947 1281 2994 2138 
Q 2813 1869 2534 1725 
Q 2256 1581 1919 1581 
Q 1219 1581 811 2004 
Q 403 2428 403 3163 
Q 403 3881 828 4315 
Q 1253 4750 1959 4750 
Q 2769 4750 3195 4129 
Q 3622 3509 3622 2328 
Q 3622 1225 3098 567 
Q 2575 -91 1691 -91 
Q 1453 -91 1209 -44 
Q 966 3 703 97 
z
M 1959 2075 
Q 2384 2075 2632 2365 
Q 2881 2656 2881 3163 
Q 2881 3666 2632 3958 
Q 2384 4250 1959 4250 
Q 1534 4250 1286 3958 
Q 1038 3666 1038 3163 
Q 1038 2656 1286 2365 
Q 1534 2075 1959 2075 
z
" transform="scale(0.015625)"/>
       </defs>
       <use xlink:href="#DejaVuSans-39"/>
       <use xlink:href="#DejaVuSans-30" x="63.623047"/>
      </g>
     </g>
    </g>
   </g>
   <g id="line2d_15">
    <path d="M 73.832727 295.488 
L 75.136561 187.243636 
L 76.440394 144.399193 
L 77.744228 130.263939 
L 79.048061 123.555786 
L 80.351895 118.980107 
L 81.655728 115.671726 
L 82.959562 112.862954 
L 84.263395 110.94982 
L 89.478729 104.704719 
L 92.086396 102.602709 
L 93.39023 101.347596 
L 94.694064 100.427586 
L 95.997897 99.75738 
L 97.301731 98.50836 
L 98.605564 97.624906 
L 99.909398 96.461185 
L 101.213231 95.882371 
L 103.820898 94.267783 
L 105.124732 93.079691 
L 111.643899 89.491042 
L 112.947733 89.119383 
L 115.5554 87.212342 
L 116.859233 86.627435 
L 118.163067 86.341074 
L 119.4669 85.725703 
L 120.770734 84.964105 
L 123.378401 83.995353 
L 124.682234 83.276405 
L 125.986068 83.44091 
L 127.289901 82.356395 
L 128.593735 81.765395 
L 129.897568 81.49122 
L 132.505235 80.19955 
L 133.809069 80.022859 
L 135.112903 79.078478 
L 136.416736 78.670262 
L 137.72057 79.011457 
L 140.328237 77.945221 
L 141.63207 77.750252 
L 142.935904 77.250643 
L 144.239737 77.104417 
L 145.543571 76.336726 
L 146.847404 76.269706 
L 149.455071 75.672613 
L 150.758905 74.978036 
L 152.062738 74.837902 
L 153.366572 75.154726 
L 154.670405 75.038964 
L 155.974239 74.454057 
L 157.278072 74.003191 
L 158.581906 73.698552 
L 159.885739 73.668088 
L 161.189573 73.192851 
L 166.404907 71.956016 
L 167.70874 71.864624 
L 169.012574 72.187542 
L 170.316407 71.779325 
L 172.924074 71.182233 
L 175.531742 70.451099 
L 178.139409 70.414542 
L 184.658576 69.354398 
L 185.96241 69.92712 
L 187.266243 68.684192 
L 188.570077 68.915718 
L 189.87391 68.818233 
L 191.177744 68.221141 
L 192.481577 68.48313 
L 193.785411 67.837295 
L 195.089244 67.67279 
L 196.393078 67.959151 
L 199.000745 67.648419 
L 200.304578 67.709347 
L 202.912245 67.197553 
L 204.216079 67.264574 
L 205.519912 66.97212 
L 208.127579 66.899007 
L 210.735246 66.20443 
L 212.03908 66.173966 
L 213.342913 65.796213 
L 214.646747 66.119131 
L 215.950581 65.436739 
L 217.254414 65.509853 
L 218.558248 65.765749 
L 219.862081 65.223492 
L 221.165915 65.083358 
L 222.469748 65.272234 
L 223.773582 65.1321 
L 225.077415 64.394874 
L 226.381249 64.687327 
L 228.988916 64.21209 
L 230.292749 64.76044 
L 231.596583 64.138977 
L 232.900416 64.309575 
L 234.20425 63.99275 
L 235.508083 63.88308 
L 236.811917 63.541884 
L 238.11575 63.560162 
L 239.419584 63.889173 
L 240.723417 63.255523 
L 242.027251 63.4444 
L 243.331084 63.084925 
L 245.938751 62.694987 
L 247.242585 62.670616 
L 248.546418 62.981348 
L 249.850252 62.524389 
L 251.154085 62.926513 
L 252.457919 62.402534 
L 253.761752 62.347699 
L 256.369419 62.012596 
L 257.673253 61.89074 
L 258.977087 62.030874 
L 262.888587 61.805441 
L 264.192421 61.799348 
L 265.496254 61.397225 
L 266.800088 61.244905 
L 269.407755 61.257091 
L 270.711588 61.330204 
L 272.015422 60.659998 
L 273.319255 61.037751 
L 275.926922 60.964637 
L 277.230756 60.166483 
L 278.534589 60.416287 
L 279.838423 60.233503 
L 281.142256 60.446751 
L 282.44609 60.324895 
L 283.749923 59.983699 
L 285.053757 60.337081 
L 286.35759 59.807009 
L 287.661424 59.843565 
L 288.965257 59.557205 
L 290.269091 59.8984 
L 291.572924 59.386607 
L 292.876758 59.618132 
L 298.092092 59.203823 
L 299.395926 58.838256 
L 300.699759 58.972298 
L 303.307426 59.033225 
L 304.61126 58.685937 
L 305.915093 58.783421 
L 307.218927 58.576267 
L 311.130427 58.533617 
L 312.434261 58.308184 
L 313.738094 58.314277 
L 315.041928 58.131494 
L 316.345761 57.698906 
L 317.649595 58.16805 
L 318.953428 58.094937 
L 320.257262 58.344741 
L 321.561095 57.942617 
L 322.864929 57.906061 
L 324.168762 57.339432 
L 325.472596 57.193205 
L 326.776429 57.570958 
L 329.384096 57.394267 
L 330.68793 57.851226 
L 333.295597 56.65704 
L 334.59943 56.858102 
L 335.903264 56.91903 
L 337.207097 56.693597 
L 338.510931 56.778896 
L 341.118598 57.113999 
L 342.422432 56.431608 
L 343.726265 56.681412 
L 346.333932 56.510814 
L 347.637766 56.21836 
L 348.941599 56.315845 
L 350.245433 56.035577 
L 356.7646 56.200082 
L 358.068434 55.596896 
L 359.372267 55.883257 
L 360.676101 55.651731 
L 363.283768 55.475041 
L 364.587601 55.718752 
L 365.891435 55.596896 
L 367.195268 55.334907 
L 368.499102 55.231329 
L 369.802935 54.737814 
L 371.106769 55.280072 
L 372.410602 55.066824 
L 375.018269 54.987618 
L 376.322103 54.920598 
L 378.92977 54.59768 
L 380.233604 54.756092 
L 381.537437 54.518474 
L 382.841271 54.871855 
L 384.145104 54.658608 
L 385.448938 54.262577 
L 386.752771 54.664701 
L 388.056605 54.384433 
L 389.360438 54.53066 
L 391.968105 54.183371 
L 393.271939 53.884825 
L 395.879606 54.134629 
L 397.183439 53.628928 
L 398.487273 53.568 
L 398.487273 53.568 
" clip-path="url(#pc62a91d174)" style="fill: none; stroke: #1f77b4; stroke-width: 1.5; stroke-linecap: square"/>
   </g>
   <g id="line2d_16">
    <path d="M 73.832727 221.74591 
L 75.136561 157.840991 
L 76.440394 139.856425 
L 77.744228 128.530128 
L 79.048061 122.957446 
L 80.351895 118.723654 
L 81.655728 117.420949 
L 82.959562 114.200373 
L 84.263395 112.789109 
L 85.567229 110.871238 
L 86.871062 110.256072 
L 89.478729 106.058467 
L 90.782563 104.104409 
L 92.086396 105.334742 
L 93.39023 102.5484 
L 94.694064 102.584587 
L 95.997897 101.281882 
L 97.301731 100.702902 
L 98.605564 99.581128 
L 99.909398 100.015363 
L 101.213231 98.169864 
L 102.517065 97.988933 
L 103.820898 96.867159 
L 105.124732 96.107248 
L 106.428565 94.080818 
L 107.732399 93.972259 
L 109.036232 93.682769 
L 110.340066 92.70574 
L 111.643899 92.560995 
L 112.947733 90.824055 
L 114.251566 91.330663 
L 115.5554 90.38982 
L 116.859233 91.149732 
L 118.163067 89.050929 
L 119.4669 88.761439 
L 120.770734 88.291018 
L 122.074567 87.060685 
L 123.378401 86.33696 
L 124.682234 87.712038 
L 125.986068 85.866539 
L 127.289901 85.179 
L 128.593735 84.817138 
L 129.897568 83.948668 
L 131.201402 84.925696 
L 132.505235 83.224943 
L 133.809069 82.935453 
L 135.112903 83.188756 
L 136.416736 81.488003 
L 137.72057 80.872836 
L 139.024403 82.57359 
L 140.328237 82.030796 
L 141.63207 80.909023 
L 142.935904 80.25767 
L 144.239737 80.438601 
L 145.543571 79.931994 
L 146.847404 80.83665 
L 148.151238 79.787249 
L 149.455071 78.303613 
L 152.062738 78.737848 
L 153.366572 79.244455 
L 154.670405 78.52073 
L 155.974239 77.398956 
L 157.278072 77.94175 
L 158.581906 77.398956 
L 159.885739 77.109466 
L 161.189573 77.977936 
L 162.493406 76.132438 
L 163.79724 75.408713 
L 165.101073 75.62583 
L 166.404907 75.263968 
L 167.70874 76.4943 
L 169.012574 75.951506 
L 170.316407 75.698203 
L 171.620241 74.46787 
L 172.924074 75.010664 
L 174.227908 75.191595 
L 175.531742 74.648801 
L 176.835575 74.612615 
L 178.139409 74.069821 
L 179.443242 74.46787 
L 182.050909 74.250753 
L 183.354743 74.793546 
L 184.658576 74.142194 
L 185.96241 73.237538 
L 187.266243 74.033635 
L 188.570077 72.44144 
L 191.177744 72.332881 
L 192.481577 72.007205 
L 195.089244 73.128979 
L 196.393078 71.971019 
L 197.696911 72.115764 
L 199.000745 71.355853 
L 200.304578 71.428225 
L 201.608412 71.174921 
L 202.912245 71.536784 
L 204.216079 71.28348 
L 205.519912 70.523569 
L 206.823746 71.138735 
L 208.127579 71.066363 
L 209.431413 69.582726 
L 212.03908 69.401795 
L 213.342913 69.655099 
L 214.646747 71.428225 
L 215.950581 69.003746 
L 217.254414 68.96756 
L 218.558248 70.161706 
L 219.862081 68.67807 
L 221.165915 69.872216 
L 222.469748 69.474167 
L 223.773582 68.460952 
L 225.077415 68.09909 
L 226.381249 68.605697 
L 227.685082 68.895187 
L 228.988916 67.628669 
L 230.292749 67.773414 
L 231.596583 68.786629 
L 232.900416 67.845786 
L 234.20425 67.375365 
L 235.508083 67.954345 
L 236.811917 67.483924 
L 238.11575 66.65164 
L 239.419584 67.592482 
L 240.723417 67.483924 
L 244.634918 67.664855 
L 245.938751 67.049689 
L 247.242585 66.289777 
L 248.546418 67.013502 
L 249.850252 66.434522 
L 251.154085 66.000287 
L 252.457919 65.855542 
L 253.761752 65.855542 
L 255.065586 66.145032 
L 256.369419 65.457494 
L 257.673253 65.49368 
L 258.977087 65.385121 
L 260.28092 66.506895 
L 261.584754 66.434522 
L 262.888587 65.276562 
L 265.496254 65.131817 
L 266.800088 65.566052 
L 268.103921 64.806141 
L 269.407755 65.095631 
L 270.711588 64.842327 
L 272.015422 65.20419 
L 273.319255 65.240376 
L 274.623089 64.371906 
L 275.926922 65.059445 
L 277.230756 64.589024 
L 278.534589 65.49368 
L 279.838423 64.299534 
L 281.142256 63.431064 
L 282.44609 63.937671 
L 283.749923 63.973857 
L 285.053757 65.023259 
L 286.35759 63.575809 
L 287.661424 64.154789 
L 288.965257 63.503436 
L 290.269091 64.62521 
L 291.572924 64.227161 
L 292.876758 62.417849 
L 294.180591 63.611995 
L 295.484425 64.480465 
L 296.788258 64.408092 
L 298.092092 63.539622 
L 299.395926 63.250132 
L 300.699759 63.829112 
L 302.003593 62.743525 
L 303.307426 62.743525 
L 304.61126 63.901485 
L 305.915093 62.852084 
L 307.218927 63.141574 
L 308.52276 62.345476 
L 309.826594 63.358691 
L 311.130427 62.345476 
L 312.434261 61.802682 
L 313.738094 62.634966 
L 315.041928 63.105387 
L 316.345761 62.562594 
L 317.649595 62.996829 
L 318.953428 64.154789 
L 320.257262 62.273104 
L 321.561095 62.200731 
L 322.864929 62.381662 
L 324.168762 62.164545 
L 325.472596 62.200731 
L 326.776429 61.513192 
L 328.080263 61.477006 
L 329.384096 62.30929 
L 330.68793 62.128359 
L 331.991763 61.44082 
L 334.59943 62.273104 
L 335.903264 61.296075 
L 337.207097 61.838869 
L 339.814765 61.223702 
L 341.118598 61.187516 
L 342.422432 61.296075 
L 343.726265 61.73031 
L 345.030099 61.694124 
L 346.333932 60.57235 
L 347.637766 60.210487 
L 348.941599 61.223702 
L 350.245433 60.934212 
L 351.549266 60.319046 
L 352.8531 61.875055 
L 354.156933 60.101929 
L 355.460767 61.802682 
L 356.7646 60.536164 
L 358.068434 60.86184 
L 359.372267 61.44082 
L 360.676101 60.789467 
L 361.979934 61.73031 
L 363.283768 60.680909 
L 364.587601 60.680909 
L 365.891435 60.391419 
L 367.195268 61.078957 
L 368.499102 59.522949 
L 369.802935 60.391419 
L 372.410602 61.042771 
L 373.714436 60.138115 
L 375.018269 60.210487 
L 376.322103 60.608536 
L 377.625936 60.174301 
L 378.92977 59.595321 
L 380.233604 60.246674 
L 381.537437 59.522949 
L 384.145104 59.486762 
L 385.448938 59.595321 
L 386.752771 59.269645 
L 388.056605 60.608536 
L 389.360438 60.753281 
L 390.664272 59.233459 
L 391.968105 59.088714 
L 393.271939 60.065742 
L 394.575772 59.450576 
L 395.879606 58.473547 
L 397.183439 58.763037 
L 398.487273 59.667694 
L 398.487273 59.667694 
" clip-path="url(#pc62a91d174)" style="fill: none; stroke: #ff7f0e; stroke-width: 1.5; stroke-linecap: square"/>
   </g>
   <g id="patch_3">
    <path d="M 57.6 307.584 
L 57.6 41.472 
" style="fill: none; stroke: #000000; stroke-width: 0.8; stroke-linejoin: miter; stroke-linecap: square"/>
   </g>
   <g id="patch_4">
    <path d="M 414.72 307.584 
L 414.72 41.472 
" style="fill: none; stroke: #000000; stroke-width: 0.8; stroke-linejoin: miter; stroke-linecap: square"/>
   </g>
   <g id="patch_5">
    <path d="M 57.6 307.584 
L 414.72 307.584 
" style="fill: none; stroke: #000000; stroke-width: 0.8; stroke-linejoin: miter; stroke-linecap: square"/>
   </g>
   <g id="patch_6">
    <path d="M 57.6 41.472 
L 414.72 41.472 
" style="fill: none; stroke: #000000; stroke-width: 0.8; stroke-linejoin: miter; stroke-linecap: square"/>
   </g>
   <g id="legend_1">
    <g id="patch_7">
     <path d="M 302.32625 302.584 
L 407.72 302.584 
Q 409.72 302.584 409.72 300.584 
L 409.72 271.6715 
Q 409.72 269.6715 407.72 269.6715 
L 302.32625 269.6715 
Q 300.32625 269.6715 300.32625 271.6715 
L 300.32625 300.584 
Q 300.32625 302.584 302.32625 302.584 
z
" style="fill: #ffffff; opacity: 0.8; stroke: #cccccc; stroke-linejoin: miter"/>
    </g>
    <g id="line2d_17">
     <path d="M 304.32625 277.769937 
L 314.32625 277.769937 
L 324.32625 277.769937 
" style="fill: none; stroke: #1f77b4; stroke-width: 1.5; stroke-linecap: square"/>
    </g>
    <g id="text_15">
     <!-- train_accuracy -->
     <g transform="translate(332.32625 281.269937) scale(0.1 -0.1)">
      <defs>
       <path id="DejaVuSans-74" d="M 1172 4494 
L 1172 3500 
L 2356 3500 
L 2356 3053 
L 1172 3053 
L 1172 1153 
Q 1172 725 1289 603 
Q 1406 481 1766 481 
L 2356 481 
L 2356 0 
L 1766 0 
Q 1100 0 847 248 
Q 594 497 594 1153 
L 594 3053 
L 172 3053 
L 172 3500 
L 594 3500 
L 594 4494 
L 1172 4494 
z
" transform="scale(0.015625)"/>
       <path id="DejaVuSans-72" d="M 2631 2963 
Q 2534 3019 2420 3045 
Q 2306 3072 2169 3072 
Q 1681 3072 1420 2755 
Q 1159 2438 1159 1844 
L 1159 0 
L 581 0 
L 581 3500 
L 1159 3500 
L 1159 2956 
Q 1341 3275 1631 3429 
Q 1922 3584 2338 3584 
Q 2397 3584 2469 3576 
Q 2541 3569 2628 3553 
L 2631 2963 
z
" transform="scale(0.015625)"/>
       <path id="DejaVuSans-61" d="M 2194 1759 
Q 1497 1759 1228 1600 
Q 959 1441 959 1056 
Q 959 750 1161 570 
Q 1363 391 1709 391 
Q 2188 391 2477 730 
Q 2766 1069 2766 1631 
L 2766 1759 
L 2194 1759 
z
M 3341 1997 
L 3341 0 
L 2766 0 
L 2766 531 
Q 2569 213 2275 61 
Q 1981 -91 1556 -91 
Q 1019 -91 701 211 
Q 384 513 384 1019 
Q 384 1609 779 1909 
Q 1175 2209 1959 2209 
L 2766 2209 
L 2766 2266 
Q 2766 2663 2505 2880 
Q 2244 3097 1772 3097 
Q 1472 3097 1187 3025 
Q 903 2953 641 2809 
L 641 3341 
Q 956 3463 1253 3523 
Q 1550 3584 1831 3584 
Q 2591 3584 2966 3190 
Q 3341 2797 3341 1997 
z
" transform="scale(0.015625)"/>
       <path id="DejaVuSans-69" d="M 603 3500 
L 1178 3500 
L 1178 0 
L 603 0 
L 603 3500 
z
M 603 4863 
L 1178 4863 
L 1178 4134 
L 603 4134 
L 603 4863 
z
" transform="scale(0.015625)"/>
       <path id="DejaVuSans-6e" d="M 3513 2113 
L 3513 0 
L 2938 0 
L 2938 2094 
Q 2938 2591 2744 2837 
Q 2550 3084 2163 3084 
Q 1697 3084 1428 2787 
Q 1159 2491 1159 1978 
L 1159 0 
L 581 0 
L 581 3500 
L 1159 3500 
L 1159 2956 
Q 1366 3272 1645 3428 
Q 1925 3584 2291 3584 
Q 2894 3584 3203 3211 
Q 3513 2838 3513 2113 
z
" transform="scale(0.015625)"/>
       <path id="DejaVuSans-5f" d="M 3263 -1063 
L 3263 -1509 
L -63 -1509 
L -63 -1063 
L 3263 -1063 
z
" transform="scale(0.015625)"/>
       <path id="DejaVuSans-63" d="M 3122 3366 
L 3122 2828 
Q 2878 2963 2633 3030 
Q 2388 3097 2138 3097 
Q 1578 3097 1268 2742 
Q 959 2388 959 1747 
Q 959 1106 1268 751 
Q 1578 397 2138 397 
Q 2388 397 2633 464 
Q 2878 531 3122 666 
L 3122 134 
Q 2881 22 2623 -34 
Q 2366 -91 2075 -91 
Q 1284 -91 818 406 
Q 353 903 353 1747 
Q 353 2603 823 3093 
Q 1294 3584 2113 3584 
Q 2378 3584 2631 3529 
Q 2884 3475 3122 3366 
z
" transform="scale(0.015625)"/>
       <path id="DejaVuSans-75" d="M 544 1381 
L 544 3500 
L 1119 3500 
L 1119 1403 
Q 1119 906 1312 657 
Q 1506 409 1894 409 
Q 2359 409 2629 706 
Q 2900 1003 2900 1516 
L 2900 3500 
L 3475 3500 
L 3475 0 
L 2900 0 
L 2900 538 
Q 2691 219 2414 64 
Q 2138 -91 1772 -91 
Q 1169 -91 856 284 
Q 544 659 544 1381 
z
M 1991 3584 
L 1991 3584 
z
" transform="scale(0.015625)"/>
       <path id="DejaVuSans-79" d="M 2059 -325 
Q 1816 -950 1584 -1140 
Q 1353 -1331 966 -1331 
L 506 -1331 
L 506 -850 
L 844 -850 
Q 1081 -850 1212 -737 
Q 1344 -625 1503 -206 
L 1606 56 
L 191 3500 
L 800 3500 
L 1894 763 
L 2988 3500 
L 3597 3500 
L 2059 -325 
z
" transform="scale(0.015625)"/>
      </defs>
      <use xlink:href="#DejaVuSans-74"/>
      <use xlink:href="#DejaVuSans-72" x="39.208984"/>
      <use xlink:href="#DejaVuSans-61" x="80.322266"/>
      <use xlink:href="#DejaVuSans-69" x="141.601562"/>
      <use xlink:href="#DejaVuSans-6e" x="169.384766"/>
      <use xlink:href="#DejaVuSans-5f" x="232.763672"/>
      <use xlink:href="#DejaVuSans-61" x="282.763672"/>
      <use xlink:href="#DejaVuSans-63" x="344.042969"/>
      <use xlink:href="#DejaVuSans-63" x="399.023438"/>
      <use xlink:href="#DejaVuSans-75" x="454.003906"/>
      <use xlink:href="#DejaVuSans-72" x="517.382812"/>
      <use xlink:href="#DejaVuSans-61" x="558.496094"/>
      <use xlink:href="#DejaVuSans-63" x="619.775391"/>
      <use xlink:href="#DejaVuSans-79" x="674.755859"/>
     </g>
    </g>
    <g id="line2d_18">
     <path d="M 304.32625 292.726187 
L 314.32625 292.726187 
L 324.32625 292.726187 
" style="fill: none; stroke: #ff7f0e; stroke-width: 1.5; stroke-linecap: square"/>
    </g>
    <g id="text_16">
     <!-- test_accuracy -->
     <g transform="translate(332.32625 296.226187) scale(0.1 -0.1)">
      <defs>
       <path id="DejaVuSans-65" d="M 3597 1894 
L 3597 1613 
L 953 1613 
Q 991 1019 1311 708 
Q 1631 397 2203 397 
Q 2534 397 2845 478 
Q 3156 559 3463 722 
L 3463 178 
Q 3153 47 2828 -22 
Q 2503 -91 2169 -91 
Q 1331 -91 842 396 
Q 353 884 353 1716 
Q 353 2575 817 3079 
Q 1281 3584 2069 3584 
Q 2775 3584 3186 3129 
Q 3597 2675 3597 1894 
z
M 3022 2063 
Q 3016 2534 2758 2815 
Q 2500 3097 2075 3097 
Q 1594 3097 1305 2825 
Q 1016 2553 972 2059 
L 3022 2063 
z
" transform="scale(0.015625)"/>
       <path id="DejaVuSans-73" d="M 2834 3397 
L 2834 2853 
Q 2591 2978 2328 3040 
Q 2066 3103 1784 3103 
Q 1356 3103 1142 2972 
Q 928 2841 928 2578 
Q 928 2378 1081 2264 
Q 1234 2150 1697 2047 
L 1894 2003 
Q 2506 1872 2764 1633 
Q 3022 1394 3022 966 
Q 3022 478 2636 193 
Q 2250 -91 1575 -91 
Q 1294 -91 989 -36 
Q 684 19 347 128 
L 347 722 
Q 666 556 975 473 
Q 1284 391 1588 391 
Q 1994 391 2212 530 
Q 2431 669 2431 922 
Q 2431 1156 2273 1281 
Q 2116 1406 1581 1522 
L 1381 1569 
Q 847 1681 609 1914 
Q 372 2147 372 2553 
Q 372 3047 722 3315 
Q 1072 3584 1716 3584 
Q 2034 3584 2315 3537 
Q 2597 3491 2834 3397 
z
" transform="scale(0.015625)"/>
      </defs>
      <use xlink:href="#DejaVuSans-74"/>
      <use xlink:href="#DejaVuSans-65" x="39.208984"/>
      <use xlink:href="#DejaVuSans-73" x="100.732422"/>
      <use xlink:href="#DejaVuSans-74" x="152.832031"/>
      <use xlink:href="#DejaVuSans-5f" x="192.041016"/>
      <use xlink:href="#DejaVuSans-61" x="242.041016"/>
      <use xlink:href="#DejaVuSans-63" x="303.320312"/>
      <use xlink:href="#DejaVuSans-63" x="358.300781"/>
      <use xlink:href="#DejaVuSans-75" x="413.28125"/>
      <use xlink:href="#DejaVuSans-72" x="476.660156"/>
      <use xlink:href="#DejaVuSans-61" x="517.773438"/>
      <use xlink:href="#DejaVuSans-63" x="579.052734"/>
      <use xlink:href="#DejaVuSans-79" x="634.033203"/>
     </g>
    </g>
   </g>
  </g>
 </g>
 <defs>
  <clipPath id="pc62a91d174">
   <rect x="57.6" y="41.472" width="357.12" height="266.112"/>
  </clipPath>
 </defs>
</svg>
