<?xml version="1.0" encoding="utf-8" standalone="no"?>
<!DOCTYPE svg PUBLIC "-//W3C//DTD SVG 1.1//EN"
  "http://www.w3.org/Graphics/SVG/1.1/DTD/svg11.dtd">
<svg xmlns:xlink="http://www.w3.org/1999/xlink" width="460.8pt" height="345.6pt" viewBox="0 0 460.8 345.6" xmlns="http://www.w3.org/2000/svg" version="1.1">
 <metadata>
  <rdf:RDF xmlns:dc="http://purl.org/dc/elements/1.1/" xmlns:cc="http://creativecommons.org/ns#" xmlns:rdf="http://www.w3.org/1999/02/22-rdf-syntax-ns#">
   <cc:Work>
    <dc:type rdf:resource="http://purl.org/dc/dcmitype/StillImage"/>
    <dc:date>2023-10-30T10:58:26.219824</dc:date>
    <dc:format>image/svg+xml</dc:format>
    <dc:creator>
     <cc:Agent>
      <dc:title>Matplotlib v3.8.0, https://matplotlib.org/</dc:title>
     </cc:Agent>
    </dc:creator>
   </cc:Work>
  </rdf:RDF>
 </metadata>
 <defs>
  <style type="text/css">*{stroke-linejoin: round; stroke-linecap: butt}</style>
 </defs>
 <g id="figure_1">
  <g id="patch_1">
   <path d="M 0 345.6 
L 460.8 345.6 
L 460.8 0 
L 0 0 
z
" style="fill: #ffffff"/>
  </g>
  <g id="axes_1">
   <g id="patch_2">
    <path d="M 57.6 307.584 
L 414.72 307.584 
L 414.72 41.472 
L 57.6 41.472 
z
" style="fill: #ffffff"/>
   </g>
   <g id="matplotlib.axis_1">
    <g id="xtick_1">
     <g id="line2d_1">
      <defs>
       <path id="m9f841ef44f" d="M 0 0 
L 0 3.5 
" style="stroke: #000000; stroke-width: 0.8"/>
      </defs>
      <g>
       <use xlink:href="#m9f841ef44f" x="73.832727" y="307.584" style="stroke: #000000; stroke-width: 0.8"/>
      </g>
     </g>
     <g id="text_1">
      <!-- 0 -->
      <g transform="translate(70.651477 322.182437) scale(0.1 -0.1)">
       <defs>
        <path id="DejaVuSans-30" d="M 2034 4250 
Q 1547 4250 1301 3770 
Q 1056 3291 1056 2328 
Q 1056 1369 1301 889 
Q 1547 409 2034 409 
Q 2525 409 2770 889 
Q 3016 1369 3016 2328 
Q 3016 3291 2770 3770 
Q 2525 4250 2034 4250 
z
M 2034 4750 
Q 2819 4750 3233 4129 
Q 3647 3509 3647 2328 
Q 3647 1150 3233 529 
Q 2819 -91 2034 -91 
Q 1250 -91 836 529 
Q 422 1150 422 2328 
Q 422 3509 836 4129 
Q 1250 4750 2034 4750 
z
" transform="scale(0.015625)"/>
       </defs>
       <use xlink:href="#DejaVuSans-30"/>
      </g>
     </g>
    </g>
    <g id="xtick_2">
     <g id="line2d_2">
      <g>
       <use xlink:href="#m9f841ef44f" x="139.024403" y="307.584" style="stroke: #000000; stroke-width: 0.8"/>
      </g>
     </g>
     <g id="text_2">
      <!-- 50 -->
      <g transform="translate(132.661903 322.182437) scale(0.1 -0.1)">
       <defs>
        <path id="DejaVuSans-35" d="M 691 4666 
L 3169 4666 
L 3169 4134 
L 1269 4134 
L 1269 2991 
Q 1406 3038 1543 3061 
Q 1681 3084 1819 3084 
Q 2600 3084 3056 2656 
Q 3513 2228 3513 1497 
Q 3513 744 3044 326 
Q 2575 -91 1722 -91 
Q 1428 -91 1123 -41 
Q 819 9 494 109 
L 494 744 
Q 775 591 1075 516 
Q 1375 441 1709 441 
Q 2250 441 2565 725 
Q 2881 1009 2881 1497 
Q 2881 1984 2565 2268 
Q 2250 2553 1709 2553 
Q 1456 2553 1204 2497 
Q 953 2441 691 2322 
L 691 4666 
z
" transform="scale(0.015625)"/>
       </defs>
       <use xlink:href="#DejaVuSans-35"/>
       <use xlink:href="#DejaVuSans-30" x="63.623047"/>
      </g>
     </g>
    </g>
    <g id="xtick_3">
     <g id="line2d_3">
      <g>
       <use xlink:href="#m9f841ef44f" x="204.216079" y="307.584" style="stroke: #000000; stroke-width: 0.8"/>
      </g>
     </g>
     <g id="text_3">
      <!-- 100 -->
      <g transform="translate(194.672329 322.182437) scale(0.1 -0.1)">
       <defs>
        <path id="DejaVuSans-31" d="M 794 531 
L 1825 531 
L 1825 4091 
L 703 3866 
L 703 4441 
L 1819 4666 
L 2450 4666 
L 2450 531 
L 3481 531 
L 3481 0 
L 794 0 
L 794 531 
z
" transform="scale(0.015625)"/>
       </defs>
       <use xlink:href="#DejaVuSans-31"/>
       <use xlink:href="#DejaVuSans-30" x="63.623047"/>
       <use xlink:href="#DejaVuSans-30" x="127.246094"/>
      </g>
     </g>
    </g>
    <g id="xtick_4">
     <g id="line2d_4">
      <g>
       <use xlink:href="#m9f841ef44f" x="269.407755" y="307.584" style="stroke: #000000; stroke-width: 0.8"/>
      </g>
     </g>
     <g id="text_4">
      <!-- 150 -->
      <g transform="translate(259.864005 322.182437) scale(0.1 -0.1)">
       <use xlink:href="#DejaVuSans-31"/>
       <use xlink:href="#DejaVuSans-35" x="63.623047"/>
       <use xlink:href="#DejaVuSans-30" x="127.246094"/>
      </g>
     </g>
    </g>
    <g id="xtick_5">
     <g id="line2d_5">
      <g>
       <use xlink:href="#m9f841ef44f" x="334.59943" y="307.584" style="stroke: #000000; stroke-width: 0.8"/>
      </g>
     </g>
     <g id="text_5">
      <!-- 200 -->
      <g transform="translate(325.05568 322.182437) scale(0.1 -0.1)">
       <defs>
        <path id="DejaVuSans-32" d="M 1228 531 
L 3431 531 
L 3431 0 
L 469 0 
L 469 531 
Q 828 903 1448 1529 
Q 2069 2156 2228 2338 
Q 2531 2678 2651 2914 
Q 2772 3150 2772 3378 
Q 2772 3750 2511 3984 
Q 2250 4219 1831 4219 
Q 1534 4219 1204 4116 
Q 875 4013 500 3803 
L 500 4441 
Q 881 4594 1212 4672 
Q 1544 4750 1819 4750 
Q 2544 4750 2975 4387 
Q 3406 4025 3406 3419 
Q 3406 3131 3298 2873 
Q 3191 2616 2906 2266 
Q 2828 2175 2409 1742 
Q 1991 1309 1228 531 
z
" transform="scale(0.015625)"/>
       </defs>
       <use xlink:href="#DejaVuSans-32"/>
       <use xlink:href="#DejaVuSans-30" x="63.623047"/>
       <use xlink:href="#DejaVuSans-30" x="127.246094"/>
      </g>
     </g>
    </g>
    <g id="xtick_6">
     <g id="line2d_6">
      <g>
       <use xlink:href="#m9f841ef44f" x="399.791106" y="307.584" style="stroke: #000000; stroke-width: 0.8"/>
      </g>
     </g>
     <g id="text_6">
      <!-- 250 -->
      <g transform="translate(390.247356 322.182437) scale(0.1 -0.1)">
       <use xlink:href="#DejaVuSans-32"/>
       <use xlink:href="#DejaVuSans-35" x="63.623047"/>
       <use xlink:href="#DejaVuSans-30" x="127.246094"/>
      </g>
     </g>
    </g>
   </g>
   <g id="matplotlib.axis_2">
    <g id="ytick_1">
     <g id="line2d_7">
      <defs>
       <path id="m931166654d" d="M 0 0 
L -3.5 0 
" style="stroke: #000000; stroke-width: 0.8"/>
      </defs>
      <g>
       <use xlink:href="#m931166654d" x="57.6" y="306.292234" style="stroke: #000000; stroke-width: 0.8"/>
      </g>
     </g>
     <g id="text_7">
      <!-- 20 -->
      <g transform="translate(37.875 310.091452) scale(0.1 -0.1)">
       <use xlink:href="#DejaVuSans-32"/>
       <use xlink:href="#DejaVuSans-30" x="63.623047"/>
      </g>
     </g>
    </g>
    <g id="ytick_2">
     <g id="line2d_8">
      <g>
       <use xlink:href="#m931166654d" x="57.6" y="273.093328" style="stroke: #000000; stroke-width: 0.8"/>
      </g>
     </g>
     <g id="text_8">
      <!-- 30 -->
      <g transform="translate(37.875 276.892547) scale(0.1 -0.1)">
       <defs>
        <path id="DejaVuSans-33" d="M 2597 2516 
Q 3050 2419 3304 2112 
Q 3559 1806 3559 1356 
Q 3559 666 3084 287 
Q 2609 -91 1734 -91 
Q 1441 -91 1130 -33 
Q 819 25 488 141 
L 488 750 
Q 750 597 1062 519 
Q 1375 441 1716 441 
Q 2309 441 2620 675 
Q 2931 909 2931 1356 
Q 2931 1769 2642 2001 
Q 2353 2234 1838 2234 
L 1294 2234 
L 1294 2753 
L 1863 2753 
Q 2328 2753 2575 2939 
Q 2822 3125 2822 3475 
Q 2822 3834 2567 4026 
Q 2313 4219 1838 4219 
Q 1578 4219 1281 4162 
Q 984 4106 628 3988 
L 628 4550 
Q 988 4650 1302 4700 
Q 1616 4750 1894 4750 
Q 2613 4750 3031 4423 
Q 3450 4097 3450 3541 
Q 3450 3153 3228 2886 
Q 3006 2619 2597 2516 
z
" transform="scale(0.015625)"/>
       </defs>
       <use xlink:href="#DejaVuSans-33"/>
       <use xlink:href="#DejaVuSans-30" x="63.623047"/>
      </g>
     </g>
    </g>
    <g id="ytick_3">
     <g id="line2d_9">
      <g>
       <use xlink:href="#m931166654d" x="57.6" y="239.894423" style="stroke: #000000; stroke-width: 0.8"/>
      </g>
     </g>
     <g id="text_9">
      <!-- 40 -->
      <g transform="translate(37.875 243.693642) scale(0.1 -0.1)">
       <defs>
        <path id="DejaVuSans-34" d="M 2419 4116 
L 825 1625 
L 2419 1625 
L 2419 4116 
z
M 2253 4666 
L 3047 4666 
L 3047 1625 
L 3713 1625 
L 3713 1100 
L 3047 1100 
L 3047 0 
L 2419 0 
L 2419 1100 
L 313 1100 
L 313 1709 
L 2253 4666 
z
" transform="scale(0.015625)"/>
       </defs>
       <use xlink:href="#DejaVuSans-34"/>
       <use xlink:href="#DejaVuSans-30" x="63.623047"/>
      </g>
     </g>
    </g>
    <g id="ytick_4">
     <g id="line2d_10">
      <g>
       <use xlink:href="#m931166654d" x="57.6" y="206.695518" style="stroke: #000000; stroke-width: 0.8"/>
      </g>
     </g>
     <g id="text_10">
      <!-- 50 -->
      <g transform="translate(37.875 210.494737) scale(0.1 -0.1)">
       <use xlink:href="#DejaVuSans-35"/>
       <use xlink:href="#DejaVuSans-30" x="63.623047"/>
      </g>
     </g>
    </g>
    <g id="ytick_5">
     <g id="line2d_11">
      <g>
       <use xlink:href="#m931166654d" x="57.6" y="173.496613" style="stroke: #000000; stroke-width: 0.8"/>
      </g>
     </g>
     <g id="text_11">
      <!-- 60 -->
      <g transform="translate(37.875 177.295832) scale(0.1 -0.1)">
       <defs>
        <path id="DejaVuSans-36" d="M 2113 2584 
Q 1688 2584 1439 2293 
Q 1191 2003 1191 1497 
Q 1191 994 1439 701 
Q 1688 409 2113 409 
Q 2538 409 2786 701 
Q 3034 994 3034 1497 
Q 3034 2003 2786 2293 
Q 2538 2584 2113 2584 
z
M 3366 4563 
L 3366 3988 
Q 3128 4100 2886 4159 
Q 2644 4219 2406 4219 
Q 1781 4219 1451 3797 
Q 1122 3375 1075 2522 
Q 1259 2794 1537 2939 
Q 1816 3084 2150 3084 
Q 2853 3084 3261 2657 
Q 3669 2231 3669 1497 
Q 3669 778 3244 343 
Q 2819 -91 2113 -91 
Q 1303 -91 875 529 
Q 447 1150 447 2328 
Q 447 3434 972 4092 
Q 1497 4750 2381 4750 
Q 2619 4750 2861 4703 
Q 3103 4656 3366 4563 
z
" transform="scale(0.015625)"/>
       </defs>
       <use xlink:href="#DejaVuSans-36"/>
       <use xlink:href="#DejaVuSans-30" x="63.623047"/>
      </g>
     </g>
    </g>
    <g id="ytick_6">
     <g id="line2d_12">
      <g>
       <use xlink:href="#m931166654d" x="57.6" y="140.297708" style="stroke: #000000; stroke-width: 0.8"/>
      </g>
     </g>
     <g id="text_12">
      <!-- 70 -->
      <g transform="translate(37.875 144.096927) scale(0.1 -0.1)">
       <defs>
        <path id="DejaVuSans-37" d="M 525 4666 
L 3525 4666 
L 3525 4397 
L 1831 0 
L 1172 0 
L 2766 4134 
L 525 4134 
L 525 4666 
z
" transform="scale(0.015625)"/>
       </defs>
       <use xlink:href="#DejaVuSans-37"/>
       <use xlink:href="#DejaVuSans-30" x="63.623047"/>
      </g>
     </g>
    </g>
    <g id="ytick_7">
     <g id="line2d_13">
      <g>
       <use xlink:href="#m931166654d" x="57.6" y="107.098803" style="stroke: #000000; stroke-width: 0.8"/>
      </g>
     </g>
     <g id="text_13">
      <!-- 80 -->
      <g transform="translate(37.875 110.898022) scale(0.1 -0.1)">
       <defs>
        <path id="DejaVuSans-38" d="M 2034 2216 
Q 1584 2216 1326 1975 
Q 1069 1734 1069 1313 
Q 1069 891 1326 650 
Q 1584 409 2034 409 
Q 2484 409 2743 651 
Q 3003 894 3003 1313 
Q 3003 1734 2745 1975 
Q 2488 2216 2034 2216 
z
M 1403 2484 
Q 997 2584 770 2862 
Q 544 3141 544 3541 
Q 544 4100 942 4425 
Q 1341 4750 2034 4750 
Q 2731 4750 3128 4425 
Q 3525 4100 3525 3541 
Q 3525 3141 3298 2862 
Q 3072 2584 2669 2484 
Q 3125 2378 3379 2068 
Q 3634 1759 3634 1313 
Q 3634 634 3220 271 
Q 2806 -91 2034 -91 
Q 1263 -91 848 271 
Q 434 634 434 1313 
Q 434 1759 690 2068 
Q 947 2378 1403 2484 
z
M 1172 3481 
Q 1172 3119 1398 2916 
Q 1625 2713 2034 2713 
Q 2441 2713 2670 2916 
Q 2900 3119 2900 3481 
Q 2900 3844 2670 4047 
Q 2441 4250 2034 4250 
Q 1625 4250 1398 4047 
Q 1172 3844 1172 3481 
z
" transform="scale(0.015625)"/>
       </defs>
       <use xlink:href="#DejaVuSans-38"/>
       <use xlink:href="#DejaVuSans-30" x="63.623047"/>
      </g>
     </g>
    </g>
    <g id="ytick_8">
     <g id="line2d_14">
      <g>
       <use xlink:href="#m931166654d" x="57.6" y="73.899898" style="stroke: #000000; stroke-width: 0.8"/>
      </g>
     </g>
     <g id="text_14">
      <!-- 90 -->
      <g transform="translate(37.875 77.699117) scale(0.1 -0.1)">
       <defs>
        <path id="DejaVuSans-39" d="M 703 97 
L 703 672 
Q 941 559 1184 500 
Q 1428 441 1663 441 
Q 2288 441 2617 861 
Q 2947 1281 2994 2138 
Q 2813 1869 2534 1725 
Q 2256 1581 1919 1581 
Q 1219 1581 811 2004 
Q 403 2428 403 3163 
Q 403 3881 828 4315 
Q 1253 4750 1959 4750 
Q 2769 4750 3195 4129 
Q 3622 3509 3622 2328 
Q 3622 1225 3098 567 
Q 2575 -91 1691 -91 
Q 1453 -91 1209 -44 
Q 966 3 703 97 
z
M 1959 2075 
Q 2384 2075 2632 2365 
Q 2881 2656 2881 3163 
Q 2881 3666 2632 3958 
Q 2384 4250 1959 4250 
Q 1534 4250 1286 3958 
Q 1038 3666 1038 3163 
Q 1038 2656 1286 2365 
Q 1534 2075 1959 2075 
z
" transform="scale(0.015625)"/>
       </defs>
       <use xlink:href="#DejaVuSans-39"/>
       <use xlink:href="#DejaVuSans-30" x="63.623047"/>
      </g>
     </g>
    </g>
   </g>
   <g id="line2d_15">
    <path d="M 73.832727 295.488 
L 75.136561 262.229657 
L 76.440394 250.213696 
L 77.744228 241.507358 
L 79.048061 235.104249 
L 80.351895 230.160076 
L 81.655728 225.715724 
L 84.263395 218.508849 
L 85.567229 216.867546 
L 86.871062 212.700122 
L 89.478729 208.465154 
L 92.086396 202.642917 
L 93.39023 201.785117 
L 94.694064 199.022594 
L 95.997897 196.969276 
L 97.301731 195.172624 
L 98.605564 193.896054 
L 99.909398 191.856245 
L 101.213231 190.451344 
L 102.517065 187.810399 
L 103.820898 185.912431 
L 105.124732 184.845246 
L 106.428565 183.501133 
L 107.732399 183.325521 
L 109.036232 181.373518 
L 110.340066 179.050027 
L 111.643899 178.610995 
L 112.947733 176.787325 
L 114.251566 175.679614 
L 115.5554 175.017689 
L 116.859233 171.849906 
L 118.163067 172.079554 
L 119.4669 171.208245 
L 120.770734 168.891508 
L 122.074567 168.594317 
L 123.378401 167.452835 
L 124.682234 165.87232 
L 125.986068 164.953731 
L 127.289901 164.399875 
L 128.593735 164.116193 
L 129.897568 162.562696 
L 132.505235 160.367538 
L 135.112903 158.935619 
L 137.72057 158.503341 
L 139.024403 156.139324 
L 140.328237 156.436515 
L 141.63207 154.835738 
L 142.935904 153.586186 
L 144.239737 153.451099 
L 145.543571 152.816192 
L 146.847404 151.269449 
L 148.151238 151.215414 
L 149.455071 149.668672 
L 152.062738 149.452533 
L 153.366572 148.412366 
L 154.670405 148.405611 
L 155.974239 146.852114 
L 157.278072 146.257733 
L 158.581906 145.035198 
L 159.885739 146.561678 
L 161.189573 143.2453 
L 162.493406 143.880207 
L 163.79724 142.137589 
L 165.101073 142.009256 
L 166.404907 141.191982 
L 167.70874 140.75295 
L 169.012574 140.023482 
L 170.316407 139.53717 
L 171.620241 138.692878 
L 172.924074 138.21332 
L 174.227908 137.504115 
L 175.531742 136.382896 
L 176.835575 135.903338 
L 178.139409 134.883433 
L 179.443242 134.883433 
L 180.747076 133.127306 
L 182.050909 134.221509 
L 183.354743 133.127306 
L 184.658576 132.627486 
L 185.96241 131.945298 
L 188.570077 131.492758 
L 189.87391 130.29724 
L 191.177744 129.756894 
L 192.481577 128.331729 
L 195.089244 127.534717 
L 196.393078 126.393235 
L 197.696911 126.467533 
L 199.000745 126.231131 
L 200.304578 124.576319 
L 201.608412 124.745177 
L 202.912245 124.326409 
L 204.216079 123.320013 
L 205.519912 123.090365 
L 206.823746 121.644938 
L 208.127579 121.104591 
L 209.431413 122.624316 
L 212.03908 120.233282 
L 213.342913 119.551094 
L 214.646747 118.362331 
L 215.950581 118.889169 
L 217.254414 117.977334 
L 218.558248 116.504889 
L 219.862081 116.64673 
L 221.165915 117.376198 
L 222.469748 115.599808 
L 223.773582 116.322522 
L 225.077415 114.681219 
L 227.685082 113.593771 
L 228.988916 114.039557 
L 230.292749 112.850794 
L 231.596583 112.269921 
L 232.900416 112.803514 
L 234.20425 111.27028 
L 235.508083 110.412479 
L 236.811917 109.878887 
L 238.11575 108.446968 
L 239.419584 109.075121 
L 240.723417 107.886358 
L 242.027251 107.420309 
L 243.331084 107.366275 
L 244.634918 106.866454 
L 245.938751 105.89383 
L 247.242585 105.765497 
L 248.546418 104.509191 
L 249.850252 104.056651 
L 251.154085 103.948581 
L 252.457919 103.96209 
L 253.761752 103.394726 
L 255.065586 101.895264 
L 256.369419 104.272789 
L 257.673253 103.138061 
L 258.977087 101.280619 
L 260.28092 100.713255 
L 261.584754 101.145532 
L 262.888587 99.767648 
L 264.192421 99.112478 
L 265.496254 99.423177 
L 266.800088 97.572489 
L 268.103921 96.876793 
L 269.407755 98.707218 
L 270.711588 98.727481 
L 272.015422 95.492154 
L 275.926922 94.668126 
L 277.230756 93.195681 
L 278.534589 93.945412 
L 279.838423 92.824192 
L 281.142256 93.175418 
L 282.44609 92.33788 
L 283.749923 91.919111 
L 285.053757 92.020427 
L 286.35759 89.886057 
L 287.661424 90.230528 
L 288.965257 89.676672 
L 290.269091 89.305184 
L 291.572924 88.035369 
L 292.876758 88.420366 
L 294.180591 87.130288 
L 295.484425 87.690898 
L 296.788258 86.454855 
L 298.092092 85.407933 
L 299.395926 86.738537 
L 300.699759 84.583904 
L 302.003593 85.394424 
L 303.307426 83.678823 
L 304.61126 83.894962 
L 305.915093 83.935488 
L 307.218927 81.551208 
L 308.52276 81.99024 
L 309.826594 80.950072 
L 311.130427 81.27428 
L 312.434261 82.267167 
L 313.738094 80.274639 
L 315.041928 80.71367 
L 316.345761 77.660711 
L 317.649595 78.518512 
L 318.953428 78.092989 
L 320.257262 79.302015 
L 322.864929 76.91098 
L 324.168762 77.82957 
L 325.472596 75.641165 
L 326.776429 76.782648 
L 328.080263 74.864417 
L 329.384096 75.28994 
L 330.68793 74.384859 
L 331.991763 73.655391 
L 333.295597 74.749593 
L 334.59943 72.155929 
L 335.903264 73.851267 
L 337.207097 73.006975 
L 339.814765 72.027596 
L 341.118598 69.96077 
L 342.422432 70.683484 
L 343.726265 69.069198 
L 345.030099 67.947978 
L 346.333932 69.474458 
L 347.637766 68.616657 
L 348.941599 67.549472 
L 350.245433 67.245527 
L 351.549266 67.414386 
L 352.8531 66.353955 
L 354.156933 66.955091 
L 355.460767 66.347201 
L 356.7646 64.239849 
L 359.372267 65.158438 
L 361.979934 63.348276 
L 363.283768 63.382048 
L 364.587601 63.267224 
L 365.891435 64.138534 
L 367.195268 62.564774 
L 368.499102 61.801534 
L 369.802935 63.051086 
L 371.106769 62.132496 
L 372.410602 60.200757 
L 373.714436 60.079178 
L 375.018269 60.42365 
L 376.322103 58.89717 
L 377.625936 59.315939 
L 378.92977 59.34971 
L 380.233604 61.146363 
L 381.537437 57.877265 
L 382.841271 56.695257 
L 385.448938 57.424725 
L 386.752771 55.945526 
L 388.056605 56.573679 
L 389.360438 55.506494 
L 390.664272 57.27613 
L 391.968105 57.316656 
L 393.271939 56.181927 
L 394.575772 53.574754 
L 395.879606 53.568 
L 397.183439 54.520361 
L 398.487273 53.716595 
L 398.487273 53.716595 
" clip-path="url(#p9d7b18493a)" style="fill: none; stroke: #1f77b4; stroke-width: 1.5; stroke-linecap: square"/>
   </g>
   <g id="line2d_16">
    <path d="M 73.832727 267.051128 
L 75.136561 250.451675 
L 77.744228 236.806925 
L 79.048061 233.91862 
L 80.351895 227.212442 
L 81.655728 222.730589 
L 82.959562 221.568628 
L 84.263395 216.223604 
L 85.567229 215.991212 
L 86.871062 212.472128 
L 88.174896 210.546591 
L 89.478729 206.795115 
L 90.782563 204.106004 
L 92.086396 202.71165 
L 93.39023 201.582887 
L 94.694064 199.65735 
L 95.997897 198.262996 
L 97.301731 200.022538 
L 98.605564 194.611117 
L 99.909398 192.785177 
L 101.213231 190.029668 
L 102.517065 189.000502 
L 103.820898 189.299292 
L 105.124732 185.680611 
L 106.428565 189.930071 
L 107.732399 187.572949 
L 109.036232 182.792307 
L 110.340066 181.065963 
L 111.643899 181.530748 
L 112.947733 179.206825 
L 114.251566 183.489484 
L 115.5554 177.480482 
L 116.859233 179.439217 
L 118.163067 177.613277 
L 119.4669 174.426182 
L 120.770734 172.334651 
L 122.074567 172.832635 
L 123.378401 170.707905 
L 124.682234 174.890967 
L 125.986068 169.877932 
L 127.289901 171.073093 
L 128.593735 169.678739 
L 129.897568 168.483578 
L 132.505235 168.018794 
L 133.809069 170.608308 
L 135.112903 166.425246 
L 136.416736 166.524843 
L 137.72057 169.04796 
L 139.024403 165.927263 
L 140.328237 164.665704 
L 141.63207 163.005759 
L 142.935904 164.400113 
L 144.239737 162.142588 
L 145.543571 161.213018 
L 146.847404 162.706969 
L 148.151238 161.445411 
L 149.455071 160.84783 
L 150.758905 161.976593 
L 152.062738 160.715035 
L 153.366572 160.383046 
L 154.670405 158.523907 
L 155.974239 160.150653 
L 157.278072 158.258316 
L 158.581906 159.453476 
L 159.885739 157.793531 
L 161.189573 158.557106 
L 162.493406 157.52794 
L 163.79724 156.863962 
L 165.101073 156.631569 
L 167.70874 156.531973 
L 169.012574 156.29958 
L 170.316407 155.801597 
L 171.620241 155.901193 
L 172.924074 157.096354 
L 174.227908 153.809662 
L 175.531742 155.768398 
L 176.835575 153.378077 
L 178.139409 153.27848 
L 179.443242 152.813695 
L 180.747076 155.536005 
L 182.050909 153.909259 
L 183.354743 152.514905 
L 184.658576 154.307646 
L 185.96241 154.47364 
L 187.266243 151.386142 
L 188.570077 154.108453 
L 189.87391 151.45254 
L 191.177744 151.850927 
L 192.481577 152.647701 
L 193.785411 148.995821 
L 195.089244 150.55617 
L 196.393078 151.419341 
L 199.000745 149.958589 
L 200.304578 149.460606 
L 201.608412 151.319745 
L 202.912245 150.224181 
L 204.216079 148.829827 
L 205.519912 149.792595 
L 206.823746 148.829827 
L 208.127579 148.066252 
L 209.431413 150.655766 
L 210.735246 148.099451 
L 212.03908 149.062219 
L 213.342913 148.298644 
L 214.646747 149.527004 
L 215.950581 145.443538 
L 217.254414 147.269478 
L 218.558248 146.871091 
L 219.862081 147.369075 
L 221.165915 145.211146 
L 222.469748 147.037086 
L 223.773582 145.974721 
L 225.077415 145.476737 
L 226.381249 147.269478 
L 227.685082 147.601467 
L 228.988916 144.77956 
L 230.292749 147.867058 
L 231.596583 146.140715 
L 232.900416 145.841925 
L 234.20425 145.177947 
L 235.508083 143.418405 
L 236.811917 144.447571 
L 238.11575 143.683996 
L 239.419584 145.37714 
L 240.723417 144.347974 
L 242.027251 146.6055 
L 244.634918 144.18198 
L 245.938751 144.414372 
L 248.546418 144.18198 
L 249.850252 145.410339 
L 251.154085 145.111549 
L 252.457919 142.887223 
L 253.761752 145.443538 
L 255.065586 144.845958 
L 256.369419 143.518002 
L 257.673253 145.642732 
L 258.977087 144.381173 
L 260.28092 145.70913 
L 261.584754 145.045151 
L 262.888587 143.982786 
L 264.192421 143.750394 
L 265.496254 147.568268 
L 266.800088 143.617599 
L 268.103921 143.086416 
L 269.407755 146.173914 
L 270.711588 143.219212 
L 272.015422 143.5844 
L 273.319255 145.177947 
L 274.623089 144.613566 
L 275.926922 143.451604 
L 277.230756 142.920422 
L 278.534589 143.551201 
L 279.838423 142.820825 
L 281.142256 143.650797 
L 282.44609 144.77956 
L 283.749923 141.658863 
L 285.053757 143.617599 
L 286.35759 143.119615 
L 287.661424 142.986819 
L 290.269091 143.186013 
L 291.572924 144.547168 
L 292.876758 143.053217 
L 294.180591 143.650797 
L 295.484425 142.488836 
L 296.788258 143.119615 
L 298.092092 144.646765 
L 299.395926 141.393272 
L 300.699759 140.895288 
L 302.003593 142.854024 
L 303.307426 142.256443 
L 304.61126 143.783593 
L 305.915093 142.190046 
L 307.218927 144.049184 
L 308.52276 144.049184 
L 309.826594 141.492869 
L 311.130427 143.451604 
L 312.434261 146.074318 
L 313.738094 145.742328 
L 315.041928 143.020018 
L 316.345761 144.912356 
L 317.649595 142.256443 
L 318.953428 142.820825 
L 320.257262 142.754427 
L 322.864929 143.053217 
L 325.472596 142.621631 
L 326.776429 142.820825 
L 329.384096 142.024051 
L 330.68793 144.115582 
L 331.991763 142.555234 
L 333.295597 142.289642 
L 334.59943 142.754427 
L 335.903264 145.841925 
L 337.207097 143.119615 
L 338.510931 143.750394 
L 341.118598 142.522035 
L 342.422432 142.35604 
L 343.726265 142.522035 
L 345.030099 143.186013 
L 346.333932 145.37714 
L 347.637766 144.646765 
L 348.941599 143.119615 
L 350.245433 144.148781 
L 351.549266 144.115582 
L 352.8531 143.816792 
L 354.156933 146.207113 
L 355.460767 144.746361 
L 356.7646 143.849991 
L 358.068434 144.845958 
L 359.372267 143.750394 
L 361.979934 144.248378 
L 363.283768 143.518002 
L 364.587601 145.443538 
L 365.891435 144.381173 
L 367.195268 144.713162 
L 368.499102 146.30671 
L 369.802935 144.679963 
L 371.106769 143.982786 
L 372.410602 145.277544 
L 373.714436 145.011953 
L 375.018269 145.609533 
L 376.322103 145.177947 
L 377.625936 144.613566 
L 378.92977 143.816792 
L 380.233604 145.144748 
L 381.537437 144.746361 
L 382.841271 144.945555 
L 384.145104 145.443538 
L 385.448938 145.808726 
L 386.752771 143.551201 
L 388.056605 144.414372 
L 389.360438 147.999854 
L 390.664272 145.70913 
L 391.968105 145.974721 
L 393.271939 146.970688 
L 394.575772 144.447571 
L 395.879606 143.086416 
L 397.183439 144.978754 
L 398.487273 145.476737 
L 398.487273 145.476737 
" clip-path="url(#p9d7b18493a)" style="fill: none; stroke: #ff7f0e; stroke-width: 1.5; stroke-linecap: square"/>
   </g>
   <g id="patch_3">
    <path d="M 57.6 307.584 
L 57.6 41.472 
" style="fill: none; stroke: #000000; stroke-width: 0.8; stroke-linejoin: miter; stroke-linecap: square"/>
   </g>
   <g id="patch_4">
    <path d="M 414.72 307.584 
L 414.72 41.472 
" style="fill: none; stroke: #000000; stroke-width: 0.8; stroke-linejoin: miter; stroke-linecap: square"/>
   </g>
   <g id="patch_5">
    <path d="M 57.6 307.584 
L 414.72 307.584 
" style="fill: none; stroke: #000000; stroke-width: 0.8; stroke-linejoin: miter; stroke-linecap: square"/>
   </g>
   <g id="patch_6">
    <path d="M 57.6 41.472 
L 414.72 41.472 
" style="fill: none; stroke: #000000; stroke-width: 0.8; stroke-linejoin: miter; stroke-linecap: square"/>
   </g>
   <g id="legend_1">
    <g id="patch_7">
     <path d="M 64.6 79.3845 
L 169.99375 79.3845 
Q 171.99375 79.3845 171.99375 77.3845 
L 171.99375 48.472 
Q 171.99375 46.472 169.99375 46.472 
L 64.6 46.472 
Q 62.6 46.472 62.6 48.472 
L 62.6 77.3845 
Q 62.6 79.3845 64.6 79.3845 
z
" style="fill: #ffffff; opacity: 0.8; stroke: #cccccc; stroke-linejoin: miter"/>
    </g>
    <g id="line2d_17">
     <path d="M 66.6 54.570438 
L 76.6 54.570438 
L 86.6 54.570438 
" style="fill: none; stroke: #1f77b4; stroke-width: 1.5; stroke-linecap: square"/>
    </g>
    <g id="text_15">
     <!-- train_accuracy -->
     <g transform="translate(94.6 58.070438) scale(0.1 -0.1)">
      <defs>
       <path id="DejaVuSans-74" d="M 1172 4494 
L 1172 3500 
L 2356 3500 
L 2356 3053 
L 1172 3053 
L 1172 1153 
Q 1172 725 1289 603 
Q 1406 481 1766 481 
L 2356 481 
L 2356 0 
L 1766 0 
Q 1100 0 847 248 
Q 594 497 594 1153 
L 594 3053 
L 172 3053 
L 172 3500 
L 594 3500 
L 594 4494 
L 1172 4494 
z
" transform="scale(0.015625)"/>
       <path id="DejaVuSans-72" d="M 2631 2963 
Q 2534 3019 2420 3045 
Q 2306 3072 2169 3072 
Q 1681 3072 1420 2755 
Q 1159 2438 1159 1844 
L 1159 0 
L 581 0 
L 581 3500 
L 1159 3500 
L 1159 2956 
Q 1341 3275 1631 3429 
Q 1922 3584 2338 3584 
Q 2397 3584 2469 3576 
Q 2541 3569 2628 3553 
L 2631 2963 
z
" transform="scale(0.015625)"/>
       <path id="DejaVuSans-61" d="M 2194 1759 
Q 1497 1759 1228 1600 
Q 959 1441 959 1056 
Q 959 750 1161 570 
Q 1363 391 1709 391 
Q 2188 391 2477 730 
Q 2766 1069 2766 1631 
L 2766 1759 
L 2194 1759 
z
M 3341 1997 
L 3341 0 
L 2766 0 
L 2766 531 
Q 2569 213 2275 61 
Q 1981 -91 1556 -91 
Q 1019 -91 701 211 
Q 384 513 384 1019 
Q 384 1609 779 1909 
Q 1175 2209 1959 2209 
L 2766 2209 
L 2766 2266 
Q 2766 2663 2505 2880 
Q 2244 3097 1772 3097 
Q 1472 3097 1187 3025 
Q 903 2953 641 2809 
L 641 3341 
Q 956 3463 1253 3523 
Q 1550 3584 1831 3584 
Q 2591 3584 2966 3190 
Q 3341 2797 3341 1997 
z
" transform="scale(0.015625)"/>
       <path id="DejaVuSans-69" d="M 603 3500 
L 1178 3500 
L 1178 0 
L 603 0 
L 603 3500 
z
M 603 4863 
L 1178 4863 
L 1178 4134 
L 603 4134 
L 603 4863 
z
" transform="scale(0.015625)"/>
       <path id="DejaVuSans-6e" d="M 3513 2113 
L 3513 0 
L 2938 0 
L 2938 2094 
Q 2938 2591 2744 2837 
Q 2550 3084 2163 3084 
Q 1697 3084 1428 2787 
Q 1159 2491 1159 1978 
L 1159 0 
L 581 0 
L 581 3500 
L 1159 3500 
L 1159 2956 
Q 1366 3272 1645 3428 
Q 1925 3584 2291 3584 
Q 2894 3584 3203 3211 
Q 3513 2838 3513 2113 
z
" transform="scale(0.015625)"/>
       <path id="DejaVuSans-5f" d="M 3263 -1063 
L 3263 -1509 
L -63 -1509 
L -63 -1063 
L 3263 -1063 
z
" transform="scale(0.015625)"/>
       <path id="DejaVuSans-63" d="M 3122 3366 
L 3122 2828 
Q 2878 2963 2633 3030 
Q 2388 3097 2138 3097 
Q 1578 3097 1268 2742 
Q 959 2388 959 1747 
Q 959 1106 1268 751 
Q 1578 397 2138 397 
Q 2388 397 2633 464 
Q 2878 531 3122 666 
L 3122 134 
Q 2881 22 2623 -34 
Q 2366 -91 2075 -91 
Q 1284 -91 818 406 
Q 353 903 353 1747 
Q 353 2603 823 3093 
Q 1294 3584 2113 3584 
Q 2378 3584 2631 3529 
Q 2884 3475 3122 3366 
z
" transform="scale(0.015625)"/>
       <path id="DejaVuSans-75" d="M 544 1381 
L 544 3500 
L 1119 3500 
L 1119 1403 
Q 1119 906 1312 657 
Q 1506 409 1894 409 
Q 2359 409 2629 706 
Q 2900 1003 2900 1516 
L 2900 3500 
L 3475 3500 
L 3475 0 
L 2900 0 
L 2900 538 
Q 2691 219 2414 64 
Q 2138 -91 1772 -91 
Q 1169 -91 856 284 
Q 544 659 544 1381 
z
M 1991 3584 
L 1991 3584 
z
" transform="scale(0.015625)"/>
       <path id="DejaVuSans-79" d="M 2059 -325 
Q 1816 -950 1584 -1140 
Q 1353 -1331 966 -1331 
L 506 -1331 
L 506 -850 
L 844 -850 
Q 1081 -850 1212 -737 
Q 1344 -625 1503 -206 
L 1606 56 
L 191 3500 
L 800 3500 
L 1894 763 
L 2988 3500 
L 3597 3500 
L 2059 -325 
z
" transform="scale(0.015625)"/>
      </defs>
      <use xlink:href="#DejaVuSans-74"/>
      <use xlink:href="#DejaVuSans-72" x="39.208984"/>
      <use xlink:href="#DejaVuSans-61" x="80.322266"/>
      <use xlink:href="#DejaVuSans-69" x="141.601562"/>
      <use xlink:href="#DejaVuSans-6e" x="169.384766"/>
      <use xlink:href="#DejaVuSans-5f" x="232.763672"/>
      <use xlink:href="#DejaVuSans-61" x="282.763672"/>
      <use xlink:href="#DejaVuSans-63" x="344.042969"/>
      <use xlink:href="#DejaVuSans-63" x="399.023438"/>
      <use xlink:href="#DejaVuSans-75" x="454.003906"/>
      <use xlink:href="#DejaVuSans-72" x="517.382812"/>
      <use xlink:href="#DejaVuSans-61" x="558.496094"/>
      <use xlink:href="#DejaVuSans-63" x="619.775391"/>
      <use xlink:href="#DejaVuSans-79" x="674.755859"/>
     </g>
    </g>
    <g id="line2d_18">
     <path d="M 66.6 69.526688 
L 76.6 69.526688 
L 86.6 69.526688 
" style="fill: none; stroke: #ff7f0e; stroke-width: 1.5; stroke-linecap: square"/>
    </g>
    <g id="text_16">
     <!-- test_accuracy -->
     <g transform="translate(94.6 73.026688) scale(0.1 -0.1)">
      <defs>
       <path id="DejaVuSans-65" d="M 3597 1894 
L 3597 1613 
L 953 1613 
Q 991 1019 1311 708 
Q 1631 397 2203 397 
Q 2534 397 2845 478 
Q 3156 559 3463 722 
L 3463 178 
Q 3153 47 2828 -22 
Q 2503 -91 2169 -91 
Q 1331 -91 842 396 
Q 353 884 353 1716 
Q 353 2575 817 3079 
Q 1281 3584 2069 3584 
Q 2775 3584 3186 3129 
Q 3597 2675 3597 1894 
z
M 3022 2063 
Q 3016 2534 2758 2815 
Q 2500 3097 2075 3097 
Q 1594 3097 1305 2825 
Q 1016 2553 972 2059 
L 3022 2063 
z
" transform="scale(0.015625)"/>
       <path id="DejaVuSans-73" d="M 2834 3397 
L 2834 2853 
Q 2591 2978 2328 3040 
Q 2066 3103 1784 3103 
Q 1356 3103 1142 2972 
Q 928 2841 928 2578 
Q 928 2378 1081 2264 
Q 1234 2150 1697 2047 
L 1894 2003 
Q 2506 1872 2764 1633 
Q 3022 1394 3022 966 
Q 3022 478 2636 193 
Q 2250 -91 1575 -91 
Q 1294 -91 989 -36 
Q 684 19 347 128 
L 347 722 
Q 666 556 975 473 
Q 1284 391 1588 391 
Q 1994 391 2212 530 
Q 2431 669 2431 922 
Q 2431 1156 2273 1281 
Q 2116 1406 1581 1522 
L 1381 1569 
Q 847 1681 609 1914 
Q 372 2147 372 2553 
Q 372 3047 722 3315 
Q 1072 3584 1716 3584 
Q 2034 3584 2315 3537 
Q 2597 3491 2834 3397 
z
" transform="scale(0.015625)"/>
      </defs>
      <use xlink:href="#DejaVuSans-74"/>
      <use xlink:href="#DejaVuSans-65" x="39.208984"/>
      <use xlink:href="#DejaVuSans-73" x="100.732422"/>
      <use xlink:href="#DejaVuSans-74" x="152.832031"/>
      <use xlink:href="#DejaVuSans-5f" x="192.041016"/>
      <use xlink:href="#DejaVuSans-61" x="242.041016"/>
      <use xlink:href="#DejaVuSans-63" x="303.320312"/>
      <use xlink:href="#DejaVuSans-63" x="358.300781"/>
      <use xlink:href="#DejaVuSans-75" x="413.28125"/>
      <use xlink:href="#DejaVuSans-72" x="476.660156"/>
      <use xlink:href="#DejaVuSans-61" x="517.773438"/>
      <use xlink:href="#DejaVuSans-63" x="579.052734"/>
      <use xlink:href="#DejaVuSans-79" x="634.033203"/>
     </g>
    </g>
   </g>
  </g>
 </g>
 <defs>
  <clipPath id="p9d7b18493a">
   <rect x="57.6" y="41.472" width="357.12" height="266.112"/>
  </clipPath>
 </defs>
</svg>
