<?xml version="1.0" encoding="utf-8" standalone="no"?>
<!DOCTYPE svg PUBLIC "-//W3C//DTD SVG 1.1//EN"
  "http://www.w3.org/Graphics/SVG/1.1/DTD/svg11.dtd">
<svg xmlns:xlink="http://www.w3.org/1999/xlink" width="460.8pt" height="345.6pt" viewBox="0 0 460.8 345.6" xmlns="http://www.w3.org/2000/svg" version="1.1">
 <metadata>
  <rdf:RDF xmlns:dc="http://purl.org/dc/elements/1.1/" xmlns:cc="http://creativecommons.org/ns#" xmlns:rdf="http://www.w3.org/1999/02/22-rdf-syntax-ns#">
   <cc:Work>
    <dc:type rdf:resource="http://purl.org/dc/dcmitype/StillImage"/>
    <dc:date>2023-10-30T10:58:07.296975</dc:date>
    <dc:format>image/svg+xml</dc:format>
    <dc:creator>
     <cc:Agent>
      <dc:title>Matplotlib v3.8.0, https://matplotlib.org/</dc:title>
     </cc:Agent>
    </dc:creator>
   </cc:Work>
  </rdf:RDF>
 </metadata>
 <defs>
  <style type="text/css">*{stroke-linejoin: round; stroke-linecap: butt}</style>
 </defs>
 <g id="figure_1">
  <g id="patch_1">
   <path d="M 0 345.6 
L 460.8 345.6 
L 460.8 0 
L 0 0 
z
" style="fill: #ffffff"/>
  </g>
  <g id="axes_1">
   <g id="patch_2">
    <path d="M 57.6 307.584 
L 414.72 307.584 
L 414.72 41.472 
L 57.6 41.472 
z
" style="fill: #ffffff"/>
   </g>
   <g id="matplotlib.axis_1">
    <g id="xtick_1">
     <g id="line2d_1">
      <defs>
       <path id="mbd5a613823" d="M 0 0 
L 0 3.5 
" style="stroke: #000000; stroke-width: 0.8"/>
      </defs>
      <g>
       <use xlink:href="#mbd5a613823" x="73.832727" y="307.584" style="stroke: #000000; stroke-width: 0.8"/>
      </g>
     </g>
     <g id="text_1">
      <!-- 0 -->
      <g transform="translate(70.651477 322.182437) scale(0.1 -0.1)">
       <defs>
        <path id="DejaVuSans-30" d="M 2034 4250 
Q 1547 4250 1301 3770 
Q 1056 3291 1056 2328 
Q 1056 1369 1301 889 
Q 1547 409 2034 409 
Q 2525 409 2770 889 
Q 3016 1369 3016 2328 
Q 3016 3291 2770 3770 
Q 2525 4250 2034 4250 
z
M 2034 4750 
Q 2819 4750 3233 4129 
Q 3647 3509 3647 2328 
Q 3647 1150 3233 529 
Q 2819 -91 2034 -91 
Q 1250 -91 836 529 
Q 422 1150 422 2328 
Q 422 3509 836 4129 
Q 1250 4750 2034 4750 
z
" transform="scale(0.015625)"/>
       </defs>
       <use xlink:href="#DejaVuSans-30"/>
      </g>
     </g>
    </g>
    <g id="xtick_2">
     <g id="line2d_2">
      <g>
       <use xlink:href="#mbd5a613823" x="139.024403" y="307.584" style="stroke: #000000; stroke-width: 0.8"/>
      </g>
     </g>
     <g id="text_2">
      <!-- 50 -->
      <g transform="translate(132.661903 322.182437) scale(0.1 -0.1)">
       <defs>
        <path id="DejaVuSans-35" d="M 691 4666 
L 3169 4666 
L 3169 4134 
L 1269 4134 
L 1269 2991 
Q 1406 3038 1543 3061 
Q 1681 3084 1819 3084 
Q 2600 3084 3056 2656 
Q 3513 2228 3513 1497 
Q 3513 744 3044 326 
Q 2575 -91 1722 -91 
Q 1428 -91 1123 -41 
Q 819 9 494 109 
L 494 744 
Q 775 591 1075 516 
Q 1375 441 1709 441 
Q 2250 441 2565 725 
Q 2881 1009 2881 1497 
Q 2881 1984 2565 2268 
Q 2250 2553 1709 2553 
Q 1456 2553 1204 2497 
Q 953 2441 691 2322 
L 691 4666 
z
" transform="scale(0.015625)"/>
       </defs>
       <use xlink:href="#DejaVuSans-35"/>
       <use xlink:href="#DejaVuSans-30" x="63.623047"/>
      </g>
     </g>
    </g>
    <g id="xtick_3">
     <g id="line2d_3">
      <g>
       <use xlink:href="#mbd5a613823" x="204.216079" y="307.584" style="stroke: #000000; stroke-width: 0.8"/>
      </g>
     </g>
     <g id="text_3">
      <!-- 100 -->
      <g transform="translate(194.672329 322.182437) scale(0.1 -0.1)">
       <defs>
        <path id="DejaVuSans-31" d="M 794 531 
L 1825 531 
L 1825 4091 
L 703 3866 
L 703 4441 
L 1819 4666 
L 2450 4666 
L 2450 531 
L 3481 531 
L 3481 0 
L 794 0 
L 794 531 
z
" transform="scale(0.015625)"/>
       </defs>
       <use xlink:href="#DejaVuSans-31"/>
       <use xlink:href="#DejaVuSans-30" x="63.623047"/>
       <use xlink:href="#DejaVuSans-30" x="127.246094"/>
      </g>
     </g>
    </g>
    <g id="xtick_4">
     <g id="line2d_4">
      <g>
       <use xlink:href="#mbd5a613823" x="269.407755" y="307.584" style="stroke: #000000; stroke-width: 0.8"/>
      </g>
     </g>
     <g id="text_4">
      <!-- 150 -->
      <g transform="translate(259.864005 322.182437) scale(0.1 -0.1)">
       <use xlink:href="#DejaVuSans-31"/>
       <use xlink:href="#DejaVuSans-35" x="63.623047"/>
       <use xlink:href="#DejaVuSans-30" x="127.246094"/>
      </g>
     </g>
    </g>
    <g id="xtick_5">
     <g id="line2d_5">
      <g>
       <use xlink:href="#mbd5a613823" x="334.59943" y="307.584" style="stroke: #000000; stroke-width: 0.8"/>
      </g>
     </g>
     <g id="text_5">
      <!-- 200 -->
      <g transform="translate(325.05568 322.182437) scale(0.1 -0.1)">
       <defs>
        <path id="DejaVuSans-32" d="M 1228 531 
L 3431 531 
L 3431 0 
L 469 0 
L 469 531 
Q 828 903 1448 1529 
Q 2069 2156 2228 2338 
Q 2531 2678 2651 2914 
Q 2772 3150 2772 3378 
Q 2772 3750 2511 3984 
Q 2250 4219 1831 4219 
Q 1534 4219 1204 4116 
Q 875 4013 500 3803 
L 500 4441 
Q 881 4594 1212 4672 
Q 1544 4750 1819 4750 
Q 2544 4750 2975 4387 
Q 3406 4025 3406 3419 
Q 3406 3131 3298 2873 
Q 3191 2616 2906 2266 
Q 2828 2175 2409 1742 
Q 1991 1309 1228 531 
z
" transform="scale(0.015625)"/>
       </defs>
       <use xlink:href="#DejaVuSans-32"/>
       <use xlink:href="#DejaVuSans-30" x="63.623047"/>
       <use xlink:href="#DejaVuSans-30" x="127.246094"/>
      </g>
     </g>
    </g>
    <g id="xtick_6">
     <g id="line2d_6">
      <g>
       <use xlink:href="#mbd5a613823" x="399.791106" y="307.584" style="stroke: #000000; stroke-width: 0.8"/>
      </g>
     </g>
     <g id="text_6">
      <!-- 250 -->
      <g transform="translate(390.247356 322.182437) scale(0.1 -0.1)">
       <use xlink:href="#DejaVuSans-32"/>
       <use xlink:href="#DejaVuSans-35" x="63.623047"/>
       <use xlink:href="#DejaVuSans-30" x="127.246094"/>
      </g>
     </g>
    </g>
   </g>
   <g id="matplotlib.axis_2">
    <g id="ytick_1">
     <g id="line2d_7">
      <defs>
       <path id="me5ef1a673c" d="M 0 0 
L -3.5 0 
" style="stroke: #000000; stroke-width: 0.8"/>
      </defs>
      <g>
       <use xlink:href="#me5ef1a673c" x="57.6" y="282.882868" style="stroke: #000000; stroke-width: 0.8"/>
      </g>
     </g>
     <g id="text_7">
      <!-- 0.25 -->
      <g transform="translate(28.334375 286.682087) scale(0.1 -0.1)">
       <defs>
        <path id="DejaVuSans-2e" d="M 684 794 
L 1344 794 
L 1344 0 
L 684 0 
L 684 794 
z
" transform="scale(0.015625)"/>
       </defs>
       <use xlink:href="#DejaVuSans-30"/>
       <use xlink:href="#DejaVuSans-2e" x="63.623047"/>
       <use xlink:href="#DejaVuSans-32" x="95.410156"/>
       <use xlink:href="#DejaVuSans-35" x="159.033203"/>
      </g>
     </g>
    </g>
    <g id="ytick_2">
     <g id="line2d_8">
      <g>
       <use xlink:href="#me5ef1a673c" x="57.6" y="251.530152" style="stroke: #000000; stroke-width: 0.8"/>
      </g>
     </g>
     <g id="text_8">
      <!-- 0.50 -->
      <g transform="translate(28.334375 255.32937) scale(0.1 -0.1)">
       <use xlink:href="#DejaVuSans-30"/>
       <use xlink:href="#DejaVuSans-2e" x="63.623047"/>
       <use xlink:href="#DejaVuSans-35" x="95.410156"/>
       <use xlink:href="#DejaVuSans-30" x="159.033203"/>
      </g>
     </g>
    </g>
    <g id="ytick_3">
     <g id="line2d_9">
      <g>
       <use xlink:href="#me5ef1a673c" x="57.6" y="220.177435" style="stroke: #000000; stroke-width: 0.8"/>
      </g>
     </g>
     <g id="text_9">
      <!-- 0.75 -->
      <g transform="translate(28.334375 223.976654) scale(0.1 -0.1)">
       <defs>
        <path id="DejaVuSans-37" d="M 525 4666 
L 3525 4666 
L 3525 4397 
L 1831 0 
L 1172 0 
L 2766 4134 
L 525 4134 
L 525 4666 
z
" transform="scale(0.015625)"/>
       </defs>
       <use xlink:href="#DejaVuSans-30"/>
       <use xlink:href="#DejaVuSans-2e" x="63.623047"/>
       <use xlink:href="#DejaVuSans-37" x="95.410156"/>
       <use xlink:href="#DejaVuSans-35" x="159.033203"/>
      </g>
     </g>
    </g>
    <g id="ytick_4">
     <g id="line2d_10">
      <g>
       <use xlink:href="#me5ef1a673c" x="57.6" y="188.824719" style="stroke: #000000; stroke-width: 0.8"/>
      </g>
     </g>
     <g id="text_10">
      <!-- 1.00 -->
      <g transform="translate(28.334375 192.623938) scale(0.1 -0.1)">
       <use xlink:href="#DejaVuSans-31"/>
       <use xlink:href="#DejaVuSans-2e" x="63.623047"/>
       <use xlink:href="#DejaVuSans-30" x="95.410156"/>
       <use xlink:href="#DejaVuSans-30" x="159.033203"/>
      </g>
     </g>
    </g>
    <g id="ytick_5">
     <g id="line2d_11">
      <g>
       <use xlink:href="#me5ef1a673c" x="57.6" y="157.472003" style="stroke: #000000; stroke-width: 0.8"/>
      </g>
     </g>
     <g id="text_11">
      <!-- 1.25 -->
      <g transform="translate(28.334375 161.271222) scale(0.1 -0.1)">
       <use xlink:href="#DejaVuSans-31"/>
       <use xlink:href="#DejaVuSans-2e" x="63.623047"/>
       <use xlink:href="#DejaVuSans-32" x="95.410156"/>
       <use xlink:href="#DejaVuSans-35" x="159.033203"/>
      </g>
     </g>
    </g>
    <g id="ytick_6">
     <g id="line2d_12">
      <g>
       <use xlink:href="#me5ef1a673c" x="57.6" y="126.119287" style="stroke: #000000; stroke-width: 0.8"/>
      </g>
     </g>
     <g id="text_12">
      <!-- 1.50 -->
      <g transform="translate(28.334375 129.918505) scale(0.1 -0.1)">
       <use xlink:href="#DejaVuSans-31"/>
       <use xlink:href="#DejaVuSans-2e" x="63.623047"/>
       <use xlink:href="#DejaVuSans-35" x="95.410156"/>
       <use xlink:href="#DejaVuSans-30" x="159.033203"/>
      </g>
     </g>
    </g>
    <g id="ytick_7">
     <g id="line2d_13">
      <g>
       <use xlink:href="#me5ef1a673c" x="57.6" y="94.76657" style="stroke: #000000; stroke-width: 0.8"/>
      </g>
     </g>
     <g id="text_13">
      <!-- 1.75 -->
      <g transform="translate(28.334375 98.565789) scale(0.1 -0.1)">
       <use xlink:href="#DejaVuSans-31"/>
       <use xlink:href="#DejaVuSans-2e" x="63.623047"/>
       <use xlink:href="#DejaVuSans-37" x="95.410156"/>
       <use xlink:href="#DejaVuSans-35" x="159.033203"/>
      </g>
     </g>
    </g>
    <g id="ytick_8">
     <g id="line2d_14">
      <g>
       <use xlink:href="#me5ef1a673c" x="57.6" y="63.413854" style="stroke: #000000; stroke-width: 0.8"/>
      </g>
     </g>
     <g id="text_14">
      <!-- 2.00 -->
      <g transform="translate(28.334375 67.213073) scale(0.1 -0.1)">
       <use xlink:href="#DejaVuSans-32"/>
       <use xlink:href="#DejaVuSans-2e" x="63.623047"/>
       <use xlink:href="#DejaVuSans-30" x="95.410156"/>
       <use xlink:href="#DejaVuSans-30" x="159.033203"/>
      </g>
     </g>
    </g>
   </g>
   <g id="line2d_15">
    <path d="M 73.832727 53.568 
L 75.136561 86.507087 
L 76.440394 98.388472 
L 77.744228 105.437118 
L 80.351895 116.273521 
L 81.655728 120.770235 
L 82.959562 124.677289 
L 84.263395 127.918083 
L 85.567229 129.737451 
L 86.871062 133.82623 
L 88.174896 136.383985 
L 89.478729 138.375389 
L 92.086396 143.537508 
L 93.39023 145.248618 
L 94.694064 147.624313 
L 95.997897 149.51769 
L 97.301731 151.069735 
L 98.605564 152.423376 
L 99.909398 154.588547 
L 101.213231 155.691448 
L 102.517065 158.525392 
L 103.820898 160.291181 
L 106.428565 162.687092 
L 107.732399 163.219503 
L 110.340066 166.948765 
L 111.643899 167.269287 
L 112.947733 169.097707 
L 114.251566 170.335547 
L 115.5554 171.135818 
L 116.859233 173.610419 
L 118.163067 173.442424 
L 119.4669 174.952999 
L 120.770734 176.272197 
L 123.378401 178.247194 
L 124.682234 179.231424 
L 125.986068 180.657769 
L 127.289901 181.647466 
L 128.593735 181.808674 
L 129.897568 183.376441 
L 132.505235 185.208635 
L 133.809069 185.713048 
L 135.112903 186.537577 
L 136.416736 187.586421 
L 137.72057 187.164106 
L 139.024403 189.71361 
L 140.328237 190.100111 
L 141.63207 191.182408 
L 142.935904 192.422701 
L 144.239737 192.695634 
L 145.543571 193.097384 
L 146.847404 194.653219 
L 148.151238 194.500632 
L 149.455071 196.010641 
L 150.758905 196.817567 
L 152.062738 197.251532 
L 153.366572 197.962256 
L 154.670405 198.344448 
L 155.974239 199.585984 
L 157.278072 200.302109 
L 158.581906 201.368973 
L 159.885739 200.692484 
L 161.189573 202.699012 
L 163.79724 203.645324 
L 165.101073 204.926601 
L 169.012574 206.503604 
L 170.316407 207.363295 
L 171.620241 208.371664 
L 172.924074 208.503916 
L 174.227908 209.078601 
L 175.531742 210.381128 
L 178.139409 211.643038 
L 179.443242 212.042309 
L 180.747076 213.308402 
L 182.050909 213.052004 
L 183.354743 214.241151 
L 184.658576 214.56168 
L 185.96241 215.199771 
L 187.266243 215.360416 
L 188.570077 215.809191 
L 189.87391 217.049469 
L 191.177744 217.629871 
L 193.785411 219.332055 
L 195.089244 219.587197 
L 196.393078 220.747207 
L 197.696911 221.338216 
L 199.000745 221.037424 
L 200.304578 222.563035 
L 202.912245 222.829819 
L 204.216079 223.842063 
L 206.823746 225.464433 
L 208.127579 226.385312 
L 209.431413 225.552172 
L 210.735246 226.313463 
L 212.03908 227.762568 
L 213.342913 228.235541 
L 214.646747 229.174615 
L 215.950581 229.008876 
L 217.254414 229.708581 
L 218.558248 231.26644 
L 219.862081 231.27914 
L 221.165915 230.435703 
L 222.469748 232.849782 
L 223.773582 232.037594 
L 225.077415 233.571174 
L 226.381249 233.662557 
L 227.685082 234.368454 
L 228.988916 234.431746 
L 230.292749 235.713139 
L 231.596583 235.979873 
L 232.900416 235.151544 
L 234.20425 236.839401 
L 235.508083 237.872261 
L 238.11575 239.357571 
L 239.419584 239.390943 
L 242.027251 240.875847 
L 243.331084 240.901165 
L 244.634918 241.622855 
L 245.938751 242.625389 
L 247.242585 243.091699 
L 248.546418 243.834601 
L 251.154085 244.982769 
L 252.457919 244.493618 
L 253.761752 245.460556 
L 255.065586 246.603546 
L 256.369419 245.247382 
L 257.673253 245.943598 
L 258.977087 247.59719 
L 260.28092 247.824522 
L 261.584754 247.92178 
L 262.888587 248.920925 
L 264.192421 249.539447 
L 265.496254 249.935175 
L 266.800088 251.00359 
L 268.103921 251.80447 
L 269.407755 250.483563 
L 270.711588 250.576588 
L 272.015422 253.059667 
L 273.319255 253.426214 
L 274.623089 253.997967 
L 275.926922 254.045247 
L 277.230756 255.44089 
L 278.534589 255.24144 
L 279.838423 256.096269 
L 281.142256 256.245172 
L 282.44609 256.771922 
L 283.749923 256.762463 
L 285.053757 257.359616 
L 286.35759 258.918437 
L 287.661424 258.610259 
L 288.965257 259.318346 
L 290.269091 259.351853 
L 291.572924 260.991709 
L 292.876758 260.839306 
L 294.180591 261.826509 
L 295.484425 261.533968 
L 298.092092 263.552578 
L 299.395926 262.86791 
L 300.699759 264.052567 
L 302.003593 263.906593 
L 303.307426 265.211663 
L 304.61126 265.457173 
L 305.915093 265.301643 
L 307.218927 266.703226 
L 308.52276 266.959165 
L 309.826594 268.167338 
L 311.130427 267.723692 
L 312.434261 267.448951 
L 313.738094 268.779318 
L 315.041928 268.772089 
L 316.345761 270.949322 
L 317.649595 270.548712 
L 318.953428 271.049583 
L 320.257262 270.301795 
L 321.561095 271.399859 
L 322.864929 272.057985 
L 324.168762 271.461087 
L 325.472596 273.13189 
L 326.776429 272.901884 
L 328.080263 274.083849 
L 329.384096 273.935252 
L 331.991763 275.678283 
L 333.295597 274.813921 
L 334.59943 276.643376 
L 335.903264 275.568915 
L 337.207097 276.405491 
L 339.814765 277.265341 
L 341.118598 278.414712 
L 342.422432 278.298051 
L 343.726265 279.955941 
L 345.030099 280.399316 
L 346.333932 279.494774 
L 347.637766 280.344028 
L 348.941599 281.560923 
L 350.245433 281.85114 
L 351.549266 281.586538 
L 352.8531 282.374815 
L 354.156933 282.143427 
L 355.460767 283.074673 
L 356.7646 284.38317 
L 358.068434 284.375563 
L 359.372267 284.131943 
L 360.676101 284.958516 
L 361.979934 285.42099 
L 363.283768 285.506891 
L 364.587601 285.795743 
L 365.891435 285.531657 
L 367.195268 286.791879 
L 368.499102 287.358298 
L 369.802935 286.508025 
L 371.106769 287.192643 
L 372.410602 288.681787 
L 373.714436 288.922778 
L 375.018269 288.890235 
L 376.322103 290.099661 
L 378.92977 289.876283 
L 380.233604 288.983477 
L 381.537437 291.150981 
L 382.841271 291.926549 
L 385.448938 291.966603 
L 386.752771 292.799154 
L 388.056605 292.794511 
L 389.360438 293.473804 
L 390.664272 292.500082 
L 391.968105 292.486524 
L 393.271939 293.477785 
L 394.575772 295.347998 
L 395.879606 295.481417 
L 397.183439 294.947743 
L 398.487273 295.488 
L 398.487273 295.488 
" clip-path="url(#p4363797223)" style="fill: none; stroke: #1f77b4; stroke-width: 1.5; stroke-linecap: square"/>
   </g>
   <g id="line2d_16">
    <path d="M 73.832727 78.774353 
L 75.136561 94.051687 
L 76.440394 102.667498 
L 77.744228 106.769483 
L 80.351895 120.052985 
L 81.655728 123.489484 
L 82.959562 126.371158 
L 84.263395 129.772998 
L 85.567229 130.795486 
L 86.871062 135.820582 
L 88.174896 136.588837 
L 89.478729 140.765154 
L 90.782563 142.007883 
L 93.39023 146.515558 
L 94.694064 147.900575 
L 95.997897 149.009774 
L 97.301731 149.328055 
L 98.605564 151.904143 
L 99.909398 154.224659 
L 102.517065 157.391701 
L 103.820898 157.446541 
L 105.124732 160.677413 
L 106.428565 156.036706 
L 107.732399 159.022014 
L 109.036232 163.086369 
L 110.340066 164.064333 
L 111.643899 163.357731 
L 112.947733 165.976689 
L 114.251566 161.403502 
L 115.5554 167.66241 
L 116.859233 166.786743 
L 118.163067 169.365609 
L 119.4669 170.779767 
L 120.770734 172.419684 
L 122.074567 173.116072 
L 123.378401 173.64166 
L 124.682234 171.507229 
L 125.986068 175.290879 
L 127.289901 174.356691 
L 128.593735 176.034762 
L 129.897568 176.252297 
L 131.201402 177.500919 
L 132.505235 177.699511 
L 133.809069 175.88403 
L 135.112903 178.948133 
L 136.416736 178.565082 
L 137.72057 176.955915 
L 139.024403 180.469489 
L 140.328237 180.764641 
L 141.63207 182.780337 
L 142.935904 181.113945 
L 144.239737 182.696241 
L 145.543571 183.762403 
L 146.847404 183.342193 
L 148.151238 183.063743 
L 149.455071 185.121796 
L 150.758905 185.040448 
L 152.062738 184.429571 
L 153.366572 186.731975 
L 154.670405 186.890095 
L 155.974239 187.176403 
L 157.278072 188.063218 
L 158.581906 187.120415 
L 159.885739 187.724617 
L 161.189573 187.599699 
L 162.493406 187.659257 
L 163.79724 190.048786 
L 165.101073 188.855537 
L 166.404907 190.167034 
L 167.70874 189.82445 
L 169.012574 190.453672 
L 170.316407 190.662499 
L 171.620241 189.617249 
L 172.924074 189.155409 
L 174.227908 192.198993 
L 175.531742 190.905169 
L 176.835575 193.00623 
L 178.139409 193.77716 
L 179.443242 193.216448 
L 180.747076 190.843191 
L 182.050909 192.910146 
L 183.354743 192.512938 
L 184.658576 192.674366 
L 185.96241 192.558596 
L 187.266243 195.401362 
L 188.570077 191.145003 
L 189.87391 193.639028 
L 191.177744 193.165589 
L 192.481577 193.472437 
L 193.785411 196.048834 
L 195.089244 195.948183 
L 196.393078 195.713665 
L 197.696911 193.989589 
L 199.000745 196.360109 
L 201.608412 195.043133 
L 202.912245 195.181377 
L 204.216079 196.740865 
L 205.519912 196.253163 
L 206.823746 196.065407 
L 208.127579 196.494684 
L 209.431413 195.097399 
L 210.735246 195.932049 
L 212.03908 196.900182 
L 213.342913 196.995614 
L 214.646747 195.916165 
L 215.950581 198.729725 
L 217.254414 198.069727 
L 218.558248 196.913553 
L 219.862081 195.908803 
L 221.165915 198.313335 
L 222.469748 196.915227 
L 223.773582 197.749527 
L 225.077415 197.197294 
L 226.381249 196.836588 
L 227.685082 197.462927 
L 228.988916 198.705571 
L 230.292749 195.503187 
L 231.596583 195.607431 
L 232.900416 196.849027 
L 234.20425 198.490436 
L 235.508083 198.456594 
L 236.811917 197.660754 
L 238.11575 197.90265 
L 239.419584 197.867876 
L 242.027251 195.265206 
L 243.331084 195.760706 
L 244.634918 197.239536 
L 245.938751 197.344728 
L 247.242585 197.08151 
L 248.546418 197.821341 
L 249.850252 196.276703 
L 251.154085 195.024906 
L 252.457919 197.655218 
L 253.761752 195.856837 
L 256.369419 196.488432 
L 257.673253 194.398502 
L 258.977087 195.58631 
L 260.28092 194.173881 
L 262.888587 194.655335 
L 264.192421 195.105928 
L 265.496254 189.193659 
L 266.800088 194.900397 
L 268.103921 193.408218 
L 269.407755 191.363903 
L 270.711588 195.591379 
L 272.015422 195.05322 
L 273.319255 192.783252 
L 274.623089 191.379564 
L 275.926922 193.894719 
L 277.230756 193.196643 
L 279.838423 192.698875 
L 281.142256 192.046141 
L 282.44609 191.116791 
L 283.749923 194.674756 
L 285.053757 191.610796 
L 286.35759 191.74347 
L 287.661424 191.639013 
L 288.965257 189.371038 
L 290.269091 190.762271 
L 291.572924 190.227554 
L 292.876758 190.58352 
L 294.180591 189.477788 
L 295.484425 190.361827 
L 296.788258 189.284101 
L 298.092092 186.080625 
L 299.395926 188.592396 
L 300.699759 189.722411 
L 302.003593 189.56955 
L 303.307426 188.359652 
L 304.61126 184.418003 
L 305.915093 187.02495 
L 307.218927 185.537983 
L 308.52276 185.987851 
L 309.826594 186.763168 
L 311.130427 185.298395 
L 312.434261 181.871593 
L 313.738094 180.828346 
L 315.041928 184.897322 
L 316.345761 180.757869 
L 317.649595 183.975017 
L 318.953428 182.177479 
L 320.257262 182.976079 
L 321.561095 181.464477 
L 322.864929 181.619821 
L 324.168762 182.484663 
L 325.472596 180.251667 
L 326.776429 179.67762 
L 328.080263 179.419843 
L 329.384096 179.682714 
L 330.68793 176.66541 
L 331.991763 178.454666 
L 333.295597 178.642937 
L 334.59943 177.865286 
L 335.903264 169.93355 
L 337.207097 176.398995 
L 338.510931 173.778441 
L 339.814765 174.923228 
L 341.118598 175.224956 
L 342.422432 174.116644 
L 343.726265 174.454431 
L 345.030099 171.336591 
L 346.333932 169.975446 
L 347.637766 170.234094 
L 348.941599 169.332178 
L 350.245433 168.086586 
L 351.549266 169.407526 
L 352.8531 168.505182 
L 354.156933 165.000189 
L 355.460767 167.754516 
L 356.7646 164.888775 
L 358.068434 161.134234 
L 359.372267 165.408143 
L 360.676101 165.395327 
L 361.979934 162.810823 
L 363.283768 162.325829 
L 364.587601 158.98065 
L 365.891435 159.338923 
L 367.195268 159.985686 
L 368.499102 157.372999 
L 369.802935 158.237626 
L 371.106769 158.286138 
L 372.410602 159.046284 
L 373.714436 156.85983 
L 375.018269 153.624816 
L 376.322103 153.390749 
L 377.625936 154.008863 
L 378.92977 150.491232 
L 380.233604 153.619709 
L 381.537437 152.3735 
L 382.841271 149.984714 
L 384.145104 150.506991 
L 385.448938 148.341211 
L 386.752771 148.034558 
L 388.056605 147.447559 
L 389.360438 143.25684 
L 390.664272 144.579664 
L 391.968105 143.398949 
L 393.271939 143.206041 
L 394.575772 143.810904 
L 395.879606 142.054572 
L 397.183439 141.593647 
L 398.487273 138.922027 
L 398.487273 138.922027 
" clip-path="url(#p4363797223)" style="fill: none; stroke: #ff7f0e; stroke-width: 1.5; stroke-linecap: square"/>
   </g>
   <g id="patch_3">
    <path d="M 57.6 307.584 
L 57.6 41.472 
" style="fill: none; stroke: #000000; stroke-width: 0.8; stroke-linejoin: miter; stroke-linecap: square"/>
   </g>
   <g id="patch_4">
    <path d="M 414.72 307.584 
L 414.72 41.472 
" style="fill: none; stroke: #000000; stroke-width: 0.8; stroke-linejoin: miter; stroke-linecap: square"/>
   </g>
   <g id="patch_5">
    <path d="M 57.6 307.584 
L 414.72 307.584 
" style="fill: none; stroke: #000000; stroke-width: 0.8; stroke-linejoin: miter; stroke-linecap: square"/>
   </g>
   <g id="patch_6">
    <path d="M 57.6 41.472 
L 414.72 41.472 
" style="fill: none; stroke: #000000; stroke-width: 0.8; stroke-linejoin: miter; stroke-linecap: square"/>
   </g>
   <g id="legend_1">
    <g id="patch_7">
     <path d="M 316.766875 79.3845 
L 407.72 79.3845 
Q 409.72 79.3845 409.72 77.3845 
L 409.72 48.472 
Q 409.72 46.472 407.72 46.472 
L 316.766875 46.472 
Q 314.766875 46.472 314.766875 48.472 
L 314.766875 77.3845 
Q 314.766875 79.3845 316.766875 79.3845 
z
" style="fill: #ffffff; opacity: 0.8; stroke: #cccccc; stroke-linejoin: miter"/>
    </g>
    <g id="line2d_17">
     <path d="M 318.766875 54.570438 
L 328.766875 54.570438 
L 338.766875 54.570438 
" style="fill: none; stroke: #1f77b4; stroke-width: 1.5; stroke-linecap: square"/>
    </g>
    <g id="text_15">
     <!-- train_losses -->
     <g transform="translate(346.766875 58.070438) scale(0.1 -0.1)">
      <defs>
       <path id="DejaVuSans-74" d="M 1172 4494 
L 1172 3500 
L 2356 3500 
L 2356 3053 
L 1172 3053 
L 1172 1153 
Q 1172 725 1289 603 
Q 1406 481 1766 481 
L 2356 481 
L 2356 0 
L 1766 0 
Q 1100 0 847 248 
Q 594 497 594 1153 
L 594 3053 
L 172 3053 
L 172 3500 
L 594 3500 
L 594 4494 
L 1172 4494 
z
" transform="scale(0.015625)"/>
       <path id="DejaVuSans-72" d="M 2631 2963 
Q 2534 3019 2420 3045 
Q 2306 3072 2169 3072 
Q 1681 3072 1420 2755 
Q 1159 2438 1159 1844 
L 1159 0 
L 581 0 
L 581 3500 
L 1159 3500 
L 1159 2956 
Q 1341 3275 1631 3429 
Q 1922 3584 2338 3584 
Q 2397 3584 2469 3576 
Q 2541 3569 2628 3553 
L 2631 2963 
z
" transform="scale(0.015625)"/>
       <path id="DejaVuSans-61" d="M 2194 1759 
Q 1497 1759 1228 1600 
Q 959 1441 959 1056 
Q 959 750 1161 570 
Q 1363 391 1709 391 
Q 2188 391 2477 730 
Q 2766 1069 2766 1631 
L 2766 1759 
L 2194 1759 
z
M 3341 1997 
L 3341 0 
L 2766 0 
L 2766 531 
Q 2569 213 2275 61 
Q 1981 -91 1556 -91 
Q 1019 -91 701 211 
Q 384 513 384 1019 
Q 384 1609 779 1909 
Q 1175 2209 1959 2209 
L 2766 2209 
L 2766 2266 
Q 2766 2663 2505 2880 
Q 2244 3097 1772 3097 
Q 1472 3097 1187 3025 
Q 903 2953 641 2809 
L 641 3341 
Q 956 3463 1253 3523 
Q 1550 3584 1831 3584 
Q 2591 3584 2966 3190 
Q 3341 2797 3341 1997 
z
" transform="scale(0.015625)"/>
       <path id="DejaVuSans-69" d="M 603 3500 
L 1178 3500 
L 1178 0 
L 603 0 
L 603 3500 
z
M 603 4863 
L 1178 4863 
L 1178 4134 
L 603 4134 
L 603 4863 
z
" transform="scale(0.015625)"/>
       <path id="DejaVuSans-6e" d="M 3513 2113 
L 3513 0 
L 2938 0 
L 2938 2094 
Q 2938 2591 2744 2837 
Q 2550 3084 2163 3084 
Q 1697 3084 1428 2787 
Q 1159 2491 1159 1978 
L 1159 0 
L 581 0 
L 581 3500 
L 1159 3500 
L 1159 2956 
Q 1366 3272 1645 3428 
Q 1925 3584 2291 3584 
Q 2894 3584 3203 3211 
Q 3513 2838 3513 2113 
z
" transform="scale(0.015625)"/>
       <path id="DejaVuSans-5f" d="M 3263 -1063 
L 3263 -1509 
L -63 -1509 
L -63 -1063 
L 3263 -1063 
z
" transform="scale(0.015625)"/>
       <path id="DejaVuSans-6c" d="M 603 4863 
L 1178 4863 
L 1178 0 
L 603 0 
L 603 4863 
z
" transform="scale(0.015625)"/>
       <path id="DejaVuSans-6f" d="M 1959 3097 
Q 1497 3097 1228 2736 
Q 959 2375 959 1747 
Q 959 1119 1226 758 
Q 1494 397 1959 397 
Q 2419 397 2687 759 
Q 2956 1122 2956 1747 
Q 2956 2369 2687 2733 
Q 2419 3097 1959 3097 
z
M 1959 3584 
Q 2709 3584 3137 3096 
Q 3566 2609 3566 1747 
Q 3566 888 3137 398 
Q 2709 -91 1959 -91 
Q 1206 -91 779 398 
Q 353 888 353 1747 
Q 353 2609 779 3096 
Q 1206 3584 1959 3584 
z
" transform="scale(0.015625)"/>
       <path id="DejaVuSans-73" d="M 2834 3397 
L 2834 2853 
Q 2591 2978 2328 3040 
Q 2066 3103 1784 3103 
Q 1356 3103 1142 2972 
Q 928 2841 928 2578 
Q 928 2378 1081 2264 
Q 1234 2150 1697 2047 
L 1894 2003 
Q 2506 1872 2764 1633 
Q 3022 1394 3022 966 
Q 3022 478 2636 193 
Q 2250 -91 1575 -91 
Q 1294 -91 989 -36 
Q 684 19 347 128 
L 347 722 
Q 666 556 975 473 
Q 1284 391 1588 391 
Q 1994 391 2212 530 
Q 2431 669 2431 922 
Q 2431 1156 2273 1281 
Q 2116 1406 1581 1522 
L 1381 1569 
Q 847 1681 609 1914 
Q 372 2147 372 2553 
Q 372 3047 722 3315 
Q 1072 3584 1716 3584 
Q 2034 3584 2315 3537 
Q 2597 3491 2834 3397 
z
" transform="scale(0.015625)"/>
       <path id="DejaVuSans-65" d="M 3597 1894 
L 3597 1613 
L 953 1613 
Q 991 1019 1311 708 
Q 1631 397 2203 397 
Q 2534 397 2845 478 
Q 3156 559 3463 722 
L 3463 178 
Q 3153 47 2828 -22 
Q 2503 -91 2169 -91 
Q 1331 -91 842 396 
Q 353 884 353 1716 
Q 353 2575 817 3079 
Q 1281 3584 2069 3584 
Q 2775 3584 3186 3129 
Q 3597 2675 3597 1894 
z
M 3022 2063 
Q 3016 2534 2758 2815 
Q 2500 3097 2075 3097 
Q 1594 3097 1305 2825 
Q 1016 2553 972 2059 
L 3022 2063 
z
" transform="scale(0.015625)"/>
      </defs>
      <use xlink:href="#DejaVuSans-74"/>
      <use xlink:href="#DejaVuSans-72" x="39.208984"/>
      <use xlink:href="#DejaVuSans-61" x="80.322266"/>
      <use xlink:href="#DejaVuSans-69" x="141.601562"/>
      <use xlink:href="#DejaVuSans-6e" x="169.384766"/>
      <use xlink:href="#DejaVuSans-5f" x="232.763672"/>
      <use xlink:href="#DejaVuSans-6c" x="282.763672"/>
      <use xlink:href="#DejaVuSans-6f" x="310.546875"/>
      <use xlink:href="#DejaVuSans-73" x="371.728516"/>
      <use xlink:href="#DejaVuSans-73" x="423.828125"/>
      <use xlink:href="#DejaVuSans-65" x="475.927734"/>
      <use xlink:href="#DejaVuSans-73" x="537.451172"/>
     </g>
    </g>
    <g id="line2d_18">
     <path d="M 318.766875 69.526688 
L 328.766875 69.526688 
L 338.766875 69.526688 
" style="fill: none; stroke: #ff7f0e; stroke-width: 1.5; stroke-linecap: square"/>
    </g>
    <g id="text_16">
     <!-- test_losses -->
     <g transform="translate(346.766875 73.026688) scale(0.1 -0.1)">
      <use xlink:href="#DejaVuSans-74"/>
      <use xlink:href="#DejaVuSans-65" x="39.208984"/>
      <use xlink:href="#DejaVuSans-73" x="100.732422"/>
      <use xlink:href="#DejaVuSans-74" x="152.832031"/>
      <use xlink:href="#DejaVuSans-5f" x="192.041016"/>
      <use xlink:href="#DejaVuSans-6c" x="242.041016"/>
      <use xlink:href="#DejaVuSans-6f" x="269.824219"/>
      <use xlink:href="#DejaVuSans-73" x="331.005859"/>
      <use xlink:href="#DejaVuSans-73" x="383.105469"/>
      <use xlink:href="#DejaVuSans-65" x="435.205078"/>
      <use xlink:href="#DejaVuSans-73" x="496.728516"/>
     </g>
    </g>
   </g>
  </g>
 </g>
 <defs>
  <clipPath id="p4363797223">
   <rect x="57.6" y="41.472" width="357.12" height="266.112"/>
  </clipPath>
 </defs>
</svg>
