<?xml version="1.0" encoding="utf-8" standalone="no"?>
<!DOCTYPE svg PUBLIC "-//W3C//DTD SVG 1.1//EN"
  "http://www.w3.org/Graphics/SVG/1.1/DTD/svg11.dtd">
<svg xmlns:xlink="http://www.w3.org/1999/xlink" width="460.8pt" height="345.6pt" viewBox="0 0 460.8 345.6" xmlns="http://www.w3.org/2000/svg" version="1.1">
 <metadata>
  <rdf:RDF xmlns:dc="http://purl.org/dc/elements/1.1/" xmlns:cc="http://creativecommons.org/ns#" xmlns:rdf="http://www.w3.org/1999/02/22-rdf-syntax-ns#">
   <cc:Work>
    <dc:type rdf:resource="http://purl.org/dc/dcmitype/StillImage"/>
    <dc:date>2023-10-29T19:31:18.646256</dc:date>
    <dc:format>image/svg+xml</dc:format>
    <dc:creator>
     <cc:Agent>
      <dc:title>Matplotlib v3.8.0, https://matplotlib.org/</dc:title>
     </cc:Agent>
    </dc:creator>
   </cc:Work>
  </rdf:RDF>
 </metadata>
 <defs>
  <style type="text/css">*{stroke-linejoin: round; stroke-linecap: butt}</style>
 </defs>
 <g id="figure_1">
  <g id="patch_1">
   <path d="M 0 345.6 
L 460.8 345.6 
L 460.8 0 
L 0 0 
z
" style="fill: #ffffff"/>
  </g>
  <g id="axes_1">
   <g id="patch_2">
    <path d="M 57.6 307.584 
L 414.72 307.584 
L 414.72 41.472 
L 57.6 41.472 
z
" style="fill: #ffffff"/>
   </g>
   <g id="matplotlib.axis_1">
    <g id="xtick_1">
     <g id="line2d_1">
      <defs>
       <path id="m555888206d" d="M 0 0 
L 0 3.5 
" style="stroke: #000000; stroke-width: 0.8"/>
      </defs>
      <g>
       <use xlink:href="#m555888206d" x="73.832727" y="307.584" style="stroke: #000000; stroke-width: 0.8"/>
      </g>
     </g>
     <g id="text_1">
      <!-- 0 -->
      <g transform="translate(70.651477 322.182437) scale(0.1 -0.1)">
       <defs>
        <path id="DejaVuSans-30" d="M 2034 4250 
Q 1547 4250 1301 3770 
Q 1056 3291 1056 2328 
Q 1056 1369 1301 889 
Q 1547 409 2034 409 
Q 2525 409 2770 889 
Q 3016 1369 3016 2328 
Q 3016 3291 2770 3770 
Q 2525 4250 2034 4250 
z
M 2034 4750 
Q 2819 4750 3233 4129 
Q 3647 3509 3647 2328 
Q 3647 1150 3233 529 
Q 2819 -91 2034 -91 
Q 1250 -91 836 529 
Q 422 1150 422 2328 
Q 422 3509 836 4129 
Q 1250 4750 2034 4750 
z
" transform="scale(0.015625)"/>
       </defs>
       <use xlink:href="#DejaVuSans-30"/>
      </g>
     </g>
    </g>
    <g id="xtick_2">
     <g id="line2d_2">
      <g>
       <use xlink:href="#m555888206d" x="139.024403" y="307.584" style="stroke: #000000; stroke-width: 0.8"/>
      </g>
     </g>
     <g id="text_2">
      <!-- 50 -->
      <g transform="translate(132.661903 322.182437) scale(0.1 -0.1)">
       <defs>
        <path id="DejaVuSans-35" d="M 691 4666 
L 3169 4666 
L 3169 4134 
L 1269 4134 
L 1269 2991 
Q 1406 3038 1543 3061 
Q 1681 3084 1819 3084 
Q 2600 3084 3056 2656 
Q 3513 2228 3513 1497 
Q 3513 744 3044 326 
Q 2575 -91 1722 -91 
Q 1428 -91 1123 -41 
Q 819 9 494 109 
L 494 744 
Q 775 591 1075 516 
Q 1375 441 1709 441 
Q 2250 441 2565 725 
Q 2881 1009 2881 1497 
Q 2881 1984 2565 2268 
Q 2250 2553 1709 2553 
Q 1456 2553 1204 2497 
Q 953 2441 691 2322 
L 691 4666 
z
" transform="scale(0.015625)"/>
       </defs>
       <use xlink:href="#DejaVuSans-35"/>
       <use xlink:href="#DejaVuSans-30" x="63.623047"/>
      </g>
     </g>
    </g>
    <g id="xtick_3">
     <g id="line2d_3">
      <g>
       <use xlink:href="#m555888206d" x="204.216079" y="307.584" style="stroke: #000000; stroke-width: 0.8"/>
      </g>
     </g>
     <g id="text_3">
      <!-- 100 -->
      <g transform="translate(194.672329 322.182437) scale(0.1 -0.1)">
       <defs>
        <path id="DejaVuSans-31" d="M 794 531 
L 1825 531 
L 1825 4091 
L 703 3866 
L 703 4441 
L 1819 4666 
L 2450 4666 
L 2450 531 
L 3481 531 
L 3481 0 
L 794 0 
L 794 531 
z
" transform="scale(0.015625)"/>
       </defs>
       <use xlink:href="#DejaVuSans-31"/>
       <use xlink:href="#DejaVuSans-30" x="63.623047"/>
       <use xlink:href="#DejaVuSans-30" x="127.246094"/>
      </g>
     </g>
    </g>
    <g id="xtick_4">
     <g id="line2d_4">
      <g>
       <use xlink:href="#m555888206d" x="269.407755" y="307.584" style="stroke: #000000; stroke-width: 0.8"/>
      </g>
     </g>
     <g id="text_4">
      <!-- 150 -->
      <g transform="translate(259.864005 322.182437) scale(0.1 -0.1)">
       <use xlink:href="#DejaVuSans-31"/>
       <use xlink:href="#DejaVuSans-35" x="63.623047"/>
       <use xlink:href="#DejaVuSans-30" x="127.246094"/>
      </g>
     </g>
    </g>
    <g id="xtick_5">
     <g id="line2d_5">
      <g>
       <use xlink:href="#m555888206d" x="334.59943" y="307.584" style="stroke: #000000; stroke-width: 0.8"/>
      </g>
     </g>
     <g id="text_5">
      <!-- 200 -->
      <g transform="translate(325.05568 322.182437) scale(0.1 -0.1)">
       <defs>
        <path id="DejaVuSans-32" d="M 1228 531 
L 3431 531 
L 3431 0 
L 469 0 
L 469 531 
Q 828 903 1448 1529 
Q 2069 2156 2228 2338 
Q 2531 2678 2651 2914 
Q 2772 3150 2772 3378 
Q 2772 3750 2511 3984 
Q 2250 4219 1831 4219 
Q 1534 4219 1204 4116 
Q 875 4013 500 3803 
L 500 4441 
Q 881 4594 1212 4672 
Q 1544 4750 1819 4750 
Q 2544 4750 2975 4387 
Q 3406 4025 3406 3419 
Q 3406 3131 3298 2873 
Q 3191 2616 2906 2266 
Q 2828 2175 2409 1742 
Q 1991 1309 1228 531 
z
" transform="scale(0.015625)"/>
       </defs>
       <use xlink:href="#DejaVuSans-32"/>
       <use xlink:href="#DejaVuSans-30" x="63.623047"/>
       <use xlink:href="#DejaVuSans-30" x="127.246094"/>
      </g>
     </g>
    </g>
    <g id="xtick_6">
     <g id="line2d_6">
      <g>
       <use xlink:href="#m555888206d" x="399.791106" y="307.584" style="stroke: #000000; stroke-width: 0.8"/>
      </g>
     </g>
     <g id="text_6">
      <!-- 250 -->
      <g transform="translate(390.247356 322.182437) scale(0.1 -0.1)">
       <use xlink:href="#DejaVuSans-32"/>
       <use xlink:href="#DejaVuSans-35" x="63.623047"/>
       <use xlink:href="#DejaVuSans-30" x="127.246094"/>
      </g>
     </g>
    </g>
   </g>
   <g id="matplotlib.axis_2">
    <g id="ytick_1">
     <g id="line2d_7">
      <defs>
       <path id="m981104c36d" d="M 0 0 
L -3.5 0 
" style="stroke: #000000; stroke-width: 0.8"/>
      </defs>
      <g>
       <use xlink:href="#m981104c36d" x="57.6" y="271.636732" style="stroke: #000000; stroke-width: 0.8"/>
      </g>
     </g>
     <g id="text_7">
      <!-- 75 -->
      <g transform="translate(37.875 275.435951) scale(0.1 -0.1)">
       <defs>
        <path id="DejaVuSans-37" d="M 525 4666 
L 3525 4666 
L 3525 4397 
L 1831 0 
L 1172 0 
L 2766 4134 
L 525 4134 
L 525 4666 
z
" transform="scale(0.015625)"/>
       </defs>
       <use xlink:href="#DejaVuSans-37"/>
       <use xlink:href="#DejaVuSans-35" x="63.623047"/>
      </g>
     </g>
    </g>
    <g id="ytick_2">
     <g id="line2d_8">
      <g>
       <use xlink:href="#m981104c36d" x="57.6" y="228.022986" style="stroke: #000000; stroke-width: 0.8"/>
      </g>
     </g>
     <g id="text_8">
      <!-- 80 -->
      <g transform="translate(37.875 231.822205) scale(0.1 -0.1)">
       <defs>
        <path id="DejaVuSans-38" d="M 2034 2216 
Q 1584 2216 1326 1975 
Q 1069 1734 1069 1313 
Q 1069 891 1326 650 
Q 1584 409 2034 409 
Q 2484 409 2743 651 
Q 3003 894 3003 1313 
Q 3003 1734 2745 1975 
Q 2488 2216 2034 2216 
z
M 1403 2484 
Q 997 2584 770 2862 
Q 544 3141 544 3541 
Q 544 4100 942 4425 
Q 1341 4750 2034 4750 
Q 2731 4750 3128 4425 
Q 3525 4100 3525 3541 
Q 3525 3141 3298 2862 
Q 3072 2584 2669 2484 
Q 3125 2378 3379 2068 
Q 3634 1759 3634 1313 
Q 3634 634 3220 271 
Q 2806 -91 2034 -91 
Q 1263 -91 848 271 
Q 434 634 434 1313 
Q 434 1759 690 2068 
Q 947 2378 1403 2484 
z
M 1172 3481 
Q 1172 3119 1398 2916 
Q 1625 2713 2034 2713 
Q 2441 2713 2670 2916 
Q 2900 3119 2900 3481 
Q 2900 3844 2670 4047 
Q 2441 4250 2034 4250 
Q 1625 4250 1398 4047 
Q 1172 3844 1172 3481 
z
" transform="scale(0.015625)"/>
       </defs>
       <use xlink:href="#DejaVuSans-38"/>
       <use xlink:href="#DejaVuSans-30" x="63.623047"/>
      </g>
     </g>
    </g>
    <g id="ytick_3">
     <g id="line2d_9">
      <g>
       <use xlink:href="#m981104c36d" x="57.6" y="184.409239" style="stroke: #000000; stroke-width: 0.8"/>
      </g>
     </g>
     <g id="text_9">
      <!-- 85 -->
      <g transform="translate(37.875 188.208458) scale(0.1 -0.1)">
       <use xlink:href="#DejaVuSans-38"/>
       <use xlink:href="#DejaVuSans-35" x="63.623047"/>
      </g>
     </g>
    </g>
    <g id="ytick_4">
     <g id="line2d_10">
      <g>
       <use xlink:href="#m981104c36d" x="57.6" y="140.795493" style="stroke: #000000; stroke-width: 0.8"/>
      </g>
     </g>
     <g id="text_10">
      <!-- 90 -->
      <g transform="translate(37.875 144.594712) scale(0.1 -0.1)">
       <defs>
        <path id="DejaVuSans-39" d="M 703 97 
L 703 672 
Q 941 559 1184 500 
Q 1428 441 1663 441 
Q 2288 441 2617 861 
Q 2947 1281 2994 2138 
Q 2813 1869 2534 1725 
Q 2256 1581 1919 1581 
Q 1219 1581 811 2004 
Q 403 2428 403 3163 
Q 403 3881 828 4315 
Q 1253 4750 1959 4750 
Q 2769 4750 3195 4129 
Q 3622 3509 3622 2328 
Q 3622 1225 3098 567 
Q 2575 -91 1691 -91 
Q 1453 -91 1209 -44 
Q 966 3 703 97 
z
M 1959 2075 
Q 2384 2075 2632 2365 
Q 2881 2656 2881 3163 
Q 2881 3666 2632 3958 
Q 2384 4250 1959 4250 
Q 1534 4250 1286 3958 
Q 1038 3666 1038 3163 
Q 1038 2656 1286 2365 
Q 1534 2075 1959 2075 
z
" transform="scale(0.015625)"/>
       </defs>
       <use xlink:href="#DejaVuSans-39"/>
       <use xlink:href="#DejaVuSans-30" x="63.623047"/>
      </g>
     </g>
    </g>
    <g id="ytick_5">
     <g id="line2d_11">
      <g>
       <use xlink:href="#m981104c36d" x="57.6" y="97.181746" style="stroke: #000000; stroke-width: 0.8"/>
      </g>
     </g>
     <g id="text_11">
      <!-- 95 -->
      <g transform="translate(37.875 100.980965) scale(0.1 -0.1)">
       <use xlink:href="#DejaVuSans-39"/>
       <use xlink:href="#DejaVuSans-35" x="63.623047"/>
      </g>
     </g>
    </g>
    <g id="ytick_6">
     <g id="line2d_12">
      <g>
       <use xlink:href="#m981104c36d" x="57.6" y="53.568" style="stroke: #000000; stroke-width: 0.8"/>
      </g>
     </g>
     <g id="text_12">
      <!-- 100 -->
      <g transform="translate(31.5125 57.367219) scale(0.1 -0.1)">
       <use xlink:href="#DejaVuSans-31"/>
       <use xlink:href="#DejaVuSans-30" x="63.623047"/>
       <use xlink:href="#DejaVuSans-30" x="127.246094"/>
      </g>
     </g>
    </g>
   </g>
   <g id="line2d_13">
    <path d="M 73.832727 295.488 
L 75.136561 210.701443 
L 76.440394 194.766329 
L 77.744228 185.410875 
L 79.048061 180.740492 
L 80.351895 174.469253 
L 81.655728 170.254158 
L 82.959562 168.477063 
L 84.263395 163.968233 
L 85.567229 160.678403 
L 86.871062 159.400657 
L 88.174896 157.638248 
L 89.478729 155.097441 
L 90.782563 154.20155 
L 93.39023 148.459034 
L 95.997897 146.094469 
L 97.301731 144.141133 
L 99.909398 140.660375 
L 101.213231 138.574858 
L 102.517065 137.267738 
L 103.820898 137.370545 
L 105.124732 134.491944 
L 106.428565 133.449185 
L 107.732399 131.202114 
L 109.036232 130.364969 
L 110.340066 130.129982 
L 112.947733 126.44361 
L 114.251566 124.769321 
L 115.5554 124.974935 
L 116.859233 123.623755 
L 118.163067 121.949467 
L 119.4669 121.127009 
L 122.074567 117.690312 
L 123.378401 117.749059 
L 124.682234 117.323143 
L 125.986068 115.98665 
L 127.289901 115.825096 
L 128.593735 113.695518 
L 129.897568 113.357723 
L 131.201402 111.683435 
L 132.505235 111.330953 
L 133.809069 108.981074 
L 135.112903 108.966388 
L 139.024403 106.381521 
L 140.328237 104.839413 
L 141.63207 104.545678 
L 142.935904 102.430788 
L 144.239737 101.755198 
L 145.543571 101.667077 
L 148.151238 100.741813 
L 149.455071 98.083512 
L 150.758905 97.819151 
L 152.062738 96.908573 
L 153.366572 95.454586 
L 154.670405 95.248971 
L 155.974239 93.985912 
L 157.278072 93.559996 
L 159.885739 91.856334 
L 161.189573 91.871021 
L 163.79724 90.314226 
L 165.101073 90.328913 
L 167.70874 87.14189 
L 169.012574 87.09783 
L 170.316407 86.231312 
L 171.620241 85.981638 
L 172.924074 85.614469 
L 174.227908 83.411458 
L 175.531742 84.219229 
L 176.835575 82.618374 
L 178.139409 82.442133 
L 179.443242 80.900025 
L 180.747076 81.076266 
L 182.050909 79.783833 
L 183.354743 79.695712 
L 184.658576 79.196363 
L 185.96241 78.094858 
L 187.266243 78.036111 
L 189.87391 76.582123 
L 191.177744 76.728991 
L 192.481577 75.230943 
L 193.785411 75.803726 
L 196.393078 74.643474 
L 197.696911 74.217558 
L 199.000745 73.395101 
L 201.608412 72.176101 
L 202.912245 73.277607 
L 204.216079 71.926426 
L 205.519912 70.002463 
L 208.127579 70.428379 
L 209.431413 69.958403 
L 210.735246 68.959705 
L 212.03908 68.75409 
L 213.342913 68.827524 
L 214.646747 68.533789 
L 218.558248 67.138549 
L 219.862081 65.875489 
L 221.165915 66.257344 
L 222.469748 65.288019 
L 223.773582 65.317393 
L 225.077415 64.862104 
L 226.381249 64.729923 
L 227.685082 63.863406 
L 230.292749 64.230574 
L 231.596583 63.834032 
L 232.900416 63.187815 
L 234.20425 63.173129 
L 235.508083 62.277237 
L 236.811917 62.570972 
L 238.11575 61.939442 
L 239.419584 62.923454 
L 240.723417 60.970118 
L 242.027251 62.335984 
L 244.634918 61.072925 
L 245.938751 60.749816 
L 247.242585 60.705756 
L 248.546418 60.456082 
L 249.850252 59.662998 
L 251.154085 59.589564 
L 252.457919 59.677684 
L 253.761752 59.222395 
L 255.065586 59.178335 
L 256.369419 58.664299 
L 257.673253 59.545504 
L 258.977087 59.090215 
L 260.28092 58.106203 
L 261.584754 58.502745 
L 262.888587 57.959336 
L 264.192421 58.003396 
L 266.800088 57.401239 
L 268.103921 57.650914 
L 269.407755 57.474673 
L 270.711588 56.696276 
L 273.319255 56.461288 
L 274.623089 56.975324 
L 275.926922 56.196927 
L 278.534589 56.064746 
L 279.838423 56.490661 
L 281.142256 56.050059 
L 282.44609 55.991312 
L 283.749923 55.668204 
L 285.053757 55.521337 
L 286.35759 55.624144 
L 287.661424 55.418529 
L 288.965257 55.59477 
L 290.269091 55.359782 
L 291.572924 55.46259 
L 292.876758 55.227602 
L 294.180591 55.198228 
L 295.484425 55.624144 
L 298.092092 54.742939 
L 299.395926 54.669506 
L 300.699759 54.91918 
L 304.61126 54.361084 
L 305.915093 54.596072 
L 308.52276 54.742939 
L 309.826594 54.463891 
L 312.434261 54.610759 
L 313.738094 53.935169 
L 316.345761 54.184843 
L 320.257262 53.920482 
L 324.168762 54.126096 
L 325.472596 54.037976 
L 326.776429 54.15547 
L 328.080263 53.847048 
L 329.384096 53.847048 
L 330.68793 54.008602 
L 331.991763 53.847048 
L 335.903264 53.802988 
L 337.207097 53.891108 
L 339.814765 53.744241 
L 341.118598 53.979229 
L 342.422432 53.729554 
L 346.333932 53.597373 
L 348.941599 53.685494 
L 351.549266 54.111409 
L 352.8531 53.700181 
L 355.460767 53.65612 
L 359.372267 53.597373 
L 364.587601 53.626747 
L 371.106769 53.582687 
L 398.487273 53.568 
L 398.487273 53.568 
" clip-path="url(#p4af3296b55)" style="fill: none; stroke: #1f77b4; stroke-width: 1.5; stroke-linecap: square"/>
   </g>
   <g id="line2d_14">
    <path d="M 73.832727 236.396825 
L 75.136561 210.228577 
L 76.440394 200.982463 
L 77.744228 196.708316 
L 79.048061 191.212984 
L 80.351895 188.683387 
L 81.655728 183.885874 
L 82.959562 183.0136 
L 84.263395 178.564997 
L 85.567229 177.08213 
L 86.871062 172.022935 
L 88.174896 172.110163 
L 89.478729 171.761253 
L 90.782563 168.272153 
L 92.086396 168.708291 
L 93.39023 168.533836 
L 94.694064 166.876513 
L 95.997897 162.689594 
L 97.301731 161.206726 
L 98.605564 162.951276 
L 99.909398 163.736324 
L 101.213231 158.764357 
L 102.517065 166.178693 
L 103.820898 159.898314 
L 105.124732 159.549404 
L 106.428565 158.066537 
L 109.036232 156.409214 
L 110.340066 157.019807 
L 111.643899 156.321987 
L 112.947733 157.892082 
L 114.251566 155.711394 
L 115.5554 156.932579 
L 116.859233 156.234759 
L 118.163067 156.409214 
L 119.4669 154.228527 
L 120.770734 154.839119 
L 122.074567 154.402982 
L 123.378401 153.007342 
L 124.682234 154.926347 
L 125.986068 154.402982 
L 127.289901 153.269024 
L 128.593735 151.088337 
L 129.897568 153.269024 
L 131.201402 151.960612 
L 132.505235 153.094569 
L 133.809069 153.356252 
L 135.112903 151.35002 
L 136.416736 151.611702 
L 137.72057 149.343787 
L 139.024403 149.343787 
L 140.328237 150.477745 
L 144.239737 147.773692 
L 145.543571 149.867152 
L 146.847404 148.55874 
L 148.151238 152.39675 
L 149.455071 146.552507 
L 150.758905 148.20983 
L 152.062738 147.51201 
L 153.366572 147.1631 
L 154.670405 148.471512 
L 155.974239 148.994877 
L 157.278072 146.029143 
L 158.581906 148.820422 
L 159.885739 148.90765 
L 161.189573 147.1631 
L 162.493406 149.169332 
L 163.79724 150.477745 
L 165.101073 145.941915 
L 166.404907 148.035375 
L 167.70874 147.075872 
L 169.012574 146.901417 
L 170.316407 148.994877 
L 171.620241 147.337555 
L 172.924074 146.552507 
L 174.227908 146.901417 
L 175.531742 148.55874 
L 176.835575 147.948147 
L 178.139409 146.378053 
L 179.443242 147.51201 
L 180.747076 146.726962 
L 182.050909 149.779925 
L 183.354743 148.90765 
L 184.658576 147.337555 
L 185.96241 146.901417 
L 187.266243 148.122602 
L 188.570077 146.988645 
L 189.87391 146.290825 
L 191.177744 147.948147 
L 192.481577 147.1631 
L 193.785411 147.1631 
L 195.089244 146.552507 
L 196.393078 147.948147 
L 197.696911 147.250327 
L 199.000745 147.948147 
L 200.304578 147.424782 
L 201.608412 149.25656 
L 202.912245 146.726962 
L 204.216079 146.203598 
L 205.519912 147.86092 
L 206.823746 146.46528 
L 208.127579 148.820422 
L 209.431413 148.384285 
L 210.735246 146.029143 
L 212.03908 147.075872 
L 213.342913 146.378053 
L 214.646747 148.733195 
L 215.950581 147.424782 
L 217.254414 148.035375 
L 218.558248 146.988645 
L 219.862081 147.948147 
L 221.165915 146.203598 
L 222.469748 145.680233 
L 223.773582 148.55874 
L 225.077415 146.552507 
L 226.381249 148.035375 
L 227.685082 148.471512 
L 228.988916 147.424782 
L 230.292749 146.81419 
L 231.596583 147.51201 
L 232.900416 147.1631 
L 234.20425 147.337555 
L 235.508083 149.343787 
L 236.811917 146.639735 
L 238.11575 148.820422 
L 239.419584 147.250327 
L 240.723417 147.773692 
L 242.027251 148.645967 
L 243.331084 147.1631 
L 244.634918 149.95438 
L 245.938751 147.599237 
L 247.242585 150.128835 
L 248.546418 148.820422 
L 249.850252 146.726962 
L 251.154085 148.645967 
L 252.457919 148.733195 
L 253.761752 147.948147 
L 255.065586 148.471512 
L 256.369419 148.20983 
L 257.673253 147.424782 
L 258.977087 148.035375 
L 260.28092 146.988645 
L 261.584754 149.518242 
L 262.888587 147.51201 
L 264.192421 150.564972 
L 265.496254 147.599237 
L 266.800088 146.290825 
L 269.407755 148.90765 
L 270.711588 147.250327 
L 272.015422 148.035375 
L 273.319255 148.20983 
L 274.623089 148.645967 
L 275.926922 148.55874 
L 277.230756 146.901417 
L 278.534589 148.90765 
L 279.838423 146.639735 
L 281.142256 148.297057 
L 282.44609 148.035375 
L 283.749923 148.122602 
L 285.053757 147.773692 
L 286.35759 147.948147 
L 287.661424 148.297057 
L 288.965257 148.994877 
L 290.269091 146.988645 
L 291.572924 148.122602 
L 292.876758 146.901417 
L 294.180591 148.645967 
L 295.484425 149.95438 
L 296.788258 148.20983 
L 298.092092 147.075872 
L 299.395926 150.30329 
L 300.699759 147.686465 
L 302.003593 149.431015 
L 303.307426 149.518242 
L 304.61126 146.639735 
L 305.915093 148.035375 
L 307.218927 148.035375 
L 308.52276 148.645967 
L 309.826594 148.20983 
L 311.130427 149.431015 
L 312.434261 147.773692 
L 313.738094 147.51201 
L 315.041928 148.733195 
L 316.345761 147.948147 
L 317.649595 148.20983 
L 318.953428 147.86092 
L 320.257262 146.988645 
L 321.561095 147.424782 
L 322.864929 149.169332 
L 324.168762 147.773692 
L 325.472596 148.55874 
L 328.080263 148.297057 
L 329.384096 146.639735 
L 331.991763 148.297057 
L 333.295597 147.86092 
L 334.59943 146.639735 
L 335.903264 147.599237 
L 337.207097 148.297057 
L 338.510931 148.122602 
L 339.814765 146.901417 
L 341.118598 149.169332 
L 342.422432 148.55874 
L 343.726265 148.20983 
L 345.030099 147.250327 
L 346.333932 149.343787 
L 347.637766 147.686465 
L 348.941599 148.384285 
L 350.245433 148.297057 
L 351.549266 148.994877 
L 352.8531 148.820422 
L 354.156933 149.60547 
L 355.460767 147.51201 
L 356.7646 148.733195 
L 358.068434 148.297057 
L 359.372267 148.122602 
L 360.676101 148.384285 
L 361.979934 147.424782 
L 363.283768 149.60547 
L 364.587601 148.297057 
L 365.891435 148.820422 
L 367.195268 148.645967 
L 368.499102 147.424782 
L 369.802935 148.035375 
L 371.106769 147.1631 
L 372.410602 148.90765 
L 373.714436 148.55874 
L 376.322103 149.779925 
L 377.625936 147.337555 
L 378.92977 148.122602 
L 380.233604 147.424782 
L 381.537437 148.645967 
L 382.841271 147.948147 
L 384.145104 147.599237 
L 385.448938 147.773692 
L 386.752771 149.169332 
L 388.056605 147.686465 
L 389.360438 148.55874 
L 390.664272 148.820422 
L 391.968105 147.1631 
L 393.271939 147.948147 
L 394.575772 150.128835 
L 395.879606 148.733195 
L 397.183439 147.075872 
L 398.487273 148.384285 
L 398.487273 148.384285 
" clip-path="url(#p4af3296b55)" style="fill: none; stroke: #ff7f0e; stroke-width: 1.5; stroke-linecap: square"/>
   </g>
   <g id="patch_3">
    <path d="M 57.6 307.584 
L 57.6 41.472 
" style="fill: none; stroke: #000000; stroke-width: 0.8; stroke-linejoin: miter; stroke-linecap: square"/>
   </g>
   <g id="patch_4">
    <path d="M 414.72 307.584 
L 414.72 41.472 
" style="fill: none; stroke: #000000; stroke-width: 0.8; stroke-linejoin: miter; stroke-linecap: square"/>
   </g>
   <g id="patch_5">
    <path d="M 57.6 307.584 
L 414.72 307.584 
" style="fill: none; stroke: #000000; stroke-width: 0.8; stroke-linejoin: miter; stroke-linecap: square"/>
   </g>
   <g id="patch_6">
    <path d="M 57.6 41.472 
L 414.72 41.472 
" style="fill: none; stroke: #000000; stroke-width: 0.8; stroke-linejoin: miter; stroke-linecap: square"/>
   </g>
   <g id="legend_1">
    <g id="patch_7">
     <path d="M 64.6 79.3845 
L 169.99375 79.3845 
Q 171.99375 79.3845 171.99375 77.3845 
L 171.99375 48.472 
Q 171.99375 46.472 169.99375 46.472 
L 64.6 46.472 
Q 62.6 46.472 62.6 48.472 
L 62.6 77.3845 
Q 62.6 79.3845 64.6 79.3845 
z
" style="fill: #ffffff; opacity: 0.8; stroke: #cccccc; stroke-linejoin: miter"/>
    </g>
    <g id="line2d_15">
     <path d="M 66.6 54.570438 
L 76.6 54.570438 
L 86.6 54.570438 
" style="fill: none; stroke: #1f77b4; stroke-width: 1.5; stroke-linecap: square"/>
    </g>
    <g id="text_13">
     <!-- train_accuracy -->
     <g transform="translate(94.6 58.070438) scale(0.1 -0.1)">
      <defs>
       <path id="DejaVuSans-74" d="M 1172 4494 
L 1172 3500 
L 2356 3500 
L 2356 3053 
L 1172 3053 
L 1172 1153 
Q 1172 725 1289 603 
Q 1406 481 1766 481 
L 2356 481 
L 2356 0 
L 1766 0 
Q 1100 0 847 248 
Q 594 497 594 1153 
L 594 3053 
L 172 3053 
L 172 3500 
L 594 3500 
L 594 4494 
L 1172 4494 
z
" transform="scale(0.015625)"/>
       <path id="DejaVuSans-72" d="M 2631 2963 
Q 2534 3019 2420 3045 
Q 2306 3072 2169 3072 
Q 1681 3072 1420 2755 
Q 1159 2438 1159 1844 
L 1159 0 
L 581 0 
L 581 3500 
L 1159 3500 
L 1159 2956 
Q 1341 3275 1631 3429 
Q 1922 3584 2338 3584 
Q 2397 3584 2469 3576 
Q 2541 3569 2628 3553 
L 2631 2963 
z
" transform="scale(0.015625)"/>
       <path id="DejaVuSans-61" d="M 2194 1759 
Q 1497 1759 1228 1600 
Q 959 1441 959 1056 
Q 959 750 1161 570 
Q 1363 391 1709 391 
Q 2188 391 2477 730 
Q 2766 1069 2766 1631 
L 2766 1759 
L 2194 1759 
z
M 3341 1997 
L 3341 0 
L 2766 0 
L 2766 531 
Q 2569 213 2275 61 
Q 1981 -91 1556 -91 
Q 1019 -91 701 211 
Q 384 513 384 1019 
Q 384 1609 779 1909 
Q 1175 2209 1959 2209 
L 2766 2209 
L 2766 2266 
Q 2766 2663 2505 2880 
Q 2244 3097 1772 3097 
Q 1472 3097 1187 3025 
Q 903 2953 641 2809 
L 641 3341 
Q 956 3463 1253 3523 
Q 1550 3584 1831 3584 
Q 2591 3584 2966 3190 
Q 3341 2797 3341 1997 
z
" transform="scale(0.015625)"/>
       <path id="DejaVuSans-69" d="M 603 3500 
L 1178 3500 
L 1178 0 
L 603 0 
L 603 3500 
z
M 603 4863 
L 1178 4863 
L 1178 4134 
L 603 4134 
L 603 4863 
z
" transform="scale(0.015625)"/>
       <path id="DejaVuSans-6e" d="M 3513 2113 
L 3513 0 
L 2938 0 
L 2938 2094 
Q 2938 2591 2744 2837 
Q 2550 3084 2163 3084 
Q 1697 3084 1428 2787 
Q 1159 2491 1159 1978 
L 1159 0 
L 581 0 
L 581 3500 
L 1159 3500 
L 1159 2956 
Q 1366 3272 1645 3428 
Q 1925 3584 2291 3584 
Q 2894 3584 3203 3211 
Q 3513 2838 3513 2113 
z
" transform="scale(0.015625)"/>
       <path id="DejaVuSans-5f" d="M 3263 -1063 
L 3263 -1509 
L -63 -1509 
L -63 -1063 
L 3263 -1063 
z
" transform="scale(0.015625)"/>
       <path id="DejaVuSans-63" d="M 3122 3366 
L 3122 2828 
Q 2878 2963 2633 3030 
Q 2388 3097 2138 3097 
Q 1578 3097 1268 2742 
Q 959 2388 959 1747 
Q 959 1106 1268 751 
Q 1578 397 2138 397 
Q 2388 397 2633 464 
Q 2878 531 3122 666 
L 3122 134 
Q 2881 22 2623 -34 
Q 2366 -91 2075 -91 
Q 1284 -91 818 406 
Q 353 903 353 1747 
Q 353 2603 823 3093 
Q 1294 3584 2113 3584 
Q 2378 3584 2631 3529 
Q 2884 3475 3122 3366 
z
" transform="scale(0.015625)"/>
       <path id="DejaVuSans-75" d="M 544 1381 
L 544 3500 
L 1119 3500 
L 1119 1403 
Q 1119 906 1312 657 
Q 1506 409 1894 409 
Q 2359 409 2629 706 
Q 2900 1003 2900 1516 
L 2900 3500 
L 3475 3500 
L 3475 0 
L 2900 0 
L 2900 538 
Q 2691 219 2414 64 
Q 2138 -91 1772 -91 
Q 1169 -91 856 284 
Q 544 659 544 1381 
z
M 1991 3584 
L 1991 3584 
z
" transform="scale(0.015625)"/>
       <path id="DejaVuSans-79" d="M 2059 -325 
Q 1816 -950 1584 -1140 
Q 1353 -1331 966 -1331 
L 506 -1331 
L 506 -850 
L 844 -850 
Q 1081 -850 1212 -737 
Q 1344 -625 1503 -206 
L 1606 56 
L 191 3500 
L 800 3500 
L 1894 763 
L 2988 3500 
L 3597 3500 
L 2059 -325 
z
" transform="scale(0.015625)"/>
      </defs>
      <use xlink:href="#DejaVuSans-74"/>
      <use xlink:href="#DejaVuSans-72" x="39.208984"/>
      <use xlink:href="#DejaVuSans-61" x="80.322266"/>
      <use xlink:href="#DejaVuSans-69" x="141.601562"/>
      <use xlink:href="#DejaVuSans-6e" x="169.384766"/>
      <use xlink:href="#DejaVuSans-5f" x="232.763672"/>
      <use xlink:href="#DejaVuSans-61" x="282.763672"/>
      <use xlink:href="#DejaVuSans-63" x="344.042969"/>
      <use xlink:href="#DejaVuSans-63" x="399.023438"/>
      <use xlink:href="#DejaVuSans-75" x="454.003906"/>
      <use xlink:href="#DejaVuSans-72" x="517.382812"/>
      <use xlink:href="#DejaVuSans-61" x="558.496094"/>
      <use xlink:href="#DejaVuSans-63" x="619.775391"/>
      <use xlink:href="#DejaVuSans-79" x="674.755859"/>
     </g>
    </g>
    <g id="line2d_16">
     <path d="M 66.6 69.526688 
L 76.6 69.526688 
L 86.6 69.526688 
" style="fill: none; stroke: #ff7f0e; stroke-width: 1.5; stroke-linecap: square"/>
    </g>
    <g id="text_14">
     <!-- test_accuracy -->
     <g transform="translate(94.6 73.026688) scale(0.1 -0.1)">
      <defs>
       <path id="DejaVuSans-65" d="M 3597 1894 
L 3597 1613 
L 953 1613 
Q 991 1019 1311 708 
Q 1631 397 2203 397 
Q 2534 397 2845 478 
Q 3156 559 3463 722 
L 3463 178 
Q 3153 47 2828 -22 
Q 2503 -91 2169 -91 
Q 1331 -91 842 396 
Q 353 884 353 1716 
Q 353 2575 817 3079 
Q 1281 3584 2069 3584 
Q 2775 3584 3186 3129 
Q 3597 2675 3597 1894 
z
M 3022 2063 
Q 3016 2534 2758 2815 
Q 2500 3097 2075 3097 
Q 1594 3097 1305 2825 
Q 1016 2553 972 2059 
L 3022 2063 
z
" transform="scale(0.015625)"/>
       <path id="DejaVuSans-73" d="M 2834 3397 
L 2834 2853 
Q 2591 2978 2328 3040 
Q 2066 3103 1784 3103 
Q 1356 3103 1142 2972 
Q 928 2841 928 2578 
Q 928 2378 1081 2264 
Q 1234 2150 1697 2047 
L 1894 2003 
Q 2506 1872 2764 1633 
Q 3022 1394 3022 966 
Q 3022 478 2636 193 
Q 2250 -91 1575 -91 
Q 1294 -91 989 -36 
Q 684 19 347 128 
L 347 722 
Q 666 556 975 473 
Q 1284 391 1588 391 
Q 1994 391 2212 530 
Q 2431 669 2431 922 
Q 2431 1156 2273 1281 
Q 2116 1406 1581 1522 
L 1381 1569 
Q 847 1681 609 1914 
Q 372 2147 372 2553 
Q 372 3047 722 3315 
Q 1072 3584 1716 3584 
Q 2034 3584 2315 3537 
Q 2597 3491 2834 3397 
z
" transform="scale(0.015625)"/>
      </defs>
      <use xlink:href="#DejaVuSans-74"/>
      <use xlink:href="#DejaVuSans-65" x="39.208984"/>
      <use xlink:href="#DejaVuSans-73" x="100.732422"/>
      <use xlink:href="#DejaVuSans-74" x="152.832031"/>
      <use xlink:href="#DejaVuSans-5f" x="192.041016"/>
      <use xlink:href="#DejaVuSans-61" x="242.041016"/>
      <use xlink:href="#DejaVuSans-63" x="303.320312"/>
      <use xlink:href="#DejaVuSans-63" x="358.300781"/>
      <use xlink:href="#DejaVuSans-75" x="413.28125"/>
      <use xlink:href="#DejaVuSans-72" x="476.660156"/>
      <use xlink:href="#DejaVuSans-61" x="517.773438"/>
      <use xlink:href="#DejaVuSans-63" x="579.052734"/>
      <use xlink:href="#DejaVuSans-79" x="634.033203"/>
     </g>
    </g>
   </g>
  </g>
 </g>
 <defs>
  <clipPath id="p4af3296b55">
   <rect x="57.6" y="41.472" width="357.12" height="266.112"/>
  </clipPath>
 </defs>
</svg>
