<?xml version="1.0" encoding="utf-8" standalone="no"?>
<!DOCTYPE svg PUBLIC "-//W3C//DTD SVG 1.1//EN"
  "http://www.w3.org/Graphics/SVG/1.1/DTD/svg11.dtd">
<svg xmlns:xlink="http://www.w3.org/1999/xlink" width="460.8pt" height="345.6pt" viewBox="0 0 460.8 345.6" xmlns="http://www.w3.org/2000/svg" version="1.1">
 <metadata>
  <rdf:RDF xmlns:dc="http://purl.org/dc/elements/1.1/" xmlns:cc="http://creativecommons.org/ns#" xmlns:rdf="http://www.w3.org/1999/02/22-rdf-syntax-ns#">
   <cc:Work>
    <dc:type rdf:resource="http://purl.org/dc/dcmitype/StillImage"/>
    <dc:date>2023-10-29T19:30:46.978780</dc:date>
    <dc:format>image/svg+xml</dc:format>
    <dc:creator>
     <cc:Agent>
      <dc:title>Matplotlib v3.8.0, https://matplotlib.org/</dc:title>
     </cc:Agent>
    </dc:creator>
   </cc:Work>
  </rdf:RDF>
 </metadata>
 <defs>
  <style type="text/css">*{stroke-linejoin: round; stroke-linecap: butt}</style>
 </defs>
 <g id="figure_1">
  <g id="patch_1">
   <path d="M 0 345.6 
L 460.8 345.6 
L 460.8 0 
L 0 0 
z
" style="fill: #ffffff"/>
  </g>
  <g id="axes_1">
   <g id="patch_2">
    <path d="M 57.6 307.584 
L 414.72 307.584 
L 414.72 41.472 
L 57.6 41.472 
z
" style="fill: #ffffff"/>
   </g>
   <g id="matplotlib.axis_1">
    <g id="xtick_1">
     <g id="line2d_1">
      <defs>
       <path id="m18eb17a8dd" d="M 0 0 
L 0 3.5 
" style="stroke: #000000; stroke-width: 0.8"/>
      </defs>
      <g>
       <use xlink:href="#m18eb17a8dd" x="73.832727" y="307.584" style="stroke: #000000; stroke-width: 0.8"/>
      </g>
     </g>
     <g id="text_1">
      <!-- 0 -->
      <g transform="translate(70.651477 322.182437) scale(0.1 -0.1)">
       <defs>
        <path id="DejaVuSans-30" d="M 2034 4250 
Q 1547 4250 1301 3770 
Q 1056 3291 1056 2328 
Q 1056 1369 1301 889 
Q 1547 409 2034 409 
Q 2525 409 2770 889 
Q 3016 1369 3016 2328 
Q 3016 3291 2770 3770 
Q 2525 4250 2034 4250 
z
M 2034 4750 
Q 2819 4750 3233 4129 
Q 3647 3509 3647 2328 
Q 3647 1150 3233 529 
Q 2819 -91 2034 -91 
Q 1250 -91 836 529 
Q 422 1150 422 2328 
Q 422 3509 836 4129 
Q 1250 4750 2034 4750 
z
" transform="scale(0.015625)"/>
       </defs>
       <use xlink:href="#DejaVuSans-30"/>
      </g>
     </g>
    </g>
    <g id="xtick_2">
     <g id="line2d_2">
      <g>
       <use xlink:href="#m18eb17a8dd" x="139.024403" y="307.584" style="stroke: #000000; stroke-width: 0.8"/>
      </g>
     </g>
     <g id="text_2">
      <!-- 50 -->
      <g transform="translate(132.661903 322.182437) scale(0.1 -0.1)">
       <defs>
        <path id="DejaVuSans-35" d="M 691 4666 
L 3169 4666 
L 3169 4134 
L 1269 4134 
L 1269 2991 
Q 1406 3038 1543 3061 
Q 1681 3084 1819 3084 
Q 2600 3084 3056 2656 
Q 3513 2228 3513 1497 
Q 3513 744 3044 326 
Q 2575 -91 1722 -91 
Q 1428 -91 1123 -41 
Q 819 9 494 109 
L 494 744 
Q 775 591 1075 516 
Q 1375 441 1709 441 
Q 2250 441 2565 725 
Q 2881 1009 2881 1497 
Q 2881 1984 2565 2268 
Q 2250 2553 1709 2553 
Q 1456 2553 1204 2497 
Q 953 2441 691 2322 
L 691 4666 
z
" transform="scale(0.015625)"/>
       </defs>
       <use xlink:href="#DejaVuSans-35"/>
       <use xlink:href="#DejaVuSans-30" x="63.623047"/>
      </g>
     </g>
    </g>
    <g id="xtick_3">
     <g id="line2d_3">
      <g>
       <use xlink:href="#m18eb17a8dd" x="204.216079" y="307.584" style="stroke: #000000; stroke-width: 0.8"/>
      </g>
     </g>
     <g id="text_3">
      <!-- 100 -->
      <g transform="translate(194.672329 322.182437) scale(0.1 -0.1)">
       <defs>
        <path id="DejaVuSans-31" d="M 794 531 
L 1825 531 
L 1825 4091 
L 703 3866 
L 703 4441 
L 1819 4666 
L 2450 4666 
L 2450 531 
L 3481 531 
L 3481 0 
L 794 0 
L 794 531 
z
" transform="scale(0.015625)"/>
       </defs>
       <use xlink:href="#DejaVuSans-31"/>
       <use xlink:href="#DejaVuSans-30" x="63.623047"/>
       <use xlink:href="#DejaVuSans-30" x="127.246094"/>
      </g>
     </g>
    </g>
    <g id="xtick_4">
     <g id="line2d_4">
      <g>
       <use xlink:href="#m18eb17a8dd" x="269.407755" y="307.584" style="stroke: #000000; stroke-width: 0.8"/>
      </g>
     </g>
     <g id="text_4">
      <!-- 150 -->
      <g transform="translate(259.864005 322.182437) scale(0.1 -0.1)">
       <use xlink:href="#DejaVuSans-31"/>
       <use xlink:href="#DejaVuSans-35" x="63.623047"/>
       <use xlink:href="#DejaVuSans-30" x="127.246094"/>
      </g>
     </g>
    </g>
    <g id="xtick_5">
     <g id="line2d_5">
      <g>
       <use xlink:href="#m18eb17a8dd" x="334.59943" y="307.584" style="stroke: #000000; stroke-width: 0.8"/>
      </g>
     </g>
     <g id="text_5">
      <!-- 200 -->
      <g transform="translate(325.05568 322.182437) scale(0.1 -0.1)">
       <defs>
        <path id="DejaVuSans-32" d="M 1228 531 
L 3431 531 
L 3431 0 
L 469 0 
L 469 531 
Q 828 903 1448 1529 
Q 2069 2156 2228 2338 
Q 2531 2678 2651 2914 
Q 2772 3150 2772 3378 
Q 2772 3750 2511 3984 
Q 2250 4219 1831 4219 
Q 1534 4219 1204 4116 
Q 875 4013 500 3803 
L 500 4441 
Q 881 4594 1212 4672 
Q 1544 4750 1819 4750 
Q 2544 4750 2975 4387 
Q 3406 4025 3406 3419 
Q 3406 3131 3298 2873 
Q 3191 2616 2906 2266 
Q 2828 2175 2409 1742 
Q 1991 1309 1228 531 
z
" transform="scale(0.015625)"/>
       </defs>
       <use xlink:href="#DejaVuSans-32"/>
       <use xlink:href="#DejaVuSans-30" x="63.623047"/>
       <use xlink:href="#DejaVuSans-30" x="127.246094"/>
      </g>
     </g>
    </g>
    <g id="xtick_6">
     <g id="line2d_6">
      <g>
       <use xlink:href="#m18eb17a8dd" x="399.791106" y="307.584" style="stroke: #000000; stroke-width: 0.8"/>
      </g>
     </g>
     <g id="text_6">
      <!-- 250 -->
      <g transform="translate(390.247356 322.182437) scale(0.1 -0.1)">
       <use xlink:href="#DejaVuSans-32"/>
       <use xlink:href="#DejaVuSans-35" x="63.623047"/>
       <use xlink:href="#DejaVuSans-30" x="127.246094"/>
      </g>
     </g>
    </g>
   </g>
   <g id="matplotlib.axis_2">
    <g id="ytick_1">
     <g id="line2d_7">
      <defs>
       <path id="m3d4a4be384" d="M 0 0 
L -3.5 0 
" style="stroke: #000000; stroke-width: 0.8"/>
      </defs>
      <g>
       <use xlink:href="#m3d4a4be384" x="57.6" y="296.411939" style="stroke: #000000; stroke-width: 0.8"/>
      </g>
     </g>
     <g id="text_7">
      <!-- 0.0 -->
      <g transform="translate(34.696875 300.211158) scale(0.1 -0.1)">
       <defs>
        <path id="DejaVuSans-2e" d="M 684 794 
L 1344 794 
L 1344 0 
L 684 0 
L 684 794 
z
" transform="scale(0.015625)"/>
       </defs>
       <use xlink:href="#DejaVuSans-30"/>
       <use xlink:href="#DejaVuSans-2e" x="63.623047"/>
       <use xlink:href="#DejaVuSans-30" x="95.410156"/>
      </g>
     </g>
    </g>
    <g id="ytick_2">
     <g id="line2d_8">
      <g>
       <use xlink:href="#m3d4a4be384" x="57.6" y="239.971204" style="stroke: #000000; stroke-width: 0.8"/>
      </g>
     </g>
     <g id="text_8">
      <!-- 0.2 -->
      <g transform="translate(34.696875 243.770423) scale(0.1 -0.1)">
       <use xlink:href="#DejaVuSans-30"/>
       <use xlink:href="#DejaVuSans-2e" x="63.623047"/>
       <use xlink:href="#DejaVuSans-32" x="95.410156"/>
      </g>
     </g>
    </g>
    <g id="ytick_3">
     <g id="line2d_9">
      <g>
       <use xlink:href="#m3d4a4be384" x="57.6" y="183.530469" style="stroke: #000000; stroke-width: 0.8"/>
      </g>
     </g>
     <g id="text_9">
      <!-- 0.4 -->
      <g transform="translate(34.696875 187.329687) scale(0.1 -0.1)">
       <defs>
        <path id="DejaVuSans-34" d="M 2419 4116 
L 825 1625 
L 2419 1625 
L 2419 4116 
z
M 2253 4666 
L 3047 4666 
L 3047 1625 
L 3713 1625 
L 3713 1100 
L 3047 1100 
L 3047 0 
L 2419 0 
L 2419 1100 
L 313 1100 
L 313 1709 
L 2253 4666 
z
" transform="scale(0.015625)"/>
       </defs>
       <use xlink:href="#DejaVuSans-30"/>
       <use xlink:href="#DejaVuSans-2e" x="63.623047"/>
       <use xlink:href="#DejaVuSans-34" x="95.410156"/>
      </g>
     </g>
    </g>
    <g id="ytick_4">
     <g id="line2d_10">
      <g>
       <use xlink:href="#m3d4a4be384" x="57.6" y="127.089733" style="stroke: #000000; stroke-width: 0.8"/>
      </g>
     </g>
     <g id="text_10">
      <!-- 0.6 -->
      <g transform="translate(34.696875 130.888952) scale(0.1 -0.1)">
       <defs>
        <path id="DejaVuSans-36" d="M 2113 2584 
Q 1688 2584 1439 2293 
Q 1191 2003 1191 1497 
Q 1191 994 1439 701 
Q 1688 409 2113 409 
Q 2538 409 2786 701 
Q 3034 994 3034 1497 
Q 3034 2003 2786 2293 
Q 2538 2584 2113 2584 
z
M 3366 4563 
L 3366 3988 
Q 3128 4100 2886 4159 
Q 2644 4219 2406 4219 
Q 1781 4219 1451 3797 
Q 1122 3375 1075 2522 
Q 1259 2794 1537 2939 
Q 1816 3084 2150 3084 
Q 2853 3084 3261 2657 
Q 3669 2231 3669 1497 
Q 3669 778 3244 343 
Q 2819 -91 2113 -91 
Q 1303 -91 875 529 
Q 447 1150 447 2328 
Q 447 3434 972 4092 
Q 1497 4750 2381 4750 
Q 2619 4750 2861 4703 
Q 3103 4656 3366 4563 
z
" transform="scale(0.015625)"/>
       </defs>
       <use xlink:href="#DejaVuSans-30"/>
       <use xlink:href="#DejaVuSans-2e" x="63.623047"/>
       <use xlink:href="#DejaVuSans-36" x="95.410156"/>
      </g>
     </g>
    </g>
    <g id="ytick_5">
     <g id="line2d_11">
      <g>
       <use xlink:href="#m3d4a4be384" x="57.6" y="70.648998" style="stroke: #000000; stroke-width: 0.8"/>
      </g>
     </g>
     <g id="text_11">
      <!-- 0.8 -->
      <g transform="translate(34.696875 74.448217) scale(0.1 -0.1)">
       <defs>
        <path id="DejaVuSans-38" d="M 2034 2216 
Q 1584 2216 1326 1975 
Q 1069 1734 1069 1313 
Q 1069 891 1326 650 
Q 1584 409 2034 409 
Q 2484 409 2743 651 
Q 3003 894 3003 1313 
Q 3003 1734 2745 1975 
Q 2488 2216 2034 2216 
z
M 1403 2484 
Q 997 2584 770 2862 
Q 544 3141 544 3541 
Q 544 4100 942 4425 
Q 1341 4750 2034 4750 
Q 2731 4750 3128 4425 
Q 3525 4100 3525 3541 
Q 3525 3141 3298 2862 
Q 3072 2584 2669 2484 
Q 3125 2378 3379 2068 
Q 3634 1759 3634 1313 
Q 3634 634 3220 271 
Q 2806 -91 2034 -91 
Q 1263 -91 848 271 
Q 434 634 434 1313 
Q 434 1759 690 2068 
Q 947 2378 1403 2484 
z
M 1172 3481 
Q 1172 3119 1398 2916 
Q 1625 2713 2034 2713 
Q 2441 2713 2670 2916 
Q 2900 3119 2900 3481 
Q 2900 3844 2670 4047 
Q 2441 4250 2034 4250 
Q 1625 4250 1398 4047 
Q 1172 3844 1172 3481 
z
" transform="scale(0.015625)"/>
       </defs>
       <use xlink:href="#DejaVuSans-30"/>
       <use xlink:href="#DejaVuSans-2e" x="63.623047"/>
       <use xlink:href="#DejaVuSans-38" x="95.410156"/>
      </g>
     </g>
    </g>
   </g>
   <g id="line2d_12">
    <path d="M 73.832727 53.568 
L 75.136561 148.770393 
L 76.440394 164.673081 
L 77.744228 173.43546 
L 79.048061 179.454709 
L 80.351895 184.482058 
L 81.655728 188.558078 
L 82.959562 191.23988 
L 84.263395 195.197792 
L 85.567229 197.617963 
L 86.871062 199.530501 
L 89.478729 203.981292 
L 90.782563 204.949081 
L 92.086396 207.351475 
L 93.39023 209.449738 
L 94.694064 211.011234 
L 95.997897 212.233002 
L 98.605564 215.207974 
L 101.213231 218.592987 
L 102.517065 219.743697 
L 103.820898 220.44733 
L 105.124732 222.413716 
L 106.428565 223.270012 
L 107.732399 224.897347 
L 111.643899 227.679964 
L 112.947733 229.253106 
L 114.251566 230.349025 
L 115.5554 230.861603 
L 116.859233 231.639729 
L 118.163067 233.176078 
L 119.4669 233.976544 
L 120.770734 234.990992 
L 122.074567 236.196253 
L 124.682234 237.50401 
L 125.986068 238.611464 
L 127.289901 239.271543 
L 128.593735 240.454377 
L 129.897568 241.009705 
L 131.201402 242.124731 
L 132.505235 242.424789 
L 133.809069 243.786547 
L 135.112903 244.868287 
L 136.416736 245.107456 
L 137.72057 246.059522 
L 139.024403 246.491676 
L 140.328237 247.549425 
L 141.63207 248.325483 
L 142.935904 248.970838 
L 144.239737 249.858386 
L 145.543571 250.427241 
L 146.847404 250.849411 
L 148.151238 251.390065 
L 149.455071 252.85199 
L 150.758905 253.021917 
L 152.062738 253.801367 
L 153.366572 254.748192 
L 155.974239 255.81353 
L 158.581906 257.374807 
L 161.189573 258.186573 
L 162.493406 258.726922 
L 163.79724 259.472239 
L 165.101073 259.454343 
L 166.404907 260.501371 
L 167.70874 261.336384 
L 170.316407 262.420306 
L 171.620241 262.590046 
L 172.924074 262.952059 
L 174.227908 264.190411 
L 175.531742 264.285184 
L 176.835575 265.060185 
L 178.139409 265.105908 
L 179.443242 265.980109 
L 182.050909 267.034293 
L 184.658576 267.94092 
L 185.96241 268.884766 
L 187.266243 268.92046 
L 188.570077 269.157453 
L 189.87391 269.852601 
L 191.177744 269.946422 
L 192.481577 270.996312 
L 193.785411 270.790581 
L 195.089244 271.301795 
L 196.393078 271.935417 
L 197.696911 271.926858 
L 199.000745 272.699584 
L 200.304578 273.243183 
L 201.608412 273.427725 
L 202.912245 273.488653 
L 204.216079 274.105455 
L 205.519912 275.067784 
L 206.823746 275.106706 
L 208.127579 275.280705 
L 209.431413 275.90671 
L 212.03908 276.591687 
L 213.342913 276.692452 
L 214.646747 277.087461 
L 215.950581 277.331541 
L 217.254414 278.054489 
L 218.558248 278.248061 
L 219.862081 278.844898 
L 221.165915 278.900648 
L 222.469748 279.44415 
L 223.773582 279.509186 
L 225.077415 279.97063 
L 226.381249 280.083521 
L 227.685082 280.742075 
L 228.988916 280.742161 
L 231.596583 281.12938 
L 232.900416 281.749597 
L 234.20425 281.782421 
L 235.508083 282.213859 
L 236.811917 282.347148 
L 238.11575 282.828737 
L 239.419584 282.46464 
L 240.723417 283.458254 
L 242.027251 282.875031 
L 243.331084 283.252377 
L 244.634918 283.924115 
L 248.546418 284.447881 
L 249.850252 285.085705 
L 251.154085 285.058776 
L 255.065586 285.625298 
L 256.369419 286.06964 
L 257.673253 285.752854 
L 258.977087 285.896616 
L 260.28092 286.644149 
L 261.584754 286.555619 
L 262.888587 287.008534 
L 264.192421 287.094999 
L 266.800088 287.560198 
L 268.103921 287.624619 
L 269.407755 287.874505 
L 270.711588 287.995598 
L 273.319255 288.569533 
L 274.623089 288.443047 
L 275.926922 288.817358 
L 278.534589 289.086214 
L 279.838423 288.970924 
L 283.749923 289.723579 
L 285.053757 289.842724 
L 286.35759 289.824826 
L 287.661424 290.071678 
L 294.180591 290.521354 
L 295.484425 290.335645 
L 296.788258 290.773315 
L 299.395926 291.20954 
L 302.003593 291.406433 
L 304.61126 291.691389 
L 305.915093 291.533119 
L 307.218927 291.642386 
L 308.52276 291.596769 
L 309.826594 291.983142 
L 312.434261 291.839341 
L 313.738094 292.407331 
L 318.953428 292.61039 
L 320.257262 292.87753 
L 325.472596 292.799271 
L 326.776429 292.792656 
L 328.080263 293.148416 
L 329.384096 293.268435 
L 331.991763 293.346958 
L 339.814765 293.738686 
L 341.118598 293.489915 
L 343.726265 294.087594 
L 346.333932 294.030663 
L 348.941599 294.187986 
L 351.549266 293.585995 
L 352.8531 294.075737 
L 354.156933 294.156061 
L 356.7646 294.482482 
L 361.979934 294.675219 
L 363.283768 294.573616 
L 372.410602 294.980158 
L 373.714436 294.900172 
L 380.233604 295.075737 
L 381.537437 294.957229 
L 382.841271 294.960707 
L 384.145104 295.185653 
L 389.360438 295.352329 
L 397.183439 295.416784 
L 398.487273 295.488 
L 398.487273 295.488 
" clip-path="url(#p48d2b11269)" style="fill: none; stroke: #1f77b4; stroke-width: 1.5; stroke-linecap: square"/>
   </g>
   <g id="line2d_13">
    <path d="M 73.832727 128.487036 
L 75.136561 151.412306 
L 76.440394 162.05527 
L 77.744228 166.436138 
L 79.048061 172.782044 
L 80.351895 176.199441 
L 81.655728 179.180987 
L 82.959562 180.765625 
L 84.263395 183.025133 
L 85.567229 184.086402 
L 86.871062 187.31285 
L 88.174896 189.334809 
L 89.478729 188.385534 
L 90.782563 190.796391 
L 92.086396 192.313629 
L 93.39023 193.202257 
L 94.694064 193.669772 
L 95.997897 195.771488 
L 97.301731 197.134261 
L 98.605564 197.383945 
L 99.909398 197.901775 
L 101.213231 200.115672 
L 102.517065 198.233077 
L 103.820898 201.211718 
L 105.124732 200.46376 
L 106.428565 202.033573 
L 107.732399 202.226036 
L 109.036232 203.490139 
L 110.340066 203.70278 
L 111.643899 204.038459 
L 112.947733 203.159739 
L 114.251566 204.156875 
L 115.5554 204.039407 
L 116.859233 205.015881 
L 118.163067 204.284601 
L 119.4669 205.918395 
L 120.770734 206.153856 
L 122.074567 207.014743 
L 123.378401 206.667859 
L 124.682234 205.228778 
L 125.986068 206.39641 
L 128.593735 207.179822 
L 129.897568 207.133053 
L 131.201402 206.934215 
L 132.505235 206.971505 
L 133.809069 207.315145 
L 135.112903 208.714203 
L 136.416736 207.425681 
L 137.72057 208.655034 
L 139.024403 209.010561 
L 140.328237 207.901631 
L 141.63207 207.559931 
L 144.239737 209.648141 
L 145.543571 208.525196 
L 146.847404 208.481592 
L 148.151238 206.369084 
L 149.455071 209.033697 
L 150.758905 207.697709 
L 152.062738 208.960498 
L 153.366572 209.219355 
L 154.670405 206.998062 
L 155.974239 207.987422 
L 157.278072 208.671707 
L 158.581906 206.85276 
L 159.885739 207.262352 
L 161.189573 207.475389 
L 162.493406 207.227281 
L 163.79724 205.617428 
L 165.101073 207.487817 
L 166.404907 206.627079 
L 167.70874 206.991207 
L 169.012574 207.721289 
L 170.316407 205.648103 
L 171.620241 205.598176 
L 172.924074 207.013418 
L 174.227908 206.182434 
L 175.531742 206.447149 
L 176.835575 206.204875 
L 178.139409 206.126831 
L 179.443242 205.157153 
L 180.747076 205.346651 
L 182.050909 203.67704 
L 184.658576 205.110093 
L 187.266243 204.115975 
L 188.570077 205.276877 
L 189.87391 203.717609 
L 191.177744 204.257793 
L 192.481577 203.641778 
L 193.785411 203.977839 
L 195.089244 203.986242 
L 196.393078 203.004065 
L 197.696911 202.919385 
L 199.000745 202.349831 
L 200.304578 202.496528 
L 201.608412 199.942808 
L 202.912245 202.904703 
L 205.519912 201.673473 
L 206.823746 202.149259 
L 208.127579 200.084959 
L 209.431413 200.292499 
L 210.735246 201.607985 
L 212.03908 200.058432 
L 213.342913 199.885189 
L 214.646747 197.979998 
L 215.950581 199.003412 
L 217.254414 198.546439 
L 218.558248 198.88956 
L 219.862081 198.474922 
L 221.165915 198.851927 
L 222.469748 198.090482 
L 223.773582 196.33441 
L 225.077415 197.826813 
L 226.381249 196.626604 
L 227.685082 196.876908 
L 228.988916 196.470764 
L 230.292749 196.624738 
L 231.596583 195.638744 
L 232.900416 195.057681 
L 234.20425 195.005936 
L 235.508083 194.0547 
L 236.811917 194.816486 
L 238.11575 193.227318 
L 239.419584 193.553891 
L 240.723417 193.689331 
L 242.027251 193.370783 
L 243.331084 192.650703 
L 244.634918 192.144394 
L 245.938751 192.321457 
L 247.242585 188.823407 
L 248.546418 191.285697 
L 249.850252 191.306323 
L 251.154085 189.762102 
L 252.457919 189.651771 
L 255.065586 190.329072 
L 256.369419 189.178984 
L 257.673253 189.656422 
L 258.977087 188.565563 
L 260.28092 189.295278 
L 261.584754 187.592288 
L 262.888587 187.477136 
L 264.192421 185.537183 
L 265.496254 187.186492 
L 266.800088 187.279711 
L 268.103921 185.242266 
L 269.407755 185.654152 
L 270.711588 185.20159 
L 272.015422 185.076258 
L 273.319255 183.22662 
L 274.623089 184.96828 
L 275.926922 184.302737 
L 277.230756 183.011785 
L 278.534589 182.427336 
L 279.838423 183.033762 
L 281.142256 181.783853 
L 282.44609 182.026502 
L 283.749923 180.567354 
L 285.053757 181.333735 
L 286.35759 180.968762 
L 287.661424 181.503262 
L 288.965257 178.713775 
L 291.572924 178.693897 
L 292.876758 177.337438 
L 294.180591 177.640102 
L 296.788258 177.40135 
L 298.092092 177.959024 
L 299.395926 176.189719 
L 300.699759 176.366172 
L 302.003593 175.401716 
L 304.61126 175.518744 
L 305.915093 171.671041 
L 307.218927 173.429835 
L 308.52276 172.786556 
L 309.826594 173.416499 
L 311.130427 172.18767 
L 312.434261 173.310415 
L 313.738094 172.381182 
L 315.041928 171.649551 
L 316.345761 172.140571 
L 317.649595 170.420127 
L 318.953428 171.487216 
L 320.257262 170.146345 
L 321.561095 170.12028 
L 322.864929 169.446141 
L 324.168762 167.430228 
L 325.472596 167.360025 
L 326.776429 168.285581 
L 328.080263 166.813923 
L 329.384096 166.202051 
L 330.68793 167.552766 
L 331.991763 166.205854 
L 333.295597 166.379394 
L 334.59943 165.467049 
L 335.903264 166.055963 
L 337.207097 162.834115 
L 338.510931 164.567364 
L 339.814765 163.994959 
L 341.118598 162.219757 
L 342.422432 163.239179 
L 343.726265 163.49957 
L 345.030099 161.453921 
L 346.333932 161.860779 
L 347.637766 161.639918 
L 348.941599 161.005598 
L 350.245433 159.30536 
L 352.8531 159.578015 
L 354.156933 159.147672 
L 355.460767 158.868163 
L 356.7646 159.124257 
L 358.068434 158.312767 
L 359.372267 158.509256 
L 360.676101 157.253906 
L 361.979934 156.512821 
L 363.283768 156.657394 
L 364.587601 156.277108 
L 365.891435 154.939208 
L 367.195268 155.802496 
L 368.499102 154.476649 
L 369.802935 154.138789 
L 371.106769 153.948961 
L 372.410602 154.164459 
L 373.714436 152.468963 
L 375.018269 152.117162 
L 376.322103 151.60213 
L 377.625936 152.064599 
L 378.92977 152.100793 
L 380.233604 151.440419 
L 381.537437 150.06221 
L 382.841271 150.714318 
L 384.145104 148.923827 
L 385.448938 148.373908 
L 386.752771 148.250159 
L 388.056605 148.75539 
L 389.360438 147.588015 
L 390.664272 146.638406 
L 391.968105 148.621172 
L 393.271939 146.194267 
L 394.575772 144.515109 
L 395.879606 145.557098 
L 397.183439 145.427803 
L 398.487273 144.498573 
L 398.487273 144.498573 
" clip-path="url(#p48d2b11269)" style="fill: none; stroke: #ff7f0e; stroke-width: 1.5; stroke-linecap: square"/>
   </g>
   <g id="patch_3">
    <path d="M 57.6 307.584 
L 57.6 41.472 
" style="fill: none; stroke: #000000; stroke-width: 0.8; stroke-linejoin: miter; stroke-linecap: square"/>
   </g>
   <g id="patch_4">
    <path d="M 414.72 307.584 
L 414.72 41.472 
" style="fill: none; stroke: #000000; stroke-width: 0.8; stroke-linejoin: miter; stroke-linecap: square"/>
   </g>
   <g id="patch_5">
    <path d="M 57.6 307.584 
L 414.72 307.584 
" style="fill: none; stroke: #000000; stroke-width: 0.8; stroke-linejoin: miter; stroke-linecap: square"/>
   </g>
   <g id="patch_6">
    <path d="M 57.6 41.472 
L 414.72 41.472 
" style="fill: none; stroke: #000000; stroke-width: 0.8; stroke-linejoin: miter; stroke-linecap: square"/>
   </g>
   <g id="legend_1">
    <g id="patch_7">
     <path d="M 316.766875 79.3845 
L 407.72 79.3845 
Q 409.72 79.3845 409.72 77.3845 
L 409.72 48.472 
Q 409.72 46.472 407.72 46.472 
L 316.766875 46.472 
Q 314.766875 46.472 314.766875 48.472 
L 314.766875 77.3845 
Q 314.766875 79.3845 316.766875 79.3845 
z
" style="fill: #ffffff; opacity: 0.8; stroke: #cccccc; stroke-linejoin: miter"/>
    </g>
    <g id="line2d_14">
     <path d="M 318.766875 54.570438 
L 328.766875 54.570438 
L 338.766875 54.570438 
" style="fill: none; stroke: #1f77b4; stroke-width: 1.5; stroke-linecap: square"/>
    </g>
    <g id="text_12">
     <!-- train_losses -->
     <g transform="translate(346.766875 58.070438) scale(0.1 -0.1)">
      <defs>
       <path id="DejaVuSans-74" d="M 1172 4494 
L 1172 3500 
L 2356 3500 
L 2356 3053 
L 1172 3053 
L 1172 1153 
Q 1172 725 1289 603 
Q 1406 481 1766 481 
L 2356 481 
L 2356 0 
L 1766 0 
Q 1100 0 847 248 
Q 594 497 594 1153 
L 594 3053 
L 172 3053 
L 172 3500 
L 594 3500 
L 594 4494 
L 1172 4494 
z
" transform="scale(0.015625)"/>
       <path id="DejaVuSans-72" d="M 2631 2963 
Q 2534 3019 2420 3045 
Q 2306 3072 2169 3072 
Q 1681 3072 1420 2755 
Q 1159 2438 1159 1844 
L 1159 0 
L 581 0 
L 581 3500 
L 1159 3500 
L 1159 2956 
Q 1341 3275 1631 3429 
Q 1922 3584 2338 3584 
Q 2397 3584 2469 3576 
Q 2541 3569 2628 3553 
L 2631 2963 
z
" transform="scale(0.015625)"/>
       <path id="DejaVuSans-61" d="M 2194 1759 
Q 1497 1759 1228 1600 
Q 959 1441 959 1056 
Q 959 750 1161 570 
Q 1363 391 1709 391 
Q 2188 391 2477 730 
Q 2766 1069 2766 1631 
L 2766 1759 
L 2194 1759 
z
M 3341 1997 
L 3341 0 
L 2766 0 
L 2766 531 
Q 2569 213 2275 61 
Q 1981 -91 1556 -91 
Q 1019 -91 701 211 
Q 384 513 384 1019 
Q 384 1609 779 1909 
Q 1175 2209 1959 2209 
L 2766 2209 
L 2766 2266 
Q 2766 2663 2505 2880 
Q 2244 3097 1772 3097 
Q 1472 3097 1187 3025 
Q 903 2953 641 2809 
L 641 3341 
Q 956 3463 1253 3523 
Q 1550 3584 1831 3584 
Q 2591 3584 2966 3190 
Q 3341 2797 3341 1997 
z
" transform="scale(0.015625)"/>
       <path id="DejaVuSans-69" d="M 603 3500 
L 1178 3500 
L 1178 0 
L 603 0 
L 603 3500 
z
M 603 4863 
L 1178 4863 
L 1178 4134 
L 603 4134 
L 603 4863 
z
" transform="scale(0.015625)"/>
       <path id="DejaVuSans-6e" d="M 3513 2113 
L 3513 0 
L 2938 0 
L 2938 2094 
Q 2938 2591 2744 2837 
Q 2550 3084 2163 3084 
Q 1697 3084 1428 2787 
Q 1159 2491 1159 1978 
L 1159 0 
L 581 0 
L 581 3500 
L 1159 3500 
L 1159 2956 
Q 1366 3272 1645 3428 
Q 1925 3584 2291 3584 
Q 2894 3584 3203 3211 
Q 3513 2838 3513 2113 
z
" transform="scale(0.015625)"/>
       <path id="DejaVuSans-5f" d="M 3263 -1063 
L 3263 -1509 
L -63 -1509 
L -63 -1063 
L 3263 -1063 
z
" transform="scale(0.015625)"/>
       <path id="DejaVuSans-6c" d="M 603 4863 
L 1178 4863 
L 1178 0 
L 603 0 
L 603 4863 
z
" transform="scale(0.015625)"/>
       <path id="DejaVuSans-6f" d="M 1959 3097 
Q 1497 3097 1228 2736 
Q 959 2375 959 1747 
Q 959 1119 1226 758 
Q 1494 397 1959 397 
Q 2419 397 2687 759 
Q 2956 1122 2956 1747 
Q 2956 2369 2687 2733 
Q 2419 3097 1959 3097 
z
M 1959 3584 
Q 2709 3584 3137 3096 
Q 3566 2609 3566 1747 
Q 3566 888 3137 398 
Q 2709 -91 1959 -91 
Q 1206 -91 779 398 
Q 353 888 353 1747 
Q 353 2609 779 3096 
Q 1206 3584 1959 3584 
z
" transform="scale(0.015625)"/>
       <path id="DejaVuSans-73" d="M 2834 3397 
L 2834 2853 
Q 2591 2978 2328 3040 
Q 2066 3103 1784 3103 
Q 1356 3103 1142 2972 
Q 928 2841 928 2578 
Q 928 2378 1081 2264 
Q 1234 2150 1697 2047 
L 1894 2003 
Q 2506 1872 2764 1633 
Q 3022 1394 3022 966 
Q 3022 478 2636 193 
Q 2250 -91 1575 -91 
Q 1294 -91 989 -36 
Q 684 19 347 128 
L 347 722 
Q 666 556 975 473 
Q 1284 391 1588 391 
Q 1994 391 2212 530 
Q 2431 669 2431 922 
Q 2431 1156 2273 1281 
Q 2116 1406 1581 1522 
L 1381 1569 
Q 847 1681 609 1914 
Q 372 2147 372 2553 
Q 372 3047 722 3315 
Q 1072 3584 1716 3584 
Q 2034 3584 2315 3537 
Q 2597 3491 2834 3397 
z
" transform="scale(0.015625)"/>
       <path id="DejaVuSans-65" d="M 3597 1894 
L 3597 1613 
L 953 1613 
Q 991 1019 1311 708 
Q 1631 397 2203 397 
Q 2534 397 2845 478 
Q 3156 559 3463 722 
L 3463 178 
Q 3153 47 2828 -22 
Q 2503 -91 2169 -91 
Q 1331 -91 842 396 
Q 353 884 353 1716 
Q 353 2575 817 3079 
Q 1281 3584 2069 3584 
Q 2775 3584 3186 3129 
Q 3597 2675 3597 1894 
z
M 3022 2063 
Q 3016 2534 2758 2815 
Q 2500 3097 2075 3097 
Q 1594 3097 1305 2825 
Q 1016 2553 972 2059 
L 3022 2063 
z
" transform="scale(0.015625)"/>
      </defs>
      <use xlink:href="#DejaVuSans-74"/>
      <use xlink:href="#DejaVuSans-72" x="39.208984"/>
      <use xlink:href="#DejaVuSans-61" x="80.322266"/>
      <use xlink:href="#DejaVuSans-69" x="141.601562"/>
      <use xlink:href="#DejaVuSans-6e" x="169.384766"/>
      <use xlink:href="#DejaVuSans-5f" x="232.763672"/>
      <use xlink:href="#DejaVuSans-6c" x="282.763672"/>
      <use xlink:href="#DejaVuSans-6f" x="310.546875"/>
      <use xlink:href="#DejaVuSans-73" x="371.728516"/>
      <use xlink:href="#DejaVuSans-73" x="423.828125"/>
      <use xlink:href="#DejaVuSans-65" x="475.927734"/>
      <use xlink:href="#DejaVuSans-73" x="537.451172"/>
     </g>
    </g>
    <g id="line2d_15">
     <path d="M 318.766875 69.526688 
L 328.766875 69.526688 
L 338.766875 69.526688 
" style="fill: none; stroke: #ff7f0e; stroke-width: 1.5; stroke-linecap: square"/>
    </g>
    <g id="text_13">
     <!-- test_losses -->
     <g transform="translate(346.766875 73.026688) scale(0.1 -0.1)">
      <use xlink:href="#DejaVuSans-74"/>
      <use xlink:href="#DejaVuSans-65" x="39.208984"/>
      <use xlink:href="#DejaVuSans-73" x="100.732422"/>
      <use xlink:href="#DejaVuSans-74" x="152.832031"/>
      <use xlink:href="#DejaVuSans-5f" x="192.041016"/>
      <use xlink:href="#DejaVuSans-6c" x="242.041016"/>
      <use xlink:href="#DejaVuSans-6f" x="269.824219"/>
      <use xlink:href="#DejaVuSans-73" x="331.005859"/>
      <use xlink:href="#DejaVuSans-73" x="383.105469"/>
      <use xlink:href="#DejaVuSans-65" x="435.205078"/>
      <use xlink:href="#DejaVuSans-73" x="496.728516"/>
     </g>
    </g>
   </g>
  </g>
 </g>
 <defs>
  <clipPath id="p48d2b11269">
   <rect x="57.6" y="41.472" width="357.12" height="266.112"/>
  </clipPath>
 </defs>
</svg>
