<?xml version="1.0" encoding="utf-8" standalone="no"?>
<!DOCTYPE svg PUBLIC "-//W3C//DTD SVG 1.1//EN"
  "http://www.w3.org/Graphics/SVG/1.1/DTD/svg11.dtd">
<svg xmlns:xlink="http://www.w3.org/1999/xlink" width="460.8pt" height="345.6pt" viewBox="0 0 460.8 345.6" xmlns="http://www.w3.org/2000/svg" version="1.1">
 <metadata>
  <rdf:RDF xmlns:dc="http://purl.org/dc/elements/1.1/" xmlns:cc="http://creativecommons.org/ns#" xmlns:rdf="http://www.w3.org/1999/02/22-rdf-syntax-ns#">
   <cc:Work>
    <dc:type rdf:resource="http://purl.org/dc/dcmitype/StillImage"/>
    <dc:date>2023-10-29T20:17:48.881539</dc:date>
    <dc:format>image/svg+xml</dc:format>
    <dc:creator>
     <cc:Agent>
      <dc:title>Matplotlib v3.8.0, https://matplotlib.org/</dc:title>
     </cc:Agent>
    </dc:creator>
   </cc:Work>
  </rdf:RDF>
 </metadata>
 <defs>
  <style type="text/css">*{stroke-linejoin: round; stroke-linecap: butt}</style>
 </defs>
 <g id="figure_1">
  <g id="patch_1">
   <path d="M 0 345.6 
L 460.8 345.6 
L 460.8 0 
L 0 0 
z
" style="fill: #ffffff"/>
  </g>
  <g id="axes_1">
   <g id="patch_2">
    <path d="M 57.6 307.584 
L 414.72 307.584 
L 414.72 41.472 
L 57.6 41.472 
z
" style="fill: #ffffff"/>
   </g>
   <g id="matplotlib.axis_1">
    <g id="xtick_1">
     <g id="line2d_1">
      <defs>
       <path id="m0948b995eb" d="M 0 0 
L 0 3.5 
" style="stroke: #000000; stroke-width: 0.8"/>
      </defs>
      <g>
       <use xlink:href="#m0948b995eb" x="73.832727" y="307.584" style="stroke: #000000; stroke-width: 0.8"/>
      </g>
     </g>
     <g id="text_1">
      <!-- 0 -->
      <g transform="translate(70.651477 322.182437) scale(0.1 -0.1)">
       <defs>
        <path id="DejaVuSans-30" d="M 2034 4250 
Q 1547 4250 1301 3770 
Q 1056 3291 1056 2328 
Q 1056 1369 1301 889 
Q 1547 409 2034 409 
Q 2525 409 2770 889 
Q 3016 1369 3016 2328 
Q 3016 3291 2770 3770 
Q 2525 4250 2034 4250 
z
M 2034 4750 
Q 2819 4750 3233 4129 
Q 3647 3509 3647 2328 
Q 3647 1150 3233 529 
Q 2819 -91 2034 -91 
Q 1250 -91 836 529 
Q 422 1150 422 2328 
Q 422 3509 836 4129 
Q 1250 4750 2034 4750 
z
" transform="scale(0.015625)"/>
       </defs>
       <use xlink:href="#DejaVuSans-30"/>
      </g>
     </g>
    </g>
    <g id="xtick_2">
     <g id="line2d_2">
      <g>
       <use xlink:href="#m0948b995eb" x="139.024403" y="307.584" style="stroke: #000000; stroke-width: 0.8"/>
      </g>
     </g>
     <g id="text_2">
      <!-- 50 -->
      <g transform="translate(132.661903 322.182437) scale(0.1 -0.1)">
       <defs>
        <path id="DejaVuSans-35" d="M 691 4666 
L 3169 4666 
L 3169 4134 
L 1269 4134 
L 1269 2991 
Q 1406 3038 1543 3061 
Q 1681 3084 1819 3084 
Q 2600 3084 3056 2656 
Q 3513 2228 3513 1497 
Q 3513 744 3044 326 
Q 2575 -91 1722 -91 
Q 1428 -91 1123 -41 
Q 819 9 494 109 
L 494 744 
Q 775 591 1075 516 
Q 1375 441 1709 441 
Q 2250 441 2565 725 
Q 2881 1009 2881 1497 
Q 2881 1984 2565 2268 
Q 2250 2553 1709 2553 
Q 1456 2553 1204 2497 
Q 953 2441 691 2322 
L 691 4666 
z
" transform="scale(0.015625)"/>
       </defs>
       <use xlink:href="#DejaVuSans-35"/>
       <use xlink:href="#DejaVuSans-30" x="63.623047"/>
      </g>
     </g>
    </g>
    <g id="xtick_3">
     <g id="line2d_3">
      <g>
       <use xlink:href="#m0948b995eb" x="204.216079" y="307.584" style="stroke: #000000; stroke-width: 0.8"/>
      </g>
     </g>
     <g id="text_3">
      <!-- 100 -->
      <g transform="translate(194.672329 322.182437) scale(0.1 -0.1)">
       <defs>
        <path id="DejaVuSans-31" d="M 794 531 
L 1825 531 
L 1825 4091 
L 703 3866 
L 703 4441 
L 1819 4666 
L 2450 4666 
L 2450 531 
L 3481 531 
L 3481 0 
L 794 0 
L 794 531 
z
" transform="scale(0.015625)"/>
       </defs>
       <use xlink:href="#DejaVuSans-31"/>
       <use xlink:href="#DejaVuSans-30" x="63.623047"/>
       <use xlink:href="#DejaVuSans-30" x="127.246094"/>
      </g>
     </g>
    </g>
    <g id="xtick_4">
     <g id="line2d_4">
      <g>
       <use xlink:href="#m0948b995eb" x="269.407755" y="307.584" style="stroke: #000000; stroke-width: 0.8"/>
      </g>
     </g>
     <g id="text_4">
      <!-- 150 -->
      <g transform="translate(259.864005 322.182437) scale(0.1 -0.1)">
       <use xlink:href="#DejaVuSans-31"/>
       <use xlink:href="#DejaVuSans-35" x="63.623047"/>
       <use xlink:href="#DejaVuSans-30" x="127.246094"/>
      </g>
     </g>
    </g>
    <g id="xtick_5">
     <g id="line2d_5">
      <g>
       <use xlink:href="#m0948b995eb" x="334.59943" y="307.584" style="stroke: #000000; stroke-width: 0.8"/>
      </g>
     </g>
     <g id="text_5">
      <!-- 200 -->
      <g transform="translate(325.05568 322.182437) scale(0.1 -0.1)">
       <defs>
        <path id="DejaVuSans-32" d="M 1228 531 
L 3431 531 
L 3431 0 
L 469 0 
L 469 531 
Q 828 903 1448 1529 
Q 2069 2156 2228 2338 
Q 2531 2678 2651 2914 
Q 2772 3150 2772 3378 
Q 2772 3750 2511 3984 
Q 2250 4219 1831 4219 
Q 1534 4219 1204 4116 
Q 875 4013 500 3803 
L 500 4441 
Q 881 4594 1212 4672 
Q 1544 4750 1819 4750 
Q 2544 4750 2975 4387 
Q 3406 4025 3406 3419 
Q 3406 3131 3298 2873 
Q 3191 2616 2906 2266 
Q 2828 2175 2409 1742 
Q 1991 1309 1228 531 
z
" transform="scale(0.015625)"/>
       </defs>
       <use xlink:href="#DejaVuSans-32"/>
       <use xlink:href="#DejaVuSans-30" x="63.623047"/>
       <use xlink:href="#DejaVuSans-30" x="127.246094"/>
      </g>
     </g>
    </g>
    <g id="xtick_6">
     <g id="line2d_6">
      <g>
       <use xlink:href="#m0948b995eb" x="399.791106" y="307.584" style="stroke: #000000; stroke-width: 0.8"/>
      </g>
     </g>
     <g id="text_6">
      <!-- 250 -->
      <g transform="translate(390.247356 322.182437) scale(0.1 -0.1)">
       <use xlink:href="#DejaVuSans-32"/>
       <use xlink:href="#DejaVuSans-35" x="63.623047"/>
       <use xlink:href="#DejaVuSans-30" x="127.246094"/>
      </g>
     </g>
    </g>
   </g>
   <g id="matplotlib.axis_2">
    <g id="ytick_1">
     <g id="line2d_7">
      <defs>
       <path id="m23448f1b5e" d="M 0 0 
L -3.5 0 
" style="stroke: #000000; stroke-width: 0.8"/>
      </defs>
      <g>
       <use xlink:href="#m23448f1b5e" x="57.6" y="262.792378" style="stroke: #000000; stroke-width: 0.8"/>
      </g>
     </g>
     <g id="text_7">
      <!-- 60 -->
      <g transform="translate(37.875 266.591597) scale(0.1 -0.1)">
       <defs>
        <path id="DejaVuSans-36" d="M 2113 2584 
Q 1688 2584 1439 2293 
Q 1191 2003 1191 1497 
Q 1191 994 1439 701 
Q 1688 409 2113 409 
Q 2538 409 2786 701 
Q 3034 994 3034 1497 
Q 3034 2003 2786 2293 
Q 2538 2584 2113 2584 
z
M 3366 4563 
L 3366 3988 
Q 3128 4100 2886 4159 
Q 2644 4219 2406 4219 
Q 1781 4219 1451 3797 
Q 1122 3375 1075 2522 
Q 1259 2794 1537 2939 
Q 1816 3084 2150 3084 
Q 2853 3084 3261 2657 
Q 3669 2231 3669 1497 
Q 3669 778 3244 343 
Q 2819 -91 2113 -91 
Q 1303 -91 875 529 
Q 447 1150 447 2328 
Q 447 3434 972 4092 
Q 1497 4750 2381 4750 
Q 2619 4750 2861 4703 
Q 3103 4656 3366 4563 
z
" transform="scale(0.015625)"/>
       </defs>
       <use xlink:href="#DejaVuSans-36"/>
       <use xlink:href="#DejaVuSans-30" x="63.623047"/>
      </g>
     </g>
    </g>
    <g id="ytick_2">
     <g id="line2d_8">
      <g>
       <use xlink:href="#m23448f1b5e" x="57.6" y="205.866416" style="stroke: #000000; stroke-width: 0.8"/>
      </g>
     </g>
     <g id="text_8">
      <!-- 70 -->
      <g transform="translate(37.875 209.665635) scale(0.1 -0.1)">
       <defs>
        <path id="DejaVuSans-37" d="M 525 4666 
L 3525 4666 
L 3525 4397 
L 1831 0 
L 1172 0 
L 2766 4134 
L 525 4134 
L 525 4666 
z
" transform="scale(0.015625)"/>
       </defs>
       <use xlink:href="#DejaVuSans-37"/>
       <use xlink:href="#DejaVuSans-30" x="63.623047"/>
      </g>
     </g>
    </g>
    <g id="ytick_3">
     <g id="line2d_9">
      <g>
       <use xlink:href="#m23448f1b5e" x="57.6" y="148.940455" style="stroke: #000000; stroke-width: 0.8"/>
      </g>
     </g>
     <g id="text_9">
      <!-- 80 -->
      <g transform="translate(37.875 152.739674) scale(0.1 -0.1)">
       <defs>
        <path id="DejaVuSans-38" d="M 2034 2216 
Q 1584 2216 1326 1975 
Q 1069 1734 1069 1313 
Q 1069 891 1326 650 
Q 1584 409 2034 409 
Q 2484 409 2743 651 
Q 3003 894 3003 1313 
Q 3003 1734 2745 1975 
Q 2488 2216 2034 2216 
z
M 1403 2484 
Q 997 2584 770 2862 
Q 544 3141 544 3541 
Q 544 4100 942 4425 
Q 1341 4750 2034 4750 
Q 2731 4750 3128 4425 
Q 3525 4100 3525 3541 
Q 3525 3141 3298 2862 
Q 3072 2584 2669 2484 
Q 3125 2378 3379 2068 
Q 3634 1759 3634 1313 
Q 3634 634 3220 271 
Q 2806 -91 2034 -91 
Q 1263 -91 848 271 
Q 434 634 434 1313 
Q 434 1759 690 2068 
Q 947 2378 1403 2484 
z
M 1172 3481 
Q 1172 3119 1398 2916 
Q 1625 2713 2034 2713 
Q 2441 2713 2670 2916 
Q 2900 3119 2900 3481 
Q 2900 3844 2670 4047 
Q 2441 4250 2034 4250 
Q 1625 4250 1398 4047 
Q 1172 3844 1172 3481 
z
" transform="scale(0.015625)"/>
       </defs>
       <use xlink:href="#DejaVuSans-38"/>
       <use xlink:href="#DejaVuSans-30" x="63.623047"/>
      </g>
     </g>
    </g>
    <g id="ytick_4">
     <g id="line2d_10">
      <g>
       <use xlink:href="#m23448f1b5e" x="57.6" y="92.014494" style="stroke: #000000; stroke-width: 0.8"/>
      </g>
     </g>
     <g id="text_10">
      <!-- 90 -->
      <g transform="translate(37.875 95.813713) scale(0.1 -0.1)">
       <defs>
        <path id="DejaVuSans-39" d="M 703 97 
L 703 672 
Q 941 559 1184 500 
Q 1428 441 1663 441 
Q 2288 441 2617 861 
Q 2947 1281 2994 2138 
Q 2813 1869 2534 1725 
Q 2256 1581 1919 1581 
Q 1219 1581 811 2004 
Q 403 2428 403 3163 
Q 403 3881 828 4315 
Q 1253 4750 1959 4750 
Q 2769 4750 3195 4129 
Q 3622 3509 3622 2328 
Q 3622 1225 3098 567 
Q 2575 -91 1691 -91 
Q 1453 -91 1209 -44 
Q 966 3 703 97 
z
M 1959 2075 
Q 2384 2075 2632 2365 
Q 2881 2656 2881 3163 
Q 2881 3666 2632 3958 
Q 2384 4250 1959 4250 
Q 1534 4250 1286 3958 
Q 1038 3666 1038 3163 
Q 1038 2656 1286 2365 
Q 1534 2075 1959 2075 
z
" transform="scale(0.015625)"/>
       </defs>
       <use xlink:href="#DejaVuSans-39"/>
       <use xlink:href="#DejaVuSans-30" x="63.623047"/>
      </g>
     </g>
    </g>
   </g>
   <g id="line2d_11">
    <path d="M 73.832727 295.488 
L 75.136561 171.508792 
L 76.440394 150.460602 
L 77.744228 140.607442 
L 79.048061 133.275081 
L 80.351895 128.511442 
L 81.655728 125.04175 
L 82.959562 122.041712 
L 84.263395 119.597591 
L 85.567229 117.441014 
L 86.871062 115.715753 
L 88.174896 113.511252 
L 89.478729 113.233293 
L 90.782563 111.546371 
L 92.086396 110.68374 
L 93.39023 109.591074 
L 94.694064 109.073496 
L 95.997897 107.837059 
L 98.605564 106.284323 
L 99.909398 105.469616 
L 101.213231 104.482384 
L 102.517065 103.75394 
L 103.820898 102.747537 
L 105.124732 102.575011 
L 107.732399 100.916843 
L 109.036232 100.983937 
L 110.340066 99.766669 
L 111.643899 99.72833 
L 112.947733 98.80819 
L 118.163067 96.479087 
L 119.4669 96.479087 
L 120.770734 95.846491 
L 122.074567 95.44393 
L 123.378401 94.888013 
L 124.682234 94.705902 
L 125.986068 93.757008 
L 127.289901 93.239429 
L 128.593735 93.268184 
L 129.897568 92.635588 
L 132.505235 92.185103 
L 133.809069 91.332057 
L 135.112903 91.427905 
L 136.416736 90.469426 
L 137.72057 90.546105 
L 139.024403 89.87517 
L 141.63207 88.878352 
L 142.935904 89.060463 
L 144.239737 88.389528 
L 146.847404 88.159493 
L 148.151238 87.344786 
L 149.455071 87.258523 
L 150.758905 86.760114 
L 152.062738 86.405477 
L 153.366572 85.868729 
L 157.278072 85.494922 
L 158.581906 85.025268 
L 159.885739 84.862326 
L 161.189573 84.421426 
L 162.493406 84.46935 
L 163.79724 84.210561 
L 165.101073 83.702567 
L 166.404907 83.069971 
L 169.012574 82.514054 
L 170.316407 82.753674 
L 171.620241 82.24568 
L 174.227908 81.871873 
L 175.531742 81.459727 
L 176.835575 81.54599 
L 178.139409 80.740868 
L 179.443242 81.076336 
L 180.747076 80.846301 
L 182.050909 80.079518 
L 183.354743 80.232875 
L 185.96241 79.216887 
L 187.266243 79.629033 
L 188.570077 79.514016 
L 189.87391 78.833496 
L 191.177744 78.843081 
L 192.481577 78.047544 
L 193.785411 78.239239 
L 195.089244 78.622631 
L 196.393078 77.664152 
L 201.608412 76.8782 
L 202.912245 76.475639 
L 204.216079 76.446884 
L 205.519912 76.111417 
L 206.823746 76.236019 
L 208.127579 75.593838 
L 209.431413 75.478821 
L 210.735246 75.632177 
L 212.03908 75.660932 
L 213.342913 74.63536 
L 214.646747 74.673699 
L 217.254414 74.213629 
L 218.558248 73.830238 
L 223.773582 73.255151 
L 226.381249 72.584216 
L 227.685082 72.5938 
L 228.988916 72.200824 
L 230.292749 72.651309 
L 231.596583 72.1529 
L 232.900416 71.913281 
L 234.20425 71.903696 
L 235.508083 71.328609 
L 236.811917 71.395702 
L 238.11575 71.098574 
L 239.419584 71.223176 
L 240.723417 70.667258 
L 242.027251 70.791861 
L 243.331084 70.37013 
L 244.634918 70.216773 
L 245.938751 69.833382 
L 247.242585 69.900475 
L 248.546418 69.718365 
L 249.850252 69.200786 
L 252.457919 69.162447 
L 253.761752 68.951582 
L 255.065586 68.539436 
L 257.673253 68.443588 
L 260.28092 67.858916 
L 264.192421 67.782238 
L 265.496254 67.178396 
L 266.800088 66.919607 
L 268.103921 66.957946 
L 269.407755 66.718326 
L 270.711588 66.948361 
L 272.015422 66.948361 
L 273.319255 66.488292 
L 275.926922 65.88445 
L 277.230756 65.587322 
L 278.534589 65.481889 
L 279.838423 65.970713 
L 281.142256 65.328532 
L 282.44609 65.366872 
L 283.749923 64.878048 
L 285.053757 65.098498 
L 287.661424 64.456317 
L 288.965257 64.52341 
L 290.269091 64.005832 
L 291.572924 64.168773 
L 292.876758 63.775797 
L 294.180591 63.919569 
L 295.484425 63.584101 
L 296.788258 63.574517 
L 298.092092 63.42116 
L 299.395926 62.922751 
L 300.699759 63.095277 
L 302.003593 62.874827 
L 305.915093 62.98026 
L 307.218927 62.07929 
L 308.52276 62.338079 
L 309.826594 61.906764 
L 311.130427 62.232647 
L 312.434261 62.328494 
L 315.041928 61.820501 
L 316.345761 61.072887 
L 317.649595 61.772577 
L 318.953428 61.283753 
L 322.864929 60.593648 
L 325.472596 60.794929 
L 326.776429 60.421122 
L 330.68793 59.941883 
L 331.991763 59.951468 
L 333.295597 59.846035 
L 334.59943 59.385965 
L 335.903264 59.577661 
L 337.207097 59.184685 
L 338.510931 59.1751 
L 339.814765 59.37638 
L 341.118598 59.261363 
L 342.422432 58.609597 
L 343.726265 58.638352 
L 345.030099 58.820463 
L 346.333932 58.101604 
L 347.637766 58.187867 
L 348.941599 58.667106 
L 350.245433 58.120773 
L 351.549266 58.092019 
L 352.8531 57.909908 
L 354.156933 57.440254 
L 359.372267 57.13354 
L 360.676101 56.577623 
L 363.283768 56.951429 
L 364.587601 56.759734 
L 365.891435 56.893921 
L 367.195268 56.587208 
L 368.499102 56.47219 
L 371.106769 55.925857 
L 372.410602 55.906688 
L 373.714436 56.318834 
L 375.018269 55.504127 
L 376.322103 55.935442 
L 377.625936 55.465788 
L 378.92977 56.01212 
L 380.233604 55.264507 
L 381.537437 54.8907 
L 385.448938 54.861946 
L 386.752771 54.794853 
L 388.056605 54.459385 
L 389.360438 54.421046 
L 390.664272 54.603157 
L 391.968105 54.603157 
L 393.271939 54.296444 
L 394.575772 53.711772 
L 395.879606 54.238935 
L 397.183439 54.0089 
L 398.487273 53.568 
L 398.487273 53.568 
" clip-path="url(#p989f14e173)" style="fill: none; stroke: #1f77b4; stroke-width: 1.5; stroke-linecap: square"/>
   </g>
   <g id="line2d_12">
    <path d="M 73.832727 191.521074 
L 75.136561 162.033426 
L 76.440394 149.452789 
L 77.744228 141.653932 
L 79.048061 137.384485 
L 81.655728 130.667222 
L 82.959562 129.300998 
L 84.263395 127.194738 
L 86.871062 124.974625 
L 88.174896 124.006884 
L 89.478729 121.957549 
L 90.782563 120.762104 
L 92.086396 120.022067 
L 93.39023 119.737437 
L 94.694064 118.257362 
L 95.997897 118.485066 
L 97.301731 118.14351 
L 98.605564 117.403473 
L 99.909398 115.923398 
L 101.213231 115.126434 
L 102.517065 114.557175 
L 103.820898 114.272545 
L 105.124732 113.646359 
L 107.732399 113.930989 
L 109.036232 113.646359 
L 110.340066 112.564766 
L 111.643899 112.621692 
L 112.947733 110.572357 
L 114.251566 111.995506 
L 115.5554 109.319986 
L 116.859233 111.710876 
L 118.163067 109.604616 
L 119.4669 108.6938 
L 120.770734 109.490764 
L 123.378401 108.6938 
L 124.682234 109.26306 
L 125.986068 108.238393 
L 127.289901 108.181467 
L 128.593735 106.644466 
L 129.897568 106.929096 
L 131.201402 107.669133 
L 132.505235 107.384503 
L 133.809069 106.416762 
L 135.112903 106.530614 
L 137.72057 107.042948 
L 139.024403 107.042948 
L 140.328237 106.01828 
L 141.63207 105.961354 
L 142.935904 105.505947 
L 145.543571 105.619799 
L 146.847404 106.359836 
L 148.151238 105.619799 
L 149.455071 105.164391 
L 150.758905 105.221317 
L 152.062738 105.392095 
L 153.366572 106.075206 
L 154.670405 104.879761 
L 155.974239 105.676725 
L 157.278072 105.335169 
L 158.581906 104.025872 
L 159.885739 104.367427 
L 161.189573 103.285834 
L 162.493406 103.684316 
L 163.79724 103.684316 
L 165.101073 102.830426 
L 166.404907 104.253576 
L 167.70874 103.399686 
L 169.012574 102.773501 
L 170.316407 104.082798 
L 171.620241 102.830426 
L 172.924074 102.659649 
L 174.227908 102.773501 
L 175.531742 102.375019 
L 178.139409 102.261167 
L 179.443242 103.285834 
L 180.747076 102.488871 
L 182.050909 101.976537 
L 183.354743 100.781092 
L 184.658576 101.748833 
L 185.96241 101.748833 
L 187.266243 101.464203 
L 188.570077 101.293426 
L 189.87391 102.944278 
L 191.177744 101.862685 
L 192.481577 101.464203 
L 193.785411 101.691907 
L 195.089244 101.691907 
L 196.393078 102.488871 
L 199.000745 100.781092 
L 200.304578 101.065722 
L 201.608412 100.894944 
L 202.912245 101.634981 
L 204.216079 100.496462 
L 206.823746 100.724166 
L 208.127579 99.984128 
L 209.431413 100.66724 
L 210.735246 100.09798 
L 212.03908 100.439536 
L 213.342913 100.496462 
L 214.646747 102.033463 
L 215.950581 101.065722 
L 217.254414 100.553388 
L 219.862081 100.38261 
L 221.165915 99.357943 
L 222.469748 99.756425 
L 223.773582 99.528721 
L 225.077415 98.731757 
L 226.381249 100.610314 
L 228.988916 100.041054 
L 230.292749 98.845609 
L 231.596583 99.984128 
L 232.900416 99.016387 
L 234.20425 100.268758 
L 235.508083 99.984128 
L 236.811917 100.325684 
L 238.11575 98.959461 
L 239.419584 98.447127 
L 240.723417 100.211832 
L 242.027251 100.211832 
L 243.331084 98.788683 
L 245.938751 98.788683 
L 247.242585 99.471795 
L 248.546418 98.788683 
L 251.154085 98.504053 
L 252.457919 98.845609 
L 253.761752 98.674831 
L 255.065586 97.934794 
L 256.369419 99.301017 
L 257.673253 98.390201 
L 258.977087 98.447127 
L 260.28092 97.479386 
L 261.584754 98.162498 
L 262.888587 98.617905 
L 264.192421 97.70709 
L 265.496254 98.162498 
L 266.800088 97.820942 
L 268.103921 98.219424 
L 269.407755 98.162498 
L 270.711588 96.853201 
L 272.015422 99.130239 
L 273.319255 97.308608 
L 274.623089 98.617905 
L 275.926922 97.764016 
L 277.230756 98.27635 
L 278.534589 97.877868 
L 279.838423 97.023978 
L 281.142256 97.194756 
L 282.44609 99.016387 
L 283.749923 96.967052 
L 285.053757 96.853201 
L 286.35759 96.910126 
L 287.661424 97.365534 
L 288.965257 97.536312 
L 290.269091 96.682423 
L 291.572924 97.479386 
L 292.876758 97.080904 
L 294.180591 96.454719 
L 295.484425 97.42246 
L 296.788258 97.70709 
L 298.092092 97.251682 
L 299.395926 96.568571 
L 300.699759 96.170089 
L 302.003593 97.251682 
L 303.307426 95.999311 
L 305.915093 97.194756 
L 307.218927 97.308608 
L 308.52276 96.340867 
L 309.826594 96.397793 
L 311.130427 96.796275 
L 312.434261 97.593238 
L 313.738094 96.682423 
L 315.041928 96.056237 
L 316.345761 97.820942 
L 317.649595 97.023978 
L 318.953428 96.682423 
L 320.257262 96.967052 
L 321.561095 96.397793 
L 322.864929 96.796275 
L 324.168762 96.511645 
L 325.472596 96.739349 
L 326.776429 96.340867 
L 328.080263 96.283941 
L 329.384096 96.056237 
L 330.68793 97.650164 
L 331.991763 96.568571 
L 333.295597 97.251682 
L 334.59943 97.023978 
L 335.903264 95.714681 
L 337.207097 96.739349 
L 338.510931 96.625497 
L 339.814765 96.056237 
L 341.118598 96.397793 
L 342.422432 96.227015 
L 343.726265 96.625497 
L 345.030099 96.739349 
L 347.637766 96.340867 
L 348.941599 96.113163 
L 350.245433 97.13783 
L 351.549266 95.657755 
L 354.156933 97.194756 
L 355.460767 96.910126 
L 356.7646 97.194756 
L 358.068434 96.967052 
L 359.372267 96.967052 
L 360.676101 96.340867 
L 361.979934 98.105572 
L 363.283768 96.910126 
L 364.587601 97.13783 
L 365.891435 95.657755 
L 367.195268 96.796275 
L 368.499102 96.397793 
L 369.802935 97.080904 
L 371.106769 96.511645 
L 373.714436 95.714681 
L 375.018269 97.764016 
L 376.322103 96.682423 
L 377.625936 95.942385 
L 378.92977 95.486977 
L 380.233604 95.714681 
L 381.537437 96.796275 
L 382.841271 96.340867 
L 384.145104 95.714681 
L 385.448938 96.170089 
L 386.752771 96.056237 
L 388.056605 96.682423 
L 389.360438 96.113163 
L 390.664272 97.023978 
L 391.968105 97.13783 
L 394.575772 96.227015 
L 395.879606 96.170089 
L 397.183439 96.853201 
L 398.487273 95.714681 
L 398.487273 95.714681 
" clip-path="url(#p989f14e173)" style="fill: none; stroke: #ff7f0e; stroke-width: 1.5; stroke-linecap: square"/>
   </g>
   <g id="patch_3">
    <path d="M 57.6 307.584 
L 57.6 41.472 
" style="fill: none; stroke: #000000; stroke-width: 0.8; stroke-linejoin: miter; stroke-linecap: square"/>
   </g>
   <g id="patch_4">
    <path d="M 414.72 307.584 
L 414.72 41.472 
" style="fill: none; stroke: #000000; stroke-width: 0.8; stroke-linejoin: miter; stroke-linecap: square"/>
   </g>
   <g id="patch_5">
    <path d="M 57.6 307.584 
L 414.72 307.584 
" style="fill: none; stroke: #000000; stroke-width: 0.8; stroke-linejoin: miter; stroke-linecap: square"/>
   </g>
   <g id="patch_6">
    <path d="M 57.6 41.472 
L 414.72 41.472 
" style="fill: none; stroke: #000000; stroke-width: 0.8; stroke-linejoin: miter; stroke-linecap: square"/>
   </g>
   <g id="legend_1">
    <g id="patch_7">
     <path d="M 64.6 79.3845 
L 169.99375 79.3845 
Q 171.99375 79.3845 171.99375 77.3845 
L 171.99375 48.472 
Q 171.99375 46.472 169.99375 46.472 
L 64.6 46.472 
Q 62.6 46.472 62.6 48.472 
L 62.6 77.3845 
Q 62.6 79.3845 64.6 79.3845 
z
" style="fill: #ffffff; opacity: 0.8; stroke: #cccccc; stroke-linejoin: miter"/>
    </g>
    <g id="line2d_13">
     <path d="M 66.6 54.570438 
L 76.6 54.570438 
L 86.6 54.570438 
" style="fill: none; stroke: #1f77b4; stroke-width: 1.5; stroke-linecap: square"/>
    </g>
    <g id="text_11">
     <!-- train_accuracy -->
     <g transform="translate(94.6 58.070438) scale(0.1 -0.1)">
      <defs>
       <path id="DejaVuSans-74" d="M 1172 4494 
L 1172 3500 
L 2356 3500 
L 2356 3053 
L 1172 3053 
L 1172 1153 
Q 1172 725 1289 603 
Q 1406 481 1766 481 
L 2356 481 
L 2356 0 
L 1766 0 
Q 1100 0 847 248 
Q 594 497 594 1153 
L 594 3053 
L 172 3053 
L 172 3500 
L 594 3500 
L 594 4494 
L 1172 4494 
z
" transform="scale(0.015625)"/>
       <path id="DejaVuSans-72" d="M 2631 2963 
Q 2534 3019 2420 3045 
Q 2306 3072 2169 3072 
Q 1681 3072 1420 2755 
Q 1159 2438 1159 1844 
L 1159 0 
L 581 0 
L 581 3500 
L 1159 3500 
L 1159 2956 
Q 1341 3275 1631 3429 
Q 1922 3584 2338 3584 
Q 2397 3584 2469 3576 
Q 2541 3569 2628 3553 
L 2631 2963 
z
" transform="scale(0.015625)"/>
       <path id="DejaVuSans-61" d="M 2194 1759 
Q 1497 1759 1228 1600 
Q 959 1441 959 1056 
Q 959 750 1161 570 
Q 1363 391 1709 391 
Q 2188 391 2477 730 
Q 2766 1069 2766 1631 
L 2766 1759 
L 2194 1759 
z
M 3341 1997 
L 3341 0 
L 2766 0 
L 2766 531 
Q 2569 213 2275 61 
Q 1981 -91 1556 -91 
Q 1019 -91 701 211 
Q 384 513 384 1019 
Q 384 1609 779 1909 
Q 1175 2209 1959 2209 
L 2766 2209 
L 2766 2266 
Q 2766 2663 2505 2880 
Q 2244 3097 1772 3097 
Q 1472 3097 1187 3025 
Q 903 2953 641 2809 
L 641 3341 
Q 956 3463 1253 3523 
Q 1550 3584 1831 3584 
Q 2591 3584 2966 3190 
Q 3341 2797 3341 1997 
z
" transform="scale(0.015625)"/>
       <path id="DejaVuSans-69" d="M 603 3500 
L 1178 3500 
L 1178 0 
L 603 0 
L 603 3500 
z
M 603 4863 
L 1178 4863 
L 1178 4134 
L 603 4134 
L 603 4863 
z
" transform="scale(0.015625)"/>
       <path id="DejaVuSans-6e" d="M 3513 2113 
L 3513 0 
L 2938 0 
L 2938 2094 
Q 2938 2591 2744 2837 
Q 2550 3084 2163 3084 
Q 1697 3084 1428 2787 
Q 1159 2491 1159 1978 
L 1159 0 
L 581 0 
L 581 3500 
L 1159 3500 
L 1159 2956 
Q 1366 3272 1645 3428 
Q 1925 3584 2291 3584 
Q 2894 3584 3203 3211 
Q 3513 2838 3513 2113 
z
" transform="scale(0.015625)"/>
       <path id="DejaVuSans-5f" d="M 3263 -1063 
L 3263 -1509 
L -63 -1509 
L -63 -1063 
L 3263 -1063 
z
" transform="scale(0.015625)"/>
       <path id="DejaVuSans-63" d="M 3122 3366 
L 3122 2828 
Q 2878 2963 2633 3030 
Q 2388 3097 2138 3097 
Q 1578 3097 1268 2742 
Q 959 2388 959 1747 
Q 959 1106 1268 751 
Q 1578 397 2138 397 
Q 2388 397 2633 464 
Q 2878 531 3122 666 
L 3122 134 
Q 2881 22 2623 -34 
Q 2366 -91 2075 -91 
Q 1284 -91 818 406 
Q 353 903 353 1747 
Q 353 2603 823 3093 
Q 1294 3584 2113 3584 
Q 2378 3584 2631 3529 
Q 2884 3475 3122 3366 
z
" transform="scale(0.015625)"/>
       <path id="DejaVuSans-75" d="M 544 1381 
L 544 3500 
L 1119 3500 
L 1119 1403 
Q 1119 906 1312 657 
Q 1506 409 1894 409 
Q 2359 409 2629 706 
Q 2900 1003 2900 1516 
L 2900 3500 
L 3475 3500 
L 3475 0 
L 2900 0 
L 2900 538 
Q 2691 219 2414 64 
Q 2138 -91 1772 -91 
Q 1169 -91 856 284 
Q 544 659 544 1381 
z
M 1991 3584 
L 1991 3584 
z
" transform="scale(0.015625)"/>
       <path id="DejaVuSans-79" d="M 2059 -325 
Q 1816 -950 1584 -1140 
Q 1353 -1331 966 -1331 
L 506 -1331 
L 506 -850 
L 844 -850 
Q 1081 -850 1212 -737 
Q 1344 -625 1503 -206 
L 1606 56 
L 191 3500 
L 800 3500 
L 1894 763 
L 2988 3500 
L 3597 3500 
L 2059 -325 
z
" transform="scale(0.015625)"/>
      </defs>
      <use xlink:href="#DejaVuSans-74"/>
      <use xlink:href="#DejaVuSans-72" x="39.208984"/>
      <use xlink:href="#DejaVuSans-61" x="80.322266"/>
      <use xlink:href="#DejaVuSans-69" x="141.601562"/>
      <use xlink:href="#DejaVuSans-6e" x="169.384766"/>
      <use xlink:href="#DejaVuSans-5f" x="232.763672"/>
      <use xlink:href="#DejaVuSans-61" x="282.763672"/>
      <use xlink:href="#DejaVuSans-63" x="344.042969"/>
      <use xlink:href="#DejaVuSans-63" x="399.023438"/>
      <use xlink:href="#DejaVuSans-75" x="454.003906"/>
      <use xlink:href="#DejaVuSans-72" x="517.382812"/>
      <use xlink:href="#DejaVuSans-61" x="558.496094"/>
      <use xlink:href="#DejaVuSans-63" x="619.775391"/>
      <use xlink:href="#DejaVuSans-79" x="674.755859"/>
     </g>
    </g>
    <g id="line2d_14">
     <path d="M 66.6 69.526688 
L 76.6 69.526688 
L 86.6 69.526688 
" style="fill: none; stroke: #ff7f0e; stroke-width: 1.5; stroke-linecap: square"/>
    </g>
    <g id="text_12">
     <!-- test_accuracy -->
     <g transform="translate(94.6 73.026688) scale(0.1 -0.1)">
      <defs>
       <path id="DejaVuSans-65" d="M 3597 1894 
L 3597 1613 
L 953 1613 
Q 991 1019 1311 708 
Q 1631 397 2203 397 
Q 2534 397 2845 478 
Q 3156 559 3463 722 
L 3463 178 
Q 3153 47 2828 -22 
Q 2503 -91 2169 -91 
Q 1331 -91 842 396 
Q 353 884 353 1716 
Q 353 2575 817 3079 
Q 1281 3584 2069 3584 
Q 2775 3584 3186 3129 
Q 3597 2675 3597 1894 
z
M 3022 2063 
Q 3016 2534 2758 2815 
Q 2500 3097 2075 3097 
Q 1594 3097 1305 2825 
Q 1016 2553 972 2059 
L 3022 2063 
z
" transform="scale(0.015625)"/>
       <path id="DejaVuSans-73" d="M 2834 3397 
L 2834 2853 
Q 2591 2978 2328 3040 
Q 2066 3103 1784 3103 
Q 1356 3103 1142 2972 
Q 928 2841 928 2578 
Q 928 2378 1081 2264 
Q 1234 2150 1697 2047 
L 1894 2003 
Q 2506 1872 2764 1633 
Q 3022 1394 3022 966 
Q 3022 478 2636 193 
Q 2250 -91 1575 -91 
Q 1294 -91 989 -36 
Q 684 19 347 128 
L 347 722 
Q 666 556 975 473 
Q 1284 391 1588 391 
Q 1994 391 2212 530 
Q 2431 669 2431 922 
Q 2431 1156 2273 1281 
Q 2116 1406 1581 1522 
L 1381 1569 
Q 847 1681 609 1914 
Q 372 2147 372 2553 
Q 372 3047 722 3315 
Q 1072 3584 1716 3584 
Q 2034 3584 2315 3537 
Q 2597 3491 2834 3397 
z
" transform="scale(0.015625)"/>
      </defs>
      <use xlink:href="#DejaVuSans-74"/>
      <use xlink:href="#DejaVuSans-65" x="39.208984"/>
      <use xlink:href="#DejaVuSans-73" x="100.732422"/>
      <use xlink:href="#DejaVuSans-74" x="152.832031"/>
      <use xlink:href="#DejaVuSans-5f" x="192.041016"/>
      <use xlink:href="#DejaVuSans-61" x="242.041016"/>
      <use xlink:href="#DejaVuSans-63" x="303.320312"/>
      <use xlink:href="#DejaVuSans-63" x="358.300781"/>
      <use xlink:href="#DejaVuSans-75" x="413.28125"/>
      <use xlink:href="#DejaVuSans-72" x="476.660156"/>
      <use xlink:href="#DejaVuSans-61" x="517.773438"/>
      <use xlink:href="#DejaVuSans-63" x="579.052734"/>
      <use xlink:href="#DejaVuSans-79" x="634.033203"/>
     </g>
    </g>
   </g>
  </g>
 </g>
 <defs>
  <clipPath id="p989f14e173">
   <rect x="57.6" y="41.472" width="357.12" height="266.112"/>
  </clipPath>
 </defs>
</svg>
