<?xml version="1.0" encoding="utf-8" standalone="no"?>
<!DOCTYPE svg PUBLIC "-//W3C//DTD SVG 1.1//EN"
  "http://www.w3.org/Graphics/SVG/1.1/DTD/svg11.dtd">
<svg xmlns:xlink="http://www.w3.org/1999/xlink" width="460.8pt" height="345.6pt" viewBox="0 0 460.8 345.6" xmlns="http://www.w3.org/2000/svg" version="1.1">
 <metadata>
  <rdf:RDF xmlns:dc="http://purl.org/dc/elements/1.1/" xmlns:cc="http://creativecommons.org/ns#" xmlns:rdf="http://www.w3.org/1999/02/22-rdf-syntax-ns#">
   <cc:Work>
    <dc:type rdf:resource="http://purl.org/dc/dcmitype/StillImage"/>
    <dc:date>2023-10-29T20:17:29.909380</dc:date>
    <dc:format>image/svg+xml</dc:format>
    <dc:creator>
     <cc:Agent>
      <dc:title>Matplotlib v3.8.0, https://matplotlib.org/</dc:title>
     </cc:Agent>
    </dc:creator>
   </cc:Work>
  </rdf:RDF>
 </metadata>
 <defs>
  <style type="text/css">*{stroke-linejoin: round; stroke-linecap: butt}</style>
 </defs>
 <g id="figure_1">
  <g id="patch_1">
   <path d="M 0 345.6 
L 460.8 345.6 
L 460.8 0 
L 0 0 
z
" style="fill: #ffffff"/>
  </g>
  <g id="axes_1">
   <g id="patch_2">
    <path d="M 57.6 307.584 
L 414.72 307.584 
L 414.72 41.472 
L 57.6 41.472 
z
" style="fill: #ffffff"/>
   </g>
   <g id="matplotlib.axis_1">
    <g id="xtick_1">
     <g id="line2d_1">
      <defs>
       <path id="m127865846b" d="M 0 0 
L 0 3.5 
" style="stroke: #000000; stroke-width: 0.8"/>
      </defs>
      <g>
       <use xlink:href="#m127865846b" x="73.832727" y="307.584" style="stroke: #000000; stroke-width: 0.8"/>
      </g>
     </g>
     <g id="text_1">
      <!-- 0 -->
      <g transform="translate(70.651477 322.182437) scale(0.1 -0.1)">
       <defs>
        <path id="DejaVuSans-30" d="M 2034 4250 
Q 1547 4250 1301 3770 
Q 1056 3291 1056 2328 
Q 1056 1369 1301 889 
Q 1547 409 2034 409 
Q 2525 409 2770 889 
Q 3016 1369 3016 2328 
Q 3016 3291 2770 3770 
Q 2525 4250 2034 4250 
z
M 2034 4750 
Q 2819 4750 3233 4129 
Q 3647 3509 3647 2328 
Q 3647 1150 3233 529 
Q 2819 -91 2034 -91 
Q 1250 -91 836 529 
Q 422 1150 422 2328 
Q 422 3509 836 4129 
Q 1250 4750 2034 4750 
z
" transform="scale(0.015625)"/>
       </defs>
       <use xlink:href="#DejaVuSans-30"/>
      </g>
     </g>
    </g>
    <g id="xtick_2">
     <g id="line2d_2">
      <g>
       <use xlink:href="#m127865846b" x="139.024403" y="307.584" style="stroke: #000000; stroke-width: 0.8"/>
      </g>
     </g>
     <g id="text_2">
      <!-- 50 -->
      <g transform="translate(132.661903 322.182437) scale(0.1 -0.1)">
       <defs>
        <path id="DejaVuSans-35" d="M 691 4666 
L 3169 4666 
L 3169 4134 
L 1269 4134 
L 1269 2991 
Q 1406 3038 1543 3061 
Q 1681 3084 1819 3084 
Q 2600 3084 3056 2656 
Q 3513 2228 3513 1497 
Q 3513 744 3044 326 
Q 2575 -91 1722 -91 
Q 1428 -91 1123 -41 
Q 819 9 494 109 
L 494 744 
Q 775 591 1075 516 
Q 1375 441 1709 441 
Q 2250 441 2565 725 
Q 2881 1009 2881 1497 
Q 2881 1984 2565 2268 
Q 2250 2553 1709 2553 
Q 1456 2553 1204 2497 
Q 953 2441 691 2322 
L 691 4666 
z
" transform="scale(0.015625)"/>
       </defs>
       <use xlink:href="#DejaVuSans-35"/>
       <use xlink:href="#DejaVuSans-30" x="63.623047"/>
      </g>
     </g>
    </g>
    <g id="xtick_3">
     <g id="line2d_3">
      <g>
       <use xlink:href="#m127865846b" x="204.216079" y="307.584" style="stroke: #000000; stroke-width: 0.8"/>
      </g>
     </g>
     <g id="text_3">
      <!-- 100 -->
      <g transform="translate(194.672329 322.182437) scale(0.1 -0.1)">
       <defs>
        <path id="DejaVuSans-31" d="M 794 531 
L 1825 531 
L 1825 4091 
L 703 3866 
L 703 4441 
L 1819 4666 
L 2450 4666 
L 2450 531 
L 3481 531 
L 3481 0 
L 794 0 
L 794 531 
z
" transform="scale(0.015625)"/>
       </defs>
       <use xlink:href="#DejaVuSans-31"/>
       <use xlink:href="#DejaVuSans-30" x="63.623047"/>
       <use xlink:href="#DejaVuSans-30" x="127.246094"/>
      </g>
     </g>
    </g>
    <g id="xtick_4">
     <g id="line2d_4">
      <g>
       <use xlink:href="#m127865846b" x="269.407755" y="307.584" style="stroke: #000000; stroke-width: 0.8"/>
      </g>
     </g>
     <g id="text_4">
      <!-- 150 -->
      <g transform="translate(259.864005 322.182437) scale(0.1 -0.1)">
       <use xlink:href="#DejaVuSans-31"/>
       <use xlink:href="#DejaVuSans-35" x="63.623047"/>
       <use xlink:href="#DejaVuSans-30" x="127.246094"/>
      </g>
     </g>
    </g>
    <g id="xtick_5">
     <g id="line2d_5">
      <g>
       <use xlink:href="#m127865846b" x="334.59943" y="307.584" style="stroke: #000000; stroke-width: 0.8"/>
      </g>
     </g>
     <g id="text_5">
      <!-- 200 -->
      <g transform="translate(325.05568 322.182437) scale(0.1 -0.1)">
       <defs>
        <path id="DejaVuSans-32" d="M 1228 531 
L 3431 531 
L 3431 0 
L 469 0 
L 469 531 
Q 828 903 1448 1529 
Q 2069 2156 2228 2338 
Q 2531 2678 2651 2914 
Q 2772 3150 2772 3378 
Q 2772 3750 2511 3984 
Q 2250 4219 1831 4219 
Q 1534 4219 1204 4116 
Q 875 4013 500 3803 
L 500 4441 
Q 881 4594 1212 4672 
Q 1544 4750 1819 4750 
Q 2544 4750 2975 4387 
Q 3406 4025 3406 3419 
Q 3406 3131 3298 2873 
Q 3191 2616 2906 2266 
Q 2828 2175 2409 1742 
Q 1991 1309 1228 531 
z
" transform="scale(0.015625)"/>
       </defs>
       <use xlink:href="#DejaVuSans-32"/>
       <use xlink:href="#DejaVuSans-30" x="63.623047"/>
       <use xlink:href="#DejaVuSans-30" x="127.246094"/>
      </g>
     </g>
    </g>
    <g id="xtick_6">
     <g id="line2d_6">
      <g>
       <use xlink:href="#m127865846b" x="399.791106" y="307.584" style="stroke: #000000; stroke-width: 0.8"/>
      </g>
     </g>
     <g id="text_6">
      <!-- 250 -->
      <g transform="translate(390.247356 322.182437) scale(0.1 -0.1)">
       <use xlink:href="#DejaVuSans-32"/>
       <use xlink:href="#DejaVuSans-35" x="63.623047"/>
       <use xlink:href="#DejaVuSans-30" x="127.246094"/>
      </g>
     </g>
    </g>
   </g>
   <g id="matplotlib.axis_2">
    <g id="ytick_1">
     <g id="line2d_7">
      <defs>
       <path id="m096080ad51" d="M 0 0 
L -3.5 0 
" style="stroke: #000000; stroke-width: 0.8"/>
      </defs>
      <g>
       <use xlink:href="#m096080ad51" x="57.6" y="278.475833" style="stroke: #000000; stroke-width: 0.8"/>
      </g>
     </g>
     <g id="text_7">
      <!-- 0.2 -->
      <g transform="translate(34.696875 282.275051) scale(0.1 -0.1)">
       <defs>
        <path id="DejaVuSans-2e" d="M 684 794 
L 1344 794 
L 1344 0 
L 684 0 
L 684 794 
z
" transform="scale(0.015625)"/>
       </defs>
       <use xlink:href="#DejaVuSans-30"/>
       <use xlink:href="#DejaVuSans-2e" x="63.623047"/>
       <use xlink:href="#DejaVuSans-32" x="95.410156"/>
      </g>
     </g>
    </g>
    <g id="ytick_2">
     <g id="line2d_8">
      <g>
       <use xlink:href="#m096080ad51" x="57.6" y="240.002352" style="stroke: #000000; stroke-width: 0.8"/>
      </g>
     </g>
     <g id="text_8">
      <!-- 0.4 -->
      <g transform="translate(34.696875 243.801571) scale(0.1 -0.1)">
       <defs>
        <path id="DejaVuSans-34" d="M 2419 4116 
L 825 1625 
L 2419 1625 
L 2419 4116 
z
M 2253 4666 
L 3047 4666 
L 3047 1625 
L 3713 1625 
L 3713 1100 
L 3047 1100 
L 3047 0 
L 2419 0 
L 2419 1100 
L 313 1100 
L 313 1709 
L 2253 4666 
z
" transform="scale(0.015625)"/>
       </defs>
       <use xlink:href="#DejaVuSans-30"/>
       <use xlink:href="#DejaVuSans-2e" x="63.623047"/>
       <use xlink:href="#DejaVuSans-34" x="95.410156"/>
      </g>
     </g>
    </g>
    <g id="ytick_3">
     <g id="line2d_9">
      <g>
       <use xlink:href="#m096080ad51" x="57.6" y="201.528871" style="stroke: #000000; stroke-width: 0.8"/>
      </g>
     </g>
     <g id="text_9">
      <!-- 0.6 -->
      <g transform="translate(34.696875 205.32809) scale(0.1 -0.1)">
       <defs>
        <path id="DejaVuSans-36" d="M 2113 2584 
Q 1688 2584 1439 2293 
Q 1191 2003 1191 1497 
Q 1191 994 1439 701 
Q 1688 409 2113 409 
Q 2538 409 2786 701 
Q 3034 994 3034 1497 
Q 3034 2003 2786 2293 
Q 2538 2584 2113 2584 
z
M 3366 4563 
L 3366 3988 
Q 3128 4100 2886 4159 
Q 2644 4219 2406 4219 
Q 1781 4219 1451 3797 
Q 1122 3375 1075 2522 
Q 1259 2794 1537 2939 
Q 1816 3084 2150 3084 
Q 2853 3084 3261 2657 
Q 3669 2231 3669 1497 
Q 3669 778 3244 343 
Q 2819 -91 2113 -91 
Q 1303 -91 875 529 
Q 447 1150 447 2328 
Q 447 3434 972 4092 
Q 1497 4750 2381 4750 
Q 2619 4750 2861 4703 
Q 3103 4656 3366 4563 
z
" transform="scale(0.015625)"/>
       </defs>
       <use xlink:href="#DejaVuSans-30"/>
       <use xlink:href="#DejaVuSans-2e" x="63.623047"/>
       <use xlink:href="#DejaVuSans-36" x="95.410156"/>
      </g>
     </g>
    </g>
    <g id="ytick_4">
     <g id="line2d_10">
      <g>
       <use xlink:href="#m096080ad51" x="57.6" y="163.055391" style="stroke: #000000; stroke-width: 0.8"/>
      </g>
     </g>
     <g id="text_10">
      <!-- 0.8 -->
      <g transform="translate(34.696875 166.854609) scale(0.1 -0.1)">
       <defs>
        <path id="DejaVuSans-38" d="M 2034 2216 
Q 1584 2216 1326 1975 
Q 1069 1734 1069 1313 
Q 1069 891 1326 650 
Q 1584 409 2034 409 
Q 2484 409 2743 651 
Q 3003 894 3003 1313 
Q 3003 1734 2745 1975 
Q 2488 2216 2034 2216 
z
M 1403 2484 
Q 997 2584 770 2862 
Q 544 3141 544 3541 
Q 544 4100 942 4425 
Q 1341 4750 2034 4750 
Q 2731 4750 3128 4425 
Q 3525 4100 3525 3541 
Q 3525 3141 3298 2862 
Q 3072 2584 2669 2484 
Q 3125 2378 3379 2068 
Q 3634 1759 3634 1313 
Q 3634 634 3220 271 
Q 2806 -91 2034 -91 
Q 1263 -91 848 271 
Q 434 634 434 1313 
Q 434 1759 690 2068 
Q 947 2378 1403 2484 
z
M 1172 3481 
Q 1172 3119 1398 2916 
Q 1625 2713 2034 2713 
Q 2441 2713 2670 2916 
Q 2900 3119 2900 3481 
Q 2900 3844 2670 4047 
Q 2441 4250 2034 4250 
Q 1625 4250 1398 4047 
Q 1172 3844 1172 3481 
z
" transform="scale(0.015625)"/>
       </defs>
       <use xlink:href="#DejaVuSans-30"/>
       <use xlink:href="#DejaVuSans-2e" x="63.623047"/>
       <use xlink:href="#DejaVuSans-38" x="95.410156"/>
      </g>
     </g>
    </g>
    <g id="ytick_5">
     <g id="line2d_11">
      <g>
       <use xlink:href="#m096080ad51" x="57.6" y="124.58191" style="stroke: #000000; stroke-width: 0.8"/>
      </g>
     </g>
     <g id="text_11">
      <!-- 1.0 -->
      <g transform="translate(34.696875 128.381129) scale(0.1 -0.1)">
       <use xlink:href="#DejaVuSans-31"/>
       <use xlink:href="#DejaVuSans-2e" x="63.623047"/>
       <use xlink:href="#DejaVuSans-30" x="95.410156"/>
      </g>
     </g>
    </g>
    <g id="ytick_6">
     <g id="line2d_12">
      <g>
       <use xlink:href="#m096080ad51" x="57.6" y="86.108429" style="stroke: #000000; stroke-width: 0.8"/>
      </g>
     </g>
     <g id="text_12">
      <!-- 1.2 -->
      <g transform="translate(34.696875 89.907648) scale(0.1 -0.1)">
       <use xlink:href="#DejaVuSans-31"/>
       <use xlink:href="#DejaVuSans-2e" x="63.623047"/>
       <use xlink:href="#DejaVuSans-32" x="95.410156"/>
      </g>
     </g>
    </g>
    <g id="ytick_7">
     <g id="line2d_13">
      <g>
       <use xlink:href="#m096080ad51" x="57.6" y="47.634949" style="stroke: #000000; stroke-width: 0.8"/>
      </g>
     </g>
     <g id="text_13">
      <!-- 1.4 -->
      <g transform="translate(34.696875 51.434168) scale(0.1 -0.1)">
       <use xlink:href="#DejaVuSans-31"/>
       <use xlink:href="#DejaVuSans-2e" x="63.623047"/>
       <use xlink:href="#DejaVuSans-34" x="95.410156"/>
      </g>
     </g>
    </g>
   </g>
   <g id="line2d_14">
    <path d="M 73.832727 53.568 
L 75.136561 181.755115 
L 76.440394 203.603725 
L 77.744228 214.2207 
L 79.048061 221.048139 
L 80.351895 225.871666 
L 81.655728 229.443911 
L 84.263395 234.660925 
L 85.567229 236.648032 
L 88.174896 240.028013 
L 90.782563 242.706657 
L 97.301731 247.609528 
L 98.605564 248.404007 
L 99.909398 249.335439 
L 101.213231 249.99147 
L 102.517065 250.830424 
L 103.820898 251.534759 
L 105.124732 251.927238 
L 110.340066 254.605155 
L 111.643899 254.945517 
L 114.251566 256.190544 
L 115.5554 256.546794 
L 118.163067 257.774748 
L 119.4669 258.075693 
L 120.770734 258.570252 
L 122.074567 258.888182 
L 125.986068 260.285432 
L 129.897568 261.425317 
L 131.201402 261.713583 
L 133.809069 262.476168 
L 135.112903 262.846773 
L 136.416736 263.335433 
L 137.72057 263.461401 
L 139.024403 264.034172 
L 140.328237 264.444046 
L 141.63207 264.520427 
L 145.543571 265.504023 
L 152.062738 266.94991 
L 154.670405 267.677967 
L 155.974239 267.77162 
L 157.278072 268.196289 
L 158.581906 268.338294 
L 159.885739 268.683874 
L 162.493406 269.137803 
L 163.79724 269.487217 
L 165.101073 269.703805 
L 166.404907 270.107711 
L 167.70874 270.10467 
L 169.012574 270.496689 
L 172.924074 271.28301 
L 176.835575 271.785337 
L 178.139409 272.20573 
L 180.747076 272.551829 
L 182.050909 272.873244 
L 183.354743 272.935797 
L 184.658576 273.267866 
L 188.570077 273.71011 
L 189.87391 274.087678 
L 191.177744 274.199427 
L 193.785411 274.71597 
L 195.089244 274.772158 
L 196.393078 275.130415 
L 197.696911 275.353687 
L 199.000745 275.442017 
L 200.304578 275.738683 
L 205.519912 276.477668 
L 206.823746 276.754899 
L 209.431413 276.938933 
L 212.03908 277.466463 
L 213.342913 277.637705 
L 214.646747 277.691949 
L 215.950581 277.892899 
L 217.254414 278.210491 
L 219.862081 278.473597 
L 221.165915 278.698222 
L 223.773582 278.939943 
L 225.077415 279.234259 
L 228.988916 279.749813 
L 230.292749 279.661934 
L 231.596583 280.106398 
L 234.20425 280.24022 
L 238.11575 280.816643 
L 239.419584 280.929061 
L 240.723417 281.177945 
L 244.634918 281.612756 
L 268.103921 284.365131 
L 270.711588 284.490957 
L 272.015422 284.555957 
L 273.319255 284.836624 
L 275.926922 285.027997 
L 277.230756 285.32726 
L 279.838423 285.365656 
L 281.142256 285.759389 
L 282.44609 285.736041 
L 291.572924 286.725851 
L 296.788258 287.17198 
L 299.395926 287.568288 
L 300.699759 287.485944 
L 302.003593 287.766197 
L 304.61126 287.846613 
L 307.218927 288.225603 
L 308.52276 288.237251 
L 309.826594 288.448407 
L 312.434261 288.552307 
L 315.041928 288.797235 
L 316.345761 289.088121 
L 318.953428 289.280838 
L 326.776429 289.932066 
L 328.080263 290.148841 
L 333.295597 290.473128 
L 338.510931 290.995299 
L 339.814765 290.953281 
L 347.637766 291.752773 
L 348.941599 291.678072 
L 350.245433 292.009711 
L 352.8531 292.154678 
L 354.156933 292.385136 
L 356.7646 292.396304 
L 359.372267 292.626194 
L 360.676101 292.858569 
L 361.979934 292.821702 
L 364.587601 293.111648 
L 367.195268 293.243409 
L 369.802935 293.448781 
L 371.106769 293.640195 
L 373.714436 293.746998 
L 375.018269 293.887934 
L 376.322103 293.879298 
L 377.625936 294.034981 
L 378.92977 293.998265 
L 380.233604 294.14595 
L 381.537437 294.405874 
L 393.271939 295.161913 
L 394.575772 295.356375 
L 395.879606 295.100407 
L 397.183439 295.487175 
L 398.487273 295.488 
L 398.487273 295.488 
" clip-path="url(#pfdb871aa76)" style="fill: none; stroke: #1f77b4; stroke-width: 1.5; stroke-linecap: square"/>
   </g>
   <g id="line2d_15">
    <path d="M 73.832727 157.731878 
L 75.136561 192.225034 
L 76.440394 205.506404 
L 77.744228 213.265098 
L 79.048061 218.297671 
L 80.351895 221.803611 
L 81.655728 224.765509 
L 84.263395 228.965014 
L 86.871062 231.944339 
L 90.782563 235.506833 
L 92.086396 236.37682 
L 93.39023 236.906932 
L 94.694064 237.253209 
L 95.997897 238.468759 
L 98.605564 239.935567 
L 102.517065 241.410342 
L 103.820898 242.060033 
L 105.124732 242.533566 
L 106.428565 242.775851 
L 107.732399 243.333497 
L 110.340066 244.221855 
L 112.947733 244.846808 
L 114.251566 244.852275 
L 115.5554 245.683518 
L 116.859233 245.172644 
L 118.163067 246.226609 
L 119.4669 246.389856 
L 120.770734 246.327579 
L 123.378401 247.116241 
L 124.682234 247.414428 
L 125.986068 247.942205 
L 127.289901 248.05478 
L 128.593735 248.023256 
L 129.897568 248.606306 
L 131.201402 248.447993 
L 132.505235 248.836157 
L 133.809069 248.617438 
L 135.112903 249.104922 
L 136.416736 249.17551 
L 137.72057 249.797952 
L 139.024403 249.750103 
L 141.63207 250.169199 
L 144.239737 250.479539 
L 145.543571 250.420236 
L 149.455071 251.257614 
L 152.062738 251.250445 
L 153.366572 251.649235 
L 154.670405 251.564846 
L 157.278072 251.691815 
L 158.581906 252.050309 
L 159.885739 252.104517 
L 161.189573 251.716878 
L 162.493406 252.408631 
L 163.79724 252.213265 
L 165.101073 252.757175 
L 166.404907 252.734364 
L 167.70874 252.570332 
L 169.012574 252.956625 
L 170.316407 253.124496 
L 171.620241 253.079196 
L 172.924074 252.607221 
L 174.227908 253.243177 
L 175.531742 253.001037 
L 176.835575 253.024541 
L 178.139409 253.380039 
L 179.443242 253.037642 
L 180.747076 253.55391 
L 182.050909 253.827664 
L 184.658576 253.869823 
L 187.266243 254.046426 
L 188.570077 253.841779 
L 189.87391 253.814463 
L 191.177744 254.041833 
L 192.481577 254.007612 
L 193.785411 254.164592 
L 195.089244 254.489101 
L 197.696911 254.475779 
L 199.000745 254.754226 
L 200.304578 254.544016 
L 201.608412 254.774136 
L 205.519912 254.831338 
L 206.823746 254.615438 
L 208.127579 255.195353 
L 209.431413 254.975959 
L 212.03908 255.110188 
L 214.646747 254.744496 
L 217.254414 255.438437 
L 219.862081 255.34564 
L 221.165915 255.379082 
L 222.469748 255.301142 
L 223.773582 255.336361 
L 225.077415 255.212223 
L 226.381249 255.63943 
L 227.685082 255.453942 
L 230.292749 255.260585 
L 232.900416 255.795208 
L 234.20425 254.907657 
L 235.508083 255.586951 
L 236.811917 255.846715 
L 238.11575 255.94439 
L 239.419584 255.73039 
L 242.027251 255.772897 
L 243.331084 255.607113 
L 245.938751 255.876934 
L 248.546418 255.882523 
L 249.850252 256.129464 
L 252.457919 255.6293 
L 253.761752 256.148154 
L 255.065586 256.089823 
L 256.369419 255.763729 
L 257.673253 256.172633 
L 258.977087 255.67261 
L 260.28092 256.213748 
L 261.584754 256.283941 
L 262.888587 256.16963 
L 264.192421 256.240185 
L 265.496254 256.010556 
L 266.800088 256.304254 
L 268.103921 255.943125 
L 269.407755 256.166042 
L 270.711588 256.517428 
L 272.015422 255.717924 
L 273.319255 256.339161 
L 274.623089 256.194509 
L 275.926922 256.204284 
L 277.230756 255.959873 
L 279.838423 256.573687 
L 281.142256 256.490949 
L 282.44609 255.497563 
L 283.749923 256.311634 
L 286.35759 256.410396 
L 287.661424 256.277288 
L 288.965257 255.846186 
L 290.269091 256.259678 
L 292.876758 255.850061 
L 294.180591 256.263837 
L 295.484425 256.074029 
L 298.092092 256.231608 
L 299.395926 255.887274 
L 300.699759 256.457317 
L 302.003593 255.983825 
L 304.61126 256.21518 
L 305.915093 256.41058 
L 307.218927 256.112819 
L 308.52276 256.113716 
L 309.826594 256.247503 
L 311.130427 256.242308 
L 312.434261 255.77391 
L 313.738094 256.204159 
L 317.649595 255.785135 
L 318.953428 255.769221 
L 321.561095 256.232915 
L 322.864929 256.076954 
L 324.168762 255.741793 
L 326.776429 256.093482 
L 328.080263 255.939079 
L 329.384096 256.073248 
L 330.68793 255.893275 
L 331.991763 256.296882 
L 333.295597 255.866518 
L 334.59943 256.100461 
L 335.903264 255.955175 
L 337.207097 256.006351 
L 338.510931 255.575322 
L 339.814765 255.580135 
L 341.118598 255.737178 
L 342.422432 256.062955 
L 343.726265 255.722986 
L 345.030099 255.656693 
L 346.333932 256.03588 
L 347.637766 255.704766 
L 350.245433 255.734606 
L 351.549266 255.674007 
L 352.8531 255.429591 
L 355.460767 255.430443 
L 356.7646 255.432442 
L 358.068434 255.736266 
L 359.372267 255.55757 
L 360.676101 255.576249 
L 361.979934 254.997635 
L 363.283768 255.488546 
L 364.587601 255.636143 
L 365.891435 255.580825 
L 367.195268 255.303878 
L 368.499102 255.531955 
L 369.802935 255.400038 
L 371.106769 254.956316 
L 372.410602 255.538932 
L 373.714436 255.300653 
L 375.018269 254.160532 
L 376.322103 255.225479 
L 377.625936 254.954882 
L 378.92977 255.363912 
L 380.233604 254.827557 
L 381.537437 255.043901 
L 382.841271 254.955348 
L 384.145104 255.117119 
L 385.448938 254.583977 
L 386.752771 254.810751 
L 388.056605 254.865467 
L 389.360438 254.540696 
L 390.664272 254.817349 
L 391.968105 254.015727 
L 393.271939 255.02879 
L 394.575772 254.889838 
L 395.879606 254.331153 
L 398.487273 254.633795 
L 398.487273 254.633795 
" clip-path="url(#pfdb871aa76)" style="fill: none; stroke: #ff7f0e; stroke-width: 1.5; stroke-linecap: square"/>
   </g>
   <g id="patch_3">
    <path d="M 57.6 307.584 
L 57.6 41.472 
" style="fill: none; stroke: #000000; stroke-width: 0.8; stroke-linejoin: miter; stroke-linecap: square"/>
   </g>
   <g id="patch_4">
    <path d="M 414.72 307.584 
L 414.72 41.472 
" style="fill: none; stroke: #000000; stroke-width: 0.8; stroke-linejoin: miter; stroke-linecap: square"/>
   </g>
   <g id="patch_5">
    <path d="M 57.6 307.584 
L 414.72 307.584 
" style="fill: none; stroke: #000000; stroke-width: 0.8; stroke-linejoin: miter; stroke-linecap: square"/>
   </g>
   <g id="patch_6">
    <path d="M 57.6 41.472 
L 414.72 41.472 
" style="fill: none; stroke: #000000; stroke-width: 0.8; stroke-linejoin: miter; stroke-linecap: square"/>
   </g>
   <g id="legend_1">
    <g id="patch_7">
     <path d="M 316.766875 79.3845 
L 407.72 79.3845 
Q 409.72 79.3845 409.72 77.3845 
L 409.72 48.472 
Q 409.72 46.472 407.72 46.472 
L 316.766875 46.472 
Q 314.766875 46.472 314.766875 48.472 
L 314.766875 77.3845 
Q 314.766875 79.3845 316.766875 79.3845 
z
" style="fill: #ffffff; opacity: 0.8; stroke: #cccccc; stroke-linejoin: miter"/>
    </g>
    <g id="line2d_16">
     <path d="M 318.766875 54.570438 
L 328.766875 54.570438 
L 338.766875 54.570438 
" style="fill: none; stroke: #1f77b4; stroke-width: 1.5; stroke-linecap: square"/>
    </g>
    <g id="text_14">
     <!-- train_losses -->
     <g transform="translate(346.766875 58.070438) scale(0.1 -0.1)">
      <defs>
       <path id="DejaVuSans-74" d="M 1172 4494 
L 1172 3500 
L 2356 3500 
L 2356 3053 
L 1172 3053 
L 1172 1153 
Q 1172 725 1289 603 
Q 1406 481 1766 481 
L 2356 481 
L 2356 0 
L 1766 0 
Q 1100 0 847 248 
Q 594 497 594 1153 
L 594 3053 
L 172 3053 
L 172 3500 
L 594 3500 
L 594 4494 
L 1172 4494 
z
" transform="scale(0.015625)"/>
       <path id="DejaVuSans-72" d="M 2631 2963 
Q 2534 3019 2420 3045 
Q 2306 3072 2169 3072 
Q 1681 3072 1420 2755 
Q 1159 2438 1159 1844 
L 1159 0 
L 581 0 
L 581 3500 
L 1159 3500 
L 1159 2956 
Q 1341 3275 1631 3429 
Q 1922 3584 2338 3584 
Q 2397 3584 2469 3576 
Q 2541 3569 2628 3553 
L 2631 2963 
z
" transform="scale(0.015625)"/>
       <path id="DejaVuSans-61" d="M 2194 1759 
Q 1497 1759 1228 1600 
Q 959 1441 959 1056 
Q 959 750 1161 570 
Q 1363 391 1709 391 
Q 2188 391 2477 730 
Q 2766 1069 2766 1631 
L 2766 1759 
L 2194 1759 
z
M 3341 1997 
L 3341 0 
L 2766 0 
L 2766 531 
Q 2569 213 2275 61 
Q 1981 -91 1556 -91 
Q 1019 -91 701 211 
Q 384 513 384 1019 
Q 384 1609 779 1909 
Q 1175 2209 1959 2209 
L 2766 2209 
L 2766 2266 
Q 2766 2663 2505 2880 
Q 2244 3097 1772 3097 
Q 1472 3097 1187 3025 
Q 903 2953 641 2809 
L 641 3341 
Q 956 3463 1253 3523 
Q 1550 3584 1831 3584 
Q 2591 3584 2966 3190 
Q 3341 2797 3341 1997 
z
" transform="scale(0.015625)"/>
       <path id="DejaVuSans-69" d="M 603 3500 
L 1178 3500 
L 1178 0 
L 603 0 
L 603 3500 
z
M 603 4863 
L 1178 4863 
L 1178 4134 
L 603 4134 
L 603 4863 
z
" transform="scale(0.015625)"/>
       <path id="DejaVuSans-6e" d="M 3513 2113 
L 3513 0 
L 2938 0 
L 2938 2094 
Q 2938 2591 2744 2837 
Q 2550 3084 2163 3084 
Q 1697 3084 1428 2787 
Q 1159 2491 1159 1978 
L 1159 0 
L 581 0 
L 581 3500 
L 1159 3500 
L 1159 2956 
Q 1366 3272 1645 3428 
Q 1925 3584 2291 3584 
Q 2894 3584 3203 3211 
Q 3513 2838 3513 2113 
z
" transform="scale(0.015625)"/>
       <path id="DejaVuSans-5f" d="M 3263 -1063 
L 3263 -1509 
L -63 -1509 
L -63 -1063 
L 3263 -1063 
z
" transform="scale(0.015625)"/>
       <path id="DejaVuSans-6c" d="M 603 4863 
L 1178 4863 
L 1178 0 
L 603 0 
L 603 4863 
z
" transform="scale(0.015625)"/>
       <path id="DejaVuSans-6f" d="M 1959 3097 
Q 1497 3097 1228 2736 
Q 959 2375 959 1747 
Q 959 1119 1226 758 
Q 1494 397 1959 397 
Q 2419 397 2687 759 
Q 2956 1122 2956 1747 
Q 2956 2369 2687 2733 
Q 2419 3097 1959 3097 
z
M 1959 3584 
Q 2709 3584 3137 3096 
Q 3566 2609 3566 1747 
Q 3566 888 3137 398 
Q 2709 -91 1959 -91 
Q 1206 -91 779 398 
Q 353 888 353 1747 
Q 353 2609 779 3096 
Q 1206 3584 1959 3584 
z
" transform="scale(0.015625)"/>
       <path id="DejaVuSans-73" d="M 2834 3397 
L 2834 2853 
Q 2591 2978 2328 3040 
Q 2066 3103 1784 3103 
Q 1356 3103 1142 2972 
Q 928 2841 928 2578 
Q 928 2378 1081 2264 
Q 1234 2150 1697 2047 
L 1894 2003 
Q 2506 1872 2764 1633 
Q 3022 1394 3022 966 
Q 3022 478 2636 193 
Q 2250 -91 1575 -91 
Q 1294 -91 989 -36 
Q 684 19 347 128 
L 347 722 
Q 666 556 975 473 
Q 1284 391 1588 391 
Q 1994 391 2212 530 
Q 2431 669 2431 922 
Q 2431 1156 2273 1281 
Q 2116 1406 1581 1522 
L 1381 1569 
Q 847 1681 609 1914 
Q 372 2147 372 2553 
Q 372 3047 722 3315 
Q 1072 3584 1716 3584 
Q 2034 3584 2315 3537 
Q 2597 3491 2834 3397 
z
" transform="scale(0.015625)"/>
       <path id="DejaVuSans-65" d="M 3597 1894 
L 3597 1613 
L 953 1613 
Q 991 1019 1311 708 
Q 1631 397 2203 397 
Q 2534 397 2845 478 
Q 3156 559 3463 722 
L 3463 178 
Q 3153 47 2828 -22 
Q 2503 -91 2169 -91 
Q 1331 -91 842 396 
Q 353 884 353 1716 
Q 353 2575 817 3079 
Q 1281 3584 2069 3584 
Q 2775 3584 3186 3129 
Q 3597 2675 3597 1894 
z
M 3022 2063 
Q 3016 2534 2758 2815 
Q 2500 3097 2075 3097 
Q 1594 3097 1305 2825 
Q 1016 2553 972 2059 
L 3022 2063 
z
" transform="scale(0.015625)"/>
      </defs>
      <use xlink:href="#DejaVuSans-74"/>
      <use xlink:href="#DejaVuSans-72" x="39.208984"/>
      <use xlink:href="#DejaVuSans-61" x="80.322266"/>
      <use xlink:href="#DejaVuSans-69" x="141.601562"/>
      <use xlink:href="#DejaVuSans-6e" x="169.384766"/>
      <use xlink:href="#DejaVuSans-5f" x="232.763672"/>
      <use xlink:href="#DejaVuSans-6c" x="282.763672"/>
      <use xlink:href="#DejaVuSans-6f" x="310.546875"/>
      <use xlink:href="#DejaVuSans-73" x="371.728516"/>
      <use xlink:href="#DejaVuSans-73" x="423.828125"/>
      <use xlink:href="#DejaVuSans-65" x="475.927734"/>
      <use xlink:href="#DejaVuSans-73" x="537.451172"/>
     </g>
    </g>
    <g id="line2d_17">
     <path d="M 318.766875 69.526688 
L 328.766875 69.526688 
L 338.766875 69.526688 
" style="fill: none; stroke: #ff7f0e; stroke-width: 1.5; stroke-linecap: square"/>
    </g>
    <g id="text_15">
     <!-- test_losses -->
     <g transform="translate(346.766875 73.026688) scale(0.1 -0.1)">
      <use xlink:href="#DejaVuSans-74"/>
      <use xlink:href="#DejaVuSans-65" x="39.208984"/>
      <use xlink:href="#DejaVuSans-73" x="100.732422"/>
      <use xlink:href="#DejaVuSans-74" x="152.832031"/>
      <use xlink:href="#DejaVuSans-5f" x="192.041016"/>
      <use xlink:href="#DejaVuSans-6c" x="242.041016"/>
      <use xlink:href="#DejaVuSans-6f" x="269.824219"/>
      <use xlink:href="#DejaVuSans-73" x="331.005859"/>
      <use xlink:href="#DejaVuSans-73" x="383.105469"/>
      <use xlink:href="#DejaVuSans-65" x="435.205078"/>
      <use xlink:href="#DejaVuSans-73" x="496.728516"/>
     </g>
    </g>
   </g>
  </g>
 </g>
 <defs>
  <clipPath id="pfdb871aa76">
   <rect x="57.6" y="41.472" width="357.12" height="266.112"/>
  </clipPath>
 </defs>
</svg>
