<?xml version="1.0" encoding="utf-8" standalone="no"?>
<!DOCTYPE svg PUBLIC "-//W3C//DTD SVG 1.1//EN"
  "http://www.w3.org/Graphics/SVG/1.1/DTD/svg11.dtd">
<svg xmlns:xlink="http://www.w3.org/1999/xlink" width="460.8pt" height="345.6pt" viewBox="0 0 460.8 345.6" xmlns="http://www.w3.org/2000/svg" version="1.1">
 <metadata>
  <rdf:RDF xmlns:dc="http://purl.org/dc/elements/1.1/" xmlns:cc="http://creativecommons.org/ns#" xmlns:rdf="http://www.w3.org/1999/02/22-rdf-syntax-ns#">
   <cc:Work>
    <dc:type rdf:resource="http://purl.org/dc/dcmitype/StillImage"/>
    <dc:date>2023-10-29T20:37:32.094170</dc:date>
    <dc:format>image/svg+xml</dc:format>
    <dc:creator>
     <cc:Agent>
      <dc:title>Matplotlib v3.8.0, https://matplotlib.org/</dc:title>
     </cc:Agent>
    </dc:creator>
   </cc:Work>
  </rdf:RDF>
 </metadata>
 <defs>
  <style type="text/css">*{stroke-linejoin: round; stroke-linecap: butt}</style>
 </defs>
 <g id="figure_1">
  <g id="patch_1">
   <path d="M 0 345.6 
L 460.8 345.6 
L 460.8 0 
L 0 0 
z
" style="fill: #ffffff"/>
  </g>
  <g id="axes_1">
   <g id="patch_2">
    <path d="M 57.6 307.584 
L 414.72 307.584 
L 414.72 41.472 
L 57.6 41.472 
z
" style="fill: #ffffff"/>
   </g>
   <g id="matplotlib.axis_1">
    <g id="xtick_1">
     <g id="line2d_1">
      <defs>
       <path id="m5a44a0aaa1" d="M 0 0 
L 0 3.5 
" style="stroke: #000000; stroke-width: 0.8"/>
      </defs>
      <g>
       <use xlink:href="#m5a44a0aaa1" x="73.832727" y="307.584" style="stroke: #000000; stroke-width: 0.8"/>
      </g>
     </g>
     <g id="text_1">
      <!-- 0 -->
      <g transform="translate(70.651477 322.182437) scale(0.1 -0.1)">
       <defs>
        <path id="DejaVuSans-30" d="M 2034 4250 
Q 1547 4250 1301 3770 
Q 1056 3291 1056 2328 
Q 1056 1369 1301 889 
Q 1547 409 2034 409 
Q 2525 409 2770 889 
Q 3016 1369 3016 2328 
Q 3016 3291 2770 3770 
Q 2525 4250 2034 4250 
z
M 2034 4750 
Q 2819 4750 3233 4129 
Q 3647 3509 3647 2328 
Q 3647 1150 3233 529 
Q 2819 -91 2034 -91 
Q 1250 -91 836 529 
Q 422 1150 422 2328 
Q 422 3509 836 4129 
Q 1250 4750 2034 4750 
z
" transform="scale(0.015625)"/>
       </defs>
       <use xlink:href="#DejaVuSans-30"/>
      </g>
     </g>
    </g>
    <g id="xtick_2">
     <g id="line2d_2">
      <g>
       <use xlink:href="#m5a44a0aaa1" x="139.024403" y="307.584" style="stroke: #000000; stroke-width: 0.8"/>
      </g>
     </g>
     <g id="text_2">
      <!-- 50 -->
      <g transform="translate(132.661903 322.182437) scale(0.1 -0.1)">
       <defs>
        <path id="DejaVuSans-35" d="M 691 4666 
L 3169 4666 
L 3169 4134 
L 1269 4134 
L 1269 2991 
Q 1406 3038 1543 3061 
Q 1681 3084 1819 3084 
Q 2600 3084 3056 2656 
Q 3513 2228 3513 1497 
Q 3513 744 3044 326 
Q 2575 -91 1722 -91 
Q 1428 -91 1123 -41 
Q 819 9 494 109 
L 494 744 
Q 775 591 1075 516 
Q 1375 441 1709 441 
Q 2250 441 2565 725 
Q 2881 1009 2881 1497 
Q 2881 1984 2565 2268 
Q 2250 2553 1709 2553 
Q 1456 2553 1204 2497 
Q 953 2441 691 2322 
L 691 4666 
z
" transform="scale(0.015625)"/>
       </defs>
       <use xlink:href="#DejaVuSans-35"/>
       <use xlink:href="#DejaVuSans-30" x="63.623047"/>
      </g>
     </g>
    </g>
    <g id="xtick_3">
     <g id="line2d_3">
      <g>
       <use xlink:href="#m5a44a0aaa1" x="204.216079" y="307.584" style="stroke: #000000; stroke-width: 0.8"/>
      </g>
     </g>
     <g id="text_3">
      <!-- 100 -->
      <g transform="translate(194.672329 322.182437) scale(0.1 -0.1)">
       <defs>
        <path id="DejaVuSans-31" d="M 794 531 
L 1825 531 
L 1825 4091 
L 703 3866 
L 703 4441 
L 1819 4666 
L 2450 4666 
L 2450 531 
L 3481 531 
L 3481 0 
L 794 0 
L 794 531 
z
" transform="scale(0.015625)"/>
       </defs>
       <use xlink:href="#DejaVuSans-31"/>
       <use xlink:href="#DejaVuSans-30" x="63.623047"/>
       <use xlink:href="#DejaVuSans-30" x="127.246094"/>
      </g>
     </g>
    </g>
    <g id="xtick_4">
     <g id="line2d_4">
      <g>
       <use xlink:href="#m5a44a0aaa1" x="269.407755" y="307.584" style="stroke: #000000; stroke-width: 0.8"/>
      </g>
     </g>
     <g id="text_4">
      <!-- 150 -->
      <g transform="translate(259.864005 322.182437) scale(0.1 -0.1)">
       <use xlink:href="#DejaVuSans-31"/>
       <use xlink:href="#DejaVuSans-35" x="63.623047"/>
       <use xlink:href="#DejaVuSans-30" x="127.246094"/>
      </g>
     </g>
    </g>
    <g id="xtick_5">
     <g id="line2d_5">
      <g>
       <use xlink:href="#m5a44a0aaa1" x="334.59943" y="307.584" style="stroke: #000000; stroke-width: 0.8"/>
      </g>
     </g>
     <g id="text_5">
      <!-- 200 -->
      <g transform="translate(325.05568 322.182437) scale(0.1 -0.1)">
       <defs>
        <path id="DejaVuSans-32" d="M 1228 531 
L 3431 531 
L 3431 0 
L 469 0 
L 469 531 
Q 828 903 1448 1529 
Q 2069 2156 2228 2338 
Q 2531 2678 2651 2914 
Q 2772 3150 2772 3378 
Q 2772 3750 2511 3984 
Q 2250 4219 1831 4219 
Q 1534 4219 1204 4116 
Q 875 4013 500 3803 
L 500 4441 
Q 881 4594 1212 4672 
Q 1544 4750 1819 4750 
Q 2544 4750 2975 4387 
Q 3406 4025 3406 3419 
Q 3406 3131 3298 2873 
Q 3191 2616 2906 2266 
Q 2828 2175 2409 1742 
Q 1991 1309 1228 531 
z
" transform="scale(0.015625)"/>
       </defs>
       <use xlink:href="#DejaVuSans-32"/>
       <use xlink:href="#DejaVuSans-30" x="63.623047"/>
       <use xlink:href="#DejaVuSans-30" x="127.246094"/>
      </g>
     </g>
    </g>
    <g id="xtick_6">
     <g id="line2d_6">
      <g>
       <use xlink:href="#m5a44a0aaa1" x="399.791106" y="307.584" style="stroke: #000000; stroke-width: 0.8"/>
      </g>
     </g>
     <g id="text_6">
      <!-- 250 -->
      <g transform="translate(390.247356 322.182437) scale(0.1 -0.1)">
       <use xlink:href="#DejaVuSans-32"/>
       <use xlink:href="#DejaVuSans-35" x="63.623047"/>
       <use xlink:href="#DejaVuSans-30" x="127.246094"/>
      </g>
     </g>
    </g>
   </g>
   <g id="matplotlib.axis_2">
    <g id="ytick_1">
     <g id="line2d_7">
      <defs>
       <path id="mea6d236bc1" d="M 0 0 
L -3.5 0 
" style="stroke: #000000; stroke-width: 0.8"/>
      </defs>
      <g>
       <use xlink:href="#mea6d236bc1" x="57.6" y="283.159225" style="stroke: #000000; stroke-width: 0.8"/>
      </g>
     </g>
     <g id="text_7">
      <!-- 60 -->
      <g transform="translate(37.875 286.958444) scale(0.1 -0.1)">
       <defs>
        <path id="DejaVuSans-36" d="M 2113 2584 
Q 1688 2584 1439 2293 
Q 1191 2003 1191 1497 
Q 1191 994 1439 701 
Q 1688 409 2113 409 
Q 2538 409 2786 701 
Q 3034 994 3034 1497 
Q 3034 2003 2786 2293 
Q 2538 2584 2113 2584 
z
M 3366 4563 
L 3366 3988 
Q 3128 4100 2886 4159 
Q 2644 4219 2406 4219 
Q 1781 4219 1451 3797 
Q 1122 3375 1075 2522 
Q 1259 2794 1537 2939 
Q 1816 3084 2150 3084 
Q 2853 3084 3261 2657 
Q 3669 2231 3669 1497 
Q 3669 778 3244 343 
Q 2819 -91 2113 -91 
Q 1303 -91 875 529 
Q 447 1150 447 2328 
Q 447 3434 972 4092 
Q 1497 4750 2381 4750 
Q 2619 4750 2861 4703 
Q 3103 4656 3366 4563 
z
" transform="scale(0.015625)"/>
       </defs>
       <use xlink:href="#DejaVuSans-36"/>
       <use xlink:href="#DejaVuSans-30" x="63.623047"/>
      </g>
     </g>
    </g>
    <g id="ytick_2">
     <g id="line2d_8">
      <g>
       <use xlink:href="#mea6d236bc1" x="57.6" y="225.192901" style="stroke: #000000; stroke-width: 0.8"/>
      </g>
     </g>
     <g id="text_8">
      <!-- 70 -->
      <g transform="translate(37.875 228.99212) scale(0.1 -0.1)">
       <defs>
        <path id="DejaVuSans-37" d="M 525 4666 
L 3525 4666 
L 3525 4397 
L 1831 0 
L 1172 0 
L 2766 4134 
L 525 4134 
L 525 4666 
z
" transform="scale(0.015625)"/>
       </defs>
       <use xlink:href="#DejaVuSans-37"/>
       <use xlink:href="#DejaVuSans-30" x="63.623047"/>
      </g>
     </g>
    </g>
    <g id="ytick_3">
     <g id="line2d_9">
      <g>
       <use xlink:href="#mea6d236bc1" x="57.6" y="167.226578" style="stroke: #000000; stroke-width: 0.8"/>
      </g>
     </g>
     <g id="text_9">
      <!-- 80 -->
      <g transform="translate(37.875 171.025797) scale(0.1 -0.1)">
       <defs>
        <path id="DejaVuSans-38" d="M 2034 2216 
Q 1584 2216 1326 1975 
Q 1069 1734 1069 1313 
Q 1069 891 1326 650 
Q 1584 409 2034 409 
Q 2484 409 2743 651 
Q 3003 894 3003 1313 
Q 3003 1734 2745 1975 
Q 2488 2216 2034 2216 
z
M 1403 2484 
Q 997 2584 770 2862 
Q 544 3141 544 3541 
Q 544 4100 942 4425 
Q 1341 4750 2034 4750 
Q 2731 4750 3128 4425 
Q 3525 4100 3525 3541 
Q 3525 3141 3298 2862 
Q 3072 2584 2669 2484 
Q 3125 2378 3379 2068 
Q 3634 1759 3634 1313 
Q 3634 634 3220 271 
Q 2806 -91 2034 -91 
Q 1263 -91 848 271 
Q 434 634 434 1313 
Q 434 1759 690 2068 
Q 947 2378 1403 2484 
z
M 1172 3481 
Q 1172 3119 1398 2916 
Q 1625 2713 2034 2713 
Q 2441 2713 2670 2916 
Q 2900 3119 2900 3481 
Q 2900 3844 2670 4047 
Q 2441 4250 2034 4250 
Q 1625 4250 1398 4047 
Q 1172 3844 1172 3481 
z
" transform="scale(0.015625)"/>
       </defs>
       <use xlink:href="#DejaVuSans-38"/>
       <use xlink:href="#DejaVuSans-30" x="63.623047"/>
      </g>
     </g>
    </g>
    <g id="ytick_4">
     <g id="line2d_10">
      <g>
       <use xlink:href="#mea6d236bc1" x="57.6" y="109.260254" style="stroke: #000000; stroke-width: 0.8"/>
      </g>
     </g>
     <g id="text_10">
      <!-- 90 -->
      <g transform="translate(37.875 113.059473) scale(0.1 -0.1)">
       <defs>
        <path id="DejaVuSans-39" d="M 703 97 
L 703 672 
Q 941 559 1184 500 
Q 1428 441 1663 441 
Q 2288 441 2617 861 
Q 2947 1281 2994 2138 
Q 2813 1869 2534 1725 
Q 2256 1581 1919 1581 
Q 1219 1581 811 2004 
Q 403 2428 403 3163 
Q 403 3881 828 4315 
Q 1253 4750 1959 4750 
Q 2769 4750 3195 4129 
Q 3622 3509 3622 2328 
Q 3622 1225 3098 567 
Q 2575 -91 1691 -91 
Q 1453 -91 1209 -44 
Q 966 3 703 97 
z
M 1959 2075 
Q 2384 2075 2632 2365 
Q 2881 2656 2881 3163 
Q 2881 3666 2632 3958 
Q 2384 4250 1959 4250 
Q 1534 4250 1286 3958 
Q 1038 3666 1038 3163 
Q 1038 2656 1286 2365 
Q 1534 2075 1959 2075 
z
" transform="scale(0.015625)"/>
       </defs>
       <use xlink:href="#DejaVuSans-39"/>
       <use xlink:href="#DejaVuSans-30" x="63.623047"/>
      </g>
     </g>
    </g>
    <g id="ytick_5">
     <g id="line2d_11">
      <g>
       <use xlink:href="#mea6d236bc1" x="57.6" y="51.293931" style="stroke: #000000; stroke-width: 0.8"/>
      </g>
     </g>
     <g id="text_11">
      <!-- 100 -->
      <g transform="translate(31.5125 55.093149) scale(0.1 -0.1)">
       <use xlink:href="#DejaVuSans-31"/>
       <use xlink:href="#DejaVuSans-30" x="63.623047"/>
       <use xlink:href="#DejaVuSans-30" x="127.246094"/>
      </g>
     </g>
    </g>
   </g>
   <g id="line2d_12">
    <path d="M 73.832727 295.488 
L 75.136561 178.153823 
L 76.440394 158.643674 
L 77.744228 148.51284 
L 79.048061 141.895591 
L 80.351895 137.659771 
L 81.655728 133.833868 
L 82.959562 130.749723 
L 84.263395 128.944131 
L 85.567229 126.133264 
L 86.871062 125.303668 
L 88.174896 123.205278 
L 89.478729 122.268322 
L 90.782563 120.47249 
L 94.694064 116.802747 
L 95.997897 115.914591 
L 97.301731 115.280194 
L 98.605564 114.206599 
L 99.909398 112.908525 
L 101.213231 112.469327 
L 102.517065 111.190773 
L 103.820898 110.693016 
L 105.124732 109.346142 
L 106.428565 109.404701 
L 107.732399 107.969988 
L 109.036232 107.218472 
L 110.340066 107.052552 
L 112.947733 105.969197 
L 114.251566 105.100561 
L 115.5554 103.880567 
L 116.859233 103.480409 
L 118.163067 103.373049 
L 119.4669 102.250655 
L 120.770734 101.606498 
L 122.074567 101.733377 
L 123.378401 100.249864 
L 124.682234 100.230344 
L 125.986068 99.439788 
L 127.289901 99.176269 
L 128.593735 98.083154 
L 129.897568 98.161234 
L 131.201402 97.038839 
L 132.505235 97.204758 
L 133.809069 96.238522 
L 135.112903 96.248282 
L 136.416736 95.233247 
L 137.72057 95.330847 
L 139.024403 94.286531 
L 142.935904 93.320296 
L 144.239737 92.598059 
L 145.543571 92.315021 
L 148.151238 91.143826 
L 150.758905 91.231666 
L 152.062738 90.558229 
L 153.366572 89.582233 
L 155.974239 88.332959 
L 157.278072 88.401279 
L 159.885739 87.825441 
L 161.189573 87.083685 
L 162.493406 87.073925 
L 165.101073 86.215049 
L 166.404907 85.91249 
L 167.70874 85.414733 
L 169.012574 84.614416 
L 170.316407 84.858415 
L 171.620241 84.282578 
L 172.924074 83.9117 
L 174.227908 83.130903 
L 178.139409 83.062583 
L 179.443242 82.086588 
L 180.747076 82.018268 
L 182.050909 81.74499 
L 183.354743 81.813309 
L 184.658576 80.837314 
L 185.96241 80.876354 
L 187.266243 80.144357 
L 189.87391 79.753959 
L 191.177744 79.305001 
L 192.481577 79.168361 
L 193.785411 79.197641 
L 197.696911 77.948367 
L 199.000745 78.104526 
L 200.304578 77.021171 
L 202.912245 76.855252 
L 204.216079 76.865012 
L 206.823746 75.566938 
L 208.127579 75.557178 
L 209.431413 74.971581 
L 210.735246 74.659262 
L 212.03908 74.669022 
L 213.342913 75.440059 
L 214.646747 74.278624 
L 215.950581 73.800386 
L 217.254414 73.819906 
L 218.558248 73.341668 
L 221.165915 72.804871 
L 222.469748 73.322149 
L 225.077415 72.580392 
L 226.381249 71.858155 
L 228.988916 71.321358 
L 230.292749 71.418957 
L 231.596583 71.009039 
L 232.900416 70.79432 
L 234.20425 70.140403 
L 235.508083 69.808565 
L 236.811917 70.452722 
L 238.11575 69.457206 
L 239.419584 69.388887 
L 240.723417 68.286012 
L 242.027251 68.861849 
L 243.331084 68.549531 
L 244.634918 68.62761 
L 247.242585 68.256732 
L 248.546418 67.514975 
L 249.850252 67.915134 
L 252.457919 67.310016 
L 255.065586 66.704899 
L 256.369419 66.665859 
L 260.28092 65.680104 
L 261.584754 65.680104 
L 262.888587 65.055467 
L 264.192421 65.621544 
L 265.496254 65.504425 
L 266.800088 64.684589 
L 268.103921 64.586989 
L 269.407755 64.089231 
L 270.711588 64.44059 
L 272.015422 64.27467 
L 273.319255 64.35275 
L 274.623089 64.020912 
L 277.230756 63.103476 
L 278.534589 63.454834 
L 279.838423 63.201075 
L 281.142256 63.259635 
L 282.44609 62.781397 
L 283.749923 62.761877 
L 285.053757 62.927797 
L 287.661424 62.17628 
L 288.965257 62.17628 
L 290.269091 62.371479 
L 291.572924 61.659003 
L 292.876758 61.288124 
L 294.180591 61.473563 
L 295.484425 60.692767 
L 296.788258 60.878206 
L 298.092092 60.800127 
L 299.395926 61.034365 
L 300.699759 60.907486 
L 302.003593 60.331649 
L 303.307426 60.468288 
L 305.915093 60.07789 
L 307.218927 59.609412 
L 308.52276 59.531332 
L 309.826594 59.697252 
L 313.738094 59.131174 
L 315.041928 59.365413 
L 316.345761 59.043335 
L 317.649595 59.131174 
L 320.257262 58.545577 
L 321.561095 58.487017 
L 322.864929 58.174699 
L 324.168762 58.604137 
L 325.472596 58.457737 
L 326.776429 58.496777 
L 328.080263 57.999019 
L 329.384096 57.686701 
L 330.68793 58.184459 
L 331.991763 57.120624 
L 333.295597 57.579341 
L 334.59943 57.481742 
L 335.903264 57.032784 
L 337.207097 57.315823 
L 338.510931 56.876625 
L 339.814765 56.905905 
L 341.118598 56.739985 
L 342.422432 56.700945 
L 343.726265 56.915665 
L 345.030099 56.544786 
L 346.333932 56.691186 
L 347.637766 56.320307 
L 350.245433 56.417907 
L 351.549266 55.900629 
L 352.8531 56.105588 
L 354.156933 55.480951 
L 355.460767 55.373592 
L 356.7646 55.75423 
L 358.068434 55.71519 
L 359.372267 55.197912 
L 360.676101 55.285752 
L 361.979934 55.588311 
L 363.283768 55.100313 
L 364.587601 55.69567 
L 365.891435 55.461431 
L 367.195268 55.383352 
L 368.499102 55.051513 
L 369.802935 54.866074 
L 371.106769 54.495196 
L 372.410602 54.729435 
L 377.625936 54.807514 
L 378.92977 54.299997 
L 381.537437 54.368316 
L 382.841271 54.221917 
L 384.145104 54.368316 
L 385.448938 54.085278 
L 386.752771 54.026718 
L 388.056605 53.724159 
L 389.360438 54.221917 
L 390.664272 53.733919 
L 395.879606 53.714399 
L 397.183439 53.568 
L 398.487273 53.58752 
L 398.487273 53.58752 
" clip-path="url(#pcba9ac866a)" style="fill: none; stroke: #1f77b4; stroke-width: 1.5; stroke-linecap: square"/>
   </g>
   <g id="line2d_13">
    <path d="M 73.832727 201.658574 
L 75.136561 171.226254 
L 76.440394 159.517057 
L 77.744228 154.647886 
L 79.048061 148.967186 
L 80.351895 146.184802 
L 81.655728 143.808183 
L 82.959562 141.199698 
L 84.263395 138.939012 
L 85.567229 135.576965 
L 86.871062 135.692898 
L 88.174896 133.780009 
L 89.478729 133.780009 
L 90.782563 131.055592 
L 92.086396 131.86712 
L 93.39023 130.244063 
L 94.694064 130.012198 
L 95.997897 128.389141 
L 97.301731 127.92541 
L 98.605564 128.852872 
L 99.909398 128.56304 
L 101.213231 127.751511 
L 102.517065 126.36032 
L 103.820898 125.490825 
L 105.124732 125.838623 
L 106.428565 124.737263 
L 107.732399 125.72269 
L 109.036232 124.969128 
L 110.340066 124.737263 
L 111.643899 123.346071 
L 112.947733 123.51997 
L 114.251566 124.447431 
L 115.5554 122.708441 
L 116.859233 122.766408 
L 118.163067 122.534542 
L 119.4669 121.665047 
L 120.770734 122.41861 
L 122.074567 121.375216 
L 123.378401 121.896913 
L 124.682234 121.954879 
L 125.986068 120.969452 
L 128.593735 120.447755 
L 129.897568 120.67962 
L 132.505235 119.984024 
L 133.809069 120.099957 
L 135.112903 121.375216 
L 136.416736 119.868091 
L 137.72057 119.810125 
L 139.024403 119.404361 
L 140.328237 120.911485 
L 141.63207 119.984024 
L 142.935904 118.882664 
L 144.239737 119.57826 
L 145.543571 119.230462 
L 146.847404 119.462327 
L 148.151238 119.404361 
L 149.455071 119.230462 
L 150.758905 118.187068 
L 152.062738 118.071135 
L 153.366572 118.534866 
L 154.670405 118.534866 
L 155.974239 117.259607 
L 157.278072 119.230462 
L 158.581906 119.056563 
L 159.885739 119.230462 
L 161.189573 119.520293 
L 162.493406 117.201641 
L 163.79724 116.448078 
L 165.101073 118.303001 
L 166.404907 117.781304 
L 167.70874 117.549438 
L 169.012574 116.10028 
L 170.316407 118.071135 
L 171.620241 118.4769 
L 172.924074 118.013169 
L 174.227908 117.83927 
L 175.531742 117.433506 
L 176.835575 116.853843 
L 178.139409 117.83927 
L 179.443242 117.201641 
L 182.050909 117.433506 
L 183.354743 116.158247 
L 184.658576 116.506045 
L 185.96241 116.332146 
L 187.266243 117.549438 
L 188.570077 115.694516 
L 189.87391 116.332146 
L 191.177744 115.984348 
L 192.481577 116.679944 
L 193.785411 116.10028 
L 195.089244 117.085708 
L 196.393078 118.303001 
L 197.696911 116.564011 
L 199.000745 117.83927 
L 200.304578 116.042314 
L 201.608412 116.448078 
L 202.912245 115.63655 
L 205.519912 116.390112 
L 206.823746 117.955203 
L 208.127579 116.158247 
L 209.431413 115.462651 
L 210.735246 116.274179 
L 212.03908 116.448078 
L 213.342913 116.448078 
L 214.646747 116.158247 
L 215.950581 115.462651 
L 217.254414 115.578583 
L 218.558248 115.868415 
L 219.862081 116.042314 
L 221.165915 116.621977 
L 222.469748 115.172819 
L 223.773582 115.114853 
L 225.077415 116.216213 
L 226.381249 115.404684 
L 227.685082 115.810449 
L 228.988916 117.259607 
L 230.292749 115.63655 
L 231.596583 117.085708 
L 232.900416 115.810449 
L 234.20425 116.332146 
L 235.508083 115.578583 
L 236.811917 116.506045 
L 238.11575 115.462651 
L 239.419584 115.752482 
L 240.723417 116.216213 
L 242.027251 116.216213 
L 244.634918 114.99892 
L 245.938751 115.404684 
L 247.242585 116.042314 
L 248.546418 114.303324 
L 249.850252 114.129425 
L 251.154085 116.274179 
L 252.457919 115.752482 
L 253.761752 116.448078 
L 255.065586 115.63655 
L 256.369419 115.114853 
L 257.673253 116.506045 
L 260.28092 115.868415 
L 261.584754 115.114853 
L 262.888587 116.042314 
L 264.192421 114.593156 
L 265.496254 114.593156 
L 266.800088 117.027742 
L 268.103921 114.882988 
L 269.407755 114.709089 
L 272.015422 116.10028 
L 273.319255 115.404684 
L 274.623089 115.462651 
L 275.926922 115.404684 
L 277.230756 115.868415 
L 278.534589 114.940954 
L 279.838423 115.984348 
L 281.142256 114.709089 
L 282.44609 113.89756 
L 283.749923 114.99892 
L 285.053757 114.651122 
L 286.35759 115.172819 
L 287.661424 115.114853 
L 288.965257 114.477223 
L 290.269091 114.767055 
L 291.572924 114.593156 
L 292.876758 114.99892 
L 294.180591 115.230786 
L 295.484425 114.129425 
L 296.788258 114.99892 
L 298.092092 115.288752 
L 299.395926 114.651122 
L 300.699759 115.114853 
L 302.003593 114.361291 
L 303.307426 115.63655 
L 304.61126 114.882988 
L 307.218927 114.477223 
L 308.52276 115.63655 
L 309.826594 116.564011 
L 311.130427 114.245358 
L 312.434261 114.767055 
L 313.738094 116.853843 
L 315.041928 115.404684 
L 316.345761 113.723661 
L 317.649595 114.477223 
L 318.953428 114.361291 
L 320.257262 114.071459 
L 321.561095 114.303324 
L 322.864929 115.404684 
L 324.168762 114.245358 
L 325.472596 117.375539 
L 326.776429 115.984348 
L 328.080263 115.404684 
L 329.384096 115.346718 
L 330.68793 114.767055 
L 331.991763 115.404684 
L 333.295597 115.056887 
L 334.59943 115.172819 
L 335.903264 113.433829 
L 337.207097 114.940954 
L 338.510931 115.520617 
L 339.814765 116.448078 
L 341.118598 114.767055 
L 342.422432 114.419257 
L 343.726265 116.216213 
L 345.030099 115.114853 
L 346.333932 115.404684 
L 347.637766 115.230786 
L 348.941599 116.73791 
L 350.245433 114.767055 
L 351.549266 116.390112 
L 352.8531 114.129425 
L 354.156933 114.651122 
L 355.460767 114.361291 
L 356.7646 115.694516 
L 358.068434 115.114853 
L 359.372267 115.114853 
L 360.676101 114.593156 
L 361.979934 114.651122 
L 363.283768 115.404684 
L 364.587601 115.114853 
L 365.891435 114.593156 
L 367.195268 114.940954 
L 368.499102 114.709089 
L 369.802935 115.462651 
L 371.106769 116.448078 
L 372.410602 114.303324 
L 373.714436 114.303324 
L 376.322103 115.056887 
L 377.625936 116.274179 
L 378.92977 114.303324 
L 380.233604 115.462651 
L 381.537437 116.10028 
L 382.841271 114.99892 
L 384.145104 115.230786 
L 385.448938 114.767055 
L 386.752771 115.462651 
L 388.056605 114.99892 
L 390.664272 115.172819 
L 391.968105 114.419257 
L 393.271939 115.578583 
L 394.575772 114.593156 
L 395.879606 114.013493 
L 397.183439 115.346718 
L 398.487273 114.129425 
L 398.487273 114.129425 
" clip-path="url(#pcba9ac866a)" style="fill: none; stroke: #ff7f0e; stroke-width: 1.5; stroke-linecap: square"/>
   </g>
   <g id="patch_3">
    <path d="M 57.6 307.584 
L 57.6 41.472 
" style="fill: none; stroke: #000000; stroke-width: 0.8; stroke-linejoin: miter; stroke-linecap: square"/>
   </g>
   <g id="patch_4">
    <path d="M 414.72 307.584 
L 414.72 41.472 
" style="fill: none; stroke: #000000; stroke-width: 0.8; stroke-linejoin: miter; stroke-linecap: square"/>
   </g>
   <g id="patch_5">
    <path d="M 57.6 307.584 
L 414.72 307.584 
" style="fill: none; stroke: #000000; stroke-width: 0.8; stroke-linejoin: miter; stroke-linecap: square"/>
   </g>
   <g id="patch_6">
    <path d="M 57.6 41.472 
L 414.72 41.472 
" style="fill: none; stroke: #000000; stroke-width: 0.8; stroke-linejoin: miter; stroke-linecap: square"/>
   </g>
   <g id="legend_1">
    <g id="patch_7">
     <path d="M 64.6 79.3845 
L 169.99375 79.3845 
Q 171.99375 79.3845 171.99375 77.3845 
L 171.99375 48.472 
Q 171.99375 46.472 169.99375 46.472 
L 64.6 46.472 
Q 62.6 46.472 62.6 48.472 
L 62.6 77.3845 
Q 62.6 79.3845 64.6 79.3845 
z
" style="fill: #ffffff; opacity: 0.8; stroke: #cccccc; stroke-linejoin: miter"/>
    </g>
    <g id="line2d_14">
     <path d="M 66.6 54.570438 
L 76.6 54.570438 
L 86.6 54.570438 
" style="fill: none; stroke: #1f77b4; stroke-width: 1.5; stroke-linecap: square"/>
    </g>
    <g id="text_12">
     <!-- train_accuracy -->
     <g transform="translate(94.6 58.070438) scale(0.1 -0.1)">
      <defs>
       <path id="DejaVuSans-74" d="M 1172 4494 
L 1172 3500 
L 2356 3500 
L 2356 3053 
L 1172 3053 
L 1172 1153 
Q 1172 725 1289 603 
Q 1406 481 1766 481 
L 2356 481 
L 2356 0 
L 1766 0 
Q 1100 0 847 248 
Q 594 497 594 1153 
L 594 3053 
L 172 3053 
L 172 3500 
L 594 3500 
L 594 4494 
L 1172 4494 
z
" transform="scale(0.015625)"/>
       <path id="DejaVuSans-72" d="M 2631 2963 
Q 2534 3019 2420 3045 
Q 2306 3072 2169 3072 
Q 1681 3072 1420 2755 
Q 1159 2438 1159 1844 
L 1159 0 
L 581 0 
L 581 3500 
L 1159 3500 
L 1159 2956 
Q 1341 3275 1631 3429 
Q 1922 3584 2338 3584 
Q 2397 3584 2469 3576 
Q 2541 3569 2628 3553 
L 2631 2963 
z
" transform="scale(0.015625)"/>
       <path id="DejaVuSans-61" d="M 2194 1759 
Q 1497 1759 1228 1600 
Q 959 1441 959 1056 
Q 959 750 1161 570 
Q 1363 391 1709 391 
Q 2188 391 2477 730 
Q 2766 1069 2766 1631 
L 2766 1759 
L 2194 1759 
z
M 3341 1997 
L 3341 0 
L 2766 0 
L 2766 531 
Q 2569 213 2275 61 
Q 1981 -91 1556 -91 
Q 1019 -91 701 211 
Q 384 513 384 1019 
Q 384 1609 779 1909 
Q 1175 2209 1959 2209 
L 2766 2209 
L 2766 2266 
Q 2766 2663 2505 2880 
Q 2244 3097 1772 3097 
Q 1472 3097 1187 3025 
Q 903 2953 641 2809 
L 641 3341 
Q 956 3463 1253 3523 
Q 1550 3584 1831 3584 
Q 2591 3584 2966 3190 
Q 3341 2797 3341 1997 
z
" transform="scale(0.015625)"/>
       <path id="DejaVuSans-69" d="M 603 3500 
L 1178 3500 
L 1178 0 
L 603 0 
L 603 3500 
z
M 603 4863 
L 1178 4863 
L 1178 4134 
L 603 4134 
L 603 4863 
z
" transform="scale(0.015625)"/>
       <path id="DejaVuSans-6e" d="M 3513 2113 
L 3513 0 
L 2938 0 
L 2938 2094 
Q 2938 2591 2744 2837 
Q 2550 3084 2163 3084 
Q 1697 3084 1428 2787 
Q 1159 2491 1159 1978 
L 1159 0 
L 581 0 
L 581 3500 
L 1159 3500 
L 1159 2956 
Q 1366 3272 1645 3428 
Q 1925 3584 2291 3584 
Q 2894 3584 3203 3211 
Q 3513 2838 3513 2113 
z
" transform="scale(0.015625)"/>
       <path id="DejaVuSans-5f" d="M 3263 -1063 
L 3263 -1509 
L -63 -1509 
L -63 -1063 
L 3263 -1063 
z
" transform="scale(0.015625)"/>
       <path id="DejaVuSans-63" d="M 3122 3366 
L 3122 2828 
Q 2878 2963 2633 3030 
Q 2388 3097 2138 3097 
Q 1578 3097 1268 2742 
Q 959 2388 959 1747 
Q 959 1106 1268 751 
Q 1578 397 2138 397 
Q 2388 397 2633 464 
Q 2878 531 3122 666 
L 3122 134 
Q 2881 22 2623 -34 
Q 2366 -91 2075 -91 
Q 1284 -91 818 406 
Q 353 903 353 1747 
Q 353 2603 823 3093 
Q 1294 3584 2113 3584 
Q 2378 3584 2631 3529 
Q 2884 3475 3122 3366 
z
" transform="scale(0.015625)"/>
       <path id="DejaVuSans-75" d="M 544 1381 
L 544 3500 
L 1119 3500 
L 1119 1403 
Q 1119 906 1312 657 
Q 1506 409 1894 409 
Q 2359 409 2629 706 
Q 2900 1003 2900 1516 
L 2900 3500 
L 3475 3500 
L 3475 0 
L 2900 0 
L 2900 538 
Q 2691 219 2414 64 
Q 2138 -91 1772 -91 
Q 1169 -91 856 284 
Q 544 659 544 1381 
z
M 1991 3584 
L 1991 3584 
z
" transform="scale(0.015625)"/>
       <path id="DejaVuSans-79" d="M 2059 -325 
Q 1816 -950 1584 -1140 
Q 1353 -1331 966 -1331 
L 506 -1331 
L 506 -850 
L 844 -850 
Q 1081 -850 1212 -737 
Q 1344 -625 1503 -206 
L 1606 56 
L 191 3500 
L 800 3500 
L 1894 763 
L 2988 3500 
L 3597 3500 
L 2059 -325 
z
" transform="scale(0.015625)"/>
      </defs>
      <use xlink:href="#DejaVuSans-74"/>
      <use xlink:href="#DejaVuSans-72" x="39.208984"/>
      <use xlink:href="#DejaVuSans-61" x="80.322266"/>
      <use xlink:href="#DejaVuSans-69" x="141.601562"/>
      <use xlink:href="#DejaVuSans-6e" x="169.384766"/>
      <use xlink:href="#DejaVuSans-5f" x="232.763672"/>
      <use xlink:href="#DejaVuSans-61" x="282.763672"/>
      <use xlink:href="#DejaVuSans-63" x="344.042969"/>
      <use xlink:href="#DejaVuSans-63" x="399.023438"/>
      <use xlink:href="#DejaVuSans-75" x="454.003906"/>
      <use xlink:href="#DejaVuSans-72" x="517.382812"/>
      <use xlink:href="#DejaVuSans-61" x="558.496094"/>
      <use xlink:href="#DejaVuSans-63" x="619.775391"/>
      <use xlink:href="#DejaVuSans-79" x="674.755859"/>
     </g>
    </g>
    <g id="line2d_15">
     <path d="M 66.6 69.526688 
L 76.6 69.526688 
L 86.6 69.526688 
" style="fill: none; stroke: #ff7f0e; stroke-width: 1.5; stroke-linecap: square"/>
    </g>
    <g id="text_13">
     <!-- test_accuracy -->
     <g transform="translate(94.6 73.026688) scale(0.1 -0.1)">
      <defs>
       <path id="DejaVuSans-65" d="M 3597 1894 
L 3597 1613 
L 953 1613 
Q 991 1019 1311 708 
Q 1631 397 2203 397 
Q 2534 397 2845 478 
Q 3156 559 3463 722 
L 3463 178 
Q 3153 47 2828 -22 
Q 2503 -91 2169 -91 
Q 1331 -91 842 396 
Q 353 884 353 1716 
Q 353 2575 817 3079 
Q 1281 3584 2069 3584 
Q 2775 3584 3186 3129 
Q 3597 2675 3597 1894 
z
M 3022 2063 
Q 3016 2534 2758 2815 
Q 2500 3097 2075 3097 
Q 1594 3097 1305 2825 
Q 1016 2553 972 2059 
L 3022 2063 
z
" transform="scale(0.015625)"/>
       <path id="DejaVuSans-73" d="M 2834 3397 
L 2834 2853 
Q 2591 2978 2328 3040 
Q 2066 3103 1784 3103 
Q 1356 3103 1142 2972 
Q 928 2841 928 2578 
Q 928 2378 1081 2264 
Q 1234 2150 1697 2047 
L 1894 2003 
Q 2506 1872 2764 1633 
Q 3022 1394 3022 966 
Q 3022 478 2636 193 
Q 2250 -91 1575 -91 
Q 1294 -91 989 -36 
Q 684 19 347 128 
L 347 722 
Q 666 556 975 473 
Q 1284 391 1588 391 
Q 1994 391 2212 530 
Q 2431 669 2431 922 
Q 2431 1156 2273 1281 
Q 2116 1406 1581 1522 
L 1381 1569 
Q 847 1681 609 1914 
Q 372 2147 372 2553 
Q 372 3047 722 3315 
Q 1072 3584 1716 3584 
Q 2034 3584 2315 3537 
Q 2597 3491 2834 3397 
z
" transform="scale(0.015625)"/>
      </defs>
      <use xlink:href="#DejaVuSans-74"/>
      <use xlink:href="#DejaVuSans-65" x="39.208984"/>
      <use xlink:href="#DejaVuSans-73" x="100.732422"/>
      <use xlink:href="#DejaVuSans-74" x="152.832031"/>
      <use xlink:href="#DejaVuSans-5f" x="192.041016"/>
      <use xlink:href="#DejaVuSans-61" x="242.041016"/>
      <use xlink:href="#DejaVuSans-63" x="303.320312"/>
      <use xlink:href="#DejaVuSans-63" x="358.300781"/>
      <use xlink:href="#DejaVuSans-75" x="413.28125"/>
      <use xlink:href="#DejaVuSans-72" x="476.660156"/>
      <use xlink:href="#DejaVuSans-61" x="517.773438"/>
      <use xlink:href="#DejaVuSans-63" x="579.052734"/>
      <use xlink:href="#DejaVuSans-79" x="634.033203"/>
     </g>
    </g>
   </g>
  </g>
 </g>
 <defs>
  <clipPath id="pcba9ac866a">
   <rect x="57.6" y="41.472" width="357.12" height="266.112"/>
  </clipPath>
 </defs>
</svg>
