<?xml version="1.0" encoding="utf-8" standalone="no"?>
<!DOCTYPE svg PUBLIC "-//W3C//DTD SVG 1.1//EN"
  "http://www.w3.org/Graphics/SVG/1.1/DTD/svg11.dtd">
<svg xmlns:xlink="http://www.w3.org/1999/xlink" width="460.8pt" height="345.6pt" viewBox="0 0 460.8 345.6" xmlns="http://www.w3.org/2000/svg" version="1.1">
 <metadata>
  <rdf:RDF xmlns:dc="http://purl.org/dc/elements/1.1/" xmlns:cc="http://creativecommons.org/ns#" xmlns:rdf="http://www.w3.org/1999/02/22-rdf-syntax-ns#">
   <cc:Work>
    <dc:type rdf:resource="http://purl.org/dc/dcmitype/StillImage"/>
    <dc:date>2023-10-29T20:37:13.313221</dc:date>
    <dc:format>image/svg+xml</dc:format>
    <dc:creator>
     <cc:Agent>
      <dc:title>Matplotlib v3.8.0, https://matplotlib.org/</dc:title>
     </cc:Agent>
    </dc:creator>
   </cc:Work>
  </rdf:RDF>
 </metadata>
 <defs>
  <style type="text/css">*{stroke-linejoin: round; stroke-linecap: butt}</style>
 </defs>
 <g id="figure_1">
  <g id="patch_1">
   <path d="M 0 345.6 
L 460.8 345.6 
L 460.8 0 
L 0 0 
z
" style="fill: #ffffff"/>
  </g>
  <g id="axes_1">
   <g id="patch_2">
    <path d="M 57.6 307.584 
L 414.72 307.584 
L 414.72 41.472 
L 57.6 41.472 
z
" style="fill: #ffffff"/>
   </g>
   <g id="matplotlib.axis_1">
    <g id="xtick_1">
     <g id="line2d_1">
      <defs>
       <path id="m48ee1d153b" d="M 0 0 
L 0 3.5 
" style="stroke: #000000; stroke-width: 0.8"/>
      </defs>
      <g>
       <use xlink:href="#m48ee1d153b" x="73.832727" y="307.584" style="stroke: #000000; stroke-width: 0.8"/>
      </g>
     </g>
     <g id="text_1">
      <!-- 0 -->
      <g transform="translate(70.651477 322.182437) scale(0.1 -0.1)">
       <defs>
        <path id="DejaVuSans-30" d="M 2034 4250 
Q 1547 4250 1301 3770 
Q 1056 3291 1056 2328 
Q 1056 1369 1301 889 
Q 1547 409 2034 409 
Q 2525 409 2770 889 
Q 3016 1369 3016 2328 
Q 3016 3291 2770 3770 
Q 2525 4250 2034 4250 
z
M 2034 4750 
Q 2819 4750 3233 4129 
Q 3647 3509 3647 2328 
Q 3647 1150 3233 529 
Q 2819 -91 2034 -91 
Q 1250 -91 836 529 
Q 422 1150 422 2328 
Q 422 3509 836 4129 
Q 1250 4750 2034 4750 
z
" transform="scale(0.015625)"/>
       </defs>
       <use xlink:href="#DejaVuSans-30"/>
      </g>
     </g>
    </g>
    <g id="xtick_2">
     <g id="line2d_2">
      <g>
       <use xlink:href="#m48ee1d153b" x="139.024403" y="307.584" style="stroke: #000000; stroke-width: 0.8"/>
      </g>
     </g>
     <g id="text_2">
      <!-- 50 -->
      <g transform="translate(132.661903 322.182437) scale(0.1 -0.1)">
       <defs>
        <path id="DejaVuSans-35" d="M 691 4666 
L 3169 4666 
L 3169 4134 
L 1269 4134 
L 1269 2991 
Q 1406 3038 1543 3061 
Q 1681 3084 1819 3084 
Q 2600 3084 3056 2656 
Q 3513 2228 3513 1497 
Q 3513 744 3044 326 
Q 2575 -91 1722 -91 
Q 1428 -91 1123 -41 
Q 819 9 494 109 
L 494 744 
Q 775 591 1075 516 
Q 1375 441 1709 441 
Q 2250 441 2565 725 
Q 2881 1009 2881 1497 
Q 2881 1984 2565 2268 
Q 2250 2553 1709 2553 
Q 1456 2553 1204 2497 
Q 953 2441 691 2322 
L 691 4666 
z
" transform="scale(0.015625)"/>
       </defs>
       <use xlink:href="#DejaVuSans-35"/>
       <use xlink:href="#DejaVuSans-30" x="63.623047"/>
      </g>
     </g>
    </g>
    <g id="xtick_3">
     <g id="line2d_3">
      <g>
       <use xlink:href="#m48ee1d153b" x="204.216079" y="307.584" style="stroke: #000000; stroke-width: 0.8"/>
      </g>
     </g>
     <g id="text_3">
      <!-- 100 -->
      <g transform="translate(194.672329 322.182437) scale(0.1 -0.1)">
       <defs>
        <path id="DejaVuSans-31" d="M 794 531 
L 1825 531 
L 1825 4091 
L 703 3866 
L 703 4441 
L 1819 4666 
L 2450 4666 
L 2450 531 
L 3481 531 
L 3481 0 
L 794 0 
L 794 531 
z
" transform="scale(0.015625)"/>
       </defs>
       <use xlink:href="#DejaVuSans-31"/>
       <use xlink:href="#DejaVuSans-30" x="63.623047"/>
       <use xlink:href="#DejaVuSans-30" x="127.246094"/>
      </g>
     </g>
    </g>
    <g id="xtick_4">
     <g id="line2d_4">
      <g>
       <use xlink:href="#m48ee1d153b" x="269.407755" y="307.584" style="stroke: #000000; stroke-width: 0.8"/>
      </g>
     </g>
     <g id="text_4">
      <!-- 150 -->
      <g transform="translate(259.864005 322.182437) scale(0.1 -0.1)">
       <use xlink:href="#DejaVuSans-31"/>
       <use xlink:href="#DejaVuSans-35" x="63.623047"/>
       <use xlink:href="#DejaVuSans-30" x="127.246094"/>
      </g>
     </g>
    </g>
    <g id="xtick_5">
     <g id="line2d_5">
      <g>
       <use xlink:href="#m48ee1d153b" x="334.59943" y="307.584" style="stroke: #000000; stroke-width: 0.8"/>
      </g>
     </g>
     <g id="text_5">
      <!-- 200 -->
      <g transform="translate(325.05568 322.182437) scale(0.1 -0.1)">
       <defs>
        <path id="DejaVuSans-32" d="M 1228 531 
L 3431 531 
L 3431 0 
L 469 0 
L 469 531 
Q 828 903 1448 1529 
Q 2069 2156 2228 2338 
Q 2531 2678 2651 2914 
Q 2772 3150 2772 3378 
Q 2772 3750 2511 3984 
Q 2250 4219 1831 4219 
Q 1534 4219 1204 4116 
Q 875 4013 500 3803 
L 500 4441 
Q 881 4594 1212 4672 
Q 1544 4750 1819 4750 
Q 2544 4750 2975 4387 
Q 3406 4025 3406 3419 
Q 3406 3131 3298 2873 
Q 3191 2616 2906 2266 
Q 2828 2175 2409 1742 
Q 1991 1309 1228 531 
z
" transform="scale(0.015625)"/>
       </defs>
       <use xlink:href="#DejaVuSans-32"/>
       <use xlink:href="#DejaVuSans-30" x="63.623047"/>
       <use xlink:href="#DejaVuSans-30" x="127.246094"/>
      </g>
     </g>
    </g>
    <g id="xtick_6">
     <g id="line2d_6">
      <g>
       <use xlink:href="#m48ee1d153b" x="399.791106" y="307.584" style="stroke: #000000; stroke-width: 0.8"/>
      </g>
     </g>
     <g id="text_6">
      <!-- 250 -->
      <g transform="translate(390.247356 322.182437) scale(0.1 -0.1)">
       <use xlink:href="#DejaVuSans-32"/>
       <use xlink:href="#DejaVuSans-35" x="63.623047"/>
       <use xlink:href="#DejaVuSans-30" x="127.246094"/>
      </g>
     </g>
    </g>
   </g>
   <g id="matplotlib.axis_2">
    <g id="ytick_1">
     <g id="line2d_7">
      <defs>
       <path id="m4ba869b4af" d="M 0 0 
L -3.5 0 
" style="stroke: #000000; stroke-width: 0.8"/>
      </defs>
      <g>
       <use xlink:href="#m4ba869b4af" x="57.6" y="300.48786" style="stroke: #000000; stroke-width: 0.8"/>
      </g>
     </g>
     <g id="text_7">
      <!-- 0.0 -->
      <g transform="translate(34.696875 304.287079) scale(0.1 -0.1)">
       <defs>
        <path id="DejaVuSans-2e" d="M 684 794 
L 1344 794 
L 1344 0 
L 684 0 
L 684 794 
z
" transform="scale(0.015625)"/>
       </defs>
       <use xlink:href="#DejaVuSans-30"/>
       <use xlink:href="#DejaVuSans-2e" x="63.623047"/>
       <use xlink:href="#DejaVuSans-30" x="95.410156"/>
      </g>
     </g>
    </g>
    <g id="ytick_2">
     <g id="line2d_8">
      <g>
       <use xlink:href="#m4ba869b4af" x="57.6" y="262.167762" style="stroke: #000000; stroke-width: 0.8"/>
      </g>
     </g>
     <g id="text_8">
      <!-- 0.2 -->
      <g transform="translate(34.696875 265.96698) scale(0.1 -0.1)">
       <use xlink:href="#DejaVuSans-30"/>
       <use xlink:href="#DejaVuSans-2e" x="63.623047"/>
       <use xlink:href="#DejaVuSans-32" x="95.410156"/>
      </g>
     </g>
    </g>
    <g id="ytick_3">
     <g id="line2d_9">
      <g>
       <use xlink:href="#m4ba869b4af" x="57.6" y="223.847663" style="stroke: #000000; stroke-width: 0.8"/>
      </g>
     </g>
     <g id="text_9">
      <!-- 0.4 -->
      <g transform="translate(34.696875 227.646882) scale(0.1 -0.1)">
       <defs>
        <path id="DejaVuSans-34" d="M 2419 4116 
L 825 1625 
L 2419 1625 
L 2419 4116 
z
M 2253 4666 
L 3047 4666 
L 3047 1625 
L 3713 1625 
L 3713 1100 
L 3047 1100 
L 3047 0 
L 2419 0 
L 2419 1100 
L 313 1100 
L 313 1709 
L 2253 4666 
z
" transform="scale(0.015625)"/>
       </defs>
       <use xlink:href="#DejaVuSans-30"/>
       <use xlink:href="#DejaVuSans-2e" x="63.623047"/>
       <use xlink:href="#DejaVuSans-34" x="95.410156"/>
      </g>
     </g>
    </g>
    <g id="ytick_4">
     <g id="line2d_10">
      <g>
       <use xlink:href="#m4ba869b4af" x="57.6" y="185.527564" style="stroke: #000000; stroke-width: 0.8"/>
      </g>
     </g>
     <g id="text_10">
      <!-- 0.6 -->
      <g transform="translate(34.696875 189.326783) scale(0.1 -0.1)">
       <defs>
        <path id="DejaVuSans-36" d="M 2113 2584 
Q 1688 2584 1439 2293 
Q 1191 2003 1191 1497 
Q 1191 994 1439 701 
Q 1688 409 2113 409 
Q 2538 409 2786 701 
Q 3034 994 3034 1497 
Q 3034 2003 2786 2293 
Q 2538 2584 2113 2584 
z
M 3366 4563 
L 3366 3988 
Q 3128 4100 2886 4159 
Q 2644 4219 2406 4219 
Q 1781 4219 1451 3797 
Q 1122 3375 1075 2522 
Q 1259 2794 1537 2939 
Q 1816 3084 2150 3084 
Q 2853 3084 3261 2657 
Q 3669 2231 3669 1497 
Q 3669 778 3244 343 
Q 2819 -91 2113 -91 
Q 1303 -91 875 529 
Q 447 1150 447 2328 
Q 447 3434 972 4092 
Q 1497 4750 2381 4750 
Q 2619 4750 2861 4703 
Q 3103 4656 3366 4563 
z
" transform="scale(0.015625)"/>
       </defs>
       <use xlink:href="#DejaVuSans-30"/>
       <use xlink:href="#DejaVuSans-2e" x="63.623047"/>
       <use xlink:href="#DejaVuSans-36" x="95.410156"/>
      </g>
     </g>
    </g>
    <g id="ytick_5">
     <g id="line2d_11">
      <g>
       <use xlink:href="#m4ba869b4af" x="57.6" y="147.207466" style="stroke: #000000; stroke-width: 0.8"/>
      </g>
     </g>
     <g id="text_11">
      <!-- 0.8 -->
      <g transform="translate(34.696875 151.006684) scale(0.1 -0.1)">
       <defs>
        <path id="DejaVuSans-38" d="M 2034 2216 
Q 1584 2216 1326 1975 
Q 1069 1734 1069 1313 
Q 1069 891 1326 650 
Q 1584 409 2034 409 
Q 2484 409 2743 651 
Q 3003 894 3003 1313 
Q 3003 1734 2745 1975 
Q 2488 2216 2034 2216 
z
M 1403 2484 
Q 997 2584 770 2862 
Q 544 3141 544 3541 
Q 544 4100 942 4425 
Q 1341 4750 2034 4750 
Q 2731 4750 3128 4425 
Q 3525 4100 3525 3541 
Q 3525 3141 3298 2862 
Q 3072 2584 2669 2484 
Q 3125 2378 3379 2068 
Q 3634 1759 3634 1313 
Q 3634 634 3220 271 
Q 2806 -91 2034 -91 
Q 1263 -91 848 271 
Q 434 634 434 1313 
Q 434 1759 690 2068 
Q 947 2378 1403 2484 
z
M 1172 3481 
Q 1172 3119 1398 2916 
Q 1625 2713 2034 2713 
Q 2441 2713 2670 2916 
Q 2900 3119 2900 3481 
Q 2900 3844 2670 4047 
Q 2441 4250 2034 4250 
Q 1625 4250 1398 4047 
Q 1172 3844 1172 3481 
z
" transform="scale(0.015625)"/>
       </defs>
       <use xlink:href="#DejaVuSans-30"/>
       <use xlink:href="#DejaVuSans-2e" x="63.623047"/>
       <use xlink:href="#DejaVuSans-38" x="95.410156"/>
      </g>
     </g>
    </g>
    <g id="ytick_6">
     <g id="line2d_12">
      <g>
       <use xlink:href="#m4ba869b4af" x="57.6" y="108.887367" style="stroke: #000000; stroke-width: 0.8"/>
      </g>
     </g>
     <g id="text_12">
      <!-- 1.0 -->
      <g transform="translate(34.696875 112.686586) scale(0.1 -0.1)">
       <use xlink:href="#DejaVuSans-31"/>
       <use xlink:href="#DejaVuSans-2e" x="63.623047"/>
       <use xlink:href="#DejaVuSans-30" x="95.410156"/>
      </g>
     </g>
    </g>
    <g id="ytick_7">
     <g id="line2d_13">
      <g>
       <use xlink:href="#m4ba869b4af" x="57.6" y="70.567268" style="stroke: #000000; stroke-width: 0.8"/>
      </g>
     </g>
     <g id="text_13">
      <!-- 1.2 -->
      <g transform="translate(34.696875 74.366487) scale(0.1 -0.1)">
       <use xlink:href="#DejaVuSans-31"/>
       <use xlink:href="#DejaVuSans-2e" x="63.623047"/>
       <use xlink:href="#DejaVuSans-32" x="95.410156"/>
      </g>
     </g>
    </g>
   </g>
   <g id="line2d_14">
    <path d="M 73.832727 53.568 
L 75.136561 180.401022 
L 76.440394 200.592404 
L 77.744228 210.143956 
L 79.048061 215.889277 
L 80.351895 220.129332 
L 81.655728 223.391318 
L 82.959562 226.204505 
L 85.567229 230.31511 
L 86.871062 231.62177 
L 88.174896 233.427897 
L 89.478729 234.596566 
L 90.782563 236.098734 
L 92.086396 237.246089 
L 93.39023 238.238645 
L 94.694064 239.569146 
L 99.909398 243.047704 
L 101.213231 243.600729 
L 102.517065 244.706461 
L 110.340066 248.826953 
L 111.643899 249.216281 
L 112.947733 249.756191 
L 114.251566 250.690035 
L 118.163067 252.137081 
L 119.4669 252.834882 
L 122.074567 253.656672 
L 123.378401 254.357281 
L 124.682234 254.730815 
L 125.986068 255.401115 
L 127.289901 255.4639 
L 131.201402 257.412304 
L 132.505235 257.226574 
L 133.809069 258.007195 
L 137.72057 259.238454 
L 140.328237 259.921244 
L 142.935904 260.676551 
L 144.239737 261.323299 
L 145.543571 261.54948 
L 146.847404 262.114323 
L 149.455071 262.57532 
L 150.758905 262.589554 
L 152.062738 263.422849 
L 154.670405 264.231561 
L 155.974239 264.680543 
L 157.278072 264.688296 
L 158.581906 265.278217 
L 159.885739 265.600147 
L 161.189573 265.771334 
L 162.493406 266.186801 
L 165.101073 266.571582 
L 166.404907 267.221194 
L 167.70874 267.425825 
L 169.012574 267.770194 
L 170.316407 267.8601 
L 174.227908 268.988341 
L 175.531742 269.112504 
L 179.443242 270.185016 
L 180.747076 270.205915 
L 182.050909 270.598699 
L 185.96241 271.377175 
L 187.266243 271.897501 
L 188.570077 271.852186 
L 191.177744 272.602369 
L 193.785411 272.789808 
L 196.393078 273.516339 
L 197.696911 273.611432 
L 199.000745 273.831402 
L 200.304578 274.246047 
L 201.608412 274.449889 
L 202.912245 274.49082 
L 204.216079 274.713727 
L 206.823746 275.49439 
L 209.431413 275.853735 
L 210.735246 276.265785 
L 212.03908 276.507145 
L 213.342913 276.328224 
L 215.950581 277.110341 
L 217.254414 277.151984 
L 218.558248 277.534868 
L 219.862081 277.788703 
L 225.077415 278.348285 
L 226.381249 278.783371 
L 227.685082 278.961611 
L 228.988916 279.353459 
L 230.292749 279.403047 
L 231.596583 279.651589 
L 232.900416 279.623968 
L 234.20425 280.082786 
L 235.508083 280.331374 
L 236.811917 280.239412 
L 239.419584 280.915963 
L 240.723417 281.358529 
L 242.027251 281.126027 
L 243.331084 281.498315 
L 244.634918 281.47296 
L 245.938751 281.752366 
L 247.242585 281.86719 
L 248.546418 282.350603 
L 251.154085 282.214832 
L 252.457919 282.570424 
L 253.761752 282.572492 
L 255.065586 283.021625 
L 256.369419 282.982341 
L 257.673253 283.340752 
L 262.888587 284.200698 
L 264.192421 283.863775 
L 266.800088 284.64267 
L 268.103921 284.738266 
L 269.407755 285.047473 
L 270.711588 284.894144 
L 273.319255 285.235354 
L 274.623089 285.377487 
L 275.926922 285.737186 
L 277.230756 285.831741 
L 278.534589 285.796332 
L 281.142256 286.065133 
L 282.44609 286.45732 
L 283.749923 286.487079 
L 285.053757 286.335327 
L 286.35759 286.568237 
L 287.661424 286.952481 
L 290.269091 287.054741 
L 292.876758 287.537896 
L 294.180591 287.648774 
L 296.788258 288.046441 
L 299.395926 288.10042 
L 302.003593 288.382707 
L 303.307426 288.43791 
L 304.61126 288.68202 
L 305.915093 288.751873 
L 307.218927 289.036587 
L 313.738094 289.598347 
L 315.041928 289.504813 
L 316.345761 289.84678 
L 317.649595 289.788029 
L 318.953428 290.04621 
L 322.864929 290.382615 
L 326.776429 290.523681 
L 328.080263 290.94085 
L 330.68793 290.797454 
L 331.991763 291.299911 
L 333.295597 291.162459 
L 335.903264 291.570464 
L 337.207097 291.481449 
L 338.510931 291.870288 
L 339.814765 291.867236 
L 341.118598 292.030004 
L 342.422432 291.972586 
L 347.637766 292.325802 
L 351.549266 292.641735 
L 352.8531 292.617201 
L 354.156933 292.95167 
L 355.460767 293.096258 
L 356.7646 292.986711 
L 358.068434 293.078318 
L 359.372267 293.338023 
L 360.676101 293.396474 
L 361.979934 293.283581 
L 363.283768 293.56485 
L 364.587601 293.319054 
L 367.195268 293.533188 
L 368.499102 293.761084 
L 369.802935 293.81671 
L 371.106769 294.129319 
L 372.410602 293.934684 
L 375.018269 294.181794 
L 377.625936 294.24058 
L 380.233604 294.554881 
L 381.537437 294.509941 
L 398.487273 295.454103 
L 398.487273 295.454103 
" clip-path="url(#p1256a333e9)" style="fill: none; stroke: #1f77b4; stroke-width: 1.5; stroke-linecap: square"/>
   </g>
   <g id="line2d_15">
    <path d="M 73.832727 157.308857 
L 75.136561 189.119952 
L 76.440394 200.816615 
L 77.744228 206.894387 
L 79.048061 210.73881 
L 80.351895 214.065988 
L 81.655728 216.628108 
L 82.959562 218.210968 
L 84.263395 220.04405 
L 88.174896 223.885866 
L 89.478729 224.7029 
L 90.782563 225.912686 
L 92.086396 226.365981 
L 93.39023 227.618904 
L 94.694064 228.310097 
L 95.997897 227.914748 
L 97.301731 229.336301 
L 98.605564 229.804803 
L 99.909398 229.908797 
L 101.213231 230.684516 
L 103.820898 231.715334 
L 105.124732 231.785204 
L 106.428565 232.112368 
L 107.732399 231.990406 
L 109.036232 233.22306 
L 110.340066 232.851471 
L 111.643899 233.775405 
L 114.251566 233.653107 
L 116.859233 234.96216 
L 118.163067 234.756312 
L 119.4669 235.572317 
L 120.770734 234.824651 
L 122.074567 235.402551 
L 123.378401 235.627064 
L 124.682234 235.480977 
L 125.986068 236.449922 
L 127.289901 236.375071 
L 128.593735 236.507433 
L 129.897568 236.260978 
L 131.201402 236.66061 
L 132.505235 236.540655 
L 133.809069 236.924585 
L 135.112903 236.65619 
L 136.416736 237.500531 
L 137.72057 237.255308 
L 139.024403 237.456004 
L 140.328237 236.95683 
L 141.63207 237.648573 
L 142.935904 237.504972 
L 144.239737 238.126112 
L 145.543571 237.344022 
L 146.847404 237.715824 
L 148.151238 237.451738 
L 150.758905 238.09388 
L 152.062738 237.926305 
L 153.366572 238.318396 
L 154.670405 237.89643 
L 155.974239 238.511912 
L 157.278072 237.526678 
L 158.581906 238.174061 
L 159.885739 238.07461 
L 161.189573 238.129824 
L 162.493406 238.64786 
L 165.101073 238.214612 
L 166.404907 238.386493 
L 167.70874 237.927349 
L 169.012574 238.659873 
L 170.316407 238.353444 
L 171.620241 237.687282 
L 172.924074 238.390383 
L 174.227908 238.521314 
L 175.531742 238.108753 
L 176.835575 238.386108 
L 178.139409 238.118671 
L 179.443242 238.193989 
L 180.747076 237.872398 
L 182.050909 238.303031 
L 183.354743 238.576493 
L 184.658576 238.301489 
L 185.96241 238.291335 
L 187.266243 237.702464 
L 189.87391 238.187828 
L 191.177744 238.016039 
L 192.481577 238.064484 
L 193.785411 237.275633 
L 195.089244 237.282674 
L 196.393078 236.60379 
L 197.696911 237.584379 
L 199.000745 237.531672 
L 200.304578 236.928679 
L 201.608412 237.442558 
L 202.912245 237.488744 
L 204.216079 236.325872 
L 205.519912 237.656748 
L 206.823746 235.579816 
L 208.127579 236.945068 
L 210.735246 237.229921 
L 212.03908 236.652429 
L 214.646747 237.041468 
L 217.254414 237.081797 
L 218.558248 236.721084 
L 219.862081 235.958303 
L 221.165915 236.007047 
L 222.469748 236.412065 
L 223.773582 235.888256 
L 225.077415 235.992356 
L 226.381249 235.726347 
L 227.685082 236.018283 
L 228.988916 235.174466 
L 230.292749 235.278189 
L 231.596583 234.899827 
L 232.900416 235.176365 
L 234.20425 235.051816 
L 235.508083 235.323387 
L 236.811917 234.4035 
L 238.11575 235.587167 
L 240.723417 234.625554 
L 243.331084 234.537828 
L 244.634918 234.211631 
L 245.938751 233.460541 
L 247.242585 234.124076 
L 248.546418 234.384354 
L 249.850252 233.932185 
L 251.154085 232.250697 
L 252.457919 233.285499 
L 253.761752 232.565915 
L 255.065586 232.476718 
L 256.369419 233.084573 
L 257.673253 232.211421 
L 258.977087 232.894863 
L 261.584754 232.412853 
L 262.888587 231.613259 
L 264.192421 231.638551 
L 265.496254 231.524466 
L 266.800088 231.159906 
L 269.407755 231.309264 
L 270.711588 231.149557 
L 272.015422 230.844395 
L 273.319255 230.389355 
L 274.623089 230.287863 
L 275.926922 230.561646 
L 277.230756 230.378232 
L 278.534589 229.398451 
L 279.838423 229.824175 
L 281.142256 230.04961 
L 283.749923 229.722585 
L 285.053757 228.985463 
L 286.35759 229.144117 
L 287.661424 228.763044 
L 288.965257 229.153746 
L 290.269091 227.997185 
L 291.572924 228.826571 
L 292.876758 227.961951 
L 294.180591 228.774402 
L 295.484425 227.685235 
L 296.788258 227.82835 
L 298.092092 227.021361 
L 299.395926 228.045284 
L 302.003593 227.195281 
L 303.307426 226.482428 
L 304.61126 226.980881 
L 305.915093 226.580856 
L 307.218927 226.556863 
L 308.52276 225.034809 
L 309.826594 225.915042 
L 311.130427 225.868324 
L 312.434261 224.942337 
L 313.738094 224.828345 
L 315.041928 225.202082 
L 316.345761 224.926504 
L 317.649595 224.342397 
L 318.953428 223.346419 
L 320.257262 223.550389 
L 321.561095 223.951108 
L 322.864929 223.102225 
L 324.168762 223.699448 
L 325.472596 223.507531 
L 326.776429 222.965318 
L 328.080263 223.28903 
L 329.384096 222.685324 
L 330.68793 222.780231 
L 331.991763 223.060241 
L 333.295597 222.41555 
L 334.59943 221.924634 
L 335.903264 221.730944 
L 337.207097 221.930091 
L 338.510931 221.366792 
L 339.814765 220.201183 
L 341.118598 221.521788 
L 343.726265 219.918966 
L 345.030099 220.052379 
L 346.333932 219.949329 
L 347.637766 219.565171 
L 348.941599 219.362641 
L 350.245433 219.287681 
L 351.549266 217.641246 
L 352.8531 217.505205 
L 354.156933 218.789475 
L 355.460767 217.80541 
L 356.7646 218.211213 
L 359.372267 217.678936 
L 360.676101 217.65544 
L 361.979934 216.242076 
L 364.587601 215.240728 
L 365.891435 216.048296 
L 367.195268 215.747138 
L 368.499102 214.828792 
L 369.802935 215.613864 
L 371.106769 214.777181 
L 372.410602 215.421095 
L 373.714436 214.790612 
L 375.018269 214.859884 
L 376.322103 214.061044 
L 377.625936 213.670763 
L 378.92977 214.14145 
L 381.537437 212.844401 
L 382.841271 213.230797 
L 384.145104 212.719883 
L 385.448938 212.603067 
L 386.752771 212.694218 
L 388.056605 211.357665 
L 389.360438 211.627493 
L 390.664272 211.501647 
L 391.968105 211.935904 
L 393.271939 211.212996 
L 394.575772 209.861472 
L 395.879606 209.97344 
L 397.183439 210.301915 
L 398.487273 209.095337 
L 398.487273 209.095337 
" clip-path="url(#p1256a333e9)" style="fill: none; stroke: #ff7f0e; stroke-width: 1.5; stroke-linecap: square"/>
   </g>
   <g id="patch_3">
    <path d="M 57.6 307.584 
L 57.6 41.472 
" style="fill: none; stroke: #000000; stroke-width: 0.8; stroke-linejoin: miter; stroke-linecap: square"/>
   </g>
   <g id="patch_4">
    <path d="M 414.72 307.584 
L 414.72 41.472 
" style="fill: none; stroke: #000000; stroke-width: 0.8; stroke-linejoin: miter; stroke-linecap: square"/>
   </g>
   <g id="patch_5">
    <path d="M 57.6 307.584 
L 414.72 307.584 
" style="fill: none; stroke: #000000; stroke-width: 0.8; stroke-linejoin: miter; stroke-linecap: square"/>
   </g>
   <g id="patch_6">
    <path d="M 57.6 41.472 
L 414.72 41.472 
" style="fill: none; stroke: #000000; stroke-width: 0.8; stroke-linejoin: miter; stroke-linecap: square"/>
   </g>
   <g id="legend_1">
    <g id="patch_7">
     <path d="M 316.766875 79.3845 
L 407.72 79.3845 
Q 409.72 79.3845 409.72 77.3845 
L 409.72 48.472 
Q 409.72 46.472 407.72 46.472 
L 316.766875 46.472 
Q 314.766875 46.472 314.766875 48.472 
L 314.766875 77.3845 
Q 314.766875 79.3845 316.766875 79.3845 
z
" style="fill: #ffffff; opacity: 0.8; stroke: #cccccc; stroke-linejoin: miter"/>
    </g>
    <g id="line2d_16">
     <path d="M 318.766875 54.570438 
L 328.766875 54.570438 
L 338.766875 54.570438 
" style="fill: none; stroke: #1f77b4; stroke-width: 1.5; stroke-linecap: square"/>
    </g>
    <g id="text_14">
     <!-- train_losses -->
     <g transform="translate(346.766875 58.070438) scale(0.1 -0.1)">
      <defs>
       <path id="DejaVuSans-74" d="M 1172 4494 
L 1172 3500 
L 2356 3500 
L 2356 3053 
L 1172 3053 
L 1172 1153 
Q 1172 725 1289 603 
Q 1406 481 1766 481 
L 2356 481 
L 2356 0 
L 1766 0 
Q 1100 0 847 248 
Q 594 497 594 1153 
L 594 3053 
L 172 3053 
L 172 3500 
L 594 3500 
L 594 4494 
L 1172 4494 
z
" transform="scale(0.015625)"/>
       <path id="DejaVuSans-72" d="M 2631 2963 
Q 2534 3019 2420 3045 
Q 2306 3072 2169 3072 
Q 1681 3072 1420 2755 
Q 1159 2438 1159 1844 
L 1159 0 
L 581 0 
L 581 3500 
L 1159 3500 
L 1159 2956 
Q 1341 3275 1631 3429 
Q 1922 3584 2338 3584 
Q 2397 3584 2469 3576 
Q 2541 3569 2628 3553 
L 2631 2963 
z
" transform="scale(0.015625)"/>
       <path id="DejaVuSans-61" d="M 2194 1759 
Q 1497 1759 1228 1600 
Q 959 1441 959 1056 
Q 959 750 1161 570 
Q 1363 391 1709 391 
Q 2188 391 2477 730 
Q 2766 1069 2766 1631 
L 2766 1759 
L 2194 1759 
z
M 3341 1997 
L 3341 0 
L 2766 0 
L 2766 531 
Q 2569 213 2275 61 
Q 1981 -91 1556 -91 
Q 1019 -91 701 211 
Q 384 513 384 1019 
Q 384 1609 779 1909 
Q 1175 2209 1959 2209 
L 2766 2209 
L 2766 2266 
Q 2766 2663 2505 2880 
Q 2244 3097 1772 3097 
Q 1472 3097 1187 3025 
Q 903 2953 641 2809 
L 641 3341 
Q 956 3463 1253 3523 
Q 1550 3584 1831 3584 
Q 2591 3584 2966 3190 
Q 3341 2797 3341 1997 
z
" transform="scale(0.015625)"/>
       <path id="DejaVuSans-69" d="M 603 3500 
L 1178 3500 
L 1178 0 
L 603 0 
L 603 3500 
z
M 603 4863 
L 1178 4863 
L 1178 4134 
L 603 4134 
L 603 4863 
z
" transform="scale(0.015625)"/>
       <path id="DejaVuSans-6e" d="M 3513 2113 
L 3513 0 
L 2938 0 
L 2938 2094 
Q 2938 2591 2744 2837 
Q 2550 3084 2163 3084 
Q 1697 3084 1428 2787 
Q 1159 2491 1159 1978 
L 1159 0 
L 581 0 
L 581 3500 
L 1159 3500 
L 1159 2956 
Q 1366 3272 1645 3428 
Q 1925 3584 2291 3584 
Q 2894 3584 3203 3211 
Q 3513 2838 3513 2113 
z
" transform="scale(0.015625)"/>
       <path id="DejaVuSans-5f" d="M 3263 -1063 
L 3263 -1509 
L -63 -1509 
L -63 -1063 
L 3263 -1063 
z
" transform="scale(0.015625)"/>
       <path id="DejaVuSans-6c" d="M 603 4863 
L 1178 4863 
L 1178 0 
L 603 0 
L 603 4863 
z
" transform="scale(0.015625)"/>
       <path id="DejaVuSans-6f" d="M 1959 3097 
Q 1497 3097 1228 2736 
Q 959 2375 959 1747 
Q 959 1119 1226 758 
Q 1494 397 1959 397 
Q 2419 397 2687 759 
Q 2956 1122 2956 1747 
Q 2956 2369 2687 2733 
Q 2419 3097 1959 3097 
z
M 1959 3584 
Q 2709 3584 3137 3096 
Q 3566 2609 3566 1747 
Q 3566 888 3137 398 
Q 2709 -91 1959 -91 
Q 1206 -91 779 398 
Q 353 888 353 1747 
Q 353 2609 779 3096 
Q 1206 3584 1959 3584 
z
" transform="scale(0.015625)"/>
       <path id="DejaVuSans-73" d="M 2834 3397 
L 2834 2853 
Q 2591 2978 2328 3040 
Q 2066 3103 1784 3103 
Q 1356 3103 1142 2972 
Q 928 2841 928 2578 
Q 928 2378 1081 2264 
Q 1234 2150 1697 2047 
L 1894 2003 
Q 2506 1872 2764 1633 
Q 3022 1394 3022 966 
Q 3022 478 2636 193 
Q 2250 -91 1575 -91 
Q 1294 -91 989 -36 
Q 684 19 347 128 
L 347 722 
Q 666 556 975 473 
Q 1284 391 1588 391 
Q 1994 391 2212 530 
Q 2431 669 2431 922 
Q 2431 1156 2273 1281 
Q 2116 1406 1581 1522 
L 1381 1569 
Q 847 1681 609 1914 
Q 372 2147 372 2553 
Q 372 3047 722 3315 
Q 1072 3584 1716 3584 
Q 2034 3584 2315 3537 
Q 2597 3491 2834 3397 
z
" transform="scale(0.015625)"/>
       <path id="DejaVuSans-65" d="M 3597 1894 
L 3597 1613 
L 953 1613 
Q 991 1019 1311 708 
Q 1631 397 2203 397 
Q 2534 397 2845 478 
Q 3156 559 3463 722 
L 3463 178 
Q 3153 47 2828 -22 
Q 2503 -91 2169 -91 
Q 1331 -91 842 396 
Q 353 884 353 1716 
Q 353 2575 817 3079 
Q 1281 3584 2069 3584 
Q 2775 3584 3186 3129 
Q 3597 2675 3597 1894 
z
M 3022 2063 
Q 3016 2534 2758 2815 
Q 2500 3097 2075 3097 
Q 1594 3097 1305 2825 
Q 1016 2553 972 2059 
L 3022 2063 
z
" transform="scale(0.015625)"/>
      </defs>
      <use xlink:href="#DejaVuSans-74"/>
      <use xlink:href="#DejaVuSans-72" x="39.208984"/>
      <use xlink:href="#DejaVuSans-61" x="80.322266"/>
      <use xlink:href="#DejaVuSans-69" x="141.601562"/>
      <use xlink:href="#DejaVuSans-6e" x="169.384766"/>
      <use xlink:href="#DejaVuSans-5f" x="232.763672"/>
      <use xlink:href="#DejaVuSans-6c" x="282.763672"/>
      <use xlink:href="#DejaVuSans-6f" x="310.546875"/>
      <use xlink:href="#DejaVuSans-73" x="371.728516"/>
      <use xlink:href="#DejaVuSans-73" x="423.828125"/>
      <use xlink:href="#DejaVuSans-65" x="475.927734"/>
      <use xlink:href="#DejaVuSans-73" x="537.451172"/>
     </g>
    </g>
    <g id="line2d_17">
     <path d="M 318.766875 69.526688 
L 328.766875 69.526688 
L 338.766875 69.526688 
" style="fill: none; stroke: #ff7f0e; stroke-width: 1.5; stroke-linecap: square"/>
    </g>
    <g id="text_15">
     <!-- test_losses -->
     <g transform="translate(346.766875 73.026688) scale(0.1 -0.1)">
      <use xlink:href="#DejaVuSans-74"/>
      <use xlink:href="#DejaVuSans-65" x="39.208984"/>
      <use xlink:href="#DejaVuSans-73" x="100.732422"/>
      <use xlink:href="#DejaVuSans-74" x="152.832031"/>
      <use xlink:href="#DejaVuSans-5f" x="192.041016"/>
      <use xlink:href="#DejaVuSans-6c" x="242.041016"/>
      <use xlink:href="#DejaVuSans-6f" x="269.824219"/>
      <use xlink:href="#DejaVuSans-73" x="331.005859"/>
      <use xlink:href="#DejaVuSans-73" x="383.105469"/>
      <use xlink:href="#DejaVuSans-65" x="435.205078"/>
      <use xlink:href="#DejaVuSans-73" x="496.728516"/>
     </g>
    </g>
   </g>
  </g>
 </g>
 <defs>
  <clipPath id="p1256a333e9">
   <rect x="57.6" y="41.472" width="357.12" height="266.112"/>
  </clipPath>
 </defs>
</svg>
